G04 #@! TF.GenerationSoftware,KiCad,Pcbnew,(5.1.9)-1*
G04 #@! TF.CreationDate,2021-02-07T14:36:27+03:00*
G04 #@! TF.ProjectId,017_VIP_Elsiel,3031375f-5649-4505-9f45-6c7369656c2e,rev?*
G04 #@! TF.SameCoordinates,Original*
G04 #@! TF.FileFunction,Legend,Top*
G04 #@! TF.FilePolarity,Positive*
%FSLAX46Y46*%
G04 Gerber Fmt 4.6, Leading zero omitted, Abs format (unit mm)*
G04 Created by KiCad (PCBNEW (5.1.9)-1) date 2021-02-07 14:36:27*
%MOMM*%
%LPD*%
G01*
G04 APERTURE LIST*
%ADD10C,0.150000*%
%ADD11C,0.120000*%
G04 APERTURE END LIST*
D10*
X151193713Y-125115580D02*
X151193713Y-124115580D01*
X151431809Y-124115580D01*
X151574666Y-124163200D01*
X151669904Y-124258438D01*
X151717523Y-124353676D01*
X151765142Y-124544152D01*
X151765142Y-124687009D01*
X151717523Y-124877485D01*
X151669904Y-124972723D01*
X151574666Y-125067961D01*
X151431809Y-125115580D01*
X151193713Y-125115580D01*
X152193713Y-125020342D02*
X152241332Y-125067961D01*
X152193713Y-125115580D01*
X152146094Y-125067961D01*
X152193713Y-125020342D01*
X152193713Y-125115580D01*
X152527047Y-124115580D02*
X153098475Y-124115580D01*
X152812761Y-125115580D02*
X152812761Y-124115580D01*
X153193713Y-125210819D02*
X153955618Y-125210819D01*
X154717523Y-125115580D02*
X154146094Y-125115580D01*
X154431809Y-125115580D02*
X154431809Y-124115580D01*
X154336570Y-124258438D01*
X154241332Y-124353676D01*
X154146094Y-124401295D01*
X151193713Y-127553980D02*
X151193713Y-126553980D01*
X151431809Y-126553980D01*
X151574666Y-126601600D01*
X151669904Y-126696838D01*
X151717523Y-126792076D01*
X151765142Y-126982552D01*
X151765142Y-127125409D01*
X151717523Y-127315885D01*
X151669904Y-127411123D01*
X151574666Y-127506361D01*
X151431809Y-127553980D01*
X151193713Y-127553980D01*
X152193713Y-127458742D02*
X152241332Y-127506361D01*
X152193713Y-127553980D01*
X152146094Y-127506361D01*
X152193713Y-127458742D01*
X152193713Y-127553980D01*
X152527047Y-126553980D02*
X153098475Y-126553980D01*
X152812761Y-127553980D02*
X152812761Y-126553980D01*
X153193713Y-127649219D02*
X153955618Y-127649219D01*
X154146094Y-126649219D02*
X154193713Y-126601600D01*
X154288951Y-126553980D01*
X154527047Y-126553980D01*
X154622285Y-126601600D01*
X154669904Y-126649219D01*
X154717523Y-126744457D01*
X154717523Y-126839695D01*
X154669904Y-126982552D01*
X154098475Y-127553980D01*
X154717523Y-127553980D01*
X151146095Y-129763828D02*
X151908000Y-129763828D01*
X152908000Y-130144780D02*
X152336571Y-130144780D01*
X152622285Y-130144780D02*
X152622285Y-129144780D01*
X152527047Y-129287638D01*
X152431809Y-129382876D01*
X152336571Y-129430495D01*
X153812761Y-129144780D02*
X153336571Y-129144780D01*
X153288952Y-129620971D01*
X153336571Y-129573352D01*
X153431809Y-129525733D01*
X153669904Y-129525733D01*
X153765142Y-129573352D01*
X153812761Y-129620971D01*
X153860380Y-129716209D01*
X153860380Y-129954304D01*
X153812761Y-130049542D01*
X153765142Y-130097161D01*
X153669904Y-130144780D01*
X153431809Y-130144780D01*
X153336571Y-130097161D01*
X153288952Y-130049542D01*
X154146095Y-129144780D02*
X154479428Y-130144780D01*
X154812761Y-129144780D01*
X151146095Y-132354628D02*
X151908000Y-132354628D01*
X151527047Y-132735580D02*
X151527047Y-131973676D01*
X152908000Y-132735580D02*
X152336571Y-132735580D01*
X152622285Y-132735580D02*
X152622285Y-131735580D01*
X152527047Y-131878438D01*
X152431809Y-131973676D01*
X152336571Y-132021295D01*
X153812761Y-131735580D02*
X153336571Y-131735580D01*
X153288952Y-132211771D01*
X153336571Y-132164152D01*
X153431809Y-132116533D01*
X153669904Y-132116533D01*
X153765142Y-132164152D01*
X153812761Y-132211771D01*
X153860380Y-132307009D01*
X153860380Y-132545104D01*
X153812761Y-132640342D01*
X153765142Y-132687961D01*
X153669904Y-132735580D01*
X153431809Y-132735580D01*
X153336571Y-132687961D01*
X153288952Y-132640342D01*
X154146095Y-131735580D02*
X154479428Y-132735580D01*
X154812761Y-131735580D01*
X152098475Y-134691428D02*
X152860380Y-134691428D01*
X152479428Y-135072380D02*
X152479428Y-134310476D01*
X153812761Y-134072380D02*
X153336570Y-134072380D01*
X153288951Y-134548571D01*
X153336570Y-134500952D01*
X153431809Y-134453333D01*
X153669904Y-134453333D01*
X153765142Y-134500952D01*
X153812761Y-134548571D01*
X153860380Y-134643809D01*
X153860380Y-134881904D01*
X153812761Y-134977142D01*
X153765142Y-135024761D01*
X153669904Y-135072380D01*
X153431809Y-135072380D01*
X153336570Y-135024761D01*
X153288951Y-134977142D01*
X154146094Y-134072380D02*
X154479428Y-135072380D01*
X154812761Y-134072380D01*
X152622285Y-136761600D02*
X152527047Y-136713980D01*
X152384190Y-136713980D01*
X152241332Y-136761600D01*
X152146094Y-136856838D01*
X152098475Y-136952076D01*
X152050856Y-137142552D01*
X152050856Y-137285409D01*
X152098475Y-137475885D01*
X152146094Y-137571123D01*
X152241332Y-137666361D01*
X152384190Y-137713980D01*
X152479428Y-137713980D01*
X152622285Y-137666361D01*
X152669904Y-137618742D01*
X152669904Y-137285409D01*
X152479428Y-137285409D01*
X153098475Y-137713980D02*
X153098475Y-136713980D01*
X153669904Y-137713980D01*
X153669904Y-136713980D01*
X154146094Y-137713980D02*
X154146094Y-136713980D01*
X154384190Y-136713980D01*
X154527047Y-136761600D01*
X154622285Y-136856838D01*
X154669904Y-136952076D01*
X154717523Y-137142552D01*
X154717523Y-137285409D01*
X154669904Y-137475885D01*
X154622285Y-137571123D01*
X154527047Y-137666361D01*
X154384190Y-137713980D01*
X154146094Y-137713980D01*
X163576095Y-136761600D02*
X163480857Y-136713980D01*
X163338000Y-136713980D01*
X163195142Y-136761600D01*
X163099904Y-136856838D01*
X163052285Y-136952076D01*
X163004666Y-137142552D01*
X163004666Y-137285409D01*
X163052285Y-137475885D01*
X163099904Y-137571123D01*
X163195142Y-137666361D01*
X163338000Y-137713980D01*
X163433238Y-137713980D01*
X163576095Y-137666361D01*
X163623714Y-137618742D01*
X163623714Y-137285409D01*
X163433238Y-137285409D01*
X164052285Y-137713980D02*
X164052285Y-136713980D01*
X164623714Y-137713980D01*
X164623714Y-136713980D01*
X165099904Y-137713980D02*
X165099904Y-136713980D01*
X165338000Y-136713980D01*
X165480857Y-136761600D01*
X165576095Y-136856838D01*
X165623714Y-136952076D01*
X165671333Y-137142552D01*
X165671333Y-137285409D01*
X165623714Y-137475885D01*
X165576095Y-137571123D01*
X165480857Y-137666361D01*
X165338000Y-137713980D01*
X165099904Y-137713980D01*
X163052285Y-134843828D02*
X163814190Y-134843828D01*
X163433238Y-135224780D02*
X163433238Y-134462876D01*
X164766571Y-134224780D02*
X164290380Y-134224780D01*
X164242761Y-134700971D01*
X164290380Y-134653352D01*
X164385619Y-134605733D01*
X164623714Y-134605733D01*
X164718952Y-134653352D01*
X164766571Y-134700971D01*
X164814190Y-134796209D01*
X164814190Y-135034304D01*
X164766571Y-135129542D01*
X164718952Y-135177161D01*
X164623714Y-135224780D01*
X164385619Y-135224780D01*
X164290380Y-135177161D01*
X164242761Y-135129542D01*
X165099904Y-134224780D02*
X165433238Y-135224780D01*
X165766571Y-134224780D01*
X162957048Y-131684780D02*
X163623714Y-131684780D01*
X162957048Y-132684780D01*
X163623714Y-132684780D01*
X163766571Y-132780019D02*
X164528476Y-132780019D01*
X164623714Y-131684780D02*
X165195143Y-131684780D01*
X164909429Y-132684780D02*
X164909429Y-131684780D01*
X165290381Y-132780019D02*
X166052286Y-132780019D01*
X166242762Y-131780019D02*
X166290381Y-131732400D01*
X166385619Y-131684780D01*
X166623714Y-131684780D01*
X166718952Y-131732400D01*
X166766571Y-131780019D01*
X166814190Y-131875257D01*
X166814190Y-131970495D01*
X166766571Y-132113352D01*
X166195143Y-132684780D01*
X166814190Y-132684780D01*
X162957048Y-129093980D02*
X163623714Y-129093980D01*
X162957048Y-130093980D01*
X163623714Y-130093980D01*
X163766571Y-130189219D02*
X164528476Y-130189219D01*
X164623714Y-129093980D02*
X165195143Y-129093980D01*
X164909429Y-130093980D02*
X164909429Y-129093980D01*
X165290381Y-130189219D02*
X166052286Y-130189219D01*
X166814190Y-130093980D02*
X166242762Y-130093980D01*
X166528476Y-130093980D02*
X166528476Y-129093980D01*
X166433238Y-129236838D01*
X166338000Y-129332076D01*
X166242762Y-129379695D01*
X163052285Y-127604780D02*
X163052285Y-126604780D01*
X163290380Y-126604780D01*
X163433238Y-126652400D01*
X163528476Y-126747638D01*
X163576095Y-126842876D01*
X163623714Y-127033352D01*
X163623714Y-127176209D01*
X163576095Y-127366685D01*
X163528476Y-127461923D01*
X163433238Y-127557161D01*
X163290380Y-127604780D01*
X163052285Y-127604780D01*
X164052285Y-127509542D02*
X164099904Y-127557161D01*
X164052285Y-127604780D01*
X164004666Y-127557161D01*
X164052285Y-127509542D01*
X164052285Y-127604780D01*
X164528476Y-127604780D02*
X164528476Y-126604780D01*
X165099904Y-127604780D01*
X165099904Y-126604780D01*
X165337999Y-127700019D02*
X166099904Y-127700019D01*
X166290380Y-126700019D02*
X166337999Y-126652400D01*
X166433238Y-126604780D01*
X166671333Y-126604780D01*
X166766571Y-126652400D01*
X166814190Y-126700019D01*
X166861809Y-126795257D01*
X166861809Y-126890495D01*
X166814190Y-127033352D01*
X166242761Y-127604780D01*
X166861809Y-127604780D01*
X163052285Y-125013980D02*
X163052285Y-124013980D01*
X163290380Y-124013980D01*
X163433238Y-124061600D01*
X163528476Y-124156838D01*
X163576095Y-124252076D01*
X163623714Y-124442552D01*
X163623714Y-124585409D01*
X163576095Y-124775885D01*
X163528476Y-124871123D01*
X163433238Y-124966361D01*
X163290380Y-125013980D01*
X163052285Y-125013980D01*
X164052285Y-124918742D02*
X164099904Y-124966361D01*
X164052285Y-125013980D01*
X164004666Y-124966361D01*
X164052285Y-124918742D01*
X164052285Y-125013980D01*
X164528476Y-125013980D02*
X164528476Y-124013980D01*
X165099904Y-125013980D01*
X165099904Y-124013980D01*
X165337999Y-125109219D02*
X166099904Y-125109219D01*
X166861809Y-125013980D02*
X166290380Y-125013980D01*
X166576095Y-125013980D02*
X166576095Y-124013980D01*
X166480857Y-124156838D01*
X166385618Y-124252076D01*
X166290380Y-124299695D01*
X151193713Y-122473980D02*
X151193713Y-121473980D01*
X151431809Y-121473980D01*
X151574666Y-121521600D01*
X151669904Y-121616838D01*
X151717523Y-121712076D01*
X151765142Y-121902552D01*
X151765142Y-122045409D01*
X151717523Y-122235885D01*
X151669904Y-122331123D01*
X151574666Y-122426361D01*
X151431809Y-122473980D01*
X151193713Y-122473980D01*
X152193713Y-122378742D02*
X152241332Y-122426361D01*
X152193713Y-122473980D01*
X152146094Y-122426361D01*
X152193713Y-122378742D01*
X152193713Y-122473980D01*
X152527047Y-121473980D02*
X153098475Y-121473980D01*
X152812761Y-122473980D02*
X152812761Y-121473980D01*
X153193713Y-122569219D02*
X153955618Y-122569219D01*
X154098475Y-121473980D02*
X154717523Y-121473980D01*
X154384189Y-121854933D01*
X154527047Y-121854933D01*
X154622285Y-121902552D01*
X154669904Y-121950171D01*
X154717523Y-122045409D01*
X154717523Y-122283504D01*
X154669904Y-122378742D01*
X154622285Y-122426361D01*
X154527047Y-122473980D01*
X154241332Y-122473980D01*
X154146094Y-122426361D01*
X154098475Y-122378742D01*
X148527047Y-119114914D02*
X148527047Y-119781580D01*
X148527047Y-119210152D02*
X148574666Y-119162533D01*
X148669904Y-119114914D01*
X148812761Y-119114914D01*
X148907999Y-119162533D01*
X148955618Y-119257771D01*
X148955618Y-119781580D01*
X149574666Y-119781580D02*
X149479428Y-119733961D01*
X149431809Y-119686342D01*
X149384190Y-119591104D01*
X149384190Y-119305390D01*
X149431809Y-119210152D01*
X149479428Y-119162533D01*
X149574666Y-119114914D01*
X149717523Y-119114914D01*
X149812761Y-119162533D01*
X149860380Y-119210152D01*
X149907999Y-119305390D01*
X149907999Y-119591104D01*
X149860380Y-119686342D01*
X149812761Y-119733961D01*
X149717523Y-119781580D01*
X149574666Y-119781580D01*
X150193714Y-119114914D02*
X150574666Y-119114914D01*
X150336571Y-118781580D02*
X150336571Y-119638723D01*
X150384190Y-119733961D01*
X150479428Y-119781580D01*
X150574666Y-119781580D01*
X152098476Y-119114914D02*
X152098476Y-119781580D01*
X151669904Y-119114914D02*
X151669904Y-119638723D01*
X151717523Y-119733961D01*
X151812761Y-119781580D01*
X151955618Y-119781580D01*
X152050856Y-119733961D01*
X152098476Y-119686342D01*
X152527047Y-119733961D02*
X152622285Y-119781580D01*
X152812761Y-119781580D01*
X152907999Y-119733961D01*
X152955618Y-119638723D01*
X152955618Y-119591104D01*
X152907999Y-119495866D01*
X152812761Y-119448247D01*
X152669904Y-119448247D01*
X152574666Y-119400628D01*
X152527047Y-119305390D01*
X152527047Y-119257771D01*
X152574666Y-119162533D01*
X152669904Y-119114914D01*
X152812761Y-119114914D01*
X152907999Y-119162533D01*
X153765142Y-119733961D02*
X153669904Y-119781580D01*
X153479428Y-119781580D01*
X153384190Y-119733961D01*
X153336571Y-119638723D01*
X153336571Y-119257771D01*
X153384190Y-119162533D01*
X153479428Y-119114914D01*
X153669904Y-119114914D01*
X153765142Y-119162533D01*
X153812761Y-119257771D01*
X153812761Y-119353009D01*
X153336571Y-119448247D01*
X154669904Y-119781580D02*
X154669904Y-118781580D01*
X154669904Y-119733961D02*
X154574666Y-119781580D01*
X154384190Y-119781580D01*
X154288952Y-119733961D01*
X154241333Y-119686342D01*
X154193714Y-119591104D01*
X154193714Y-119305390D01*
X154241333Y-119210152D01*
X154288952Y-119162533D01*
X154384190Y-119114914D01*
X154574666Y-119114914D01*
X154669904Y-119162533D01*
X163052286Y-121654914D02*
X163052286Y-122321580D01*
X163052286Y-121750152D02*
X163099905Y-121702533D01*
X163195143Y-121654914D01*
X163338000Y-121654914D01*
X163433238Y-121702533D01*
X163480857Y-121797771D01*
X163480857Y-122321580D01*
X164099905Y-122321580D02*
X164004667Y-122273961D01*
X163957048Y-122226342D01*
X163909429Y-122131104D01*
X163909429Y-121845390D01*
X163957048Y-121750152D01*
X164004667Y-121702533D01*
X164099905Y-121654914D01*
X164242762Y-121654914D01*
X164338000Y-121702533D01*
X164385619Y-121750152D01*
X164433238Y-121845390D01*
X164433238Y-122131104D01*
X164385619Y-122226342D01*
X164338000Y-122273961D01*
X164242762Y-122321580D01*
X164099905Y-122321580D01*
X164718953Y-121654914D02*
X165099905Y-121654914D01*
X164861810Y-121321580D02*
X164861810Y-122178723D01*
X164909429Y-122273961D01*
X165004667Y-122321580D01*
X165099905Y-122321580D01*
X166623715Y-121654914D02*
X166623715Y-122321580D01*
X166195143Y-121654914D02*
X166195143Y-122178723D01*
X166242762Y-122273961D01*
X166338000Y-122321580D01*
X166480857Y-122321580D01*
X166576095Y-122273961D01*
X166623715Y-122226342D01*
X167052286Y-122273961D02*
X167147524Y-122321580D01*
X167338000Y-122321580D01*
X167433238Y-122273961D01*
X167480857Y-122178723D01*
X167480857Y-122131104D01*
X167433238Y-122035866D01*
X167338000Y-121988247D01*
X167195143Y-121988247D01*
X167099905Y-121940628D01*
X167052286Y-121845390D01*
X167052286Y-121797771D01*
X167099905Y-121702533D01*
X167195143Y-121654914D01*
X167338000Y-121654914D01*
X167433238Y-121702533D01*
X168290381Y-122273961D02*
X168195143Y-122321580D01*
X168004667Y-122321580D01*
X167909429Y-122273961D01*
X167861810Y-122178723D01*
X167861810Y-121797771D01*
X167909429Y-121702533D01*
X168004667Y-121654914D01*
X168195143Y-121654914D01*
X168290381Y-121702533D01*
X168338000Y-121797771D01*
X168338000Y-121893009D01*
X167861810Y-121988247D01*
X169195143Y-122321580D02*
X169195143Y-121321580D01*
X169195143Y-122273961D02*
X169099905Y-122321580D01*
X168909429Y-122321580D01*
X168814191Y-122273961D01*
X168766572Y-122226342D01*
X168718953Y-122131104D01*
X168718953Y-121845390D01*
X168766572Y-121750152D01*
X168814191Y-121702533D01*
X168909429Y-121654914D01*
X169099905Y-121654914D01*
X169195143Y-121702533D01*
X163052286Y-119165714D02*
X163052286Y-119832380D01*
X163052286Y-119260952D02*
X163099905Y-119213333D01*
X163195143Y-119165714D01*
X163338000Y-119165714D01*
X163433238Y-119213333D01*
X163480857Y-119308571D01*
X163480857Y-119832380D01*
X164099905Y-119832380D02*
X164004667Y-119784761D01*
X163957048Y-119737142D01*
X163909429Y-119641904D01*
X163909429Y-119356190D01*
X163957048Y-119260952D01*
X164004667Y-119213333D01*
X164099905Y-119165714D01*
X164242762Y-119165714D01*
X164338000Y-119213333D01*
X164385619Y-119260952D01*
X164433238Y-119356190D01*
X164433238Y-119641904D01*
X164385619Y-119737142D01*
X164338000Y-119784761D01*
X164242762Y-119832380D01*
X164099905Y-119832380D01*
X164718953Y-119165714D02*
X165099905Y-119165714D01*
X164861810Y-118832380D02*
X164861810Y-119689523D01*
X164909429Y-119784761D01*
X165004667Y-119832380D01*
X165099905Y-119832380D01*
X166623715Y-119165714D02*
X166623715Y-119832380D01*
X166195143Y-119165714D02*
X166195143Y-119689523D01*
X166242762Y-119784761D01*
X166338000Y-119832380D01*
X166480857Y-119832380D01*
X166576095Y-119784761D01*
X166623715Y-119737142D01*
X167052286Y-119784761D02*
X167147524Y-119832380D01*
X167338000Y-119832380D01*
X167433238Y-119784761D01*
X167480857Y-119689523D01*
X167480857Y-119641904D01*
X167433238Y-119546666D01*
X167338000Y-119499047D01*
X167195143Y-119499047D01*
X167099905Y-119451428D01*
X167052286Y-119356190D01*
X167052286Y-119308571D01*
X167099905Y-119213333D01*
X167195143Y-119165714D01*
X167338000Y-119165714D01*
X167433238Y-119213333D01*
X168290381Y-119784761D02*
X168195143Y-119832380D01*
X168004667Y-119832380D01*
X167909429Y-119784761D01*
X167861810Y-119689523D01*
X167861810Y-119308571D01*
X167909429Y-119213333D01*
X168004667Y-119165714D01*
X168195143Y-119165714D01*
X168290381Y-119213333D01*
X168338000Y-119308571D01*
X168338000Y-119403809D01*
X167861810Y-119499047D01*
X169195143Y-119832380D02*
X169195143Y-118832380D01*
X169195143Y-119784761D02*
X169099905Y-119832380D01*
X168909429Y-119832380D01*
X168814191Y-119784761D01*
X168766572Y-119737142D01*
X168718953Y-119641904D01*
X168718953Y-119356190D01*
X168766572Y-119260952D01*
X168814191Y-119213333D01*
X168909429Y-119165714D01*
X169099905Y-119165714D01*
X169195143Y-119213333D01*
X154397295Y-95575428D02*
X155159200Y-95575428D01*
X156159200Y-95956380D02*
X155587771Y-95956380D01*
X155873485Y-95956380D02*
X155873485Y-94956380D01*
X155778247Y-95099238D01*
X155683009Y-95194476D01*
X155587771Y-95242095D01*
X157063961Y-94956380D02*
X156587771Y-94956380D01*
X156540152Y-95432571D01*
X156587771Y-95384952D01*
X156683009Y-95337333D01*
X156921104Y-95337333D01*
X157016342Y-95384952D01*
X157063961Y-95432571D01*
X157111580Y-95527809D01*
X157111580Y-95765904D01*
X157063961Y-95861142D01*
X157016342Y-95908761D01*
X156921104Y-95956380D01*
X156683009Y-95956380D01*
X156587771Y-95908761D01*
X156540152Y-95861142D01*
X157397295Y-94956380D02*
X157730628Y-95956380D01*
X158063961Y-94956380D01*
X154397295Y-99029828D02*
X155159200Y-99029828D01*
X154778247Y-99410780D02*
X154778247Y-98648876D01*
X156159200Y-99410780D02*
X155587771Y-99410780D01*
X155873485Y-99410780D02*
X155873485Y-98410780D01*
X155778247Y-98553638D01*
X155683009Y-98648876D01*
X155587771Y-98696495D01*
X157063961Y-98410780D02*
X156587771Y-98410780D01*
X156540152Y-98886971D01*
X156587771Y-98839352D01*
X156683009Y-98791733D01*
X156921104Y-98791733D01*
X157016342Y-98839352D01*
X157063961Y-98886971D01*
X157111580Y-98982209D01*
X157111580Y-99220304D01*
X157063961Y-99315542D01*
X157016342Y-99363161D01*
X156921104Y-99410780D01*
X156683009Y-99410780D01*
X156587771Y-99363161D01*
X156540152Y-99315542D01*
X157397295Y-98410780D02*
X157730628Y-99410780D01*
X158063961Y-98410780D01*
X154397295Y-88311028D02*
X155159200Y-88311028D01*
X154778247Y-88691980D02*
X154778247Y-87930076D01*
X156159200Y-88691980D02*
X155587771Y-88691980D01*
X155873485Y-88691980D02*
X155873485Y-87691980D01*
X155778247Y-87834838D01*
X155683009Y-87930076D01*
X155587771Y-87977695D01*
X156778247Y-87691980D02*
X156873485Y-87691980D01*
X156968723Y-87739600D01*
X157016342Y-87787219D01*
X157063961Y-87882457D01*
X157111580Y-88072933D01*
X157111580Y-88311028D01*
X157063961Y-88501504D01*
X157016342Y-88596742D01*
X156968723Y-88644361D01*
X156873485Y-88691980D01*
X156778247Y-88691980D01*
X156683009Y-88644361D01*
X156635390Y-88596742D01*
X156587771Y-88501504D01*
X156540152Y-88311028D01*
X156540152Y-88072933D01*
X156587771Y-87882457D01*
X156635390Y-87787219D01*
X156683009Y-87739600D01*
X156778247Y-87691980D01*
X157397295Y-87691980D02*
X157730628Y-88691980D01*
X158063961Y-87691980D01*
X155397295Y-91549600D02*
X155302057Y-91501980D01*
X155159200Y-91501980D01*
X155016342Y-91549600D01*
X154921104Y-91644838D01*
X154873485Y-91740076D01*
X154825866Y-91930552D01*
X154825866Y-92073409D01*
X154873485Y-92263885D01*
X154921104Y-92359123D01*
X155016342Y-92454361D01*
X155159200Y-92501980D01*
X155254438Y-92501980D01*
X155397295Y-92454361D01*
X155444914Y-92406742D01*
X155444914Y-92073409D01*
X155254438Y-92073409D01*
X155873485Y-92501980D02*
X155873485Y-91501980D01*
X156444914Y-92501980D01*
X156444914Y-91501980D01*
X156921104Y-92501980D02*
X156921104Y-91501980D01*
X157159200Y-91501980D01*
X157302057Y-91549600D01*
X157397295Y-91644838D01*
X157444914Y-91740076D01*
X157492533Y-91930552D01*
X157492533Y-92073409D01*
X157444914Y-92263885D01*
X157397295Y-92359123D01*
X157302057Y-92454361D01*
X157159200Y-92501980D01*
X156921104Y-92501980D01*
X167605295Y-99080628D02*
X168367200Y-99080628D01*
X167986247Y-99461580D02*
X167986247Y-98699676D01*
X169367200Y-99461580D02*
X168795771Y-99461580D01*
X169081485Y-99461580D02*
X169081485Y-98461580D01*
X168986247Y-98604438D01*
X168891009Y-98699676D01*
X168795771Y-98747295D01*
X170271961Y-98461580D02*
X169795771Y-98461580D01*
X169748152Y-98937771D01*
X169795771Y-98890152D01*
X169891009Y-98842533D01*
X170129104Y-98842533D01*
X170224342Y-98890152D01*
X170271961Y-98937771D01*
X170319580Y-99033009D01*
X170319580Y-99271104D01*
X170271961Y-99366342D01*
X170224342Y-99413961D01*
X170129104Y-99461580D01*
X169891009Y-99461580D01*
X169795771Y-99413961D01*
X169748152Y-99366342D01*
X170605295Y-98461580D02*
X170938628Y-99461580D01*
X171271961Y-98461580D01*
X167605295Y-95626228D02*
X168367200Y-95626228D01*
X169367200Y-96007180D02*
X168795771Y-96007180D01*
X169081485Y-96007180D02*
X169081485Y-95007180D01*
X168986247Y-95150038D01*
X168891009Y-95245276D01*
X168795771Y-95292895D01*
X170271961Y-95007180D02*
X169795771Y-95007180D01*
X169748152Y-95483371D01*
X169795771Y-95435752D01*
X169891009Y-95388133D01*
X170129104Y-95388133D01*
X170224342Y-95435752D01*
X170271961Y-95483371D01*
X170319580Y-95578609D01*
X170319580Y-95816704D01*
X170271961Y-95911942D01*
X170224342Y-95959561D01*
X170129104Y-96007180D01*
X169891009Y-96007180D01*
X169795771Y-95959561D01*
X169748152Y-95911942D01*
X170605295Y-95007180D02*
X170938628Y-96007180D01*
X171271961Y-95007180D01*
X168605295Y-91600400D02*
X168510057Y-91552780D01*
X168367200Y-91552780D01*
X168224342Y-91600400D01*
X168129104Y-91695638D01*
X168081485Y-91790876D01*
X168033866Y-91981352D01*
X168033866Y-92124209D01*
X168081485Y-92314685D01*
X168129104Y-92409923D01*
X168224342Y-92505161D01*
X168367200Y-92552780D01*
X168462438Y-92552780D01*
X168605295Y-92505161D01*
X168652914Y-92457542D01*
X168652914Y-92124209D01*
X168462438Y-92124209D01*
X169081485Y-92552780D02*
X169081485Y-91552780D01*
X169652914Y-92552780D01*
X169652914Y-91552780D01*
X170129104Y-92552780D02*
X170129104Y-91552780D01*
X170367200Y-91552780D01*
X170510057Y-91600400D01*
X170605295Y-91695638D01*
X170652914Y-91790876D01*
X170700533Y-91981352D01*
X170700533Y-92124209D01*
X170652914Y-92314685D01*
X170605295Y-92409923D01*
X170510057Y-92505161D01*
X170367200Y-92552780D01*
X170129104Y-92552780D01*
X167605295Y-88361828D02*
X168367200Y-88361828D01*
X167986247Y-88742780D02*
X167986247Y-87980876D01*
X169367200Y-88742780D02*
X168795771Y-88742780D01*
X169081485Y-88742780D02*
X169081485Y-87742780D01*
X168986247Y-87885638D01*
X168891009Y-87980876D01*
X168795771Y-88028495D01*
X169986247Y-87742780D02*
X170081485Y-87742780D01*
X170176723Y-87790400D01*
X170224342Y-87838019D01*
X170271961Y-87933257D01*
X170319580Y-88123733D01*
X170319580Y-88361828D01*
X170271961Y-88552304D01*
X170224342Y-88647542D01*
X170176723Y-88695161D01*
X170081485Y-88742780D01*
X169986247Y-88742780D01*
X169891009Y-88695161D01*
X169843390Y-88647542D01*
X169795771Y-88552304D01*
X169748152Y-88361828D01*
X169748152Y-88123733D01*
X169795771Y-87933257D01*
X169843390Y-87838019D01*
X169891009Y-87790400D01*
X169986247Y-87742780D01*
X170605295Y-87742780D02*
X170938628Y-88742780D01*
X171271961Y-87742780D01*
X110265009Y-141777980D02*
X110265009Y-140777980D01*
X110741200Y-141777980D02*
X110741200Y-140777980D01*
X111312628Y-141777980D01*
X111312628Y-140777980D01*
X111741200Y-140873219D02*
X111788819Y-140825600D01*
X111884057Y-140777980D01*
X112122152Y-140777980D01*
X112217390Y-140825600D01*
X112265009Y-140873219D01*
X112312628Y-140968457D01*
X112312628Y-141063695D01*
X112265009Y-141206552D01*
X111693580Y-141777980D01*
X112312628Y-141777980D01*
X113169771Y-141111314D02*
X113169771Y-141777980D01*
X112931676Y-140730361D02*
X112693580Y-141444647D01*
X113312628Y-141444647D01*
X113693580Y-141397028D02*
X114455485Y-141397028D01*
X114836438Y-140777980D02*
X115455485Y-140777980D01*
X115122152Y-141158933D01*
X115265009Y-141158933D01*
X115360247Y-141206552D01*
X115407866Y-141254171D01*
X115455485Y-141349409D01*
X115455485Y-141587504D01*
X115407866Y-141682742D01*
X115360247Y-141730361D01*
X115265009Y-141777980D01*
X114979295Y-141777980D01*
X114884057Y-141730361D01*
X114836438Y-141682742D01*
X116312628Y-140777980D02*
X116122152Y-140777980D01*
X116026914Y-140825600D01*
X115979295Y-140873219D01*
X115884057Y-141016076D01*
X115836438Y-141206552D01*
X115836438Y-141587504D01*
X115884057Y-141682742D01*
X115931676Y-141730361D01*
X116026914Y-141777980D01*
X116217390Y-141777980D01*
X116312628Y-141730361D01*
X116360247Y-141682742D01*
X116407866Y-141587504D01*
X116407866Y-141349409D01*
X116360247Y-141254171D01*
X116312628Y-141206552D01*
X116217390Y-141158933D01*
X116026914Y-141158933D01*
X115931676Y-141206552D01*
X115884057Y-141254171D01*
X115836438Y-141349409D01*
X116693580Y-140777980D02*
X117026914Y-141777980D01*
X117360247Y-140777980D01*
X144783561Y-83027828D02*
X145545466Y-83027828D01*
X145164514Y-83408780D02*
X145164514Y-82646876D01*
X146069276Y-83408780D02*
X146259752Y-83408780D01*
X146354990Y-83361161D01*
X146402609Y-83313542D01*
X146497847Y-83170685D01*
X146545466Y-82980209D01*
X146545466Y-82599257D01*
X146497847Y-82504019D01*
X146450228Y-82456400D01*
X146354990Y-82408780D01*
X146164514Y-82408780D01*
X146069276Y-82456400D01*
X146021657Y-82504019D01*
X145974038Y-82599257D01*
X145974038Y-82837352D01*
X146021657Y-82932590D01*
X146069276Y-82980209D01*
X146164514Y-83027828D01*
X146354990Y-83027828D01*
X146450228Y-82980209D01*
X146497847Y-82932590D01*
X146545466Y-82837352D01*
X146831180Y-82408780D02*
X147164514Y-83408780D01*
X147497847Y-82408780D01*
X147593085Y-83504019D02*
X148354990Y-83504019D01*
X148783561Y-82408780D02*
X148974038Y-82408780D01*
X149069276Y-82456400D01*
X149164514Y-82551638D01*
X149212133Y-82742114D01*
X149212133Y-83075447D01*
X149164514Y-83265923D01*
X149069276Y-83361161D01*
X148974038Y-83408780D01*
X148783561Y-83408780D01*
X148688323Y-83361161D01*
X148593085Y-83265923D01*
X148545466Y-83075447D01*
X148545466Y-82742114D01*
X148593085Y-82551638D01*
X148688323Y-82456400D01*
X148783561Y-82408780D01*
X149640704Y-82408780D02*
X149640704Y-83218304D01*
X149688323Y-83313542D01*
X149735942Y-83361161D01*
X149831180Y-83408780D01*
X150021657Y-83408780D01*
X150116895Y-83361161D01*
X150164514Y-83313542D01*
X150212133Y-83218304D01*
X150212133Y-82408780D01*
X150545466Y-82408780D02*
X151116895Y-82408780D01*
X150831180Y-83408780D02*
X150831180Y-82408780D01*
X170031161Y-73071028D02*
X170793066Y-73071028D01*
X170412114Y-73451980D02*
X170412114Y-72690076D01*
X171745447Y-72451980D02*
X171269257Y-72451980D01*
X171221638Y-72928171D01*
X171269257Y-72880552D01*
X171364495Y-72832933D01*
X171602590Y-72832933D01*
X171697828Y-72880552D01*
X171745447Y-72928171D01*
X171793066Y-73023409D01*
X171793066Y-73261504D01*
X171745447Y-73356742D01*
X171697828Y-73404361D01*
X171602590Y-73451980D01*
X171364495Y-73451980D01*
X171269257Y-73404361D01*
X171221638Y-73356742D01*
X172078780Y-72451980D02*
X172412114Y-73451980D01*
X172745447Y-72451980D01*
X172840685Y-73547219D02*
X173602590Y-73547219D01*
X174031161Y-72451980D02*
X174221638Y-72451980D01*
X174316876Y-72499600D01*
X174412114Y-72594838D01*
X174459733Y-72785314D01*
X174459733Y-73118647D01*
X174412114Y-73309123D01*
X174316876Y-73404361D01*
X174221638Y-73451980D01*
X174031161Y-73451980D01*
X173935923Y-73404361D01*
X173840685Y-73309123D01*
X173793066Y-73118647D01*
X173793066Y-72785314D01*
X173840685Y-72594838D01*
X173935923Y-72499600D01*
X174031161Y-72451980D01*
X174888304Y-72451980D02*
X174888304Y-73261504D01*
X174935923Y-73356742D01*
X174983542Y-73404361D01*
X175078780Y-73451980D01*
X175269257Y-73451980D01*
X175364495Y-73404361D01*
X175412114Y-73356742D01*
X175459733Y-73261504D01*
X175459733Y-72451980D01*
X175793066Y-72451980D02*
X176364495Y-72451980D01*
X176078780Y-73451980D02*
X176078780Y-72451980D01*
X135772971Y-123667828D02*
X136534876Y-123667828D01*
X136153923Y-124048780D02*
X136153923Y-123286876D01*
X137534876Y-124048780D02*
X136963447Y-124048780D01*
X137249161Y-124048780D02*
X137249161Y-123048780D01*
X137153923Y-123191638D01*
X137058685Y-123286876D01*
X136963447Y-123334495D01*
X138439638Y-123048780D02*
X137963447Y-123048780D01*
X137915828Y-123524971D01*
X137963447Y-123477352D01*
X138058685Y-123429733D01*
X138296780Y-123429733D01*
X138392019Y-123477352D01*
X138439638Y-123524971D01*
X138487257Y-123620209D01*
X138487257Y-123858304D01*
X138439638Y-123953542D01*
X138392019Y-124001161D01*
X138296780Y-124048780D01*
X138058685Y-124048780D01*
X137963447Y-124001161D01*
X137915828Y-123953542D01*
X138772971Y-123048780D02*
X139106304Y-124048780D01*
X139439638Y-123048780D01*
X139534876Y-124144019D02*
X140296780Y-124144019D01*
X140725352Y-123048780D02*
X140915828Y-123048780D01*
X141011066Y-123096400D01*
X141106304Y-123191638D01*
X141153923Y-123382114D01*
X141153923Y-123715447D01*
X141106304Y-123905923D01*
X141011066Y-124001161D01*
X140915828Y-124048780D01*
X140725352Y-124048780D01*
X140630114Y-124001161D01*
X140534876Y-123905923D01*
X140487257Y-123715447D01*
X140487257Y-123382114D01*
X140534876Y-123191638D01*
X140630114Y-123096400D01*
X140725352Y-123048780D01*
X141582495Y-123048780D02*
X141582495Y-123858304D01*
X141630114Y-123953542D01*
X141677733Y-124001161D01*
X141772971Y-124048780D01*
X141963447Y-124048780D01*
X142058685Y-124001161D01*
X142106304Y-123953542D01*
X142153923Y-123858304D01*
X142153923Y-123048780D01*
X142487257Y-123048780D02*
X143058685Y-123048780D01*
X142772971Y-124048780D02*
X142772971Y-123048780D01*
X87341295Y-131033828D02*
X88103200Y-131033828D01*
X89103200Y-131414780D02*
X88531771Y-131414780D01*
X88817485Y-131414780D02*
X88817485Y-130414780D01*
X88722247Y-130557638D01*
X88627009Y-130652876D01*
X88531771Y-130700495D01*
X90007961Y-130414780D02*
X89531771Y-130414780D01*
X89484152Y-130890971D01*
X89531771Y-130843352D01*
X89627009Y-130795733D01*
X89865104Y-130795733D01*
X89960342Y-130843352D01*
X90007961Y-130890971D01*
X90055580Y-130986209D01*
X90055580Y-131224304D01*
X90007961Y-131319542D01*
X89960342Y-131367161D01*
X89865104Y-131414780D01*
X89627009Y-131414780D01*
X89531771Y-131367161D01*
X89484152Y-131319542D01*
X90341295Y-130414780D02*
X90674628Y-131414780D01*
X91007961Y-130414780D01*
X109490095Y-131033828D02*
X110252000Y-131033828D01*
X109871047Y-131414780D02*
X109871047Y-130652876D01*
X111252000Y-131414780D02*
X110680571Y-131414780D01*
X110966285Y-131414780D02*
X110966285Y-130414780D01*
X110871047Y-130557638D01*
X110775809Y-130652876D01*
X110680571Y-130700495D01*
X112156761Y-130414780D02*
X111680571Y-130414780D01*
X111632952Y-130890971D01*
X111680571Y-130843352D01*
X111775809Y-130795733D01*
X112013904Y-130795733D01*
X112109142Y-130843352D01*
X112156761Y-130890971D01*
X112204380Y-130986209D01*
X112204380Y-131224304D01*
X112156761Y-131319542D01*
X112109142Y-131367161D01*
X112013904Y-131414780D01*
X111775809Y-131414780D01*
X111680571Y-131367161D01*
X111632952Y-131319542D01*
X112490095Y-130414780D02*
X112823428Y-131414780D01*
X113156761Y-130414780D01*
D11*
X94065000Y-62015000D02*
X94065000Y-65865000D01*
X94065000Y-72735000D02*
X94065000Y-68885000D01*
X103720563Y-72735000D02*
X94065000Y-72735000D01*
X103720563Y-62015000D02*
X94065000Y-62015000D01*
X104785000Y-63079437D02*
X104785000Y-65865000D01*
X104785000Y-71670563D02*
X104785000Y-68885000D01*
X104785000Y-71670563D02*
X103720563Y-72735000D01*
X104785000Y-63079437D02*
X103720563Y-62015000D01*
X106275000Y-70135000D02*
X105025000Y-70135000D01*
X105650000Y-70760000D02*
X105650000Y-69510000D01*
X130986252Y-124340000D02*
X130463748Y-124340000D01*
X130986252Y-125760000D02*
X130463748Y-125760000D01*
X114200000Y-120685000D02*
X114200000Y-119435000D01*
X114825000Y-120060000D02*
X113575000Y-120060000D01*
X113335000Y-113004437D02*
X112270563Y-111940000D01*
X113335000Y-121595563D02*
X112270563Y-122660000D01*
X113335000Y-121595563D02*
X113335000Y-118810000D01*
X113335000Y-113004437D02*
X113335000Y-115790000D01*
X112270563Y-111940000D02*
X102615000Y-111940000D01*
X112270563Y-122660000D02*
X102615000Y-122660000D01*
X102615000Y-122660000D02*
X102615000Y-118810000D01*
X102615000Y-111940000D02*
X102615000Y-115790000D01*
X124550000Y-97590000D02*
X124550000Y-98840000D01*
X123925000Y-98215000D02*
X125175000Y-98215000D01*
X125415000Y-105270563D02*
X126479437Y-106335000D01*
X125415000Y-96679437D02*
X126479437Y-95615000D01*
X125415000Y-96679437D02*
X125415000Y-99465000D01*
X125415000Y-105270563D02*
X125415000Y-102485000D01*
X126479437Y-106335000D02*
X136135000Y-106335000D01*
X126479437Y-95615000D02*
X136135000Y-95615000D01*
X136135000Y-95615000D02*
X136135000Y-99465000D01*
X136135000Y-106335000D02*
X136135000Y-102485000D01*
X87640000Y-111940000D02*
X87640000Y-115790000D01*
X87640000Y-122660000D02*
X87640000Y-118810000D01*
X97295563Y-122660000D02*
X87640000Y-122660000D01*
X97295563Y-111940000D02*
X87640000Y-111940000D01*
X98360000Y-113004437D02*
X98360000Y-115790000D01*
X98360000Y-121595563D02*
X98360000Y-118810000D01*
X98360000Y-121595563D02*
X97295563Y-122660000D01*
X98360000Y-113004437D02*
X97295563Y-111940000D01*
X99850000Y-120060000D02*
X98600000Y-120060000D01*
X99225000Y-120685000D02*
X99225000Y-119435000D01*
X120363748Y-108135000D02*
X120886252Y-108135000D01*
X120363748Y-106715000D02*
X120886252Y-106715000D01*
X92461252Y-136685000D02*
X91938748Y-136685000D01*
X92461252Y-135265000D02*
X91938748Y-135265000D01*
X107986252Y-135265000D02*
X107463748Y-135265000D01*
X107986252Y-136685000D02*
X107463748Y-136685000D01*
X110085000Y-85113748D02*
X110085000Y-85636252D01*
X108665000Y-85113748D02*
X108665000Y-85636252D01*
X160988748Y-58243333D02*
X161511252Y-58243333D01*
X160988748Y-56823333D02*
X161511252Y-56823333D01*
X160988748Y-62876666D02*
X161511252Y-62876666D01*
X160988748Y-61456666D02*
X161511252Y-61456666D01*
X170461252Y-67510000D02*
X169938748Y-67510000D01*
X170461252Y-66090000D02*
X169938748Y-66090000D01*
X169938748Y-56823333D02*
X170461252Y-56823333D01*
X169938748Y-58243333D02*
X170461252Y-58243333D01*
X142050000Y-58615000D02*
X142050000Y-59865000D01*
X141425000Y-59240000D02*
X142675000Y-59240000D01*
X142915000Y-66295563D02*
X143979437Y-67360000D01*
X142915000Y-57704437D02*
X143979437Y-56640000D01*
X142915000Y-57704437D02*
X142915000Y-60490000D01*
X142915000Y-66295563D02*
X142915000Y-63510000D01*
X143979437Y-67360000D02*
X153635000Y-67360000D01*
X143979437Y-56640000D02*
X153635000Y-56640000D01*
X153635000Y-56640000D02*
X153635000Y-60490000D01*
X153635000Y-67360000D02*
X153635000Y-63510000D01*
X146413748Y-70565000D02*
X146936252Y-70565000D01*
X146413748Y-71985000D02*
X146936252Y-71985000D01*
X160988748Y-67510000D02*
X161511252Y-67510000D01*
X160988748Y-66090000D02*
X161511252Y-66090000D01*
X142775000Y-143965000D02*
X133915000Y-143965000D01*
X133915000Y-143965000D02*
X133915000Y-149635000D01*
X133915000Y-149635000D02*
X142775000Y-149635000D01*
X140760000Y-128022500D02*
X140760000Y-125162500D01*
X140760000Y-125162500D02*
X138840000Y-125162500D01*
X138840000Y-125162500D02*
X138840000Y-128022500D01*
X112600000Y-127340000D02*
X109740000Y-127340000D01*
X109740000Y-127340000D02*
X109740000Y-129260000D01*
X109740000Y-129260000D02*
X112600000Y-129260000D01*
X87515000Y-129260000D02*
X90375000Y-129260000D01*
X87515000Y-127340000D02*
X87515000Y-129260000D01*
X90375000Y-127340000D02*
X87515000Y-127340000D01*
X128885000Y-71365000D02*
X120025000Y-71365000D01*
X128885000Y-77035000D02*
X128885000Y-71365000D01*
X120025000Y-77035000D02*
X128885000Y-77035000D01*
X165565000Y-74010000D02*
X168425000Y-74010000D01*
X165565000Y-72090000D02*
X165565000Y-74010000D01*
X168425000Y-72090000D02*
X165565000Y-72090000D01*
X140215000Y-84060000D02*
X143075000Y-84060000D01*
X140215000Y-82140000D02*
X140215000Y-84060000D01*
X143075000Y-82140000D02*
X140215000Y-82140000D01*
X126900000Y-143970000D02*
X118700000Y-143970000D01*
X126900000Y-149630000D02*
X118700000Y-149630000D01*
X118700000Y-149630000D02*
X118700000Y-148850000D01*
X118700000Y-143970000D02*
X118700000Y-144750000D01*
X126900000Y-143970000D02*
X126900000Y-144750000D01*
X126900000Y-149630000D02*
X126900000Y-148850000D01*
X98600000Y-141725000D02*
X101200000Y-141725000D01*
X98600000Y-156425000D02*
X98600000Y-141725000D01*
X107800000Y-141725000D02*
X107800000Y-143625000D01*
X105100000Y-141725000D02*
X107800000Y-141725000D01*
X107800000Y-156425000D02*
X98600000Y-156425000D01*
X107800000Y-147625000D02*
X107800000Y-156425000D01*
X98400000Y-142575000D02*
X98400000Y-141525000D01*
X99450000Y-141525000D02*
X98400000Y-141525000D01*
X174470000Y-99465000D02*
X179670000Y-99465000D01*
X174470000Y-89245000D02*
X174470000Y-99465000D01*
X179670000Y-86645000D02*
X179670000Y-99465000D01*
X174470000Y-89245000D02*
X177070000Y-89245000D01*
X177070000Y-89245000D02*
X177070000Y-86645000D01*
X177070000Y-86645000D02*
X179670000Y-86645000D01*
X174470000Y-87975000D02*
X174470000Y-86645000D01*
X174470000Y-86645000D02*
X175800000Y-86645000D01*
X161237500Y-86645000D02*
X162567500Y-86645000D01*
X161237500Y-87975000D02*
X161237500Y-86645000D01*
X163837500Y-86645000D02*
X166437500Y-86645000D01*
X163837500Y-89245000D02*
X163837500Y-86645000D01*
X161237500Y-89245000D02*
X163837500Y-89245000D01*
X166437500Y-86645000D02*
X166437500Y-99465000D01*
X161237500Y-89245000D02*
X161237500Y-99465000D01*
X161237500Y-99465000D02*
X166437500Y-99465000D01*
X151925000Y-86670000D02*
X153255000Y-86670000D01*
X153255000Y-86670000D02*
X153255000Y-88000000D01*
X150655000Y-86670000D02*
X150655000Y-89270000D01*
X150655000Y-89270000D02*
X153255000Y-89270000D01*
X153255000Y-89270000D02*
X153255000Y-99490000D01*
X148055000Y-99490000D02*
X153255000Y-99490000D01*
X148055000Y-86670000D02*
X148055000Y-99490000D01*
X148055000Y-86670000D02*
X150655000Y-86670000D01*
X156055000Y-117994999D02*
X158655000Y-117994999D01*
X156055000Y-117994999D02*
X156055000Y-138434999D01*
X156055000Y-138434999D02*
X161255000Y-138434999D01*
X161255000Y-120594999D02*
X161255000Y-138434999D01*
X158655000Y-120594999D02*
X161255000Y-120594999D01*
X158655000Y-117994999D02*
X158655000Y-120594999D01*
X161255000Y-117994999D02*
X161255000Y-119324999D01*
X159925000Y-117994999D02*
X161255000Y-117994999D01*
X177775000Y-117994999D02*
X179105000Y-117994999D01*
X179105000Y-117994999D02*
X179105000Y-119324999D01*
X176505000Y-117994999D02*
X176505000Y-120594999D01*
X176505000Y-120594999D02*
X179105000Y-120594999D01*
X179105000Y-120594999D02*
X179105000Y-138434999D01*
X173905000Y-138434999D02*
X179105000Y-138434999D01*
X173905000Y-117994999D02*
X173905000Y-138434999D01*
X173905000Y-117994999D02*
X176505000Y-117994999D01*
X123975000Y-56175000D02*
X123975000Y-59775000D01*
X110775000Y-56175000D02*
X123975000Y-56175000D01*
X110775000Y-59775000D02*
X110775000Y-56175000D01*
X110775000Y-69375000D02*
X110775000Y-65775000D01*
X123975000Y-69375000D02*
X110775000Y-69375000D01*
X123975000Y-65775000D02*
X123975000Y-69375000D01*
X123010000Y-127261252D02*
X123010000Y-126738748D01*
X121590000Y-127261252D02*
X121590000Y-126738748D01*
X103900414Y-129010000D02*
X104422918Y-129010000D01*
X103900414Y-127590000D02*
X104422918Y-127590000D01*
X96507081Y-127590000D02*
X97029585Y-127590000D01*
X96507081Y-129010000D02*
X97029585Y-129010000D01*
X115840000Y-88986252D02*
X115840000Y-88463748D01*
X117260000Y-88986252D02*
X117260000Y-88463748D01*
X167141248Y-79010000D02*
X167663752Y-79010000D01*
X167141248Y-77590000D02*
X167663752Y-77590000D01*
X117260000Y-82686252D02*
X117260000Y-82163748D01*
X115840000Y-82686252D02*
X115840000Y-82163748D01*
X135236252Y-66535000D02*
X134713748Y-66535000D01*
X135236252Y-65115000D02*
X134713748Y-65115000D01*
X141791248Y-86915000D02*
X142313752Y-86915000D01*
X141791248Y-88335000D02*
X142313752Y-88335000D01*
X141235000Y-74471000D02*
X141235000Y-76435000D01*
X141235000Y-71695000D02*
X141235000Y-73481000D01*
X134285000Y-74471000D02*
X134285000Y-76435000D01*
X134285000Y-71695000D02*
X134285000Y-73481000D01*
X134285000Y-76435000D02*
X141235000Y-76435000D01*
X134285000Y-71695000D02*
X141235000Y-71695000D01*
X152800000Y-72815000D02*
X158810000Y-72815000D01*
X155050000Y-79635000D02*
X158810000Y-79635000D01*
X158810000Y-72815000D02*
X158810000Y-74075000D01*
X158810000Y-79635000D02*
X158810000Y-78375000D01*
X125200000Y-89850000D02*
X124100000Y-89850000D01*
X125200000Y-90800000D02*
X125200000Y-89850000D01*
X126700000Y-90800000D02*
X125200000Y-90800000D01*
X125200000Y-81350000D02*
X120075000Y-81350000D01*
X125200000Y-80400000D02*
X125200000Y-81350000D01*
X126700000Y-80400000D02*
X125200000Y-80400000D01*
D10*
X99058333Y-61007142D02*
X99010714Y-61054761D01*
X98867857Y-61102380D01*
X98772619Y-61102380D01*
X98629761Y-61054761D01*
X98534523Y-60959523D01*
X98486904Y-60864285D01*
X98439285Y-60673809D01*
X98439285Y-60530952D01*
X98486904Y-60340476D01*
X98534523Y-60245238D01*
X98629761Y-60150000D01*
X98772619Y-60102380D01*
X98867857Y-60102380D01*
X99010714Y-60150000D01*
X99058333Y-60197619D01*
X100010714Y-61102380D02*
X99439285Y-61102380D01*
X99725000Y-61102380D02*
X99725000Y-60102380D01*
X99629761Y-60245238D01*
X99534523Y-60340476D01*
X99439285Y-60388095D01*
X130558333Y-127057142D02*
X130510714Y-127104761D01*
X130367857Y-127152380D01*
X130272619Y-127152380D01*
X130129761Y-127104761D01*
X130034523Y-127009523D01*
X129986904Y-126914285D01*
X129939285Y-126723809D01*
X129939285Y-126580952D01*
X129986904Y-126390476D01*
X130034523Y-126295238D01*
X130129761Y-126200000D01*
X130272619Y-126152380D01*
X130367857Y-126152380D01*
X130510714Y-126200000D01*
X130558333Y-126247619D01*
X130939285Y-126247619D02*
X130986904Y-126200000D01*
X131082142Y-126152380D01*
X131320238Y-126152380D01*
X131415476Y-126200000D01*
X131463095Y-126247619D01*
X131510714Y-126342857D01*
X131510714Y-126438095D01*
X131463095Y-126580952D01*
X130891666Y-127152380D01*
X131510714Y-127152380D01*
X107508333Y-110607142D02*
X107460714Y-110654761D01*
X107317857Y-110702380D01*
X107222619Y-110702380D01*
X107079761Y-110654761D01*
X106984523Y-110559523D01*
X106936904Y-110464285D01*
X106889285Y-110273809D01*
X106889285Y-110130952D01*
X106936904Y-109940476D01*
X106984523Y-109845238D01*
X107079761Y-109750000D01*
X107222619Y-109702380D01*
X107317857Y-109702380D01*
X107460714Y-109750000D01*
X107508333Y-109797619D01*
X107841666Y-109702380D02*
X108460714Y-109702380D01*
X108127380Y-110083333D01*
X108270238Y-110083333D01*
X108365476Y-110130952D01*
X108413095Y-110178571D01*
X108460714Y-110273809D01*
X108460714Y-110511904D01*
X108413095Y-110607142D01*
X108365476Y-110654761D01*
X108270238Y-110702380D01*
X107984523Y-110702380D01*
X107889285Y-110654761D01*
X107841666Y-110607142D01*
X130608333Y-95032142D02*
X130560714Y-95079761D01*
X130417857Y-95127380D01*
X130322619Y-95127380D01*
X130179761Y-95079761D01*
X130084523Y-94984523D01*
X130036904Y-94889285D01*
X129989285Y-94698809D01*
X129989285Y-94555952D01*
X130036904Y-94365476D01*
X130084523Y-94270238D01*
X130179761Y-94175000D01*
X130322619Y-94127380D01*
X130417857Y-94127380D01*
X130560714Y-94175000D01*
X130608333Y-94222619D01*
X131465476Y-94460714D02*
X131465476Y-95127380D01*
X131227380Y-94079761D02*
X130989285Y-94794047D01*
X131608333Y-94794047D01*
X92583333Y-110607142D02*
X92535714Y-110654761D01*
X92392857Y-110702380D01*
X92297619Y-110702380D01*
X92154761Y-110654761D01*
X92059523Y-110559523D01*
X92011904Y-110464285D01*
X91964285Y-110273809D01*
X91964285Y-110130952D01*
X92011904Y-109940476D01*
X92059523Y-109845238D01*
X92154761Y-109750000D01*
X92297619Y-109702380D01*
X92392857Y-109702380D01*
X92535714Y-109750000D01*
X92583333Y-109797619D01*
X93488095Y-109702380D02*
X93011904Y-109702380D01*
X92964285Y-110178571D01*
X93011904Y-110130952D01*
X93107142Y-110083333D01*
X93345238Y-110083333D01*
X93440476Y-110130952D01*
X93488095Y-110178571D01*
X93535714Y-110273809D01*
X93535714Y-110511904D01*
X93488095Y-110607142D01*
X93440476Y-110654761D01*
X93345238Y-110702380D01*
X93107142Y-110702380D01*
X93011904Y-110654761D01*
X92964285Y-110607142D01*
X120458333Y-106132142D02*
X120410714Y-106179761D01*
X120267857Y-106227380D01*
X120172619Y-106227380D01*
X120029761Y-106179761D01*
X119934523Y-106084523D01*
X119886904Y-105989285D01*
X119839285Y-105798809D01*
X119839285Y-105655952D01*
X119886904Y-105465476D01*
X119934523Y-105370238D01*
X120029761Y-105275000D01*
X120172619Y-105227380D01*
X120267857Y-105227380D01*
X120410714Y-105275000D01*
X120458333Y-105322619D01*
X121315476Y-105227380D02*
X121125000Y-105227380D01*
X121029761Y-105275000D01*
X120982142Y-105322619D01*
X120886904Y-105465476D01*
X120839285Y-105655952D01*
X120839285Y-106036904D01*
X120886904Y-106132142D01*
X120934523Y-106179761D01*
X121029761Y-106227380D01*
X121220238Y-106227380D01*
X121315476Y-106179761D01*
X121363095Y-106132142D01*
X121410714Y-106036904D01*
X121410714Y-105798809D01*
X121363095Y-105703571D01*
X121315476Y-105655952D01*
X121220238Y-105608333D01*
X121029761Y-105608333D01*
X120934523Y-105655952D01*
X120886904Y-105703571D01*
X120839285Y-105798809D01*
X92033333Y-137982142D02*
X91985714Y-138029761D01*
X91842857Y-138077380D01*
X91747619Y-138077380D01*
X91604761Y-138029761D01*
X91509523Y-137934523D01*
X91461904Y-137839285D01*
X91414285Y-137648809D01*
X91414285Y-137505952D01*
X91461904Y-137315476D01*
X91509523Y-137220238D01*
X91604761Y-137125000D01*
X91747619Y-137077380D01*
X91842857Y-137077380D01*
X91985714Y-137125000D01*
X92033333Y-137172619D01*
X92366666Y-137077380D02*
X93033333Y-137077380D01*
X92604761Y-138077380D01*
X107558333Y-137982142D02*
X107510714Y-138029761D01*
X107367857Y-138077380D01*
X107272619Y-138077380D01*
X107129761Y-138029761D01*
X107034523Y-137934523D01*
X106986904Y-137839285D01*
X106939285Y-137648809D01*
X106939285Y-137505952D01*
X106986904Y-137315476D01*
X107034523Y-137220238D01*
X107129761Y-137125000D01*
X107272619Y-137077380D01*
X107367857Y-137077380D01*
X107510714Y-137125000D01*
X107558333Y-137172619D01*
X108129761Y-137505952D02*
X108034523Y-137458333D01*
X107986904Y-137410714D01*
X107939285Y-137315476D01*
X107939285Y-137267857D01*
X107986904Y-137172619D01*
X108034523Y-137125000D01*
X108129761Y-137077380D01*
X108320238Y-137077380D01*
X108415476Y-137125000D01*
X108463095Y-137172619D01*
X108510714Y-137267857D01*
X108510714Y-137315476D01*
X108463095Y-137410714D01*
X108415476Y-137458333D01*
X108320238Y-137505952D01*
X108129761Y-137505952D01*
X108034523Y-137553571D01*
X107986904Y-137601190D01*
X107939285Y-137696428D01*
X107939285Y-137886904D01*
X107986904Y-137982142D01*
X108034523Y-138029761D01*
X108129761Y-138077380D01*
X108320238Y-138077380D01*
X108415476Y-138029761D01*
X108463095Y-137982142D01*
X108510714Y-137886904D01*
X108510714Y-137696428D01*
X108463095Y-137601190D01*
X108415476Y-137553571D01*
X108320238Y-137505952D01*
X109208333Y-82532142D02*
X109160714Y-82579761D01*
X109017857Y-82627380D01*
X108922619Y-82627380D01*
X108779761Y-82579761D01*
X108684523Y-82484523D01*
X108636904Y-82389285D01*
X108589285Y-82198809D01*
X108589285Y-82055952D01*
X108636904Y-81865476D01*
X108684523Y-81770238D01*
X108779761Y-81675000D01*
X108922619Y-81627380D01*
X109017857Y-81627380D01*
X109160714Y-81675000D01*
X109208333Y-81722619D01*
X109684523Y-82627380D02*
X109875000Y-82627380D01*
X109970238Y-82579761D01*
X110017857Y-82532142D01*
X110113095Y-82389285D01*
X110160714Y-82198809D01*
X110160714Y-81817857D01*
X110113095Y-81722619D01*
X110065476Y-81675000D01*
X109970238Y-81627380D01*
X109779761Y-81627380D01*
X109684523Y-81675000D01*
X109636904Y-81722619D01*
X109589285Y-81817857D01*
X109589285Y-82055952D01*
X109636904Y-82151190D01*
X109684523Y-82198809D01*
X109779761Y-82246428D01*
X109970238Y-82246428D01*
X110065476Y-82198809D01*
X110113095Y-82151190D01*
X110160714Y-82055952D01*
X160607142Y-56240475D02*
X160559523Y-56288094D01*
X160416666Y-56335713D01*
X160321428Y-56335713D01*
X160178571Y-56288094D01*
X160083333Y-56192856D01*
X160035714Y-56097618D01*
X159988095Y-55907142D01*
X159988095Y-55764285D01*
X160035714Y-55573809D01*
X160083333Y-55478571D01*
X160178571Y-55383333D01*
X160321428Y-55335713D01*
X160416666Y-55335713D01*
X160559523Y-55383333D01*
X160607142Y-55430952D01*
X161559523Y-56335713D02*
X160988095Y-56335713D01*
X161273809Y-56335713D02*
X161273809Y-55335713D01*
X161178571Y-55478571D01*
X161083333Y-55573809D01*
X160988095Y-55621428D01*
X162178571Y-55335713D02*
X162273809Y-55335713D01*
X162369047Y-55383333D01*
X162416666Y-55430952D01*
X162464285Y-55526190D01*
X162511904Y-55716666D01*
X162511904Y-55954761D01*
X162464285Y-56145237D01*
X162416666Y-56240475D01*
X162369047Y-56288094D01*
X162273809Y-56335713D01*
X162178571Y-56335713D01*
X162083333Y-56288094D01*
X162035714Y-56240475D01*
X161988095Y-56145237D01*
X161940476Y-55954761D01*
X161940476Y-55716666D01*
X161988095Y-55526190D01*
X162035714Y-55430952D01*
X162083333Y-55383333D01*
X162178571Y-55335713D01*
X160607142Y-60873808D02*
X160559523Y-60921427D01*
X160416666Y-60969046D01*
X160321428Y-60969046D01*
X160178571Y-60921427D01*
X160083333Y-60826189D01*
X160035714Y-60730951D01*
X159988095Y-60540475D01*
X159988095Y-60397618D01*
X160035714Y-60207142D01*
X160083333Y-60111904D01*
X160178571Y-60016666D01*
X160321428Y-59969046D01*
X160416666Y-59969046D01*
X160559523Y-60016666D01*
X160607142Y-60064285D01*
X161559523Y-60969046D02*
X160988095Y-60969046D01*
X161273809Y-60969046D02*
X161273809Y-59969046D01*
X161178571Y-60111904D01*
X161083333Y-60207142D01*
X160988095Y-60254761D01*
X162511904Y-60969046D02*
X161940476Y-60969046D01*
X162226190Y-60969046D02*
X162226190Y-59969046D01*
X162130952Y-60111904D01*
X162035714Y-60207142D01*
X161940476Y-60254761D01*
X169557142Y-68807142D02*
X169509523Y-68854761D01*
X169366666Y-68902380D01*
X169271428Y-68902380D01*
X169128571Y-68854761D01*
X169033333Y-68759523D01*
X168985714Y-68664285D01*
X168938095Y-68473809D01*
X168938095Y-68330952D01*
X168985714Y-68140476D01*
X169033333Y-68045238D01*
X169128571Y-67950000D01*
X169271428Y-67902380D01*
X169366666Y-67902380D01*
X169509523Y-67950000D01*
X169557142Y-67997619D01*
X170509523Y-68902380D02*
X169938095Y-68902380D01*
X170223809Y-68902380D02*
X170223809Y-67902380D01*
X170128571Y-68045238D01*
X170033333Y-68140476D01*
X169938095Y-68188095D01*
X170890476Y-67997619D02*
X170938095Y-67950000D01*
X171033333Y-67902380D01*
X171271428Y-67902380D01*
X171366666Y-67950000D01*
X171414285Y-67997619D01*
X171461904Y-68092857D01*
X171461904Y-68188095D01*
X171414285Y-68330952D01*
X170842857Y-68902380D01*
X171461904Y-68902380D01*
X169557142Y-56240475D02*
X169509523Y-56288094D01*
X169366666Y-56335713D01*
X169271428Y-56335713D01*
X169128571Y-56288094D01*
X169033333Y-56192856D01*
X168985714Y-56097618D01*
X168938095Y-55907142D01*
X168938095Y-55764285D01*
X168985714Y-55573809D01*
X169033333Y-55478571D01*
X169128571Y-55383333D01*
X169271428Y-55335713D01*
X169366666Y-55335713D01*
X169509523Y-55383333D01*
X169557142Y-55430952D01*
X170509523Y-56335713D02*
X169938095Y-56335713D01*
X170223809Y-56335713D02*
X170223809Y-55335713D01*
X170128571Y-55478571D01*
X170033333Y-55573809D01*
X169938095Y-55621428D01*
X170842857Y-55335713D02*
X171461904Y-55335713D01*
X171128571Y-55716666D01*
X171271428Y-55716666D01*
X171366666Y-55764285D01*
X171414285Y-55811904D01*
X171461904Y-55907142D01*
X171461904Y-56145237D01*
X171414285Y-56240475D01*
X171366666Y-56288094D01*
X171271428Y-56335713D01*
X170985714Y-56335713D01*
X170890476Y-56288094D01*
X170842857Y-56240475D01*
X147632142Y-56057142D02*
X147584523Y-56104761D01*
X147441666Y-56152380D01*
X147346428Y-56152380D01*
X147203571Y-56104761D01*
X147108333Y-56009523D01*
X147060714Y-55914285D01*
X147013095Y-55723809D01*
X147013095Y-55580952D01*
X147060714Y-55390476D01*
X147108333Y-55295238D01*
X147203571Y-55200000D01*
X147346428Y-55152380D01*
X147441666Y-55152380D01*
X147584523Y-55200000D01*
X147632142Y-55247619D01*
X148584523Y-56152380D02*
X148013095Y-56152380D01*
X148298809Y-56152380D02*
X148298809Y-55152380D01*
X148203571Y-55295238D01*
X148108333Y-55390476D01*
X148013095Y-55438095D01*
X149441666Y-55485714D02*
X149441666Y-56152380D01*
X149203571Y-55104761D02*
X148965476Y-55819047D01*
X149584523Y-55819047D01*
X146032142Y-69982142D02*
X145984523Y-70029761D01*
X145841666Y-70077380D01*
X145746428Y-70077380D01*
X145603571Y-70029761D01*
X145508333Y-69934523D01*
X145460714Y-69839285D01*
X145413095Y-69648809D01*
X145413095Y-69505952D01*
X145460714Y-69315476D01*
X145508333Y-69220238D01*
X145603571Y-69125000D01*
X145746428Y-69077380D01*
X145841666Y-69077380D01*
X145984523Y-69125000D01*
X146032142Y-69172619D01*
X146984523Y-70077380D02*
X146413095Y-70077380D01*
X146698809Y-70077380D02*
X146698809Y-69077380D01*
X146603571Y-69220238D01*
X146508333Y-69315476D01*
X146413095Y-69363095D01*
X147889285Y-69077380D02*
X147413095Y-69077380D01*
X147365476Y-69553571D01*
X147413095Y-69505952D01*
X147508333Y-69458333D01*
X147746428Y-69458333D01*
X147841666Y-69505952D01*
X147889285Y-69553571D01*
X147936904Y-69648809D01*
X147936904Y-69886904D01*
X147889285Y-69982142D01*
X147841666Y-70029761D01*
X147746428Y-70077380D01*
X147508333Y-70077380D01*
X147413095Y-70029761D01*
X147365476Y-69982142D01*
X160607142Y-65507142D02*
X160559523Y-65554761D01*
X160416666Y-65602380D01*
X160321428Y-65602380D01*
X160178571Y-65554761D01*
X160083333Y-65459523D01*
X160035714Y-65364285D01*
X159988095Y-65173809D01*
X159988095Y-65030952D01*
X160035714Y-64840476D01*
X160083333Y-64745238D01*
X160178571Y-64650000D01*
X160321428Y-64602380D01*
X160416666Y-64602380D01*
X160559523Y-64650000D01*
X160607142Y-64697619D01*
X161559523Y-65602380D02*
X160988095Y-65602380D01*
X161273809Y-65602380D02*
X161273809Y-64602380D01*
X161178571Y-64745238D01*
X161083333Y-64840476D01*
X160988095Y-64888095D01*
X162416666Y-64602380D02*
X162226190Y-64602380D01*
X162130952Y-64650000D01*
X162083333Y-64697619D01*
X161988095Y-64840476D01*
X161940476Y-65030952D01*
X161940476Y-65411904D01*
X161988095Y-65507142D01*
X162035714Y-65554761D01*
X162130952Y-65602380D01*
X162321428Y-65602380D01*
X162416666Y-65554761D01*
X162464285Y-65507142D01*
X162511904Y-65411904D01*
X162511904Y-65173809D01*
X162464285Y-65078571D01*
X162416666Y-65030952D01*
X162321428Y-64983333D01*
X162130952Y-64983333D01*
X162035714Y-65030952D01*
X161988095Y-65078571D01*
X161940476Y-65173809D01*
X137961904Y-143277380D02*
X137961904Y-142277380D01*
X138200000Y-142277380D01*
X138342857Y-142325000D01*
X138438095Y-142420238D01*
X138485714Y-142515476D01*
X138533333Y-142705952D01*
X138533333Y-142848809D01*
X138485714Y-143039285D01*
X138438095Y-143134523D01*
X138342857Y-143229761D01*
X138200000Y-143277380D01*
X137961904Y-143277380D01*
X139485714Y-143277380D02*
X138914285Y-143277380D01*
X139200000Y-143277380D02*
X139200000Y-142277380D01*
X139104761Y-142420238D01*
X139009523Y-142515476D01*
X138914285Y-142563095D01*
X141311904Y-127577380D02*
X141311904Y-126577380D01*
X141550000Y-126577380D01*
X141692857Y-126625000D01*
X141788095Y-126720238D01*
X141835714Y-126815476D01*
X141883333Y-127005952D01*
X141883333Y-127148809D01*
X141835714Y-127339285D01*
X141788095Y-127434523D01*
X141692857Y-127529761D01*
X141550000Y-127577380D01*
X141311904Y-127577380D01*
X142264285Y-126672619D02*
X142311904Y-126625000D01*
X142407142Y-126577380D01*
X142645238Y-126577380D01*
X142740476Y-126625000D01*
X142788095Y-126672619D01*
X142835714Y-126767857D01*
X142835714Y-126863095D01*
X142788095Y-127005952D01*
X142216666Y-127577380D01*
X142835714Y-127577380D01*
X110861904Y-127102380D02*
X110861904Y-126102380D01*
X111100000Y-126102380D01*
X111242857Y-126150000D01*
X111338095Y-126245238D01*
X111385714Y-126340476D01*
X111433333Y-126530952D01*
X111433333Y-126673809D01*
X111385714Y-126864285D01*
X111338095Y-126959523D01*
X111242857Y-127054761D01*
X111100000Y-127102380D01*
X110861904Y-127102380D01*
X111766666Y-126102380D02*
X112385714Y-126102380D01*
X112052380Y-126483333D01*
X112195238Y-126483333D01*
X112290476Y-126530952D01*
X112338095Y-126578571D01*
X112385714Y-126673809D01*
X112385714Y-126911904D01*
X112338095Y-127007142D01*
X112290476Y-127054761D01*
X112195238Y-127102380D01*
X111909523Y-127102380D01*
X111814285Y-127054761D01*
X111766666Y-127007142D01*
X88636904Y-127102380D02*
X88636904Y-126102380D01*
X88875000Y-126102380D01*
X89017857Y-126150000D01*
X89113095Y-126245238D01*
X89160714Y-126340476D01*
X89208333Y-126530952D01*
X89208333Y-126673809D01*
X89160714Y-126864285D01*
X89113095Y-126959523D01*
X89017857Y-127054761D01*
X88875000Y-127102380D01*
X88636904Y-127102380D01*
X90065476Y-126435714D02*
X90065476Y-127102380D01*
X89827380Y-126054761D02*
X89589285Y-126769047D01*
X90208333Y-126769047D01*
X123286904Y-78172380D02*
X123286904Y-77172380D01*
X123525000Y-77172380D01*
X123667857Y-77220000D01*
X123763095Y-77315238D01*
X123810714Y-77410476D01*
X123858333Y-77600952D01*
X123858333Y-77743809D01*
X123810714Y-77934285D01*
X123763095Y-78029523D01*
X123667857Y-78124761D01*
X123525000Y-78172380D01*
X123286904Y-78172380D01*
X124763095Y-77172380D02*
X124286904Y-77172380D01*
X124239285Y-77648571D01*
X124286904Y-77600952D01*
X124382142Y-77553333D01*
X124620238Y-77553333D01*
X124715476Y-77600952D01*
X124763095Y-77648571D01*
X124810714Y-77743809D01*
X124810714Y-77981904D01*
X124763095Y-78077142D01*
X124715476Y-78124761D01*
X124620238Y-78172380D01*
X124382142Y-78172380D01*
X124286904Y-78124761D01*
X124239285Y-78077142D01*
X166686904Y-71852380D02*
X166686904Y-70852380D01*
X166925000Y-70852380D01*
X167067857Y-70900000D01*
X167163095Y-70995238D01*
X167210714Y-71090476D01*
X167258333Y-71280952D01*
X167258333Y-71423809D01*
X167210714Y-71614285D01*
X167163095Y-71709523D01*
X167067857Y-71804761D01*
X166925000Y-71852380D01*
X166686904Y-71852380D01*
X168115476Y-70852380D02*
X167925000Y-70852380D01*
X167829761Y-70900000D01*
X167782142Y-70947619D01*
X167686904Y-71090476D01*
X167639285Y-71280952D01*
X167639285Y-71661904D01*
X167686904Y-71757142D01*
X167734523Y-71804761D01*
X167829761Y-71852380D01*
X168020238Y-71852380D01*
X168115476Y-71804761D01*
X168163095Y-71757142D01*
X168210714Y-71661904D01*
X168210714Y-71423809D01*
X168163095Y-71328571D01*
X168115476Y-71280952D01*
X168020238Y-71233333D01*
X167829761Y-71233333D01*
X167734523Y-71280952D01*
X167686904Y-71328571D01*
X167639285Y-71423809D01*
X141336904Y-81902380D02*
X141336904Y-80902380D01*
X141575000Y-80902380D01*
X141717857Y-80950000D01*
X141813095Y-81045238D01*
X141860714Y-81140476D01*
X141908333Y-81330952D01*
X141908333Y-81473809D01*
X141860714Y-81664285D01*
X141813095Y-81759523D01*
X141717857Y-81854761D01*
X141575000Y-81902380D01*
X141336904Y-81902380D01*
X142241666Y-80902380D02*
X142908333Y-80902380D01*
X142479761Y-81902380D01*
X122341666Y-142703571D02*
X122008333Y-142703571D01*
X122008333Y-143227380D02*
X122008333Y-142227380D01*
X122484523Y-142227380D01*
X123389285Y-143227380D02*
X122817857Y-143227380D01*
X123103571Y-143227380D02*
X123103571Y-142227380D01*
X123008333Y-142370238D01*
X122913095Y-142465476D01*
X122817857Y-142513095D01*
X109801066Y-149820380D02*
X109801066Y-150534666D01*
X109753447Y-150677523D01*
X109658209Y-150772761D01*
X109515352Y-150820380D01*
X109420114Y-150820380D01*
X110801066Y-150820380D02*
X110229638Y-150820380D01*
X110515352Y-150820380D02*
X110515352Y-149820380D01*
X110420114Y-149963238D01*
X110324876Y-150058476D01*
X110229638Y-150106095D01*
X176736666Y-85097380D02*
X176736666Y-85811666D01*
X176689047Y-85954523D01*
X176593809Y-86049761D01*
X176450952Y-86097380D01*
X176355714Y-86097380D01*
X177165238Y-85192619D02*
X177212857Y-85145000D01*
X177308095Y-85097380D01*
X177546190Y-85097380D01*
X177641428Y-85145000D01*
X177689047Y-85192619D01*
X177736666Y-85287857D01*
X177736666Y-85383095D01*
X177689047Y-85525952D01*
X177117619Y-86097380D01*
X177736666Y-86097380D01*
X163504166Y-85097380D02*
X163504166Y-85811666D01*
X163456547Y-85954523D01*
X163361309Y-86049761D01*
X163218452Y-86097380D01*
X163123214Y-86097380D01*
X163885119Y-85097380D02*
X164504166Y-85097380D01*
X164170833Y-85478333D01*
X164313690Y-85478333D01*
X164408928Y-85525952D01*
X164456547Y-85573571D01*
X164504166Y-85668809D01*
X164504166Y-85906904D01*
X164456547Y-86002142D01*
X164408928Y-86049761D01*
X164313690Y-86097380D01*
X164027976Y-86097380D01*
X163932738Y-86049761D01*
X163885119Y-86002142D01*
X150321666Y-84682380D02*
X150321666Y-85396666D01*
X150274047Y-85539523D01*
X150178809Y-85634761D01*
X150035952Y-85682380D01*
X149940714Y-85682380D01*
X151226428Y-85015714D02*
X151226428Y-85682380D01*
X150988333Y-84634761D02*
X150750238Y-85349047D01*
X151369285Y-85349047D01*
X158321666Y-116007379D02*
X158321666Y-116721665D01*
X158274047Y-116864522D01*
X158178809Y-116959760D01*
X158035952Y-117007379D01*
X157940714Y-117007379D01*
X159274047Y-116007379D02*
X158797857Y-116007379D01*
X158750238Y-116483570D01*
X158797857Y-116435951D01*
X158893095Y-116388332D01*
X159131190Y-116388332D01*
X159226428Y-116435951D01*
X159274047Y-116483570D01*
X159321666Y-116578808D01*
X159321666Y-116816903D01*
X159274047Y-116912141D01*
X159226428Y-116959760D01*
X159131190Y-117007379D01*
X158893095Y-117007379D01*
X158797857Y-116959760D01*
X158750238Y-116912141D01*
X176171666Y-116007379D02*
X176171666Y-116721665D01*
X176124047Y-116864522D01*
X176028809Y-116959760D01*
X175885952Y-117007379D01*
X175790714Y-117007379D01*
X177076428Y-116007379D02*
X176885952Y-116007379D01*
X176790714Y-116054999D01*
X176743095Y-116102618D01*
X176647857Y-116245475D01*
X176600238Y-116435951D01*
X176600238Y-116816903D01*
X176647857Y-116912141D01*
X176695476Y-116959760D01*
X176790714Y-117007379D01*
X176981190Y-117007379D01*
X177076428Y-116959760D01*
X177124047Y-116912141D01*
X177171666Y-116816903D01*
X177171666Y-116578808D01*
X177124047Y-116483570D01*
X177076428Y-116435951D01*
X176981190Y-116388332D01*
X176790714Y-116388332D01*
X176695476Y-116435951D01*
X176647857Y-116483570D01*
X176600238Y-116578808D01*
X117208333Y-55627380D02*
X116732142Y-55627380D01*
X116732142Y-54627380D01*
X118065476Y-55627380D02*
X117494047Y-55627380D01*
X117779761Y-55627380D02*
X117779761Y-54627380D01*
X117684523Y-54770238D01*
X117589285Y-54865476D01*
X117494047Y-54913095D01*
X119833333Y-127602380D02*
X119500000Y-127126190D01*
X119261904Y-127602380D02*
X119261904Y-126602380D01*
X119642857Y-126602380D01*
X119738095Y-126650000D01*
X119785714Y-126697619D01*
X119833333Y-126792857D01*
X119833333Y-126935714D01*
X119785714Y-127030952D01*
X119738095Y-127078571D01*
X119642857Y-127126190D01*
X119261904Y-127126190D01*
X120785714Y-127602380D02*
X120214285Y-127602380D01*
X120500000Y-127602380D02*
X120500000Y-126602380D01*
X120404761Y-126745238D01*
X120309523Y-126840476D01*
X120214285Y-126888095D01*
X103994999Y-127102380D02*
X103661666Y-126626190D01*
X103423570Y-127102380D02*
X103423570Y-126102380D01*
X103804523Y-126102380D01*
X103899761Y-126150000D01*
X103947380Y-126197619D01*
X103994999Y-126292857D01*
X103994999Y-126435714D01*
X103947380Y-126530952D01*
X103899761Y-126578571D01*
X103804523Y-126626190D01*
X103423570Y-126626190D01*
X104375951Y-126197619D02*
X104423570Y-126150000D01*
X104518808Y-126102380D01*
X104756904Y-126102380D01*
X104852142Y-126150000D01*
X104899761Y-126197619D01*
X104947380Y-126292857D01*
X104947380Y-126388095D01*
X104899761Y-126530952D01*
X104328332Y-127102380D01*
X104947380Y-127102380D01*
X96601666Y-127102380D02*
X96268333Y-126626190D01*
X96030237Y-127102380D02*
X96030237Y-126102380D01*
X96411190Y-126102380D01*
X96506428Y-126150000D01*
X96554047Y-126197619D01*
X96601666Y-126292857D01*
X96601666Y-126435714D01*
X96554047Y-126530952D01*
X96506428Y-126578571D01*
X96411190Y-126626190D01*
X96030237Y-126626190D01*
X96934999Y-126102380D02*
X97554047Y-126102380D01*
X97220713Y-126483333D01*
X97363571Y-126483333D01*
X97458809Y-126530952D01*
X97506428Y-126578571D01*
X97554047Y-126673809D01*
X97554047Y-126911904D01*
X97506428Y-127007142D01*
X97458809Y-127054761D01*
X97363571Y-127102380D01*
X97077856Y-127102380D01*
X96982618Y-127054761D01*
X96934999Y-127007142D01*
X114108333Y-89252380D02*
X113775000Y-88776190D01*
X113536904Y-89252380D02*
X113536904Y-88252380D01*
X113917857Y-88252380D01*
X114013095Y-88300000D01*
X114060714Y-88347619D01*
X114108333Y-88442857D01*
X114108333Y-88585714D01*
X114060714Y-88680952D01*
X114013095Y-88728571D01*
X113917857Y-88776190D01*
X113536904Y-88776190D01*
X114965476Y-88585714D02*
X114965476Y-89252380D01*
X114727380Y-88204761D02*
X114489285Y-88919047D01*
X115108333Y-88919047D01*
X167235833Y-77102380D02*
X166902500Y-76626190D01*
X166664404Y-77102380D02*
X166664404Y-76102380D01*
X167045357Y-76102380D01*
X167140595Y-76150000D01*
X167188214Y-76197619D01*
X167235833Y-76292857D01*
X167235833Y-76435714D01*
X167188214Y-76530952D01*
X167140595Y-76578571D01*
X167045357Y-76626190D01*
X166664404Y-76626190D01*
X168092976Y-76102380D02*
X167902500Y-76102380D01*
X167807261Y-76150000D01*
X167759642Y-76197619D01*
X167664404Y-76340476D01*
X167616785Y-76530952D01*
X167616785Y-76911904D01*
X167664404Y-77007142D01*
X167712023Y-77054761D01*
X167807261Y-77102380D01*
X167997738Y-77102380D01*
X168092976Y-77054761D01*
X168140595Y-77007142D01*
X168188214Y-76911904D01*
X168188214Y-76673809D01*
X168140595Y-76578571D01*
X168092976Y-76530952D01*
X167997738Y-76483333D01*
X167807261Y-76483333D01*
X167712023Y-76530952D01*
X167664404Y-76578571D01*
X167616785Y-76673809D01*
X114158333Y-83127380D02*
X113825000Y-82651190D01*
X113586904Y-83127380D02*
X113586904Y-82127380D01*
X113967857Y-82127380D01*
X114063095Y-82175000D01*
X114110714Y-82222619D01*
X114158333Y-82317857D01*
X114158333Y-82460714D01*
X114110714Y-82555952D01*
X114063095Y-82603571D01*
X113967857Y-82651190D01*
X113586904Y-82651190D01*
X114491666Y-82127380D02*
X115158333Y-82127380D01*
X114729761Y-83127380D01*
X134583333Y-64127380D02*
X134250000Y-63651190D01*
X134011904Y-64127380D02*
X134011904Y-63127380D01*
X134392857Y-63127380D01*
X134488095Y-63175000D01*
X134535714Y-63222619D01*
X134583333Y-63317857D01*
X134583333Y-63460714D01*
X134535714Y-63555952D01*
X134488095Y-63603571D01*
X134392857Y-63651190D01*
X134011904Y-63651190D01*
X135154761Y-63555952D02*
X135059523Y-63508333D01*
X135011904Y-63460714D01*
X134964285Y-63365476D01*
X134964285Y-63317857D01*
X135011904Y-63222619D01*
X135059523Y-63175000D01*
X135154761Y-63127380D01*
X135345238Y-63127380D01*
X135440476Y-63175000D01*
X135488095Y-63222619D01*
X135535714Y-63317857D01*
X135535714Y-63365476D01*
X135488095Y-63460714D01*
X135440476Y-63508333D01*
X135345238Y-63555952D01*
X135154761Y-63555952D01*
X135059523Y-63603571D01*
X135011904Y-63651190D01*
X134964285Y-63746428D01*
X134964285Y-63936904D01*
X135011904Y-64032142D01*
X135059523Y-64079761D01*
X135154761Y-64127380D01*
X135345238Y-64127380D01*
X135440476Y-64079761D01*
X135488095Y-64032142D01*
X135535714Y-63936904D01*
X135535714Y-63746428D01*
X135488095Y-63651190D01*
X135440476Y-63603571D01*
X135345238Y-63555952D01*
X141885833Y-86427380D02*
X141552500Y-85951190D01*
X141314404Y-86427380D02*
X141314404Y-85427380D01*
X141695357Y-85427380D01*
X141790595Y-85475000D01*
X141838214Y-85522619D01*
X141885833Y-85617857D01*
X141885833Y-85760714D01*
X141838214Y-85855952D01*
X141790595Y-85903571D01*
X141695357Y-85951190D01*
X141314404Y-85951190D01*
X142362023Y-86427380D02*
X142552500Y-86427380D01*
X142647738Y-86379761D01*
X142695357Y-86332142D01*
X142790595Y-86189285D01*
X142838214Y-85998809D01*
X142838214Y-85617857D01*
X142790595Y-85522619D01*
X142742976Y-85475000D01*
X142647738Y-85427380D01*
X142457261Y-85427380D01*
X142362023Y-85475000D01*
X142314404Y-85522619D01*
X142266785Y-85617857D01*
X142266785Y-85855952D01*
X142314404Y-85951190D01*
X142362023Y-85998809D01*
X142457261Y-86046428D01*
X142647738Y-86046428D01*
X142742976Y-85998809D01*
X142790595Y-85951190D01*
X142838214Y-85855952D01*
X137164761Y-71017380D02*
X136831428Y-70541190D01*
X136593333Y-71017380D02*
X136593333Y-70017380D01*
X136974285Y-70017380D01*
X137069523Y-70065000D01*
X137117142Y-70112619D01*
X137164761Y-70207857D01*
X137164761Y-70350714D01*
X137117142Y-70445952D01*
X137069523Y-70493571D01*
X136974285Y-70541190D01*
X136593333Y-70541190D01*
X137450476Y-70017380D02*
X137783809Y-71017380D01*
X138117142Y-70017380D01*
X138974285Y-71017380D02*
X138402857Y-71017380D01*
X138688571Y-71017380D02*
X138688571Y-70017380D01*
X138593333Y-70160238D01*
X138498095Y-70255476D01*
X138402857Y-70303095D01*
X156138095Y-71177380D02*
X156138095Y-71986904D01*
X156185714Y-72082142D01*
X156233333Y-72129761D01*
X156328571Y-72177380D01*
X156519047Y-72177380D01*
X156614285Y-72129761D01*
X156661904Y-72082142D01*
X156709523Y-71986904D01*
X156709523Y-71177380D01*
X157090476Y-71177380D02*
X157709523Y-71177380D01*
X157376190Y-71558333D01*
X157519047Y-71558333D01*
X157614285Y-71605952D01*
X157661904Y-71653571D01*
X157709523Y-71748809D01*
X157709523Y-71986904D01*
X157661904Y-72082142D01*
X157614285Y-72129761D01*
X157519047Y-72177380D01*
X157233333Y-72177380D01*
X157138095Y-72129761D01*
X157090476Y-72082142D01*
X127388095Y-78402380D02*
X127388095Y-79211904D01*
X127435714Y-79307142D01*
X127483333Y-79354761D01*
X127578571Y-79402380D01*
X127769047Y-79402380D01*
X127864285Y-79354761D01*
X127911904Y-79307142D01*
X127959523Y-79211904D01*
X127959523Y-78402380D01*
X128864285Y-78735714D02*
X128864285Y-79402380D01*
X128626190Y-78354761D02*
X128388095Y-79069047D01*
X129007142Y-79069047D01*
M02*
