M48
; DRILL file {KiCad (5.1.9)-1} date 02/07/21 14:36:35
; FORMAT={-:-/ absolute / inch / decimal}
; #@! TF.CreationDate,2021-02-07T14:36:35+03:00
; #@! TF.GenerationSoftware,Kicad,Pcbnew,(5.1.9)-1
; #@! TF.FileFunction,Plated,1,2,PTH
FMAT,2
INCH
T1C0.0157
T2C0.0197
T3C0.0315
T4C0.0394
T5C0.0591
T6C0.1260
%
G90
G05
T1
X4.1412Y-5.3194
X4.488Y-5.214
X4.496Y-3.362
X4.538Y-3.07
X4.5686Y-2.7126
X4.67Y-3.454
X4.704Y-3.13
X4.792Y-3.12
X4.826Y-3.754
X4.828Y-3.672
X5.168Y-3.704
X5.38Y-3.704
X5.44Y-3.07
X5.71Y-5.448
X5.854Y-5.256
X5.892Y-3.092
X6.041Y-4.429
X6.1516Y-2.6181
X6.2234Y-3.5646
X6.4528Y-2.8159
X6.5276Y-2.6299
X6.566Y-5.53
X6.634Y-3.288
X6.654Y-5.798
X6.7943Y-2.5325
T2
X3.4055Y-2.3
X3.4055Y-5.8
X3.4332Y-2.2332
X3.4332Y-2.3668
X3.4332Y-5.7332
X3.4332Y-5.8668
X3.5Y-2.2055
X3.5Y-2.3945
X3.5Y-5.7055
X3.5Y-5.8945
X3.5668Y-2.2332
X3.5668Y-2.3668
X3.5668Y-5.7332
X3.5668Y-5.8668
X3.5945Y-2.3
X3.5945Y-5.8
X6.9055Y-2.3
X6.9055Y-5.8
X6.9332Y-2.2332
X6.9332Y-2.3668
X6.9332Y-5.7332
X6.9332Y-5.8668
X7.0Y-2.2055
X7.0Y-2.3945
X7.0Y-5.7055
X7.0Y-5.8945
X7.0668Y-2.2332
X7.0668Y-2.3668
X7.0668Y-5.7332
X7.0668Y-5.8668
X7.0945Y-2.3
X7.0945Y-5.8
T3
X5.3236Y-2.9124
X5.4236Y-2.9124
X5.5236Y-2.9124
T4
X5.8813Y-3.4646
X5.8813Y-3.5646
X5.8813Y-3.6646
X5.8813Y-3.7646
X5.8813Y-3.8646
X5.9813Y-3.4646
X5.9813Y-3.5646
X5.9813Y-3.6646
X5.9813Y-3.7646
X5.9813Y-3.8646
X6.1963Y-4.6978
X6.1963Y-4.7978
X6.1963Y-4.8978
X6.1963Y-4.9978
X6.1963Y-5.0978
X6.1963Y-5.1978
X6.1963Y-5.2978
X6.1963Y-5.3978
X6.2963Y-4.6978
X6.2963Y-4.7978
X6.2963Y-4.8978
X6.2963Y-4.9978
X6.2963Y-5.0978
X6.2963Y-5.1978
X6.2963Y-5.2978
X6.2963Y-5.3978
X6.4003Y-3.4636
X6.4003Y-3.5636
X6.4003Y-3.6636
X6.4003Y-3.7636
X6.4003Y-3.8636
X6.5003Y-3.4636
X6.5003Y-3.5636
X6.5003Y-3.6636
X6.5003Y-3.7636
X6.5003Y-3.8636
X6.899Y-4.6978
X6.899Y-4.7978
X6.899Y-4.8978
X6.899Y-4.9978
X6.899Y-5.0978
X6.899Y-5.1978
X6.899Y-5.2978
X6.899Y-5.3978
X6.9213Y-3.4636
X6.9213Y-3.5636
X6.9213Y-3.6636
X6.9213Y-3.7636
X6.9213Y-3.8636
X6.999Y-4.6978
X6.999Y-4.7978
X6.999Y-4.8978
X6.999Y-4.9978
X6.999Y-5.0978
X6.999Y-5.1978
X6.999Y-5.2978
X6.999Y-5.3978
X7.0213Y-3.4636
X7.0213Y-3.5636
X7.0213Y-3.6636
X7.0213Y-3.7636
X7.0213Y-3.8636
T5
X3.5315Y-3.2067
X3.5315Y-4.0067
X3.8315Y-3.2067
X3.9315Y-4.0067
X4.0315Y-3.2067
X4.3315Y-4.0067
X4.7549Y-4.5285
X4.7549Y-5.3285
X5.0549Y-4.5285
X5.1549Y-5.3285
X5.2549Y-4.5285
X5.5549Y-5.3285
T6
X3.5Y-2.3
X3.5Y-5.8
X7.0Y-2.3
X7.0Y-5.8
T4
G00X4.0236Y-5.6152
M15
G01X4.1024Y-5.6152
M16
G05
G00X4.0236Y-5.8514
M15
G01X4.1024Y-5.8514
M16
G05
G00X4.248Y-5.7726
M15
G01X4.248Y-5.6939
M16
G05
T0
M30
