G04 #@! TF.GenerationSoftware,KiCad,Pcbnew,(5.1.9)-1*
G04 #@! TF.CreationDate,2021-02-07T14:36:27+03:00*
G04 #@! TF.ProjectId,017_VIP_Elsiel,3031375f-5649-4505-9f45-6c7369656c2e,rev?*
G04 #@! TF.SameCoordinates,Original*
G04 #@! TF.FileFunction,Copper,L2,Bot*
G04 #@! TF.FilePolarity,Positive*
%FSLAX46Y46*%
G04 Gerber Fmt 4.6, Leading zero omitted, Abs format (unit mm)*
G04 Created by KiCad (PCBNEW (5.1.9)-1) date 2021-02-07 14:36:27*
%MOMM*%
%LPD*%
G01*
G04 APERTURE LIST*
G04 #@! TA.AperFunction,ComponentPad*
%ADD10C,6.400000*%
G04 #@! TD*
G04 #@! TA.AperFunction,ComponentPad*
%ADD11C,0.800000*%
G04 #@! TD*
G04 #@! TA.AperFunction,ComponentPad*
%ADD12R,3.500000X3.500000*%
G04 #@! TD*
G04 #@! TA.AperFunction,ComponentPad*
%ADD13O,1.700000X1.700000*%
G04 #@! TD*
G04 #@! TA.AperFunction,ComponentPad*
%ADD14R,1.700000X1.700000*%
G04 #@! TD*
G04 #@! TA.AperFunction,ComponentPad*
%ADD15C,1.440000*%
G04 #@! TD*
G04 #@! TA.AperFunction,ComponentPad*
%ADD16O,2.500000X6.000000*%
G04 #@! TD*
G04 #@! TA.AperFunction,ComponentPad*
%ADD17R,2.500000X6.000000*%
G04 #@! TD*
G04 #@! TA.AperFunction,ViaPad*
%ADD18C,0.800000*%
G04 #@! TD*
G04 #@! TA.AperFunction,Conductor*
%ADD19C,1.000000*%
G04 #@! TD*
G04 #@! TA.AperFunction,Conductor*
%ADD20C,0.500000*%
G04 #@! TD*
G04 #@! TA.AperFunction,Conductor*
%ADD21C,0.250000*%
G04 #@! TD*
G04 #@! TA.AperFunction,Conductor*
%ADD22C,0.750000*%
G04 #@! TD*
G04 #@! TA.AperFunction,NonConductor*
%ADD23C,0.254000*%
G04 #@! TD*
G04 #@! TA.AperFunction,NonConductor*
%ADD24C,0.100000*%
G04 #@! TD*
G04 APERTURE END LIST*
D10*
X177800000Y-58420000D03*
D11*
X177800000Y-56020000D03*
X179497056Y-56722944D03*
X180200000Y-58420000D03*
X179497056Y-60117056D03*
X177800000Y-60820000D03*
X176102944Y-60117056D03*
X175400000Y-58420000D03*
X176102944Y-56722944D03*
D10*
X88900000Y-58420000D03*
D11*
X86500000Y-58420000D03*
X87202944Y-56722944D03*
X88900000Y-56020000D03*
X90597056Y-56722944D03*
X91300000Y-58420000D03*
X90597056Y-60117056D03*
X88900000Y-60820000D03*
X87202944Y-60117056D03*
D10*
X88900000Y-147320000D03*
D11*
X88900000Y-149720000D03*
X87202944Y-149017056D03*
X86500000Y-147320000D03*
X87202944Y-145622944D03*
X88900000Y-144920000D03*
X90597056Y-145622944D03*
X91300000Y-147320000D03*
X90597056Y-149017056D03*
X179497056Y-145622944D03*
X177800000Y-144920000D03*
X176102944Y-145622944D03*
X175400000Y-147320000D03*
X176102944Y-149017056D03*
X177800000Y-149720000D03*
X179497056Y-149017056D03*
X180200000Y-147320000D03*
D10*
X177800000Y-147320000D03*
D12*
X103200000Y-142625000D03*
G04 #@! TA.AperFunction,ComponentPad*
G36*
G01*
X104200000Y-150125000D02*
X102200000Y-150125000D01*
G75*
G02*
X101450000Y-149375000I0J750000D01*
G01*
X101450000Y-147875000D01*
G75*
G02*
X102200000Y-147125000I750000J0D01*
G01*
X104200000Y-147125000D01*
G75*
G02*
X104950000Y-147875000I0J-750000D01*
G01*
X104950000Y-149375000D01*
G75*
G02*
X104200000Y-150125000I-750000J0D01*
G01*
G37*
G04 #@! TD.AperFunction*
G04 #@! TA.AperFunction,ComponentPad*
G36*
G01*
X108775000Y-147375000D02*
X107025000Y-147375000D01*
G75*
G02*
X106150000Y-146500000I0J875000D01*
G01*
X106150000Y-144750000D01*
G75*
G02*
X107025000Y-143875000I875000J0D01*
G01*
X108775000Y-143875000D01*
G75*
G02*
X109650000Y-144750000I0J-875000D01*
G01*
X109650000Y-146500000D01*
G75*
G02*
X108775000Y-147375000I-875000J0D01*
G01*
G37*
G04 #@! TD.AperFunction*
D13*
X178340000Y-98135000D03*
X175800000Y-98135000D03*
X178340000Y-95595000D03*
X175800000Y-95595000D03*
X178340000Y-93055000D03*
X175800000Y-93055000D03*
X178340000Y-90515000D03*
X175800000Y-90515000D03*
X178340000Y-87975000D03*
D14*
X175800000Y-87975000D03*
X162567500Y-87975000D03*
D13*
X165107500Y-87975000D03*
X162567500Y-90515000D03*
X165107500Y-90515000D03*
X162567500Y-93055000D03*
X165107500Y-93055000D03*
X162567500Y-95595000D03*
X165107500Y-95595000D03*
X162567500Y-98135000D03*
X165107500Y-98135000D03*
D14*
X151925000Y-88000000D03*
D13*
X149385000Y-88000000D03*
X151925000Y-90540000D03*
X149385000Y-90540000D03*
X151925000Y-93080000D03*
X149385000Y-93080000D03*
X151925000Y-95620000D03*
X149385000Y-95620000D03*
X151925000Y-98160000D03*
X149385000Y-98160000D03*
X157385000Y-137104999D03*
X159925000Y-137104999D03*
X157385000Y-134564999D03*
X159925000Y-134564999D03*
X157385000Y-132024999D03*
X159925000Y-132024999D03*
X157385000Y-129484999D03*
X159925000Y-129484999D03*
X157385000Y-126944999D03*
X159925000Y-126944999D03*
X157385000Y-124404999D03*
X159925000Y-124404999D03*
X157385000Y-121864999D03*
X159925000Y-121864999D03*
X157385000Y-119324999D03*
D14*
X159925000Y-119324999D03*
X177775000Y-119324999D03*
D13*
X175235000Y-119324999D03*
X177775000Y-121864999D03*
X175235000Y-121864999D03*
X177775000Y-124404999D03*
X175235000Y-124404999D03*
X177775000Y-126944999D03*
X175235000Y-126944999D03*
X177775000Y-129484999D03*
X175235000Y-129484999D03*
X177775000Y-132024999D03*
X175235000Y-132024999D03*
X177775000Y-134564999D03*
X175235000Y-134564999D03*
X177775000Y-137104999D03*
X175235000Y-137104999D03*
G04 #@! TA.AperFunction,SMDPad,CuDef*
G36*
G01*
X169825000Y-143100000D02*
X169825000Y-144350000D01*
G75*
G02*
X169575000Y-144600000I-250000J0D01*
G01*
X168650000Y-144600000D01*
G75*
G02*
X168400000Y-144350000I0J250000D01*
G01*
X168400000Y-143100000D01*
G75*
G02*
X168650000Y-142850000I250000J0D01*
G01*
X169575000Y-142850000D01*
G75*
G02*
X169825000Y-143100000I0J-250000D01*
G01*
G37*
G04 #@! TD.AperFunction*
G04 #@! TA.AperFunction,SMDPad,CuDef*
G36*
G01*
X166850000Y-143100000D02*
X166850000Y-144350000D01*
G75*
G02*
X166600000Y-144600000I-250000J0D01*
G01*
X165675000Y-144600000D01*
G75*
G02*
X165425000Y-144350000I0J250000D01*
G01*
X165425000Y-143100000D01*
G75*
G02*
X165675000Y-142850000I250000J0D01*
G01*
X166600000Y-142850000D01*
G75*
G02*
X166850000Y-143100000I0J-250000D01*
G01*
G37*
G04 #@! TD.AperFunction*
G04 #@! TA.AperFunction,SMDPad,CuDef*
G36*
G01*
X167449999Y-129200000D02*
X168350001Y-129200000D01*
G75*
G02*
X168600000Y-129449999I0J-249999D01*
G01*
X168600000Y-130100001D01*
G75*
G02*
X168350001Y-130350000I-249999J0D01*
G01*
X167449999Y-130350000D01*
G75*
G02*
X167200000Y-130100001I0J249999D01*
G01*
X167200000Y-129449999D01*
G75*
G02*
X167449999Y-129200000I249999J0D01*
G01*
G37*
G04 #@! TD.AperFunction*
G04 #@! TA.AperFunction,SMDPad,CuDef*
G36*
G01*
X167449999Y-131250000D02*
X168350001Y-131250000D01*
G75*
G02*
X168600000Y-131499999I0J-249999D01*
G01*
X168600000Y-132150001D01*
G75*
G02*
X168350001Y-132400000I-249999J0D01*
G01*
X167449999Y-132400000D01*
G75*
G02*
X167200000Y-132150001I0J249999D01*
G01*
X167200000Y-131499999D01*
G75*
G02*
X167449999Y-131250000I249999J0D01*
G01*
G37*
G04 #@! TD.AperFunction*
D15*
X140300000Y-73975000D03*
X137760000Y-73975000D03*
X135220000Y-73975000D03*
D16*
X120775000Y-135345000D03*
X141095000Y-135345000D03*
X128395000Y-115025000D03*
D17*
X133475000Y-115025000D03*
D16*
X130935000Y-135345000D03*
X120775000Y-115025000D03*
X89700000Y-81450000D03*
X99860000Y-101770000D03*
D17*
X102400000Y-81450000D03*
D16*
X97320000Y-81450000D03*
X110020000Y-101770000D03*
X89700000Y-101770000D03*
D18*
X122580400Y-95351600D03*
X169011600Y-147269200D03*
X145034000Y-138379200D03*
X113995200Y-132435600D03*
X105186666Y-135111666D03*
X153441400Y-112496600D03*
X115265200Y-77978000D03*
X149656800Y-78536800D03*
X121716800Y-79248000D03*
X131267200Y-94081600D03*
X136652000Y-94081600D03*
X138176000Y-77978000D03*
X172575000Y-64325000D03*
X165800000Y-66800000D03*
X166776400Y-140462000D03*
X158075200Y-90540000D03*
X168503600Y-83515200D03*
X122631200Y-93268800D03*
X163900000Y-71525000D03*
X148691600Y-133502400D03*
X156250000Y-66499998D03*
X118618000Y-87731600D03*
X119481600Y-79502000D03*
X114198400Y-85394800D03*
X116042400Y-68900000D03*
D19*
X107900000Y-145625000D02*
X110650000Y-145625000D01*
X110650000Y-145625000D02*
X115600000Y-140675000D01*
X115600000Y-140675000D02*
X115600000Y-126100000D01*
X115600000Y-126100000D02*
X121325000Y-120375000D01*
X121325000Y-120375000D02*
X127325000Y-120375000D01*
X128395000Y-119305000D02*
X128395000Y-115025000D01*
X127325000Y-120375000D02*
X128395000Y-119305000D01*
X115600000Y-126100000D02*
X115600000Y-100258400D01*
X115600000Y-100258400D02*
X106883200Y-91541600D01*
X106883200Y-91541600D02*
X100279200Y-91541600D01*
X97320000Y-88582400D02*
X97320000Y-81450000D01*
X100279200Y-91541600D02*
X97320000Y-88582400D01*
X102400000Y-81450000D02*
X102400000Y-87109200D01*
X102400000Y-87109200D02*
X104394000Y-89103200D01*
X104394000Y-89103200D02*
X108915200Y-89103200D01*
X108915200Y-89103200D02*
X125780800Y-105968800D01*
X125780800Y-105968800D02*
X129946400Y-105968800D01*
X133475000Y-109497400D02*
X133475000Y-115025000D01*
X129946400Y-105968800D02*
X133475000Y-109497400D01*
D20*
X122580400Y-95351600D02*
X123901200Y-95351600D01*
X123901200Y-95351600D02*
X128168400Y-91084400D01*
X128168400Y-91084400D02*
X138226800Y-91084400D01*
X145302400Y-98160000D02*
X149385000Y-98160000D01*
X138226800Y-91084400D02*
X145302400Y-98160000D01*
D21*
X178339001Y-133200000D02*
X180441600Y-131097401D01*
X176410001Y-133200000D02*
X178339001Y-133200000D01*
X175235000Y-132024999D02*
X176410001Y-133200000D01*
X180441600Y-131097401D02*
X180441600Y-115874800D01*
X175800000Y-111233200D02*
X175800000Y-98135000D01*
X180441600Y-115874800D02*
X175800000Y-111233200D01*
D22*
X169112500Y-143725000D02*
X172475000Y-143725000D01*
X175235000Y-140965000D02*
X175235000Y-137104999D01*
X172475000Y-143725000D02*
X175235000Y-140965000D01*
D20*
X169011600Y-143825900D02*
X169112500Y-143725000D01*
X169011600Y-147269200D02*
X169011600Y-143825900D01*
D21*
X172262800Y-95758000D02*
X172262800Y-103225600D01*
X172262800Y-103225600D02*
X164084000Y-111404400D01*
X164084000Y-111404400D02*
X154533600Y-111404400D01*
X150672800Y-115265200D02*
X150672800Y-133502400D01*
X154275399Y-137104999D02*
X157385000Y-137104999D01*
X150672800Y-133502400D02*
X154275399Y-137104999D01*
X146308201Y-137104999D02*
X145034000Y-138379200D01*
X154275399Y-137104999D02*
X146308201Y-137104999D01*
X107862732Y-132435600D02*
X105186666Y-135111666D01*
X113995200Y-132435600D02*
X107862732Y-132435600D01*
X171236200Y-93055000D02*
X173101000Y-94919800D01*
X165107500Y-93055000D02*
X171236200Y-93055000D01*
X173101000Y-94919800D02*
X172262800Y-95758000D01*
X173685200Y-94335600D02*
X173101000Y-94919800D01*
X177059400Y-94335600D02*
X173685200Y-94335600D01*
X178340000Y-93055000D02*
X177059400Y-94335600D01*
X153441400Y-112496600D02*
X150672800Y-115265200D01*
X154533600Y-111404400D02*
X153441400Y-112496600D01*
D20*
X115265200Y-77978000D02*
X121310400Y-77978000D01*
X144971802Y-78536800D02*
X149656800Y-78536800D01*
X144413002Y-77978000D02*
X144971802Y-78536800D01*
X121716800Y-78384400D02*
X121716800Y-79248000D01*
X121310400Y-77978000D02*
X121716800Y-78384400D01*
X131267200Y-94081600D02*
X136652000Y-94081600D01*
X138176000Y-77978000D02*
X138176000Y-77978000D01*
X121310400Y-77978000D02*
X138176000Y-77978000D01*
X141095000Y-113155000D02*
X141095000Y-135345000D01*
X130708400Y-102768400D02*
X141095000Y-113155000D01*
X130708400Y-96570800D02*
X130708400Y-102768400D01*
X131267200Y-96012000D02*
X130708400Y-96570800D01*
X131267200Y-94081600D02*
X131267200Y-96012000D01*
X136652000Y-94081600D02*
X136652000Y-94081600D01*
X138176000Y-77978000D02*
X144413002Y-77978000D01*
D22*
X120775000Y-135345000D02*
X120775000Y-135400000D01*
X120775000Y-135400000D02*
X125975000Y-140600000D01*
X125975000Y-140600000D02*
X158450000Y-140600000D01*
X159925000Y-139125000D02*
X159925000Y-137104999D01*
X158450000Y-140600000D02*
X159925000Y-139125000D01*
X158450000Y-140600000D02*
X158450000Y-142350000D01*
X159825000Y-143725000D02*
X166137500Y-143725000D01*
X158450000Y-142350000D02*
X159825000Y-143725000D01*
D20*
X172575000Y-64325000D02*
X171825000Y-63575000D01*
X171825000Y-63575000D02*
X167575000Y-63575000D01*
X165800000Y-65350000D02*
X165800000Y-66800000D01*
X167575000Y-63575000D02*
X165800000Y-65350000D01*
X166137500Y-141100900D02*
X166776400Y-140462000D01*
X166137500Y-143725000D02*
X166137500Y-141100900D01*
X158075200Y-90540000D02*
X158075200Y-87136400D01*
X158075200Y-87136400D02*
X161645600Y-83566000D01*
X168452800Y-83566000D02*
X168503600Y-83515200D01*
X161645600Y-83566000D02*
X168452800Y-83566000D01*
X175800000Y-90515000D02*
X172557000Y-90515000D01*
X168503600Y-86461600D02*
X168503600Y-83515200D01*
X172557000Y-90515000D02*
X168503600Y-86461600D01*
D21*
X173969201Y-128219200D02*
X175235000Y-129484999D01*
X158650799Y-128219200D02*
X173969201Y-128219200D01*
X157385000Y-129484999D02*
X158650799Y-128219200D01*
D20*
X149385000Y-95620000D02*
X146318400Y-95620000D01*
X146318400Y-95620000D02*
X139395200Y-88696800D01*
X127203200Y-88696800D02*
X122631200Y-93268800D01*
X139395200Y-88696800D02*
X127203200Y-88696800D01*
X163900000Y-71525000D02*
X163900000Y-79228800D01*
X157225199Y-85903601D02*
X157225199Y-104951999D01*
X163900000Y-79228800D02*
X157225199Y-85903601D01*
X157225199Y-104951999D02*
X148640800Y-113536398D01*
X148640800Y-133451600D02*
X148691600Y-133502400D01*
X148640800Y-113536398D02*
X148640800Y-133451600D01*
X145235002Y-66499998D02*
X156250000Y-66499998D01*
X137760000Y-73975000D02*
X145235002Y-66499998D01*
X116230400Y-79502000D02*
X119481600Y-79502000D01*
X113309400Y-82423000D02*
X116230400Y-79502000D01*
X118618000Y-87731600D02*
X113309400Y-82423000D01*
X114198400Y-85394800D02*
X110998000Y-82194400D01*
X110998000Y-73944400D02*
X116042400Y-68900000D01*
X110998000Y-82194400D02*
X110998000Y-73944400D01*
X167700001Y-132024999D02*
X167900000Y-131825000D01*
X159925000Y-132024999D02*
X167700001Y-132024999D01*
D21*
X176599999Y-130849998D02*
X177775000Y-132024999D01*
X173035216Y-130849998D02*
X176599999Y-130849998D01*
X172060214Y-131825000D02*
X173035216Y-130849998D01*
X167900000Y-131825000D02*
X172060214Y-131825000D01*
D20*
X167609999Y-129484999D02*
X167900000Y-129775000D01*
X159925000Y-129484999D02*
X167609999Y-129484999D01*
D21*
X174782001Y-126492000D02*
X175235000Y-126944999D01*
X161645600Y-126492000D02*
X174782001Y-126492000D01*
X160832800Y-125679200D02*
X161645600Y-126492000D01*
X158800800Y-125679200D02*
X160832800Y-125679200D01*
X157988000Y-126492000D02*
X158800800Y-125679200D01*
X157632400Y-126492000D02*
X157988000Y-126492000D01*
X157385000Y-126739400D02*
X157632400Y-126492000D01*
X157385000Y-126944999D02*
X157385000Y-126739400D01*
X171242599Y-124404999D02*
X175235000Y-124404999D01*
X169976800Y-123139200D02*
X171242599Y-124404999D01*
X158394400Y-123139200D02*
X169976800Y-123139200D01*
X157385000Y-124148600D02*
X158394400Y-123139200D01*
X157385000Y-124404999D02*
X157385000Y-124148600D01*
D20*
X175235000Y-121864999D02*
X172309399Y-121864999D01*
X172309399Y-121864999D02*
X168706800Y-118262400D01*
X168706800Y-118262400D02*
X168706800Y-115824000D01*
X168706800Y-115824000D02*
X166370000Y-113487200D01*
X166370000Y-113487200D02*
X155295600Y-113487200D01*
X155295600Y-113487200D02*
X151993600Y-116789200D01*
X151993600Y-116789200D02*
X151993600Y-120345200D01*
X153513399Y-121864999D02*
X157385000Y-121864999D01*
X151993600Y-120345200D02*
X153513399Y-121864999D01*
D23*
X174117000Y-57290211D02*
X174112377Y-57301372D01*
X173965000Y-58042285D01*
X173965000Y-58797715D01*
X174112377Y-59538628D01*
X174117000Y-59549789D01*
X174117000Y-61976000D01*
X174119440Y-62000776D01*
X174126667Y-62024601D01*
X174138403Y-62046557D01*
X174154197Y-62065803D01*
X174173443Y-62081597D01*
X174195399Y-62093333D01*
X174219224Y-62100560D01*
X174244000Y-62103000D01*
X176670211Y-62103000D01*
X176681372Y-62107623D01*
X177422285Y-62255000D01*
X178177715Y-62255000D01*
X178918628Y-62107623D01*
X178929789Y-62103000D01*
X182195000Y-62103000D01*
X182195001Y-143637000D01*
X178929789Y-143637000D01*
X178918628Y-143632377D01*
X178177715Y-143485000D01*
X177422285Y-143485000D01*
X176681372Y-143632377D01*
X176670211Y-143637000D01*
X174193200Y-143637000D01*
X174168424Y-143639440D01*
X174144599Y-143646667D01*
X174122643Y-143658403D01*
X174103397Y-143674197D01*
X174087603Y-143693443D01*
X174075867Y-143715399D01*
X174068640Y-143739224D01*
X174066200Y-143764000D01*
X174066200Y-146433519D01*
X173965000Y-146942285D01*
X173965000Y-147697715D01*
X174066200Y-148206481D01*
X174066200Y-151715000D01*
X92532200Y-151715000D01*
X92532200Y-148572431D01*
X92587623Y-148438628D01*
X92699735Y-147875000D01*
X100811928Y-147875000D01*
X100811928Y-149375000D01*
X100838599Y-149645799D01*
X100917589Y-149906192D01*
X101045860Y-150146171D01*
X101218485Y-150356515D01*
X101428829Y-150529140D01*
X101668808Y-150657411D01*
X101929201Y-150736401D01*
X102200000Y-150763072D01*
X104200000Y-150763072D01*
X104470799Y-150736401D01*
X104731192Y-150657411D01*
X104971171Y-150529140D01*
X105181515Y-150356515D01*
X105354140Y-150146171D01*
X105482411Y-149906192D01*
X105561401Y-149645799D01*
X105588072Y-149375000D01*
X105588072Y-147875000D01*
X105561401Y-147604201D01*
X105482411Y-147343808D01*
X105354140Y-147103829D01*
X105181515Y-146893485D01*
X104971171Y-146720860D01*
X104731192Y-146592589D01*
X104470799Y-146513599D01*
X104200000Y-146486928D01*
X102200000Y-146486928D01*
X101929201Y-146513599D01*
X101668808Y-146592589D01*
X101428829Y-146720860D01*
X101218485Y-146893485D01*
X101045860Y-147103829D01*
X100917589Y-147343808D01*
X100838599Y-147604201D01*
X100811928Y-147875000D01*
X92699735Y-147875000D01*
X92735000Y-147697715D01*
X92735000Y-146942285D01*
X92587623Y-146201372D01*
X92532200Y-146067569D01*
X92532200Y-143764000D01*
X92529760Y-143739224D01*
X92522533Y-143715399D01*
X92510797Y-143693443D01*
X92495003Y-143674197D01*
X92475757Y-143658403D01*
X92453801Y-143646667D01*
X92429976Y-143639440D01*
X92405200Y-143637000D01*
X90029789Y-143637000D01*
X90018628Y-143632377D01*
X89277715Y-143485000D01*
X88522285Y-143485000D01*
X87781372Y-143632377D01*
X87770211Y-143637000D01*
X84505000Y-143637000D01*
X84505000Y-99927404D01*
X87815000Y-99927404D01*
X87815001Y-103612597D01*
X87842276Y-103889524D01*
X87950062Y-104244848D01*
X88125098Y-104572317D01*
X88360656Y-104859345D01*
X88647684Y-105094903D01*
X88975153Y-105269939D01*
X89330477Y-105377725D01*
X89700000Y-105414120D01*
X90069524Y-105377725D01*
X90424848Y-105269939D01*
X90752317Y-105094903D01*
X91039345Y-104859345D01*
X91274903Y-104572317D01*
X91449939Y-104244848D01*
X91557725Y-103889524D01*
X91585000Y-103612597D01*
X91585000Y-99927404D01*
X97975000Y-99927404D01*
X97975001Y-103612597D01*
X98002276Y-103889524D01*
X98110062Y-104244848D01*
X98285098Y-104572317D01*
X98520656Y-104859345D01*
X98807684Y-105094903D01*
X99135153Y-105269939D01*
X99490477Y-105377725D01*
X99860000Y-105414120D01*
X100229524Y-105377725D01*
X100584848Y-105269939D01*
X100912317Y-105094903D01*
X101199345Y-104859345D01*
X101434903Y-104572317D01*
X101609939Y-104244848D01*
X101717725Y-103889524D01*
X101745000Y-103612597D01*
X101745000Y-99927404D01*
X108135000Y-99927404D01*
X108135001Y-103612597D01*
X108162276Y-103889524D01*
X108270062Y-104244848D01*
X108445098Y-104572317D01*
X108680656Y-104859345D01*
X108967684Y-105094903D01*
X109295153Y-105269939D01*
X109650477Y-105377725D01*
X110020000Y-105414120D01*
X110389524Y-105377725D01*
X110744848Y-105269939D01*
X111072317Y-105094903D01*
X111359345Y-104859345D01*
X111594903Y-104572317D01*
X111769939Y-104244848D01*
X111877725Y-103889524D01*
X111905000Y-103612597D01*
X111905000Y-99927403D01*
X111877725Y-99650476D01*
X111769939Y-99295152D01*
X111594903Y-98967683D01*
X111359345Y-98680655D01*
X111072317Y-98445097D01*
X110744847Y-98270061D01*
X110389523Y-98162275D01*
X110020000Y-98125880D01*
X109650476Y-98162275D01*
X109295152Y-98270061D01*
X108967683Y-98445097D01*
X108680655Y-98680655D01*
X108445097Y-98967683D01*
X108270061Y-99295153D01*
X108162275Y-99650477D01*
X108135000Y-99927404D01*
X101745000Y-99927404D01*
X101745000Y-99927403D01*
X101717725Y-99650476D01*
X101609939Y-99295152D01*
X101434903Y-98967683D01*
X101199345Y-98680655D01*
X100912317Y-98445097D01*
X100584847Y-98270061D01*
X100229523Y-98162275D01*
X99860000Y-98125880D01*
X99490476Y-98162275D01*
X99135152Y-98270061D01*
X98807683Y-98445097D01*
X98520655Y-98680655D01*
X98285097Y-98967683D01*
X98110061Y-99295153D01*
X98002275Y-99650477D01*
X97975000Y-99927404D01*
X91585000Y-99927404D01*
X91585000Y-99927403D01*
X91557725Y-99650476D01*
X91449939Y-99295152D01*
X91274903Y-98967683D01*
X91039345Y-98680655D01*
X90752317Y-98445097D01*
X90424847Y-98270061D01*
X90069523Y-98162275D01*
X89700000Y-98125880D01*
X89330476Y-98162275D01*
X88975152Y-98270061D01*
X88647683Y-98445097D01*
X88360655Y-98680655D01*
X88125097Y-98967683D01*
X87950061Y-99295153D01*
X87842275Y-99650477D01*
X87815000Y-99927404D01*
X84505000Y-99927404D01*
X84505000Y-79607404D01*
X87815000Y-79607404D01*
X87815001Y-83292597D01*
X87842276Y-83569524D01*
X87950062Y-83924848D01*
X88125098Y-84252317D01*
X88360656Y-84539345D01*
X88647684Y-84774903D01*
X88975153Y-84949939D01*
X89330477Y-85057725D01*
X89700000Y-85094120D01*
X90069524Y-85057725D01*
X90424848Y-84949939D01*
X90752317Y-84774903D01*
X91039345Y-84539345D01*
X91274903Y-84252317D01*
X91449939Y-83924848D01*
X91557725Y-83569524D01*
X91585000Y-83292597D01*
X91585000Y-79607404D01*
X95435000Y-79607404D01*
X95435001Y-83292597D01*
X95462276Y-83569524D01*
X95570062Y-83924848D01*
X95745098Y-84252317D01*
X95980656Y-84539345D01*
X96185001Y-84707046D01*
X96185000Y-88526648D01*
X96179509Y-88582400D01*
X96185000Y-88638151D01*
X96201423Y-88804898D01*
X96266324Y-89018846D01*
X96371716Y-89216023D01*
X96513551Y-89388849D01*
X96556865Y-89424396D01*
X99437209Y-92304741D01*
X99472751Y-92348049D01*
X99560455Y-92420026D01*
X99645577Y-92489884D01*
X99842753Y-92595276D01*
X100056701Y-92660177D01*
X100279200Y-92682091D01*
X100334952Y-92676600D01*
X106413069Y-92676600D01*
X114465001Y-100728533D01*
X114465000Y-126044248D01*
X114459509Y-126100000D01*
X114465000Y-126155751D01*
X114465001Y-126155761D01*
X114465001Y-131509922D01*
X114297098Y-131440374D01*
X114097139Y-131400600D01*
X113893261Y-131400600D01*
X113693302Y-131440374D01*
X113504944Y-131518395D01*
X113335426Y-131631663D01*
X113291489Y-131675600D01*
X107900055Y-131675600D01*
X107862732Y-131671924D01*
X107825409Y-131675600D01*
X107825399Y-131675600D01*
X107713746Y-131686597D01*
X107570485Y-131730054D01*
X107438456Y-131800626D01*
X107322731Y-131895599D01*
X107298933Y-131924597D01*
X105146865Y-134076666D01*
X105084727Y-134076666D01*
X104884768Y-134116440D01*
X104696410Y-134194461D01*
X104526892Y-134307729D01*
X104382729Y-134451892D01*
X104269461Y-134621410D01*
X104191440Y-134809768D01*
X104151666Y-135009727D01*
X104151666Y-135213605D01*
X104191440Y-135413564D01*
X104269461Y-135601922D01*
X104382729Y-135771440D01*
X104526892Y-135915603D01*
X104696410Y-136028871D01*
X104884768Y-136106892D01*
X105084727Y-136146666D01*
X105288605Y-136146666D01*
X105488564Y-136106892D01*
X105676922Y-136028871D01*
X105846440Y-135915603D01*
X105990603Y-135771440D01*
X106103871Y-135601922D01*
X106181892Y-135413564D01*
X106221666Y-135213605D01*
X106221666Y-135151467D01*
X108177534Y-133195600D01*
X113291489Y-133195600D01*
X113335426Y-133239537D01*
X113504944Y-133352805D01*
X113693302Y-133430826D01*
X113893261Y-133470600D01*
X114097139Y-133470600D01*
X114297098Y-133430826D01*
X114465001Y-133361278D01*
X114465000Y-140204868D01*
X110248771Y-144421098D01*
X110172896Y-144170972D01*
X110033073Y-143909382D01*
X109844903Y-143680097D01*
X109615618Y-143491927D01*
X109354028Y-143352104D01*
X109070186Y-143266001D01*
X108775000Y-143236928D01*
X107025000Y-143236928D01*
X106729814Y-143266001D01*
X106445972Y-143352104D01*
X106184382Y-143491927D01*
X105955097Y-143680097D01*
X105766927Y-143909382D01*
X105627104Y-144170972D01*
X105588072Y-144299643D01*
X105588072Y-140875000D01*
X105575812Y-140750518D01*
X105539502Y-140630820D01*
X105480537Y-140520506D01*
X105401185Y-140423815D01*
X105304494Y-140344463D01*
X105194180Y-140285498D01*
X105074482Y-140249188D01*
X104950000Y-140236928D01*
X101450000Y-140236928D01*
X101325518Y-140249188D01*
X101205820Y-140285498D01*
X101095506Y-140344463D01*
X100998815Y-140423815D01*
X100919463Y-140520506D01*
X100860498Y-140630820D01*
X100824188Y-140750518D01*
X100811928Y-140875000D01*
X100811928Y-144375000D01*
X100824188Y-144499482D01*
X100860498Y-144619180D01*
X100919463Y-144729494D01*
X100998815Y-144826185D01*
X101095506Y-144905537D01*
X101205820Y-144964502D01*
X101325518Y-145000812D01*
X101450000Y-145013072D01*
X104950000Y-145013072D01*
X105074482Y-145000812D01*
X105194180Y-144964502D01*
X105304494Y-144905537D01*
X105401185Y-144826185D01*
X105480537Y-144729494D01*
X105521494Y-144652869D01*
X105511928Y-144750000D01*
X105511928Y-146500000D01*
X105541001Y-146795186D01*
X105627104Y-147079028D01*
X105766927Y-147340618D01*
X105955097Y-147569903D01*
X106184382Y-147758073D01*
X106445972Y-147897896D01*
X106729814Y-147983999D01*
X107025000Y-148013072D01*
X108775000Y-148013072D01*
X109070186Y-147983999D01*
X109354028Y-147897896D01*
X109615618Y-147758073D01*
X109844903Y-147569903D01*
X110033073Y-147340618D01*
X110172896Y-147079028D01*
X110258999Y-146795186D01*
X110262464Y-146760000D01*
X110594249Y-146760000D01*
X110650000Y-146765491D01*
X110705751Y-146760000D01*
X110705752Y-146760000D01*
X110872499Y-146743577D01*
X111086447Y-146678676D01*
X111283623Y-146573284D01*
X111456449Y-146431449D01*
X111491996Y-146388135D01*
X116363141Y-141516991D01*
X116406449Y-141481449D01*
X116548284Y-141308623D01*
X116653676Y-141111447D01*
X116718577Y-140897499D01*
X116731736Y-140763898D01*
X116740491Y-140675001D01*
X116735000Y-140619249D01*
X116735000Y-133502404D01*
X118890000Y-133502404D01*
X118890001Y-137187597D01*
X118917276Y-137464524D01*
X119025062Y-137819848D01*
X119200098Y-138147317D01*
X119435656Y-138434345D01*
X119722684Y-138669903D01*
X120050153Y-138844939D01*
X120405477Y-138952725D01*
X120775000Y-138989120D01*
X121144524Y-138952725D01*
X121499848Y-138844939D01*
X121827317Y-138669903D01*
X122114345Y-138434345D01*
X122234536Y-138287892D01*
X125225744Y-141279100D01*
X125257367Y-141317633D01*
X125411160Y-141443847D01*
X125481509Y-141481449D01*
X125586620Y-141537632D01*
X125777005Y-141595385D01*
X125975000Y-141614886D01*
X126024608Y-141610000D01*
X157440001Y-141610000D01*
X157440001Y-142300383D01*
X157435114Y-142350000D01*
X157454615Y-142547994D01*
X157512368Y-142738379D01*
X157573531Y-142852806D01*
X157606154Y-142913840D01*
X157732368Y-143067633D01*
X157770901Y-143099256D01*
X159075743Y-144404099D01*
X159107367Y-144442633D01*
X159261160Y-144568847D01*
X159436620Y-144662632D01*
X159627005Y-144720385D01*
X159825000Y-144739886D01*
X159874608Y-144735000D01*
X164878661Y-144735000D01*
X164936595Y-144843386D01*
X165047038Y-144977962D01*
X165181614Y-145088405D01*
X165335150Y-145170472D01*
X165501746Y-145221008D01*
X165675000Y-145238072D01*
X166600000Y-145238072D01*
X166773254Y-145221008D01*
X166939850Y-145170472D01*
X167093386Y-145088405D01*
X167227962Y-144977962D01*
X167338405Y-144843386D01*
X167420472Y-144689850D01*
X167471008Y-144523254D01*
X167488072Y-144350000D01*
X167488072Y-143100000D01*
X167471008Y-142926746D01*
X167420472Y-142760150D01*
X167338405Y-142606614D01*
X167227962Y-142472038D01*
X167093386Y-142361595D01*
X167022500Y-142323706D01*
X167022500Y-141468325D01*
X167078298Y-141457226D01*
X167266656Y-141379205D01*
X167436174Y-141265937D01*
X167580337Y-141121774D01*
X167693605Y-140952256D01*
X167771626Y-140763898D01*
X167811400Y-140563939D01*
X167811400Y-140360061D01*
X167771626Y-140160102D01*
X167693605Y-139971744D01*
X167580337Y-139802226D01*
X167436174Y-139658063D01*
X167266656Y-139544795D01*
X167078298Y-139466774D01*
X166878339Y-139427000D01*
X166674461Y-139427000D01*
X166474502Y-139466774D01*
X166286144Y-139544795D01*
X166116626Y-139658063D01*
X165972463Y-139802226D01*
X165859195Y-139971744D01*
X165781174Y-140160102D01*
X165769865Y-140216957D01*
X165542451Y-140444371D01*
X165508684Y-140472083D01*
X165480971Y-140505851D01*
X165480968Y-140505854D01*
X165398090Y-140606841D01*
X165315912Y-140760587D01*
X165265305Y-140927410D01*
X165248219Y-141100900D01*
X165252501Y-141144379D01*
X165252501Y-142323705D01*
X165181614Y-142361595D01*
X165047038Y-142472038D01*
X164936595Y-142606614D01*
X164878661Y-142715000D01*
X160243356Y-142715000D01*
X159460000Y-141931645D01*
X159460000Y-141018355D01*
X160604094Y-139874261D01*
X160642633Y-139842633D01*
X160768847Y-139688840D01*
X160862632Y-139513380D01*
X160920385Y-139322994D01*
X160935000Y-139174608D01*
X160935000Y-139174607D01*
X160939886Y-139125001D01*
X160935000Y-139075393D01*
X160935000Y-138195106D01*
X161078475Y-138051631D01*
X161240990Y-137808410D01*
X161352932Y-137538157D01*
X161410000Y-137251259D01*
X161410000Y-136958739D01*
X161352932Y-136671841D01*
X161240990Y-136401588D01*
X161078475Y-136158367D01*
X160871632Y-135951524D01*
X160697240Y-135834999D01*
X160871632Y-135718474D01*
X161078475Y-135511631D01*
X161240990Y-135268410D01*
X161352932Y-134998157D01*
X161410000Y-134711259D01*
X161410000Y-134418739D01*
X161352932Y-134131841D01*
X161240990Y-133861588D01*
X161078475Y-133618367D01*
X160871632Y-133411524D01*
X160697240Y-133294999D01*
X160871632Y-133178474D01*
X161078475Y-132971631D01*
X161119656Y-132909999D01*
X166997012Y-132909999D01*
X167110149Y-132970472D01*
X167276745Y-133021008D01*
X167449999Y-133038072D01*
X168350001Y-133038072D01*
X168523255Y-133021008D01*
X168689851Y-132970472D01*
X168843387Y-132888405D01*
X168977962Y-132777962D01*
X169088405Y-132643387D01*
X169119614Y-132585000D01*
X172022892Y-132585000D01*
X172060214Y-132588676D01*
X172097536Y-132585000D01*
X172097547Y-132585000D01*
X172209200Y-132574003D01*
X172352461Y-132530546D01*
X172484490Y-132459974D01*
X172600215Y-132365001D01*
X172624018Y-132335998D01*
X173350018Y-131609998D01*
X173803456Y-131609998D01*
X173750000Y-131878739D01*
X173750000Y-132171259D01*
X173807068Y-132458157D01*
X173919010Y-132728410D01*
X174081525Y-132971631D01*
X174288368Y-133178474D01*
X174462760Y-133294999D01*
X174288368Y-133411524D01*
X174081525Y-133618367D01*
X173919010Y-133861588D01*
X173807068Y-134131841D01*
X173750000Y-134418739D01*
X173750000Y-134711259D01*
X173807068Y-134998157D01*
X173919010Y-135268410D01*
X174081525Y-135511631D01*
X174288368Y-135718474D01*
X174462760Y-135834999D01*
X174288368Y-135951524D01*
X174081525Y-136158367D01*
X173919010Y-136401588D01*
X173807068Y-136671841D01*
X173750000Y-136958739D01*
X173750000Y-137251259D01*
X173807068Y-137538157D01*
X173919010Y-137808410D01*
X174081525Y-138051631D01*
X174225001Y-138195107D01*
X174225000Y-140546644D01*
X172056645Y-142715000D01*
X170371339Y-142715000D01*
X170313405Y-142606614D01*
X170202962Y-142472038D01*
X170068386Y-142361595D01*
X169914850Y-142279528D01*
X169748254Y-142228992D01*
X169575000Y-142211928D01*
X168650000Y-142211928D01*
X168476746Y-142228992D01*
X168310150Y-142279528D01*
X168156614Y-142361595D01*
X168022038Y-142472038D01*
X167911595Y-142606614D01*
X167829528Y-142760150D01*
X167778992Y-142926746D01*
X167761928Y-143100000D01*
X167761928Y-144350000D01*
X167778992Y-144523254D01*
X167829528Y-144689850D01*
X167911595Y-144843386D01*
X168022038Y-144977962D01*
X168126601Y-145063774D01*
X168126600Y-146730745D01*
X168094395Y-146778944D01*
X168016374Y-146967302D01*
X167976600Y-147167261D01*
X167976600Y-147371139D01*
X168016374Y-147571098D01*
X168094395Y-147759456D01*
X168207663Y-147928974D01*
X168351826Y-148073137D01*
X168521344Y-148186405D01*
X168709702Y-148264426D01*
X168909661Y-148304200D01*
X169113539Y-148304200D01*
X169313498Y-148264426D01*
X169501856Y-148186405D01*
X169671374Y-148073137D01*
X169815537Y-147928974D01*
X169928805Y-147759456D01*
X170006826Y-147571098D01*
X170046600Y-147371139D01*
X170046600Y-147167261D01*
X170006826Y-146967302D01*
X169928805Y-146778944D01*
X169896600Y-146730746D01*
X169896600Y-145176008D01*
X169914850Y-145170472D01*
X170068386Y-145088405D01*
X170202962Y-144977962D01*
X170313405Y-144843386D01*
X170371339Y-144735000D01*
X172425392Y-144735000D01*
X172475000Y-144739886D01*
X172672994Y-144720385D01*
X172816951Y-144676716D01*
X172863380Y-144662632D01*
X173038840Y-144568847D01*
X173192633Y-144442633D01*
X173224261Y-144404094D01*
X175914100Y-141714256D01*
X175952633Y-141682633D01*
X176078847Y-141528840D01*
X176172632Y-141353380D01*
X176230385Y-141162994D01*
X176245000Y-141014608D01*
X176245000Y-141014606D01*
X176249886Y-140965001D01*
X176245000Y-140915396D01*
X176245000Y-138195106D01*
X176388475Y-138051631D01*
X176505000Y-137877239D01*
X176621525Y-138051631D01*
X176828368Y-138258474D01*
X177071589Y-138420989D01*
X177341842Y-138532931D01*
X177628740Y-138589999D01*
X177921260Y-138589999D01*
X178208158Y-138532931D01*
X178478411Y-138420989D01*
X178721632Y-138258474D01*
X178928475Y-138051631D01*
X179090990Y-137808410D01*
X179202932Y-137538157D01*
X179260000Y-137251259D01*
X179260000Y-136958739D01*
X179202932Y-136671841D01*
X179090990Y-136401588D01*
X178928475Y-136158367D01*
X178721632Y-135951524D01*
X178547240Y-135834999D01*
X178721632Y-135718474D01*
X178928475Y-135511631D01*
X179090990Y-135268410D01*
X179202932Y-134998157D01*
X179260000Y-134711259D01*
X179260000Y-134418739D01*
X179202932Y-134131841D01*
X179090990Y-133861588D01*
X178955295Y-133658507D01*
X180952604Y-131661199D01*
X180981601Y-131637402D01*
X181011703Y-131600723D01*
X181076574Y-131521678D01*
X181147146Y-131389648D01*
X181168439Y-131319453D01*
X181190603Y-131246387D01*
X181201600Y-131134734D01*
X181201600Y-131134725D01*
X181205276Y-131097402D01*
X181201600Y-131060079D01*
X181201600Y-115912125D01*
X181205276Y-115874800D01*
X181201600Y-115837475D01*
X181201600Y-115837467D01*
X181190603Y-115725814D01*
X181147146Y-115582553D01*
X181076574Y-115450524D01*
X180981601Y-115334799D01*
X180952603Y-115311001D01*
X176560000Y-110918399D01*
X176560000Y-99413178D01*
X176746632Y-99288475D01*
X176953475Y-99081632D01*
X177070000Y-98907240D01*
X177186525Y-99081632D01*
X177393368Y-99288475D01*
X177636589Y-99450990D01*
X177906842Y-99562932D01*
X178193740Y-99620000D01*
X178486260Y-99620000D01*
X178773158Y-99562932D01*
X179043411Y-99450990D01*
X179286632Y-99288475D01*
X179493475Y-99081632D01*
X179655990Y-98838411D01*
X179767932Y-98568158D01*
X179825000Y-98281260D01*
X179825000Y-97988740D01*
X179767932Y-97701842D01*
X179655990Y-97431589D01*
X179493475Y-97188368D01*
X179286632Y-96981525D01*
X179112240Y-96865000D01*
X179286632Y-96748475D01*
X179493475Y-96541632D01*
X179655990Y-96298411D01*
X179767932Y-96028158D01*
X179825000Y-95741260D01*
X179825000Y-95448740D01*
X179767932Y-95161842D01*
X179655990Y-94891589D01*
X179493475Y-94648368D01*
X179286632Y-94441525D01*
X179112240Y-94325000D01*
X179286632Y-94208475D01*
X179493475Y-94001632D01*
X179655990Y-93758411D01*
X179767932Y-93488158D01*
X179825000Y-93201260D01*
X179825000Y-92908740D01*
X179767932Y-92621842D01*
X179655990Y-92351589D01*
X179493475Y-92108368D01*
X179286632Y-91901525D01*
X179112240Y-91785000D01*
X179286632Y-91668475D01*
X179493475Y-91461632D01*
X179655990Y-91218411D01*
X179767932Y-90948158D01*
X179825000Y-90661260D01*
X179825000Y-90368740D01*
X179767932Y-90081842D01*
X179655990Y-89811589D01*
X179493475Y-89568368D01*
X179286632Y-89361525D01*
X179112240Y-89245000D01*
X179286632Y-89128475D01*
X179493475Y-88921632D01*
X179655990Y-88678411D01*
X179767932Y-88408158D01*
X179825000Y-88121260D01*
X179825000Y-87828740D01*
X179767932Y-87541842D01*
X179655990Y-87271589D01*
X179493475Y-87028368D01*
X179286632Y-86821525D01*
X179043411Y-86659010D01*
X178773158Y-86547068D01*
X178486260Y-86490000D01*
X178193740Y-86490000D01*
X177906842Y-86547068D01*
X177636589Y-86659010D01*
X177393368Y-86821525D01*
X177261513Y-86953380D01*
X177239502Y-86880820D01*
X177180537Y-86770506D01*
X177101185Y-86673815D01*
X177004494Y-86594463D01*
X176894180Y-86535498D01*
X176774482Y-86499188D01*
X176650000Y-86486928D01*
X174950000Y-86486928D01*
X174825518Y-86499188D01*
X174705820Y-86535498D01*
X174595506Y-86594463D01*
X174498815Y-86673815D01*
X174419463Y-86770506D01*
X174360498Y-86880820D01*
X174324188Y-87000518D01*
X174311928Y-87125000D01*
X174311928Y-88825000D01*
X174324188Y-88949482D01*
X174360498Y-89069180D01*
X174419463Y-89179494D01*
X174498815Y-89276185D01*
X174595506Y-89355537D01*
X174705820Y-89414502D01*
X174778380Y-89436513D01*
X174646525Y-89568368D01*
X174605344Y-89630000D01*
X172923579Y-89630000D01*
X169388600Y-86095022D01*
X169388600Y-84053654D01*
X169420805Y-84005456D01*
X169498826Y-83817098D01*
X169538600Y-83617139D01*
X169538600Y-83413261D01*
X169498826Y-83213302D01*
X169420805Y-83024944D01*
X169307537Y-82855426D01*
X169163374Y-82711263D01*
X168993856Y-82597995D01*
X168805498Y-82519974D01*
X168605539Y-82480200D01*
X168401661Y-82480200D01*
X168201702Y-82519974D01*
X168013344Y-82597995D01*
X167889118Y-82681000D01*
X161699379Y-82681000D01*
X164495049Y-79885330D01*
X164528817Y-79857617D01*
X164572904Y-79803898D01*
X164639410Y-79722860D01*
X164701122Y-79607404D01*
X164721589Y-79569113D01*
X164772195Y-79402290D01*
X164785000Y-79272277D01*
X164785000Y-79272267D01*
X164789281Y-79228801D01*
X164785000Y-79185335D01*
X164785000Y-72063454D01*
X164817205Y-72015256D01*
X164895226Y-71826898D01*
X164935000Y-71626939D01*
X164935000Y-71423061D01*
X164895226Y-71223102D01*
X164817205Y-71034744D01*
X164703937Y-70865226D01*
X164559774Y-70721063D01*
X164390256Y-70607795D01*
X164201898Y-70529774D01*
X164001939Y-70490000D01*
X163798061Y-70490000D01*
X163598102Y-70529774D01*
X163409744Y-70607795D01*
X163240226Y-70721063D01*
X163096063Y-70865226D01*
X162982795Y-71034744D01*
X162904774Y-71223102D01*
X162865000Y-71423061D01*
X162865000Y-71626939D01*
X162904774Y-71826898D01*
X162982795Y-72015256D01*
X163015000Y-72063454D01*
X163015001Y-78862220D01*
X156630155Y-85247067D01*
X156596382Y-85274784D01*
X156485788Y-85409543D01*
X156403610Y-85563289D01*
X156353004Y-85730112D01*
X156340199Y-85860125D01*
X156340199Y-85860132D01*
X156335918Y-85903601D01*
X156340199Y-85947070D01*
X156340200Y-104585419D01*
X148045756Y-112879864D01*
X148011983Y-112907581D01*
X147901389Y-113042340D01*
X147819211Y-113196086D01*
X147768605Y-113362909D01*
X147755800Y-113492922D01*
X147755800Y-113492929D01*
X147751519Y-113536398D01*
X147755800Y-113579867D01*
X147755801Y-133057034D01*
X147696374Y-133200502D01*
X147656600Y-133400461D01*
X147656600Y-133604339D01*
X147696374Y-133804298D01*
X147774395Y-133992656D01*
X147887663Y-134162174D01*
X148031826Y-134306337D01*
X148201344Y-134419605D01*
X148389702Y-134497626D01*
X148589661Y-134537400D01*
X148793539Y-134537400D01*
X148993498Y-134497626D01*
X149181856Y-134419605D01*
X149351374Y-134306337D01*
X149495537Y-134162174D01*
X149608805Y-133992656D01*
X149686826Y-133804298D01*
X149726600Y-133604339D01*
X149726600Y-133400461D01*
X149686826Y-133200502D01*
X149608805Y-133012144D01*
X149525800Y-132887918D01*
X149525800Y-113902976D01*
X157820248Y-105608529D01*
X157854016Y-105580816D01*
X157964610Y-105446058D01*
X158046788Y-105292312D01*
X158097394Y-105125489D01*
X158110199Y-104995476D01*
X158110199Y-104995466D01*
X158114480Y-104952000D01*
X158110199Y-104908534D01*
X158110199Y-91575000D01*
X158177139Y-91575000D01*
X158377098Y-91535226D01*
X158565456Y-91457205D01*
X158734974Y-91343937D01*
X158879137Y-91199774D01*
X158992405Y-91030256D01*
X159070426Y-90841898D01*
X159110200Y-90641939D01*
X159110200Y-90438061D01*
X159070426Y-90238102D01*
X158992405Y-90049744D01*
X158960200Y-90001546D01*
X158960200Y-87502978D01*
X162012179Y-84451000D01*
X167618601Y-84451000D01*
X167618600Y-86418131D01*
X167614319Y-86461600D01*
X167618600Y-86505069D01*
X167618600Y-86505076D01*
X167631405Y-86635089D01*
X167682011Y-86801912D01*
X167764189Y-86955658D01*
X167874783Y-87090417D01*
X167908556Y-87118134D01*
X171900470Y-91110049D01*
X171928183Y-91143817D01*
X171961951Y-91171530D01*
X171961953Y-91171532D01*
X171996366Y-91199774D01*
X172062941Y-91254411D01*
X172216687Y-91336589D01*
X172383510Y-91387195D01*
X172513523Y-91400000D01*
X172513533Y-91400000D01*
X172556999Y-91404281D01*
X172600465Y-91400000D01*
X174605344Y-91400000D01*
X174646525Y-91461632D01*
X174853368Y-91668475D01*
X175027760Y-91785000D01*
X174853368Y-91901525D01*
X174646525Y-92108368D01*
X174484010Y-92351589D01*
X174372068Y-92621842D01*
X174315000Y-92908740D01*
X174315000Y-93201260D01*
X174372068Y-93488158D01*
X174408288Y-93575600D01*
X173722533Y-93575600D01*
X173685200Y-93571923D01*
X173647867Y-93575600D01*
X173536214Y-93586597D01*
X173392953Y-93630054D01*
X173260924Y-93700626D01*
X173145199Y-93795599D01*
X173121400Y-93824598D01*
X173101000Y-93844998D01*
X171800003Y-92544002D01*
X171776201Y-92514999D01*
X171660476Y-92420026D01*
X171528447Y-92349454D01*
X171385186Y-92305997D01*
X171273533Y-92295000D01*
X171273522Y-92295000D01*
X171236200Y-92291324D01*
X171198878Y-92295000D01*
X166385678Y-92295000D01*
X166260975Y-92108368D01*
X166054132Y-91901525D01*
X165879740Y-91785000D01*
X166054132Y-91668475D01*
X166260975Y-91461632D01*
X166423490Y-91218411D01*
X166535432Y-90948158D01*
X166592500Y-90661260D01*
X166592500Y-90368740D01*
X166535432Y-90081842D01*
X166423490Y-89811589D01*
X166260975Y-89568368D01*
X166054132Y-89361525D01*
X165879740Y-89245000D01*
X166054132Y-89128475D01*
X166260975Y-88921632D01*
X166423490Y-88678411D01*
X166535432Y-88408158D01*
X166592500Y-88121260D01*
X166592500Y-87828740D01*
X166535432Y-87541842D01*
X166423490Y-87271589D01*
X166260975Y-87028368D01*
X166054132Y-86821525D01*
X165810911Y-86659010D01*
X165540658Y-86547068D01*
X165253760Y-86490000D01*
X164961240Y-86490000D01*
X164674342Y-86547068D01*
X164404089Y-86659010D01*
X164160868Y-86821525D01*
X164029013Y-86953380D01*
X164007002Y-86880820D01*
X163948037Y-86770506D01*
X163868685Y-86673815D01*
X163771994Y-86594463D01*
X163661680Y-86535498D01*
X163541982Y-86499188D01*
X163417500Y-86486928D01*
X161717500Y-86486928D01*
X161593018Y-86499188D01*
X161473320Y-86535498D01*
X161363006Y-86594463D01*
X161266315Y-86673815D01*
X161186963Y-86770506D01*
X161127998Y-86880820D01*
X161091688Y-87000518D01*
X161079428Y-87125000D01*
X161079428Y-88825000D01*
X161091688Y-88949482D01*
X161127998Y-89069180D01*
X161186963Y-89179494D01*
X161266315Y-89276185D01*
X161363006Y-89355537D01*
X161473320Y-89414502D01*
X161545880Y-89436513D01*
X161414025Y-89568368D01*
X161251510Y-89811589D01*
X161139568Y-90081842D01*
X161082500Y-90368740D01*
X161082500Y-90661260D01*
X161139568Y-90948158D01*
X161251510Y-91218411D01*
X161414025Y-91461632D01*
X161620868Y-91668475D01*
X161795260Y-91785000D01*
X161620868Y-91901525D01*
X161414025Y-92108368D01*
X161251510Y-92351589D01*
X161139568Y-92621842D01*
X161082500Y-92908740D01*
X161082500Y-93201260D01*
X161139568Y-93488158D01*
X161251510Y-93758411D01*
X161414025Y-94001632D01*
X161620868Y-94208475D01*
X161795260Y-94325000D01*
X161620868Y-94441525D01*
X161414025Y-94648368D01*
X161251510Y-94891589D01*
X161139568Y-95161842D01*
X161082500Y-95448740D01*
X161082500Y-95741260D01*
X161139568Y-96028158D01*
X161251510Y-96298411D01*
X161414025Y-96541632D01*
X161620868Y-96748475D01*
X161795260Y-96865000D01*
X161620868Y-96981525D01*
X161414025Y-97188368D01*
X161251510Y-97431589D01*
X161139568Y-97701842D01*
X161082500Y-97988740D01*
X161082500Y-98281260D01*
X161139568Y-98568158D01*
X161251510Y-98838411D01*
X161414025Y-99081632D01*
X161620868Y-99288475D01*
X161864089Y-99450990D01*
X162134342Y-99562932D01*
X162421240Y-99620000D01*
X162713760Y-99620000D01*
X163000658Y-99562932D01*
X163270911Y-99450990D01*
X163514132Y-99288475D01*
X163720975Y-99081632D01*
X163837500Y-98907240D01*
X163954025Y-99081632D01*
X164160868Y-99288475D01*
X164404089Y-99450990D01*
X164674342Y-99562932D01*
X164961240Y-99620000D01*
X165253760Y-99620000D01*
X165540658Y-99562932D01*
X165810911Y-99450990D01*
X166054132Y-99288475D01*
X166260975Y-99081632D01*
X166423490Y-98838411D01*
X166535432Y-98568158D01*
X166592500Y-98281260D01*
X166592500Y-97988740D01*
X166535432Y-97701842D01*
X166423490Y-97431589D01*
X166260975Y-97188368D01*
X166054132Y-96981525D01*
X165879740Y-96865000D01*
X166054132Y-96748475D01*
X166260975Y-96541632D01*
X166423490Y-96298411D01*
X166535432Y-96028158D01*
X166592500Y-95741260D01*
X166592500Y-95448740D01*
X166535432Y-95161842D01*
X166423490Y-94891589D01*
X166260975Y-94648368D01*
X166054132Y-94441525D01*
X165879740Y-94325000D01*
X166054132Y-94208475D01*
X166260975Y-94001632D01*
X166385678Y-93815000D01*
X170921399Y-93815000D01*
X172026198Y-94919801D01*
X171751802Y-95194197D01*
X171722799Y-95217999D01*
X171667671Y-95285174D01*
X171627826Y-95333724D01*
X171575936Y-95430803D01*
X171557254Y-95465754D01*
X171513797Y-95609015D01*
X171502800Y-95720668D01*
X171502800Y-95720678D01*
X171499124Y-95758000D01*
X171502800Y-95795322D01*
X171502801Y-102910797D01*
X163769199Y-110644400D01*
X154570922Y-110644400D01*
X154533599Y-110640724D01*
X154496276Y-110644400D01*
X154496267Y-110644400D01*
X154384614Y-110655397D01*
X154241353Y-110698854D01*
X154109323Y-110769426D01*
X154025683Y-110838068D01*
X153993599Y-110864399D01*
X153969801Y-110893397D01*
X153401599Y-111461600D01*
X153339461Y-111461600D01*
X153139502Y-111501374D01*
X152951144Y-111579395D01*
X152781626Y-111692663D01*
X152637463Y-111836826D01*
X152524195Y-112006344D01*
X152446174Y-112194702D01*
X152406400Y-112394661D01*
X152406400Y-112456798D01*
X150161803Y-114701396D01*
X150132799Y-114725199D01*
X150077671Y-114792374D01*
X150037826Y-114840924D01*
X149969235Y-114969248D01*
X149967254Y-114972954D01*
X149923797Y-115116215D01*
X149912800Y-115227868D01*
X149912800Y-115227878D01*
X149909124Y-115265200D01*
X149912800Y-115302522D01*
X149912801Y-133465067D01*
X149909124Y-133502400D01*
X149923798Y-133651385D01*
X149967254Y-133794646D01*
X150037826Y-133926676D01*
X150091975Y-133992656D01*
X150132800Y-134042401D01*
X150161798Y-134066199D01*
X152440597Y-136344999D01*
X146345523Y-136344999D01*
X146308200Y-136341323D01*
X146270877Y-136344999D01*
X146270868Y-136344999D01*
X146159215Y-136355996D01*
X146015954Y-136399453D01*
X145883925Y-136470025D01*
X145768200Y-136564998D01*
X145744402Y-136593996D01*
X144994199Y-137344200D01*
X144932061Y-137344200D01*
X144732102Y-137383974D01*
X144543744Y-137461995D01*
X144374226Y-137575263D01*
X144230063Y-137719426D01*
X144116795Y-137888944D01*
X144038774Y-138077302D01*
X143999000Y-138277261D01*
X143999000Y-138481139D01*
X144038774Y-138681098D01*
X144116795Y-138869456D01*
X144230063Y-139038974D01*
X144374226Y-139183137D01*
X144543744Y-139296405D01*
X144732102Y-139374426D01*
X144932061Y-139414200D01*
X145135939Y-139414200D01*
X145335898Y-139374426D01*
X145524256Y-139296405D01*
X145693774Y-139183137D01*
X145837937Y-139038974D01*
X145951205Y-138869456D01*
X146029226Y-138681098D01*
X146069000Y-138481139D01*
X146069000Y-138419001D01*
X146623003Y-137864999D01*
X154238075Y-137864999D01*
X154275398Y-137868675D01*
X154312721Y-137864999D01*
X156106822Y-137864999D01*
X156231525Y-138051631D01*
X156438368Y-138258474D01*
X156681589Y-138420989D01*
X156951842Y-138532931D01*
X157238740Y-138589999D01*
X157531260Y-138589999D01*
X157818158Y-138532931D01*
X158088411Y-138420989D01*
X158331632Y-138258474D01*
X158538475Y-138051631D01*
X158655000Y-137877239D01*
X158771525Y-138051631D01*
X158915000Y-138195106D01*
X158915000Y-138706645D01*
X158031645Y-139590000D01*
X126393356Y-139590000D01*
X122660000Y-135856645D01*
X122660000Y-133502404D01*
X129050000Y-133502404D01*
X129050001Y-137187597D01*
X129077276Y-137464524D01*
X129185062Y-137819848D01*
X129360098Y-138147317D01*
X129595656Y-138434345D01*
X129882684Y-138669903D01*
X130210153Y-138844939D01*
X130565477Y-138952725D01*
X130935000Y-138989120D01*
X131304524Y-138952725D01*
X131659848Y-138844939D01*
X131987317Y-138669903D01*
X132274345Y-138434345D01*
X132509903Y-138147317D01*
X132684939Y-137819848D01*
X132792725Y-137464524D01*
X132820000Y-137187597D01*
X132820000Y-133502403D01*
X132792725Y-133225476D01*
X132684939Y-132870152D01*
X132509903Y-132542683D01*
X132274345Y-132255655D01*
X131987317Y-132020097D01*
X131659847Y-131845061D01*
X131304523Y-131737275D01*
X130935000Y-131700880D01*
X130565476Y-131737275D01*
X130210152Y-131845061D01*
X129882683Y-132020097D01*
X129595655Y-132255655D01*
X129360097Y-132542683D01*
X129185061Y-132870153D01*
X129077275Y-133225477D01*
X129050000Y-133502404D01*
X122660000Y-133502404D01*
X122660000Y-133502403D01*
X122632725Y-133225476D01*
X122524939Y-132870152D01*
X122349903Y-132542683D01*
X122114345Y-132255655D01*
X121827317Y-132020097D01*
X121499847Y-131845061D01*
X121144523Y-131737275D01*
X120775000Y-131700880D01*
X120405476Y-131737275D01*
X120050152Y-131845061D01*
X119722683Y-132020097D01*
X119435655Y-132255655D01*
X119200097Y-132542683D01*
X119025061Y-132870153D01*
X118917275Y-133225477D01*
X118890000Y-133502404D01*
X116735000Y-133502404D01*
X116735000Y-126570131D01*
X121795133Y-121510000D01*
X127269249Y-121510000D01*
X127325000Y-121515491D01*
X127380751Y-121510000D01*
X127380752Y-121510000D01*
X127547499Y-121493577D01*
X127761447Y-121428676D01*
X127958623Y-121323284D01*
X128131449Y-121181449D01*
X128166995Y-121138136D01*
X129158146Y-120146987D01*
X129201449Y-120111449D01*
X129288903Y-120004887D01*
X129343284Y-119938623D01*
X129448676Y-119741447D01*
X129513577Y-119527499D01*
X129535491Y-119305000D01*
X129530000Y-119249248D01*
X129530000Y-118282047D01*
X129734345Y-118114345D01*
X129969903Y-117827317D01*
X130144939Y-117499848D01*
X130252725Y-117144524D01*
X130280000Y-116867597D01*
X130280000Y-113182403D01*
X130252725Y-112905476D01*
X130144939Y-112550152D01*
X129969903Y-112222683D01*
X129734345Y-111935655D01*
X129447317Y-111700097D01*
X129119847Y-111525061D01*
X128764523Y-111417275D01*
X128395000Y-111380880D01*
X128025476Y-111417275D01*
X127670152Y-111525061D01*
X127342683Y-111700097D01*
X127055655Y-111935655D01*
X126820097Y-112222683D01*
X126645061Y-112550153D01*
X126537275Y-112905477D01*
X126510000Y-113182404D01*
X126510001Y-116867597D01*
X126537276Y-117144524D01*
X126645062Y-117499848D01*
X126820098Y-117827317D01*
X127055656Y-118114345D01*
X127260000Y-118282046D01*
X127260000Y-118834868D01*
X126854868Y-119240000D01*
X121380752Y-119240000D01*
X121325000Y-119234509D01*
X121102501Y-119256423D01*
X120888553Y-119321324D01*
X120691377Y-119426716D01*
X120561856Y-119533011D01*
X120561854Y-119533013D01*
X120518551Y-119568551D01*
X120483013Y-119611854D01*
X116735000Y-123359868D01*
X116735000Y-113182404D01*
X118890000Y-113182404D01*
X118890001Y-116867597D01*
X118917276Y-117144524D01*
X119025062Y-117499848D01*
X119200098Y-117827317D01*
X119435656Y-118114345D01*
X119722684Y-118349903D01*
X120050153Y-118524939D01*
X120405477Y-118632725D01*
X120775000Y-118669120D01*
X121144524Y-118632725D01*
X121499848Y-118524939D01*
X121827317Y-118349903D01*
X122114345Y-118114345D01*
X122349903Y-117827317D01*
X122524939Y-117499848D01*
X122632725Y-117144524D01*
X122660000Y-116867597D01*
X122660000Y-113182403D01*
X122632725Y-112905476D01*
X122524939Y-112550152D01*
X122349903Y-112222683D01*
X122114345Y-111935655D01*
X121827317Y-111700097D01*
X121499847Y-111525061D01*
X121144523Y-111417275D01*
X120775000Y-111380880D01*
X120405476Y-111417275D01*
X120050152Y-111525061D01*
X119722683Y-111700097D01*
X119435655Y-111935655D01*
X119200097Y-112222683D01*
X119025061Y-112550153D01*
X118917275Y-112905477D01*
X118890000Y-113182404D01*
X116735000Y-113182404D01*
X116735000Y-100314152D01*
X116740491Y-100258400D01*
X116718577Y-100035901D01*
X116653676Y-99821953D01*
X116548284Y-99624777D01*
X116497529Y-99562932D01*
X116406449Y-99451951D01*
X116363141Y-99416409D01*
X107725196Y-90778465D01*
X107689649Y-90735151D01*
X107516823Y-90593316D01*
X107319647Y-90487924D01*
X107105699Y-90423023D01*
X106938952Y-90406600D01*
X106938951Y-90406600D01*
X106883200Y-90401109D01*
X106827449Y-90406600D01*
X100749332Y-90406600D01*
X98455000Y-88112269D01*
X98455000Y-84707047D01*
X98659345Y-84539345D01*
X98894903Y-84252317D01*
X99069939Y-83924848D01*
X99177725Y-83569524D01*
X99205000Y-83292597D01*
X99205000Y-79607403D01*
X99177725Y-79330476D01*
X99069939Y-78975152D01*
X98894903Y-78647683D01*
X98732669Y-78450000D01*
X100511928Y-78450000D01*
X100511928Y-84450000D01*
X100524188Y-84574482D01*
X100560498Y-84694180D01*
X100619463Y-84804494D01*
X100698815Y-84901185D01*
X100795506Y-84980537D01*
X100905820Y-85039502D01*
X101025518Y-85075812D01*
X101150000Y-85088072D01*
X101265001Y-85088072D01*
X101265001Y-87053439D01*
X101259509Y-87109200D01*
X101281423Y-87331698D01*
X101346324Y-87545646D01*
X101346325Y-87545647D01*
X101451717Y-87742823D01*
X101593552Y-87915649D01*
X101636860Y-87951191D01*
X103552009Y-89866341D01*
X103587551Y-89909649D01*
X103758257Y-90049744D01*
X103760377Y-90051484D01*
X103957553Y-90156876D01*
X104171501Y-90221777D01*
X104394000Y-90243691D01*
X104449752Y-90238200D01*
X108445069Y-90238200D01*
X124938809Y-106731941D01*
X124974351Y-106775249D01*
X125147177Y-106917084D01*
X125344353Y-107022476D01*
X125558301Y-107087377D01*
X125725048Y-107103800D01*
X125725057Y-107103800D01*
X125780799Y-107109290D01*
X125836541Y-107103800D01*
X129476269Y-107103800D01*
X132340000Y-109967532D01*
X132340000Y-111386928D01*
X132225000Y-111386928D01*
X132100518Y-111399188D01*
X131980820Y-111435498D01*
X131870506Y-111494463D01*
X131773815Y-111573815D01*
X131694463Y-111670506D01*
X131635498Y-111780820D01*
X131599188Y-111900518D01*
X131586928Y-112025000D01*
X131586928Y-118025000D01*
X131599188Y-118149482D01*
X131635498Y-118269180D01*
X131694463Y-118379494D01*
X131773815Y-118476185D01*
X131870506Y-118555537D01*
X131980820Y-118614502D01*
X132100518Y-118650812D01*
X132225000Y-118663072D01*
X134725000Y-118663072D01*
X134849482Y-118650812D01*
X134969180Y-118614502D01*
X135079494Y-118555537D01*
X135176185Y-118476185D01*
X135255537Y-118379494D01*
X135314502Y-118269180D01*
X135350812Y-118149482D01*
X135363072Y-118025000D01*
X135363072Y-112025000D01*
X135350812Y-111900518D01*
X135314502Y-111780820D01*
X135255537Y-111670506D01*
X135176185Y-111573815D01*
X135079494Y-111494463D01*
X134969180Y-111435498D01*
X134849482Y-111399188D01*
X134725000Y-111386928D01*
X134610000Y-111386928D01*
X134610000Y-109553151D01*
X134615491Y-109497400D01*
X134593577Y-109274901D01*
X134528676Y-109060953D01*
X134423284Y-108863777D01*
X134281449Y-108690951D01*
X134238141Y-108655409D01*
X130788396Y-105205665D01*
X130752849Y-105162351D01*
X130580023Y-105020516D01*
X130382847Y-104915124D01*
X130168899Y-104850223D01*
X130002152Y-104833800D01*
X130002151Y-104833800D01*
X129946400Y-104828309D01*
X129890649Y-104833800D01*
X126250932Y-104833800D01*
X117987932Y-96570800D01*
X129819119Y-96570800D01*
X129823400Y-96614269D01*
X129823401Y-102724921D01*
X129819119Y-102768400D01*
X129836205Y-102941890D01*
X129886812Y-103108713D01*
X129968990Y-103262459D01*
X130051868Y-103363446D01*
X130051871Y-103363449D01*
X130079584Y-103397217D01*
X130113352Y-103424930D01*
X140210000Y-113521579D01*
X140210001Y-131930664D01*
X140042683Y-132020097D01*
X139755655Y-132255655D01*
X139520097Y-132542683D01*
X139345061Y-132870153D01*
X139237275Y-133225477D01*
X139210000Y-133502404D01*
X139210001Y-137187597D01*
X139237276Y-137464524D01*
X139345062Y-137819848D01*
X139520098Y-138147317D01*
X139755656Y-138434345D01*
X140042684Y-138669903D01*
X140370153Y-138844939D01*
X140725477Y-138952725D01*
X141095000Y-138989120D01*
X141464524Y-138952725D01*
X141819848Y-138844939D01*
X142147317Y-138669903D01*
X142434345Y-138434345D01*
X142669903Y-138147317D01*
X142844939Y-137819848D01*
X142952725Y-137464524D01*
X142980000Y-137187597D01*
X142980000Y-133502403D01*
X142952725Y-133225476D01*
X142844939Y-132870152D01*
X142669903Y-132542683D01*
X142434345Y-132255655D01*
X142147317Y-132020097D01*
X141980000Y-131930664D01*
X141980000Y-113198469D01*
X141984281Y-113155000D01*
X141980000Y-113111531D01*
X141980000Y-113111523D01*
X141967195Y-112981510D01*
X141921437Y-112830668D01*
X141916589Y-112814686D01*
X141834411Y-112660941D01*
X141751532Y-112559953D01*
X141751530Y-112559951D01*
X141723817Y-112526183D01*
X141690051Y-112498472D01*
X131593400Y-102401822D01*
X131593400Y-96937378D01*
X131862244Y-96668534D01*
X131896017Y-96640817D01*
X132006611Y-96506059D01*
X132014022Y-96492194D01*
X132088789Y-96352314D01*
X132139395Y-96185490D01*
X132139712Y-96182276D01*
X132152200Y-96055477D01*
X132152200Y-96055469D01*
X132156481Y-96012000D01*
X132152200Y-95968531D01*
X132152200Y-94966600D01*
X136113546Y-94966600D01*
X136161744Y-94998805D01*
X136350102Y-95076826D01*
X136550061Y-95116600D01*
X136753939Y-95116600D01*
X136953898Y-95076826D01*
X137142256Y-94998805D01*
X137311774Y-94885537D01*
X137455937Y-94741374D01*
X137569205Y-94571856D01*
X137647226Y-94383498D01*
X137687000Y-94183539D01*
X137687000Y-93979661D01*
X137647226Y-93779702D01*
X137569205Y-93591344D01*
X137455937Y-93421826D01*
X137311774Y-93277663D01*
X137142256Y-93164395D01*
X136953898Y-93086374D01*
X136753939Y-93046600D01*
X136550061Y-93046600D01*
X136350102Y-93086374D01*
X136161744Y-93164395D01*
X136113546Y-93196600D01*
X131805654Y-93196600D01*
X131757456Y-93164395D01*
X131569098Y-93086374D01*
X131369139Y-93046600D01*
X131165261Y-93046600D01*
X130965302Y-93086374D01*
X130776944Y-93164395D01*
X130607426Y-93277663D01*
X130463263Y-93421826D01*
X130349995Y-93591344D01*
X130271974Y-93779702D01*
X130232200Y-93979661D01*
X130232200Y-94183539D01*
X130271974Y-94383498D01*
X130349995Y-94571856D01*
X130382200Y-94620055D01*
X130382201Y-95645421D01*
X130113356Y-95914266D01*
X130079583Y-95941983D01*
X129968989Y-96076742D01*
X129886811Y-96230488D01*
X129859112Y-96321799D01*
X129837521Y-96392974D01*
X129836205Y-96397311D01*
X129823400Y-96527324D01*
X129823400Y-96527331D01*
X129819119Y-96570800D01*
X117987932Y-96570800D01*
X116666793Y-95249661D01*
X121545400Y-95249661D01*
X121545400Y-95453539D01*
X121585174Y-95653498D01*
X121663195Y-95841856D01*
X121776463Y-96011374D01*
X121920626Y-96155537D01*
X122090144Y-96268805D01*
X122278502Y-96346826D01*
X122478461Y-96386600D01*
X122682339Y-96386600D01*
X122882298Y-96346826D01*
X123070656Y-96268805D01*
X123118854Y-96236600D01*
X123857731Y-96236600D01*
X123901200Y-96240881D01*
X123944669Y-96236600D01*
X123944677Y-96236600D01*
X124074690Y-96223795D01*
X124241513Y-96173189D01*
X124395259Y-96091011D01*
X124530017Y-95980417D01*
X124557734Y-95946644D01*
X128534979Y-91969400D01*
X137860222Y-91969400D01*
X144645870Y-98755049D01*
X144673583Y-98788817D01*
X144707351Y-98816530D01*
X144707353Y-98816532D01*
X144734013Y-98838411D01*
X144808341Y-98899411D01*
X144962087Y-98981589D01*
X145128910Y-99032195D01*
X145258923Y-99045000D01*
X145258933Y-99045000D01*
X145302399Y-99049281D01*
X145345865Y-99045000D01*
X148190344Y-99045000D01*
X148231525Y-99106632D01*
X148438368Y-99313475D01*
X148681589Y-99475990D01*
X148951842Y-99587932D01*
X149238740Y-99645000D01*
X149531260Y-99645000D01*
X149818158Y-99587932D01*
X150088411Y-99475990D01*
X150331632Y-99313475D01*
X150538475Y-99106632D01*
X150655000Y-98932240D01*
X150771525Y-99106632D01*
X150978368Y-99313475D01*
X151221589Y-99475990D01*
X151491842Y-99587932D01*
X151778740Y-99645000D01*
X152071260Y-99645000D01*
X152358158Y-99587932D01*
X152628411Y-99475990D01*
X152871632Y-99313475D01*
X153078475Y-99106632D01*
X153240990Y-98863411D01*
X153352932Y-98593158D01*
X153410000Y-98306260D01*
X153410000Y-98013740D01*
X153352932Y-97726842D01*
X153240990Y-97456589D01*
X153078475Y-97213368D01*
X152871632Y-97006525D01*
X152697240Y-96890000D01*
X152871632Y-96773475D01*
X153078475Y-96566632D01*
X153240990Y-96323411D01*
X153352932Y-96053158D01*
X153410000Y-95766260D01*
X153410000Y-95473740D01*
X153352932Y-95186842D01*
X153240990Y-94916589D01*
X153078475Y-94673368D01*
X152871632Y-94466525D01*
X152697240Y-94350000D01*
X152871632Y-94233475D01*
X153078475Y-94026632D01*
X153240990Y-93783411D01*
X153352932Y-93513158D01*
X153410000Y-93226260D01*
X153410000Y-92933740D01*
X153352932Y-92646842D01*
X153240990Y-92376589D01*
X153078475Y-92133368D01*
X152871632Y-91926525D01*
X152697240Y-91810000D01*
X152871632Y-91693475D01*
X153078475Y-91486632D01*
X153240990Y-91243411D01*
X153352932Y-90973158D01*
X153410000Y-90686260D01*
X153410000Y-90393740D01*
X153352932Y-90106842D01*
X153240990Y-89836589D01*
X153078475Y-89593368D01*
X152946620Y-89461513D01*
X153019180Y-89439502D01*
X153129494Y-89380537D01*
X153226185Y-89301185D01*
X153305537Y-89204494D01*
X153364502Y-89094180D01*
X153400812Y-88974482D01*
X153413072Y-88850000D01*
X153413072Y-87150000D01*
X153400812Y-87025518D01*
X153364502Y-86905820D01*
X153305537Y-86795506D01*
X153226185Y-86698815D01*
X153129494Y-86619463D01*
X153019180Y-86560498D01*
X152899482Y-86524188D01*
X152775000Y-86511928D01*
X151075000Y-86511928D01*
X150950518Y-86524188D01*
X150830820Y-86560498D01*
X150720506Y-86619463D01*
X150623815Y-86698815D01*
X150544463Y-86795506D01*
X150485498Y-86905820D01*
X150463487Y-86978380D01*
X150331632Y-86846525D01*
X150088411Y-86684010D01*
X149818158Y-86572068D01*
X149531260Y-86515000D01*
X149238740Y-86515000D01*
X148951842Y-86572068D01*
X148681589Y-86684010D01*
X148438368Y-86846525D01*
X148231525Y-87053368D01*
X148069010Y-87296589D01*
X147957068Y-87566842D01*
X147900000Y-87853740D01*
X147900000Y-88146260D01*
X147957068Y-88433158D01*
X148069010Y-88703411D01*
X148231525Y-88946632D01*
X148438368Y-89153475D01*
X148612760Y-89270000D01*
X148438368Y-89386525D01*
X148231525Y-89593368D01*
X148069010Y-89836589D01*
X147957068Y-90106842D01*
X147900000Y-90393740D01*
X147900000Y-90686260D01*
X147957068Y-90973158D01*
X148069010Y-91243411D01*
X148231525Y-91486632D01*
X148438368Y-91693475D01*
X148612760Y-91810000D01*
X148438368Y-91926525D01*
X148231525Y-92133368D01*
X148069010Y-92376589D01*
X147957068Y-92646842D01*
X147900000Y-92933740D01*
X147900000Y-93226260D01*
X147957068Y-93513158D01*
X148069010Y-93783411D01*
X148231525Y-94026632D01*
X148438368Y-94233475D01*
X148612760Y-94350000D01*
X148438368Y-94466525D01*
X148231525Y-94673368D01*
X148190344Y-94735000D01*
X146684979Y-94735000D01*
X140051734Y-88101756D01*
X140024017Y-88067983D01*
X139889259Y-87957389D01*
X139735513Y-87875211D01*
X139568690Y-87824605D01*
X139438677Y-87811800D01*
X139438669Y-87811800D01*
X139395200Y-87807519D01*
X139351731Y-87811800D01*
X127246665Y-87811800D01*
X127203199Y-87807519D01*
X127159733Y-87811800D01*
X127159723Y-87811800D01*
X127029710Y-87824605D01*
X126862887Y-87875211D01*
X126709141Y-87957389D01*
X126709139Y-87957390D01*
X126709140Y-87957390D01*
X126608153Y-88040268D01*
X126608151Y-88040270D01*
X126574383Y-88067983D01*
X126546670Y-88101751D01*
X122386157Y-92262265D01*
X122329302Y-92273574D01*
X122140944Y-92351595D01*
X121971426Y-92464863D01*
X121827263Y-92609026D01*
X121713995Y-92778544D01*
X121635974Y-92966902D01*
X121596200Y-93166861D01*
X121596200Y-93370739D01*
X121635974Y-93570698D01*
X121713995Y-93759056D01*
X121827263Y-93928574D01*
X121971426Y-94072737D01*
X122140944Y-94186005D01*
X122329302Y-94264026D01*
X122529261Y-94303800D01*
X122733139Y-94303800D01*
X122933098Y-94264026D01*
X123121456Y-94186005D01*
X123290974Y-94072737D01*
X123435137Y-93928574D01*
X123548405Y-93759056D01*
X123626426Y-93570698D01*
X123637735Y-93513843D01*
X127569779Y-89581800D01*
X139028622Y-89581800D01*
X145661870Y-96215049D01*
X145689583Y-96248817D01*
X145723351Y-96276530D01*
X145723353Y-96276532D01*
X145749513Y-96298001D01*
X145824341Y-96359411D01*
X145978087Y-96441589D01*
X146144910Y-96492195D01*
X146274923Y-96505000D01*
X146274933Y-96505000D01*
X146318399Y-96509281D01*
X146361865Y-96505000D01*
X148190344Y-96505000D01*
X148231525Y-96566632D01*
X148438368Y-96773475D01*
X148612760Y-96890000D01*
X148438368Y-97006525D01*
X148231525Y-97213368D01*
X148190344Y-97275000D01*
X145668979Y-97275000D01*
X138883334Y-90489356D01*
X138855617Y-90455583D01*
X138720859Y-90344989D01*
X138567113Y-90262811D01*
X138400290Y-90212205D01*
X138270277Y-90199400D01*
X138270269Y-90199400D01*
X138226800Y-90195119D01*
X138183331Y-90199400D01*
X128211865Y-90199400D01*
X128168399Y-90195119D01*
X128124933Y-90199400D01*
X128124923Y-90199400D01*
X127994910Y-90212205D01*
X127828087Y-90262811D01*
X127674341Y-90344989D01*
X127674339Y-90344990D01*
X127674340Y-90344990D01*
X127573353Y-90427868D01*
X127573351Y-90427870D01*
X127539583Y-90455583D01*
X127511870Y-90489351D01*
X123534622Y-94466600D01*
X123118854Y-94466600D01*
X123070656Y-94434395D01*
X122882298Y-94356374D01*
X122682339Y-94316600D01*
X122478461Y-94316600D01*
X122278502Y-94356374D01*
X122090144Y-94434395D01*
X121920626Y-94547663D01*
X121776463Y-94691826D01*
X121663195Y-94861344D01*
X121585174Y-95049702D01*
X121545400Y-95249661D01*
X116666793Y-95249661D01*
X109757196Y-88340065D01*
X109721649Y-88296751D01*
X109548823Y-88154916D01*
X109351647Y-88049524D01*
X109137699Y-87984623D01*
X108970952Y-87968200D01*
X108970951Y-87968200D01*
X108915200Y-87962709D01*
X108859449Y-87968200D01*
X104864132Y-87968200D01*
X103535000Y-86639069D01*
X103535000Y-85088072D01*
X103650000Y-85088072D01*
X103774482Y-85075812D01*
X103894180Y-85039502D01*
X104004494Y-84980537D01*
X104101185Y-84901185D01*
X104180537Y-84804494D01*
X104239502Y-84694180D01*
X104275812Y-84574482D01*
X104288072Y-84450000D01*
X104288072Y-78450000D01*
X104275812Y-78325518D01*
X104239502Y-78205820D01*
X104180537Y-78095506D01*
X104101185Y-77998815D01*
X104004494Y-77919463D01*
X103894180Y-77860498D01*
X103774482Y-77824188D01*
X103650000Y-77811928D01*
X101150000Y-77811928D01*
X101025518Y-77824188D01*
X100905820Y-77860498D01*
X100795506Y-77919463D01*
X100698815Y-77998815D01*
X100619463Y-78095506D01*
X100560498Y-78205820D01*
X100524188Y-78325518D01*
X100511928Y-78450000D01*
X98732669Y-78450000D01*
X98659345Y-78360655D01*
X98372317Y-78125097D01*
X98044847Y-77950061D01*
X97689523Y-77842275D01*
X97320000Y-77805880D01*
X96950476Y-77842275D01*
X96595152Y-77950061D01*
X96267683Y-78125097D01*
X95980655Y-78360655D01*
X95745097Y-78647683D01*
X95570061Y-78975153D01*
X95462275Y-79330477D01*
X95435000Y-79607404D01*
X91585000Y-79607404D01*
X91585000Y-79607403D01*
X91557725Y-79330476D01*
X91449939Y-78975152D01*
X91274903Y-78647683D01*
X91039345Y-78360655D01*
X90752317Y-78125097D01*
X90424847Y-77950061D01*
X90069523Y-77842275D01*
X89700000Y-77805880D01*
X89330476Y-77842275D01*
X88975152Y-77950061D01*
X88647683Y-78125097D01*
X88360655Y-78360655D01*
X88125097Y-78647683D01*
X87950061Y-78975153D01*
X87842275Y-79330477D01*
X87815000Y-79607404D01*
X84505000Y-79607404D01*
X84505000Y-73944400D01*
X110108719Y-73944400D01*
X110113001Y-73987879D01*
X110113000Y-82150931D01*
X110108719Y-82194400D01*
X110113000Y-82237869D01*
X110113000Y-82237876D01*
X110125805Y-82367889D01*
X110176411Y-82534712D01*
X110258589Y-82688458D01*
X110369183Y-82823217D01*
X110402956Y-82850934D01*
X113191865Y-85639844D01*
X113203174Y-85696698D01*
X113281195Y-85885056D01*
X113394463Y-86054574D01*
X113538626Y-86198737D01*
X113708144Y-86312005D01*
X113896502Y-86390026D01*
X114096461Y-86429800D01*
X114300339Y-86429800D01*
X114500298Y-86390026D01*
X114688656Y-86312005D01*
X114858174Y-86198737D01*
X115002337Y-86054574D01*
X115115605Y-85885056D01*
X115193626Y-85696698D01*
X115216504Y-85581682D01*
X117611465Y-87976644D01*
X117622774Y-88033498D01*
X117700795Y-88221856D01*
X117814063Y-88391374D01*
X117958226Y-88535537D01*
X118127744Y-88648805D01*
X118316102Y-88726826D01*
X118516061Y-88766600D01*
X118719939Y-88766600D01*
X118919898Y-88726826D01*
X119108256Y-88648805D01*
X119277774Y-88535537D01*
X119421937Y-88391374D01*
X119535205Y-88221856D01*
X119613226Y-88033498D01*
X119653000Y-87833539D01*
X119653000Y-87629661D01*
X119613226Y-87429702D01*
X119535205Y-87241344D01*
X119421937Y-87071826D01*
X119277774Y-86927663D01*
X119108256Y-86814395D01*
X118919898Y-86736374D01*
X118863044Y-86725065D01*
X114560978Y-82423000D01*
X116596979Y-80387000D01*
X118943146Y-80387000D01*
X118991344Y-80419205D01*
X119179702Y-80497226D01*
X119379661Y-80537000D01*
X119583539Y-80537000D01*
X119783498Y-80497226D01*
X119971856Y-80419205D01*
X120141374Y-80305937D01*
X120285537Y-80161774D01*
X120398805Y-79992256D01*
X120476826Y-79803898D01*
X120516600Y-79603939D01*
X120516600Y-79400061D01*
X120476826Y-79200102D01*
X120398805Y-79011744D01*
X120299418Y-78863000D01*
X120755996Y-78863000D01*
X120721574Y-78946102D01*
X120681800Y-79146061D01*
X120681800Y-79349939D01*
X120721574Y-79549898D01*
X120799595Y-79738256D01*
X120912863Y-79907774D01*
X121057026Y-80051937D01*
X121226544Y-80165205D01*
X121414902Y-80243226D01*
X121614861Y-80283000D01*
X121818739Y-80283000D01*
X122018698Y-80243226D01*
X122207056Y-80165205D01*
X122376574Y-80051937D01*
X122520737Y-79907774D01*
X122634005Y-79738256D01*
X122712026Y-79549898D01*
X122751800Y-79349939D01*
X122751800Y-79146061D01*
X122712026Y-78946102D01*
X122677604Y-78863000D01*
X137637546Y-78863000D01*
X137685744Y-78895205D01*
X137874102Y-78973226D01*
X138074061Y-79013000D01*
X138277939Y-79013000D01*
X138477898Y-78973226D01*
X138666256Y-78895205D01*
X138714454Y-78863000D01*
X144046424Y-78863000D01*
X144315268Y-79131844D01*
X144342985Y-79165617D01*
X144453840Y-79256594D01*
X144477743Y-79276211D01*
X144631488Y-79358389D01*
X144768861Y-79400061D01*
X144798312Y-79408995D01*
X144928325Y-79421800D01*
X144928333Y-79421800D01*
X144971802Y-79426081D01*
X145015271Y-79421800D01*
X149118346Y-79421800D01*
X149166544Y-79454005D01*
X149354902Y-79532026D01*
X149554861Y-79571800D01*
X149758739Y-79571800D01*
X149958698Y-79532026D01*
X150147056Y-79454005D01*
X150316574Y-79340737D01*
X150460737Y-79196574D01*
X150574005Y-79027056D01*
X150652026Y-78838698D01*
X150691800Y-78638739D01*
X150691800Y-78434861D01*
X150652026Y-78234902D01*
X150574005Y-78046544D01*
X150460737Y-77877026D01*
X150316574Y-77732863D01*
X150147056Y-77619595D01*
X149958698Y-77541574D01*
X149758739Y-77501800D01*
X149554861Y-77501800D01*
X149354902Y-77541574D01*
X149166544Y-77619595D01*
X149118346Y-77651800D01*
X145338380Y-77651800D01*
X145069536Y-77382956D01*
X145041819Y-77349183D01*
X144907061Y-77238589D01*
X144753315Y-77156411D01*
X144586492Y-77105805D01*
X144456479Y-77093000D01*
X144456471Y-77093000D01*
X144413002Y-77088719D01*
X144369533Y-77093000D01*
X138714454Y-77093000D01*
X138666256Y-77060795D01*
X138477898Y-76982774D01*
X138277939Y-76943000D01*
X138074061Y-76943000D01*
X137874102Y-76982774D01*
X137685744Y-77060795D01*
X137637546Y-77093000D01*
X121353869Y-77093000D01*
X121310400Y-77088719D01*
X121266931Y-77093000D01*
X115803654Y-77093000D01*
X115755456Y-77060795D01*
X115567098Y-76982774D01*
X115367139Y-76943000D01*
X115163261Y-76943000D01*
X114963302Y-76982774D01*
X114774944Y-77060795D01*
X114605426Y-77174063D01*
X114461263Y-77318226D01*
X114347995Y-77487744D01*
X114269974Y-77676102D01*
X114230200Y-77876061D01*
X114230200Y-78079939D01*
X114269974Y-78279898D01*
X114347995Y-78468256D01*
X114461263Y-78637774D01*
X114605426Y-78781937D01*
X114774944Y-78895205D01*
X114963302Y-78973226D01*
X115163261Y-79013000D01*
X115367139Y-79013000D01*
X115492820Y-78988001D01*
X112714355Y-81766467D01*
X112680583Y-81794183D01*
X112652868Y-81827954D01*
X112569990Y-81928941D01*
X112487812Y-82082687D01*
X112437205Y-82249510D01*
X112425324Y-82370146D01*
X111883000Y-81827822D01*
X111883000Y-74310978D01*
X112352434Y-73841544D01*
X133865000Y-73841544D01*
X133865000Y-74108456D01*
X133917072Y-74370239D01*
X134019215Y-74616833D01*
X134167503Y-74838762D01*
X134356238Y-75027497D01*
X134578167Y-75175785D01*
X134824761Y-75277928D01*
X135086544Y-75330000D01*
X135353456Y-75330000D01*
X135615239Y-75277928D01*
X135861833Y-75175785D01*
X136083762Y-75027497D01*
X136272497Y-74838762D01*
X136420785Y-74616833D01*
X136490000Y-74449734D01*
X136559215Y-74616833D01*
X136707503Y-74838762D01*
X136896238Y-75027497D01*
X137118167Y-75175785D01*
X137364761Y-75277928D01*
X137626544Y-75330000D01*
X137893456Y-75330000D01*
X138155239Y-75277928D01*
X138401833Y-75175785D01*
X138623762Y-75027497D01*
X138812497Y-74838762D01*
X138960785Y-74616833D01*
X139030000Y-74449734D01*
X139099215Y-74616833D01*
X139247503Y-74838762D01*
X139436238Y-75027497D01*
X139658167Y-75175785D01*
X139904761Y-75277928D01*
X140166544Y-75330000D01*
X140433456Y-75330000D01*
X140695239Y-75277928D01*
X140941833Y-75175785D01*
X141163762Y-75027497D01*
X141352497Y-74838762D01*
X141500785Y-74616833D01*
X141602928Y-74370239D01*
X141655000Y-74108456D01*
X141655000Y-73841544D01*
X141602928Y-73579761D01*
X141500785Y-73333167D01*
X141352497Y-73111238D01*
X141163762Y-72922503D01*
X140941833Y-72774215D01*
X140695239Y-72672072D01*
X140433456Y-72620000D01*
X140366578Y-72620000D01*
X145601581Y-67384998D01*
X155711546Y-67384998D01*
X155759744Y-67417203D01*
X155948102Y-67495224D01*
X156148061Y-67534998D01*
X156351939Y-67534998D01*
X156551898Y-67495224D01*
X156740256Y-67417203D01*
X156909774Y-67303935D01*
X157053937Y-67159772D01*
X157167205Y-66990254D01*
X157245226Y-66801896D01*
X157265879Y-66698061D01*
X164765000Y-66698061D01*
X164765000Y-66901939D01*
X164804774Y-67101898D01*
X164882795Y-67290256D01*
X164996063Y-67459774D01*
X165140226Y-67603937D01*
X165309744Y-67717205D01*
X165498102Y-67795226D01*
X165698061Y-67835000D01*
X165901939Y-67835000D01*
X166101898Y-67795226D01*
X166290256Y-67717205D01*
X166459774Y-67603937D01*
X166603937Y-67459774D01*
X166717205Y-67290256D01*
X166795226Y-67101898D01*
X166835000Y-66901939D01*
X166835000Y-66698061D01*
X166795226Y-66498102D01*
X166717205Y-66309744D01*
X166685000Y-66261546D01*
X166685000Y-65716578D01*
X167941579Y-64460000D01*
X171458422Y-64460000D01*
X171568465Y-64570044D01*
X171579774Y-64626898D01*
X171657795Y-64815256D01*
X171771063Y-64984774D01*
X171915226Y-65128937D01*
X172084744Y-65242205D01*
X172273102Y-65320226D01*
X172473061Y-65360000D01*
X172676939Y-65360000D01*
X172876898Y-65320226D01*
X173065256Y-65242205D01*
X173234774Y-65128937D01*
X173378937Y-64984774D01*
X173492205Y-64815256D01*
X173570226Y-64626898D01*
X173610000Y-64426939D01*
X173610000Y-64223061D01*
X173570226Y-64023102D01*
X173492205Y-63834744D01*
X173378937Y-63665226D01*
X173234774Y-63521063D01*
X173065256Y-63407795D01*
X172876898Y-63329774D01*
X172820044Y-63318465D01*
X172481534Y-62979956D01*
X172453817Y-62946183D01*
X172319059Y-62835589D01*
X172165313Y-62753411D01*
X171998490Y-62702805D01*
X171868477Y-62690000D01*
X171868469Y-62690000D01*
X171825000Y-62685719D01*
X171781531Y-62690000D01*
X167618466Y-62690000D01*
X167574999Y-62685719D01*
X167531533Y-62690000D01*
X167531523Y-62690000D01*
X167401510Y-62702805D01*
X167234687Y-62753411D01*
X167080941Y-62835589D01*
X167080939Y-62835590D01*
X167080940Y-62835590D01*
X166979953Y-62918468D01*
X166979951Y-62918470D01*
X166946183Y-62946183D01*
X166918470Y-62979951D01*
X165204956Y-64693466D01*
X165171183Y-64721183D01*
X165060589Y-64855942D01*
X164978411Y-65009688D01*
X164927805Y-65176511D01*
X164915000Y-65306524D01*
X164915000Y-65306531D01*
X164910719Y-65350000D01*
X164915000Y-65393470D01*
X164915001Y-66261545D01*
X164882795Y-66309744D01*
X164804774Y-66498102D01*
X164765000Y-66698061D01*
X157265879Y-66698061D01*
X157285000Y-66601937D01*
X157285000Y-66398059D01*
X157245226Y-66198100D01*
X157167205Y-66009742D01*
X157053937Y-65840224D01*
X156909774Y-65696061D01*
X156740256Y-65582793D01*
X156551898Y-65504772D01*
X156351939Y-65464998D01*
X156148061Y-65464998D01*
X155948102Y-65504772D01*
X155759744Y-65582793D01*
X155711546Y-65614998D01*
X145278467Y-65614998D01*
X145235001Y-65610717D01*
X145191535Y-65614998D01*
X145191525Y-65614998D01*
X145061512Y-65627803D01*
X144894689Y-65678409D01*
X144740943Y-65760587D01*
X144740941Y-65760588D01*
X144740942Y-65760588D01*
X144639955Y-65843466D01*
X144639953Y-65843468D01*
X144606185Y-65871181D01*
X144578472Y-65904949D01*
X137863422Y-72620000D01*
X137626544Y-72620000D01*
X137364761Y-72672072D01*
X137118167Y-72774215D01*
X136896238Y-72922503D01*
X136707503Y-73111238D01*
X136559215Y-73333167D01*
X136490000Y-73500266D01*
X136420785Y-73333167D01*
X136272497Y-73111238D01*
X136083762Y-72922503D01*
X135861833Y-72774215D01*
X135615239Y-72672072D01*
X135353456Y-72620000D01*
X135086544Y-72620000D01*
X134824761Y-72672072D01*
X134578167Y-72774215D01*
X134356238Y-72922503D01*
X134167503Y-73111238D01*
X134019215Y-73333167D01*
X133917072Y-73579761D01*
X133865000Y-73841544D01*
X112352434Y-73841544D01*
X116287444Y-69906535D01*
X116344298Y-69895226D01*
X116532656Y-69817205D01*
X116702174Y-69703937D01*
X116846337Y-69559774D01*
X116959605Y-69390256D01*
X117037626Y-69201898D01*
X117077400Y-69001939D01*
X117077400Y-68798061D01*
X117037626Y-68598102D01*
X116959605Y-68409744D01*
X116846337Y-68240226D01*
X116702174Y-68096063D01*
X116532656Y-67982795D01*
X116344298Y-67904774D01*
X116144339Y-67865000D01*
X115940461Y-67865000D01*
X115740502Y-67904774D01*
X115552144Y-67982795D01*
X115382626Y-68096063D01*
X115238463Y-68240226D01*
X115125195Y-68409744D01*
X115047174Y-68598102D01*
X115035865Y-68654956D01*
X110402952Y-73287870D01*
X110369184Y-73315583D01*
X110341471Y-73349351D01*
X110341468Y-73349354D01*
X110258590Y-73450341D01*
X110176412Y-73604087D01*
X110125805Y-73770910D01*
X110108719Y-73944400D01*
X84505000Y-73944400D01*
X84505000Y-62103000D01*
X87770211Y-62103000D01*
X87781372Y-62107623D01*
X88522285Y-62255000D01*
X89277715Y-62255000D01*
X90018628Y-62107623D01*
X90029789Y-62103000D01*
X92456000Y-62103000D01*
X92480776Y-62100560D01*
X92504601Y-62093333D01*
X92526557Y-62081597D01*
X92545803Y-62065803D01*
X92561597Y-62046557D01*
X92573333Y-62024601D01*
X92580560Y-62000776D01*
X92583000Y-61976000D01*
X92583000Y-59549789D01*
X92587623Y-59538628D01*
X92735000Y-58797715D01*
X92735000Y-58042285D01*
X92587623Y-57301372D01*
X92583000Y-57290211D01*
X92583000Y-54025000D01*
X174117000Y-54025000D01*
X174117000Y-57290211D01*
G04 #@! TA.AperFunction,NonConductor*
D24*
G36*
X174117000Y-57290211D02*
G01*
X174112377Y-57301372D01*
X173965000Y-58042285D01*
X173965000Y-58797715D01*
X174112377Y-59538628D01*
X174117000Y-59549789D01*
X174117000Y-61976000D01*
X174119440Y-62000776D01*
X174126667Y-62024601D01*
X174138403Y-62046557D01*
X174154197Y-62065803D01*
X174173443Y-62081597D01*
X174195399Y-62093333D01*
X174219224Y-62100560D01*
X174244000Y-62103000D01*
X176670211Y-62103000D01*
X176681372Y-62107623D01*
X177422285Y-62255000D01*
X178177715Y-62255000D01*
X178918628Y-62107623D01*
X178929789Y-62103000D01*
X182195000Y-62103000D01*
X182195001Y-143637000D01*
X178929789Y-143637000D01*
X178918628Y-143632377D01*
X178177715Y-143485000D01*
X177422285Y-143485000D01*
X176681372Y-143632377D01*
X176670211Y-143637000D01*
X174193200Y-143637000D01*
X174168424Y-143639440D01*
X174144599Y-143646667D01*
X174122643Y-143658403D01*
X174103397Y-143674197D01*
X174087603Y-143693443D01*
X174075867Y-143715399D01*
X174068640Y-143739224D01*
X174066200Y-143764000D01*
X174066200Y-146433519D01*
X173965000Y-146942285D01*
X173965000Y-147697715D01*
X174066200Y-148206481D01*
X174066200Y-151715000D01*
X92532200Y-151715000D01*
X92532200Y-148572431D01*
X92587623Y-148438628D01*
X92699735Y-147875000D01*
X100811928Y-147875000D01*
X100811928Y-149375000D01*
X100838599Y-149645799D01*
X100917589Y-149906192D01*
X101045860Y-150146171D01*
X101218485Y-150356515D01*
X101428829Y-150529140D01*
X101668808Y-150657411D01*
X101929201Y-150736401D01*
X102200000Y-150763072D01*
X104200000Y-150763072D01*
X104470799Y-150736401D01*
X104731192Y-150657411D01*
X104971171Y-150529140D01*
X105181515Y-150356515D01*
X105354140Y-150146171D01*
X105482411Y-149906192D01*
X105561401Y-149645799D01*
X105588072Y-149375000D01*
X105588072Y-147875000D01*
X105561401Y-147604201D01*
X105482411Y-147343808D01*
X105354140Y-147103829D01*
X105181515Y-146893485D01*
X104971171Y-146720860D01*
X104731192Y-146592589D01*
X104470799Y-146513599D01*
X104200000Y-146486928D01*
X102200000Y-146486928D01*
X101929201Y-146513599D01*
X101668808Y-146592589D01*
X101428829Y-146720860D01*
X101218485Y-146893485D01*
X101045860Y-147103829D01*
X100917589Y-147343808D01*
X100838599Y-147604201D01*
X100811928Y-147875000D01*
X92699735Y-147875000D01*
X92735000Y-147697715D01*
X92735000Y-146942285D01*
X92587623Y-146201372D01*
X92532200Y-146067569D01*
X92532200Y-143764000D01*
X92529760Y-143739224D01*
X92522533Y-143715399D01*
X92510797Y-143693443D01*
X92495003Y-143674197D01*
X92475757Y-143658403D01*
X92453801Y-143646667D01*
X92429976Y-143639440D01*
X92405200Y-143637000D01*
X90029789Y-143637000D01*
X90018628Y-143632377D01*
X89277715Y-143485000D01*
X88522285Y-143485000D01*
X87781372Y-143632377D01*
X87770211Y-143637000D01*
X84505000Y-143637000D01*
X84505000Y-99927404D01*
X87815000Y-99927404D01*
X87815001Y-103612597D01*
X87842276Y-103889524D01*
X87950062Y-104244848D01*
X88125098Y-104572317D01*
X88360656Y-104859345D01*
X88647684Y-105094903D01*
X88975153Y-105269939D01*
X89330477Y-105377725D01*
X89700000Y-105414120D01*
X90069524Y-105377725D01*
X90424848Y-105269939D01*
X90752317Y-105094903D01*
X91039345Y-104859345D01*
X91274903Y-104572317D01*
X91449939Y-104244848D01*
X91557725Y-103889524D01*
X91585000Y-103612597D01*
X91585000Y-99927404D01*
X97975000Y-99927404D01*
X97975001Y-103612597D01*
X98002276Y-103889524D01*
X98110062Y-104244848D01*
X98285098Y-104572317D01*
X98520656Y-104859345D01*
X98807684Y-105094903D01*
X99135153Y-105269939D01*
X99490477Y-105377725D01*
X99860000Y-105414120D01*
X100229524Y-105377725D01*
X100584848Y-105269939D01*
X100912317Y-105094903D01*
X101199345Y-104859345D01*
X101434903Y-104572317D01*
X101609939Y-104244848D01*
X101717725Y-103889524D01*
X101745000Y-103612597D01*
X101745000Y-99927404D01*
X108135000Y-99927404D01*
X108135001Y-103612597D01*
X108162276Y-103889524D01*
X108270062Y-104244848D01*
X108445098Y-104572317D01*
X108680656Y-104859345D01*
X108967684Y-105094903D01*
X109295153Y-105269939D01*
X109650477Y-105377725D01*
X110020000Y-105414120D01*
X110389524Y-105377725D01*
X110744848Y-105269939D01*
X111072317Y-105094903D01*
X111359345Y-104859345D01*
X111594903Y-104572317D01*
X111769939Y-104244848D01*
X111877725Y-103889524D01*
X111905000Y-103612597D01*
X111905000Y-99927403D01*
X111877725Y-99650476D01*
X111769939Y-99295152D01*
X111594903Y-98967683D01*
X111359345Y-98680655D01*
X111072317Y-98445097D01*
X110744847Y-98270061D01*
X110389523Y-98162275D01*
X110020000Y-98125880D01*
X109650476Y-98162275D01*
X109295152Y-98270061D01*
X108967683Y-98445097D01*
X108680655Y-98680655D01*
X108445097Y-98967683D01*
X108270061Y-99295153D01*
X108162275Y-99650477D01*
X108135000Y-99927404D01*
X101745000Y-99927404D01*
X101745000Y-99927403D01*
X101717725Y-99650476D01*
X101609939Y-99295152D01*
X101434903Y-98967683D01*
X101199345Y-98680655D01*
X100912317Y-98445097D01*
X100584847Y-98270061D01*
X100229523Y-98162275D01*
X99860000Y-98125880D01*
X99490476Y-98162275D01*
X99135152Y-98270061D01*
X98807683Y-98445097D01*
X98520655Y-98680655D01*
X98285097Y-98967683D01*
X98110061Y-99295153D01*
X98002275Y-99650477D01*
X97975000Y-99927404D01*
X91585000Y-99927404D01*
X91585000Y-99927403D01*
X91557725Y-99650476D01*
X91449939Y-99295152D01*
X91274903Y-98967683D01*
X91039345Y-98680655D01*
X90752317Y-98445097D01*
X90424847Y-98270061D01*
X90069523Y-98162275D01*
X89700000Y-98125880D01*
X89330476Y-98162275D01*
X88975152Y-98270061D01*
X88647683Y-98445097D01*
X88360655Y-98680655D01*
X88125097Y-98967683D01*
X87950061Y-99295153D01*
X87842275Y-99650477D01*
X87815000Y-99927404D01*
X84505000Y-99927404D01*
X84505000Y-79607404D01*
X87815000Y-79607404D01*
X87815001Y-83292597D01*
X87842276Y-83569524D01*
X87950062Y-83924848D01*
X88125098Y-84252317D01*
X88360656Y-84539345D01*
X88647684Y-84774903D01*
X88975153Y-84949939D01*
X89330477Y-85057725D01*
X89700000Y-85094120D01*
X90069524Y-85057725D01*
X90424848Y-84949939D01*
X90752317Y-84774903D01*
X91039345Y-84539345D01*
X91274903Y-84252317D01*
X91449939Y-83924848D01*
X91557725Y-83569524D01*
X91585000Y-83292597D01*
X91585000Y-79607404D01*
X95435000Y-79607404D01*
X95435001Y-83292597D01*
X95462276Y-83569524D01*
X95570062Y-83924848D01*
X95745098Y-84252317D01*
X95980656Y-84539345D01*
X96185001Y-84707046D01*
X96185000Y-88526648D01*
X96179509Y-88582400D01*
X96185000Y-88638151D01*
X96201423Y-88804898D01*
X96266324Y-89018846D01*
X96371716Y-89216023D01*
X96513551Y-89388849D01*
X96556865Y-89424396D01*
X99437209Y-92304741D01*
X99472751Y-92348049D01*
X99560455Y-92420026D01*
X99645577Y-92489884D01*
X99842753Y-92595276D01*
X100056701Y-92660177D01*
X100279200Y-92682091D01*
X100334952Y-92676600D01*
X106413069Y-92676600D01*
X114465001Y-100728533D01*
X114465000Y-126044248D01*
X114459509Y-126100000D01*
X114465000Y-126155751D01*
X114465001Y-126155761D01*
X114465001Y-131509922D01*
X114297098Y-131440374D01*
X114097139Y-131400600D01*
X113893261Y-131400600D01*
X113693302Y-131440374D01*
X113504944Y-131518395D01*
X113335426Y-131631663D01*
X113291489Y-131675600D01*
X107900055Y-131675600D01*
X107862732Y-131671924D01*
X107825409Y-131675600D01*
X107825399Y-131675600D01*
X107713746Y-131686597D01*
X107570485Y-131730054D01*
X107438456Y-131800626D01*
X107322731Y-131895599D01*
X107298933Y-131924597D01*
X105146865Y-134076666D01*
X105084727Y-134076666D01*
X104884768Y-134116440D01*
X104696410Y-134194461D01*
X104526892Y-134307729D01*
X104382729Y-134451892D01*
X104269461Y-134621410D01*
X104191440Y-134809768D01*
X104151666Y-135009727D01*
X104151666Y-135213605D01*
X104191440Y-135413564D01*
X104269461Y-135601922D01*
X104382729Y-135771440D01*
X104526892Y-135915603D01*
X104696410Y-136028871D01*
X104884768Y-136106892D01*
X105084727Y-136146666D01*
X105288605Y-136146666D01*
X105488564Y-136106892D01*
X105676922Y-136028871D01*
X105846440Y-135915603D01*
X105990603Y-135771440D01*
X106103871Y-135601922D01*
X106181892Y-135413564D01*
X106221666Y-135213605D01*
X106221666Y-135151467D01*
X108177534Y-133195600D01*
X113291489Y-133195600D01*
X113335426Y-133239537D01*
X113504944Y-133352805D01*
X113693302Y-133430826D01*
X113893261Y-133470600D01*
X114097139Y-133470600D01*
X114297098Y-133430826D01*
X114465001Y-133361278D01*
X114465000Y-140204868D01*
X110248771Y-144421098D01*
X110172896Y-144170972D01*
X110033073Y-143909382D01*
X109844903Y-143680097D01*
X109615618Y-143491927D01*
X109354028Y-143352104D01*
X109070186Y-143266001D01*
X108775000Y-143236928D01*
X107025000Y-143236928D01*
X106729814Y-143266001D01*
X106445972Y-143352104D01*
X106184382Y-143491927D01*
X105955097Y-143680097D01*
X105766927Y-143909382D01*
X105627104Y-144170972D01*
X105588072Y-144299643D01*
X105588072Y-140875000D01*
X105575812Y-140750518D01*
X105539502Y-140630820D01*
X105480537Y-140520506D01*
X105401185Y-140423815D01*
X105304494Y-140344463D01*
X105194180Y-140285498D01*
X105074482Y-140249188D01*
X104950000Y-140236928D01*
X101450000Y-140236928D01*
X101325518Y-140249188D01*
X101205820Y-140285498D01*
X101095506Y-140344463D01*
X100998815Y-140423815D01*
X100919463Y-140520506D01*
X100860498Y-140630820D01*
X100824188Y-140750518D01*
X100811928Y-140875000D01*
X100811928Y-144375000D01*
X100824188Y-144499482D01*
X100860498Y-144619180D01*
X100919463Y-144729494D01*
X100998815Y-144826185D01*
X101095506Y-144905537D01*
X101205820Y-144964502D01*
X101325518Y-145000812D01*
X101450000Y-145013072D01*
X104950000Y-145013072D01*
X105074482Y-145000812D01*
X105194180Y-144964502D01*
X105304494Y-144905537D01*
X105401185Y-144826185D01*
X105480537Y-144729494D01*
X105521494Y-144652869D01*
X105511928Y-144750000D01*
X105511928Y-146500000D01*
X105541001Y-146795186D01*
X105627104Y-147079028D01*
X105766927Y-147340618D01*
X105955097Y-147569903D01*
X106184382Y-147758073D01*
X106445972Y-147897896D01*
X106729814Y-147983999D01*
X107025000Y-148013072D01*
X108775000Y-148013072D01*
X109070186Y-147983999D01*
X109354028Y-147897896D01*
X109615618Y-147758073D01*
X109844903Y-147569903D01*
X110033073Y-147340618D01*
X110172896Y-147079028D01*
X110258999Y-146795186D01*
X110262464Y-146760000D01*
X110594249Y-146760000D01*
X110650000Y-146765491D01*
X110705751Y-146760000D01*
X110705752Y-146760000D01*
X110872499Y-146743577D01*
X111086447Y-146678676D01*
X111283623Y-146573284D01*
X111456449Y-146431449D01*
X111491996Y-146388135D01*
X116363141Y-141516991D01*
X116406449Y-141481449D01*
X116548284Y-141308623D01*
X116653676Y-141111447D01*
X116718577Y-140897499D01*
X116731736Y-140763898D01*
X116740491Y-140675001D01*
X116735000Y-140619249D01*
X116735000Y-133502404D01*
X118890000Y-133502404D01*
X118890001Y-137187597D01*
X118917276Y-137464524D01*
X119025062Y-137819848D01*
X119200098Y-138147317D01*
X119435656Y-138434345D01*
X119722684Y-138669903D01*
X120050153Y-138844939D01*
X120405477Y-138952725D01*
X120775000Y-138989120D01*
X121144524Y-138952725D01*
X121499848Y-138844939D01*
X121827317Y-138669903D01*
X122114345Y-138434345D01*
X122234536Y-138287892D01*
X125225744Y-141279100D01*
X125257367Y-141317633D01*
X125411160Y-141443847D01*
X125481509Y-141481449D01*
X125586620Y-141537632D01*
X125777005Y-141595385D01*
X125975000Y-141614886D01*
X126024608Y-141610000D01*
X157440001Y-141610000D01*
X157440001Y-142300383D01*
X157435114Y-142350000D01*
X157454615Y-142547994D01*
X157512368Y-142738379D01*
X157573531Y-142852806D01*
X157606154Y-142913840D01*
X157732368Y-143067633D01*
X157770901Y-143099256D01*
X159075743Y-144404099D01*
X159107367Y-144442633D01*
X159261160Y-144568847D01*
X159436620Y-144662632D01*
X159627005Y-144720385D01*
X159825000Y-144739886D01*
X159874608Y-144735000D01*
X164878661Y-144735000D01*
X164936595Y-144843386D01*
X165047038Y-144977962D01*
X165181614Y-145088405D01*
X165335150Y-145170472D01*
X165501746Y-145221008D01*
X165675000Y-145238072D01*
X166600000Y-145238072D01*
X166773254Y-145221008D01*
X166939850Y-145170472D01*
X167093386Y-145088405D01*
X167227962Y-144977962D01*
X167338405Y-144843386D01*
X167420472Y-144689850D01*
X167471008Y-144523254D01*
X167488072Y-144350000D01*
X167488072Y-143100000D01*
X167471008Y-142926746D01*
X167420472Y-142760150D01*
X167338405Y-142606614D01*
X167227962Y-142472038D01*
X167093386Y-142361595D01*
X167022500Y-142323706D01*
X167022500Y-141468325D01*
X167078298Y-141457226D01*
X167266656Y-141379205D01*
X167436174Y-141265937D01*
X167580337Y-141121774D01*
X167693605Y-140952256D01*
X167771626Y-140763898D01*
X167811400Y-140563939D01*
X167811400Y-140360061D01*
X167771626Y-140160102D01*
X167693605Y-139971744D01*
X167580337Y-139802226D01*
X167436174Y-139658063D01*
X167266656Y-139544795D01*
X167078298Y-139466774D01*
X166878339Y-139427000D01*
X166674461Y-139427000D01*
X166474502Y-139466774D01*
X166286144Y-139544795D01*
X166116626Y-139658063D01*
X165972463Y-139802226D01*
X165859195Y-139971744D01*
X165781174Y-140160102D01*
X165769865Y-140216957D01*
X165542451Y-140444371D01*
X165508684Y-140472083D01*
X165480971Y-140505851D01*
X165480968Y-140505854D01*
X165398090Y-140606841D01*
X165315912Y-140760587D01*
X165265305Y-140927410D01*
X165248219Y-141100900D01*
X165252501Y-141144379D01*
X165252501Y-142323705D01*
X165181614Y-142361595D01*
X165047038Y-142472038D01*
X164936595Y-142606614D01*
X164878661Y-142715000D01*
X160243356Y-142715000D01*
X159460000Y-141931645D01*
X159460000Y-141018355D01*
X160604094Y-139874261D01*
X160642633Y-139842633D01*
X160768847Y-139688840D01*
X160862632Y-139513380D01*
X160920385Y-139322994D01*
X160935000Y-139174608D01*
X160935000Y-139174607D01*
X160939886Y-139125001D01*
X160935000Y-139075393D01*
X160935000Y-138195106D01*
X161078475Y-138051631D01*
X161240990Y-137808410D01*
X161352932Y-137538157D01*
X161410000Y-137251259D01*
X161410000Y-136958739D01*
X161352932Y-136671841D01*
X161240990Y-136401588D01*
X161078475Y-136158367D01*
X160871632Y-135951524D01*
X160697240Y-135834999D01*
X160871632Y-135718474D01*
X161078475Y-135511631D01*
X161240990Y-135268410D01*
X161352932Y-134998157D01*
X161410000Y-134711259D01*
X161410000Y-134418739D01*
X161352932Y-134131841D01*
X161240990Y-133861588D01*
X161078475Y-133618367D01*
X160871632Y-133411524D01*
X160697240Y-133294999D01*
X160871632Y-133178474D01*
X161078475Y-132971631D01*
X161119656Y-132909999D01*
X166997012Y-132909999D01*
X167110149Y-132970472D01*
X167276745Y-133021008D01*
X167449999Y-133038072D01*
X168350001Y-133038072D01*
X168523255Y-133021008D01*
X168689851Y-132970472D01*
X168843387Y-132888405D01*
X168977962Y-132777962D01*
X169088405Y-132643387D01*
X169119614Y-132585000D01*
X172022892Y-132585000D01*
X172060214Y-132588676D01*
X172097536Y-132585000D01*
X172097547Y-132585000D01*
X172209200Y-132574003D01*
X172352461Y-132530546D01*
X172484490Y-132459974D01*
X172600215Y-132365001D01*
X172624018Y-132335998D01*
X173350018Y-131609998D01*
X173803456Y-131609998D01*
X173750000Y-131878739D01*
X173750000Y-132171259D01*
X173807068Y-132458157D01*
X173919010Y-132728410D01*
X174081525Y-132971631D01*
X174288368Y-133178474D01*
X174462760Y-133294999D01*
X174288368Y-133411524D01*
X174081525Y-133618367D01*
X173919010Y-133861588D01*
X173807068Y-134131841D01*
X173750000Y-134418739D01*
X173750000Y-134711259D01*
X173807068Y-134998157D01*
X173919010Y-135268410D01*
X174081525Y-135511631D01*
X174288368Y-135718474D01*
X174462760Y-135834999D01*
X174288368Y-135951524D01*
X174081525Y-136158367D01*
X173919010Y-136401588D01*
X173807068Y-136671841D01*
X173750000Y-136958739D01*
X173750000Y-137251259D01*
X173807068Y-137538157D01*
X173919010Y-137808410D01*
X174081525Y-138051631D01*
X174225001Y-138195107D01*
X174225000Y-140546644D01*
X172056645Y-142715000D01*
X170371339Y-142715000D01*
X170313405Y-142606614D01*
X170202962Y-142472038D01*
X170068386Y-142361595D01*
X169914850Y-142279528D01*
X169748254Y-142228992D01*
X169575000Y-142211928D01*
X168650000Y-142211928D01*
X168476746Y-142228992D01*
X168310150Y-142279528D01*
X168156614Y-142361595D01*
X168022038Y-142472038D01*
X167911595Y-142606614D01*
X167829528Y-142760150D01*
X167778992Y-142926746D01*
X167761928Y-143100000D01*
X167761928Y-144350000D01*
X167778992Y-144523254D01*
X167829528Y-144689850D01*
X167911595Y-144843386D01*
X168022038Y-144977962D01*
X168126601Y-145063774D01*
X168126600Y-146730745D01*
X168094395Y-146778944D01*
X168016374Y-146967302D01*
X167976600Y-147167261D01*
X167976600Y-147371139D01*
X168016374Y-147571098D01*
X168094395Y-147759456D01*
X168207663Y-147928974D01*
X168351826Y-148073137D01*
X168521344Y-148186405D01*
X168709702Y-148264426D01*
X168909661Y-148304200D01*
X169113539Y-148304200D01*
X169313498Y-148264426D01*
X169501856Y-148186405D01*
X169671374Y-148073137D01*
X169815537Y-147928974D01*
X169928805Y-147759456D01*
X170006826Y-147571098D01*
X170046600Y-147371139D01*
X170046600Y-147167261D01*
X170006826Y-146967302D01*
X169928805Y-146778944D01*
X169896600Y-146730746D01*
X169896600Y-145176008D01*
X169914850Y-145170472D01*
X170068386Y-145088405D01*
X170202962Y-144977962D01*
X170313405Y-144843386D01*
X170371339Y-144735000D01*
X172425392Y-144735000D01*
X172475000Y-144739886D01*
X172672994Y-144720385D01*
X172816951Y-144676716D01*
X172863380Y-144662632D01*
X173038840Y-144568847D01*
X173192633Y-144442633D01*
X173224261Y-144404094D01*
X175914100Y-141714256D01*
X175952633Y-141682633D01*
X176078847Y-141528840D01*
X176172632Y-141353380D01*
X176230385Y-141162994D01*
X176245000Y-141014608D01*
X176245000Y-141014606D01*
X176249886Y-140965001D01*
X176245000Y-140915396D01*
X176245000Y-138195106D01*
X176388475Y-138051631D01*
X176505000Y-137877239D01*
X176621525Y-138051631D01*
X176828368Y-138258474D01*
X177071589Y-138420989D01*
X177341842Y-138532931D01*
X177628740Y-138589999D01*
X177921260Y-138589999D01*
X178208158Y-138532931D01*
X178478411Y-138420989D01*
X178721632Y-138258474D01*
X178928475Y-138051631D01*
X179090990Y-137808410D01*
X179202932Y-137538157D01*
X179260000Y-137251259D01*
X179260000Y-136958739D01*
X179202932Y-136671841D01*
X179090990Y-136401588D01*
X178928475Y-136158367D01*
X178721632Y-135951524D01*
X178547240Y-135834999D01*
X178721632Y-135718474D01*
X178928475Y-135511631D01*
X179090990Y-135268410D01*
X179202932Y-134998157D01*
X179260000Y-134711259D01*
X179260000Y-134418739D01*
X179202932Y-134131841D01*
X179090990Y-133861588D01*
X178955295Y-133658507D01*
X180952604Y-131661199D01*
X180981601Y-131637402D01*
X181011703Y-131600723D01*
X181076574Y-131521678D01*
X181147146Y-131389648D01*
X181168439Y-131319453D01*
X181190603Y-131246387D01*
X181201600Y-131134734D01*
X181201600Y-131134725D01*
X181205276Y-131097402D01*
X181201600Y-131060079D01*
X181201600Y-115912125D01*
X181205276Y-115874800D01*
X181201600Y-115837475D01*
X181201600Y-115837467D01*
X181190603Y-115725814D01*
X181147146Y-115582553D01*
X181076574Y-115450524D01*
X180981601Y-115334799D01*
X180952603Y-115311001D01*
X176560000Y-110918399D01*
X176560000Y-99413178D01*
X176746632Y-99288475D01*
X176953475Y-99081632D01*
X177070000Y-98907240D01*
X177186525Y-99081632D01*
X177393368Y-99288475D01*
X177636589Y-99450990D01*
X177906842Y-99562932D01*
X178193740Y-99620000D01*
X178486260Y-99620000D01*
X178773158Y-99562932D01*
X179043411Y-99450990D01*
X179286632Y-99288475D01*
X179493475Y-99081632D01*
X179655990Y-98838411D01*
X179767932Y-98568158D01*
X179825000Y-98281260D01*
X179825000Y-97988740D01*
X179767932Y-97701842D01*
X179655990Y-97431589D01*
X179493475Y-97188368D01*
X179286632Y-96981525D01*
X179112240Y-96865000D01*
X179286632Y-96748475D01*
X179493475Y-96541632D01*
X179655990Y-96298411D01*
X179767932Y-96028158D01*
X179825000Y-95741260D01*
X179825000Y-95448740D01*
X179767932Y-95161842D01*
X179655990Y-94891589D01*
X179493475Y-94648368D01*
X179286632Y-94441525D01*
X179112240Y-94325000D01*
X179286632Y-94208475D01*
X179493475Y-94001632D01*
X179655990Y-93758411D01*
X179767932Y-93488158D01*
X179825000Y-93201260D01*
X179825000Y-92908740D01*
X179767932Y-92621842D01*
X179655990Y-92351589D01*
X179493475Y-92108368D01*
X179286632Y-91901525D01*
X179112240Y-91785000D01*
X179286632Y-91668475D01*
X179493475Y-91461632D01*
X179655990Y-91218411D01*
X179767932Y-90948158D01*
X179825000Y-90661260D01*
X179825000Y-90368740D01*
X179767932Y-90081842D01*
X179655990Y-89811589D01*
X179493475Y-89568368D01*
X179286632Y-89361525D01*
X179112240Y-89245000D01*
X179286632Y-89128475D01*
X179493475Y-88921632D01*
X179655990Y-88678411D01*
X179767932Y-88408158D01*
X179825000Y-88121260D01*
X179825000Y-87828740D01*
X179767932Y-87541842D01*
X179655990Y-87271589D01*
X179493475Y-87028368D01*
X179286632Y-86821525D01*
X179043411Y-86659010D01*
X178773158Y-86547068D01*
X178486260Y-86490000D01*
X178193740Y-86490000D01*
X177906842Y-86547068D01*
X177636589Y-86659010D01*
X177393368Y-86821525D01*
X177261513Y-86953380D01*
X177239502Y-86880820D01*
X177180537Y-86770506D01*
X177101185Y-86673815D01*
X177004494Y-86594463D01*
X176894180Y-86535498D01*
X176774482Y-86499188D01*
X176650000Y-86486928D01*
X174950000Y-86486928D01*
X174825518Y-86499188D01*
X174705820Y-86535498D01*
X174595506Y-86594463D01*
X174498815Y-86673815D01*
X174419463Y-86770506D01*
X174360498Y-86880820D01*
X174324188Y-87000518D01*
X174311928Y-87125000D01*
X174311928Y-88825000D01*
X174324188Y-88949482D01*
X174360498Y-89069180D01*
X174419463Y-89179494D01*
X174498815Y-89276185D01*
X174595506Y-89355537D01*
X174705820Y-89414502D01*
X174778380Y-89436513D01*
X174646525Y-89568368D01*
X174605344Y-89630000D01*
X172923579Y-89630000D01*
X169388600Y-86095022D01*
X169388600Y-84053654D01*
X169420805Y-84005456D01*
X169498826Y-83817098D01*
X169538600Y-83617139D01*
X169538600Y-83413261D01*
X169498826Y-83213302D01*
X169420805Y-83024944D01*
X169307537Y-82855426D01*
X169163374Y-82711263D01*
X168993856Y-82597995D01*
X168805498Y-82519974D01*
X168605539Y-82480200D01*
X168401661Y-82480200D01*
X168201702Y-82519974D01*
X168013344Y-82597995D01*
X167889118Y-82681000D01*
X161699379Y-82681000D01*
X164495049Y-79885330D01*
X164528817Y-79857617D01*
X164572904Y-79803898D01*
X164639410Y-79722860D01*
X164701122Y-79607404D01*
X164721589Y-79569113D01*
X164772195Y-79402290D01*
X164785000Y-79272277D01*
X164785000Y-79272267D01*
X164789281Y-79228801D01*
X164785000Y-79185335D01*
X164785000Y-72063454D01*
X164817205Y-72015256D01*
X164895226Y-71826898D01*
X164935000Y-71626939D01*
X164935000Y-71423061D01*
X164895226Y-71223102D01*
X164817205Y-71034744D01*
X164703937Y-70865226D01*
X164559774Y-70721063D01*
X164390256Y-70607795D01*
X164201898Y-70529774D01*
X164001939Y-70490000D01*
X163798061Y-70490000D01*
X163598102Y-70529774D01*
X163409744Y-70607795D01*
X163240226Y-70721063D01*
X163096063Y-70865226D01*
X162982795Y-71034744D01*
X162904774Y-71223102D01*
X162865000Y-71423061D01*
X162865000Y-71626939D01*
X162904774Y-71826898D01*
X162982795Y-72015256D01*
X163015000Y-72063454D01*
X163015001Y-78862220D01*
X156630155Y-85247067D01*
X156596382Y-85274784D01*
X156485788Y-85409543D01*
X156403610Y-85563289D01*
X156353004Y-85730112D01*
X156340199Y-85860125D01*
X156340199Y-85860132D01*
X156335918Y-85903601D01*
X156340199Y-85947070D01*
X156340200Y-104585419D01*
X148045756Y-112879864D01*
X148011983Y-112907581D01*
X147901389Y-113042340D01*
X147819211Y-113196086D01*
X147768605Y-113362909D01*
X147755800Y-113492922D01*
X147755800Y-113492929D01*
X147751519Y-113536398D01*
X147755800Y-113579867D01*
X147755801Y-133057034D01*
X147696374Y-133200502D01*
X147656600Y-133400461D01*
X147656600Y-133604339D01*
X147696374Y-133804298D01*
X147774395Y-133992656D01*
X147887663Y-134162174D01*
X148031826Y-134306337D01*
X148201344Y-134419605D01*
X148389702Y-134497626D01*
X148589661Y-134537400D01*
X148793539Y-134537400D01*
X148993498Y-134497626D01*
X149181856Y-134419605D01*
X149351374Y-134306337D01*
X149495537Y-134162174D01*
X149608805Y-133992656D01*
X149686826Y-133804298D01*
X149726600Y-133604339D01*
X149726600Y-133400461D01*
X149686826Y-133200502D01*
X149608805Y-133012144D01*
X149525800Y-132887918D01*
X149525800Y-113902976D01*
X157820248Y-105608529D01*
X157854016Y-105580816D01*
X157964610Y-105446058D01*
X158046788Y-105292312D01*
X158097394Y-105125489D01*
X158110199Y-104995476D01*
X158110199Y-104995466D01*
X158114480Y-104952000D01*
X158110199Y-104908534D01*
X158110199Y-91575000D01*
X158177139Y-91575000D01*
X158377098Y-91535226D01*
X158565456Y-91457205D01*
X158734974Y-91343937D01*
X158879137Y-91199774D01*
X158992405Y-91030256D01*
X159070426Y-90841898D01*
X159110200Y-90641939D01*
X159110200Y-90438061D01*
X159070426Y-90238102D01*
X158992405Y-90049744D01*
X158960200Y-90001546D01*
X158960200Y-87502978D01*
X162012179Y-84451000D01*
X167618601Y-84451000D01*
X167618600Y-86418131D01*
X167614319Y-86461600D01*
X167618600Y-86505069D01*
X167618600Y-86505076D01*
X167631405Y-86635089D01*
X167682011Y-86801912D01*
X167764189Y-86955658D01*
X167874783Y-87090417D01*
X167908556Y-87118134D01*
X171900470Y-91110049D01*
X171928183Y-91143817D01*
X171961951Y-91171530D01*
X171961953Y-91171532D01*
X171996366Y-91199774D01*
X172062941Y-91254411D01*
X172216687Y-91336589D01*
X172383510Y-91387195D01*
X172513523Y-91400000D01*
X172513533Y-91400000D01*
X172556999Y-91404281D01*
X172600465Y-91400000D01*
X174605344Y-91400000D01*
X174646525Y-91461632D01*
X174853368Y-91668475D01*
X175027760Y-91785000D01*
X174853368Y-91901525D01*
X174646525Y-92108368D01*
X174484010Y-92351589D01*
X174372068Y-92621842D01*
X174315000Y-92908740D01*
X174315000Y-93201260D01*
X174372068Y-93488158D01*
X174408288Y-93575600D01*
X173722533Y-93575600D01*
X173685200Y-93571923D01*
X173647867Y-93575600D01*
X173536214Y-93586597D01*
X173392953Y-93630054D01*
X173260924Y-93700626D01*
X173145199Y-93795599D01*
X173121400Y-93824598D01*
X173101000Y-93844998D01*
X171800003Y-92544002D01*
X171776201Y-92514999D01*
X171660476Y-92420026D01*
X171528447Y-92349454D01*
X171385186Y-92305997D01*
X171273533Y-92295000D01*
X171273522Y-92295000D01*
X171236200Y-92291324D01*
X171198878Y-92295000D01*
X166385678Y-92295000D01*
X166260975Y-92108368D01*
X166054132Y-91901525D01*
X165879740Y-91785000D01*
X166054132Y-91668475D01*
X166260975Y-91461632D01*
X166423490Y-91218411D01*
X166535432Y-90948158D01*
X166592500Y-90661260D01*
X166592500Y-90368740D01*
X166535432Y-90081842D01*
X166423490Y-89811589D01*
X166260975Y-89568368D01*
X166054132Y-89361525D01*
X165879740Y-89245000D01*
X166054132Y-89128475D01*
X166260975Y-88921632D01*
X166423490Y-88678411D01*
X166535432Y-88408158D01*
X166592500Y-88121260D01*
X166592500Y-87828740D01*
X166535432Y-87541842D01*
X166423490Y-87271589D01*
X166260975Y-87028368D01*
X166054132Y-86821525D01*
X165810911Y-86659010D01*
X165540658Y-86547068D01*
X165253760Y-86490000D01*
X164961240Y-86490000D01*
X164674342Y-86547068D01*
X164404089Y-86659010D01*
X164160868Y-86821525D01*
X164029013Y-86953380D01*
X164007002Y-86880820D01*
X163948037Y-86770506D01*
X163868685Y-86673815D01*
X163771994Y-86594463D01*
X163661680Y-86535498D01*
X163541982Y-86499188D01*
X163417500Y-86486928D01*
X161717500Y-86486928D01*
X161593018Y-86499188D01*
X161473320Y-86535498D01*
X161363006Y-86594463D01*
X161266315Y-86673815D01*
X161186963Y-86770506D01*
X161127998Y-86880820D01*
X161091688Y-87000518D01*
X161079428Y-87125000D01*
X161079428Y-88825000D01*
X161091688Y-88949482D01*
X161127998Y-89069180D01*
X161186963Y-89179494D01*
X161266315Y-89276185D01*
X161363006Y-89355537D01*
X161473320Y-89414502D01*
X161545880Y-89436513D01*
X161414025Y-89568368D01*
X161251510Y-89811589D01*
X161139568Y-90081842D01*
X161082500Y-90368740D01*
X161082500Y-90661260D01*
X161139568Y-90948158D01*
X161251510Y-91218411D01*
X161414025Y-91461632D01*
X161620868Y-91668475D01*
X161795260Y-91785000D01*
X161620868Y-91901525D01*
X161414025Y-92108368D01*
X161251510Y-92351589D01*
X161139568Y-92621842D01*
X161082500Y-92908740D01*
X161082500Y-93201260D01*
X161139568Y-93488158D01*
X161251510Y-93758411D01*
X161414025Y-94001632D01*
X161620868Y-94208475D01*
X161795260Y-94325000D01*
X161620868Y-94441525D01*
X161414025Y-94648368D01*
X161251510Y-94891589D01*
X161139568Y-95161842D01*
X161082500Y-95448740D01*
X161082500Y-95741260D01*
X161139568Y-96028158D01*
X161251510Y-96298411D01*
X161414025Y-96541632D01*
X161620868Y-96748475D01*
X161795260Y-96865000D01*
X161620868Y-96981525D01*
X161414025Y-97188368D01*
X161251510Y-97431589D01*
X161139568Y-97701842D01*
X161082500Y-97988740D01*
X161082500Y-98281260D01*
X161139568Y-98568158D01*
X161251510Y-98838411D01*
X161414025Y-99081632D01*
X161620868Y-99288475D01*
X161864089Y-99450990D01*
X162134342Y-99562932D01*
X162421240Y-99620000D01*
X162713760Y-99620000D01*
X163000658Y-99562932D01*
X163270911Y-99450990D01*
X163514132Y-99288475D01*
X163720975Y-99081632D01*
X163837500Y-98907240D01*
X163954025Y-99081632D01*
X164160868Y-99288475D01*
X164404089Y-99450990D01*
X164674342Y-99562932D01*
X164961240Y-99620000D01*
X165253760Y-99620000D01*
X165540658Y-99562932D01*
X165810911Y-99450990D01*
X166054132Y-99288475D01*
X166260975Y-99081632D01*
X166423490Y-98838411D01*
X166535432Y-98568158D01*
X166592500Y-98281260D01*
X166592500Y-97988740D01*
X166535432Y-97701842D01*
X166423490Y-97431589D01*
X166260975Y-97188368D01*
X166054132Y-96981525D01*
X165879740Y-96865000D01*
X166054132Y-96748475D01*
X166260975Y-96541632D01*
X166423490Y-96298411D01*
X166535432Y-96028158D01*
X166592500Y-95741260D01*
X166592500Y-95448740D01*
X166535432Y-95161842D01*
X166423490Y-94891589D01*
X166260975Y-94648368D01*
X166054132Y-94441525D01*
X165879740Y-94325000D01*
X166054132Y-94208475D01*
X166260975Y-94001632D01*
X166385678Y-93815000D01*
X170921399Y-93815000D01*
X172026198Y-94919801D01*
X171751802Y-95194197D01*
X171722799Y-95217999D01*
X171667671Y-95285174D01*
X171627826Y-95333724D01*
X171575936Y-95430803D01*
X171557254Y-95465754D01*
X171513797Y-95609015D01*
X171502800Y-95720668D01*
X171502800Y-95720678D01*
X171499124Y-95758000D01*
X171502800Y-95795322D01*
X171502801Y-102910797D01*
X163769199Y-110644400D01*
X154570922Y-110644400D01*
X154533599Y-110640724D01*
X154496276Y-110644400D01*
X154496267Y-110644400D01*
X154384614Y-110655397D01*
X154241353Y-110698854D01*
X154109323Y-110769426D01*
X154025683Y-110838068D01*
X153993599Y-110864399D01*
X153969801Y-110893397D01*
X153401599Y-111461600D01*
X153339461Y-111461600D01*
X153139502Y-111501374D01*
X152951144Y-111579395D01*
X152781626Y-111692663D01*
X152637463Y-111836826D01*
X152524195Y-112006344D01*
X152446174Y-112194702D01*
X152406400Y-112394661D01*
X152406400Y-112456798D01*
X150161803Y-114701396D01*
X150132799Y-114725199D01*
X150077671Y-114792374D01*
X150037826Y-114840924D01*
X149969235Y-114969248D01*
X149967254Y-114972954D01*
X149923797Y-115116215D01*
X149912800Y-115227868D01*
X149912800Y-115227878D01*
X149909124Y-115265200D01*
X149912800Y-115302522D01*
X149912801Y-133465067D01*
X149909124Y-133502400D01*
X149923798Y-133651385D01*
X149967254Y-133794646D01*
X150037826Y-133926676D01*
X150091975Y-133992656D01*
X150132800Y-134042401D01*
X150161798Y-134066199D01*
X152440597Y-136344999D01*
X146345523Y-136344999D01*
X146308200Y-136341323D01*
X146270877Y-136344999D01*
X146270868Y-136344999D01*
X146159215Y-136355996D01*
X146015954Y-136399453D01*
X145883925Y-136470025D01*
X145768200Y-136564998D01*
X145744402Y-136593996D01*
X144994199Y-137344200D01*
X144932061Y-137344200D01*
X144732102Y-137383974D01*
X144543744Y-137461995D01*
X144374226Y-137575263D01*
X144230063Y-137719426D01*
X144116795Y-137888944D01*
X144038774Y-138077302D01*
X143999000Y-138277261D01*
X143999000Y-138481139D01*
X144038774Y-138681098D01*
X144116795Y-138869456D01*
X144230063Y-139038974D01*
X144374226Y-139183137D01*
X144543744Y-139296405D01*
X144732102Y-139374426D01*
X144932061Y-139414200D01*
X145135939Y-139414200D01*
X145335898Y-139374426D01*
X145524256Y-139296405D01*
X145693774Y-139183137D01*
X145837937Y-139038974D01*
X145951205Y-138869456D01*
X146029226Y-138681098D01*
X146069000Y-138481139D01*
X146069000Y-138419001D01*
X146623003Y-137864999D01*
X154238075Y-137864999D01*
X154275398Y-137868675D01*
X154312721Y-137864999D01*
X156106822Y-137864999D01*
X156231525Y-138051631D01*
X156438368Y-138258474D01*
X156681589Y-138420989D01*
X156951842Y-138532931D01*
X157238740Y-138589999D01*
X157531260Y-138589999D01*
X157818158Y-138532931D01*
X158088411Y-138420989D01*
X158331632Y-138258474D01*
X158538475Y-138051631D01*
X158655000Y-137877239D01*
X158771525Y-138051631D01*
X158915000Y-138195106D01*
X158915000Y-138706645D01*
X158031645Y-139590000D01*
X126393356Y-139590000D01*
X122660000Y-135856645D01*
X122660000Y-133502404D01*
X129050000Y-133502404D01*
X129050001Y-137187597D01*
X129077276Y-137464524D01*
X129185062Y-137819848D01*
X129360098Y-138147317D01*
X129595656Y-138434345D01*
X129882684Y-138669903D01*
X130210153Y-138844939D01*
X130565477Y-138952725D01*
X130935000Y-138989120D01*
X131304524Y-138952725D01*
X131659848Y-138844939D01*
X131987317Y-138669903D01*
X132274345Y-138434345D01*
X132509903Y-138147317D01*
X132684939Y-137819848D01*
X132792725Y-137464524D01*
X132820000Y-137187597D01*
X132820000Y-133502403D01*
X132792725Y-133225476D01*
X132684939Y-132870152D01*
X132509903Y-132542683D01*
X132274345Y-132255655D01*
X131987317Y-132020097D01*
X131659847Y-131845061D01*
X131304523Y-131737275D01*
X130935000Y-131700880D01*
X130565476Y-131737275D01*
X130210152Y-131845061D01*
X129882683Y-132020097D01*
X129595655Y-132255655D01*
X129360097Y-132542683D01*
X129185061Y-132870153D01*
X129077275Y-133225477D01*
X129050000Y-133502404D01*
X122660000Y-133502404D01*
X122660000Y-133502403D01*
X122632725Y-133225476D01*
X122524939Y-132870152D01*
X122349903Y-132542683D01*
X122114345Y-132255655D01*
X121827317Y-132020097D01*
X121499847Y-131845061D01*
X121144523Y-131737275D01*
X120775000Y-131700880D01*
X120405476Y-131737275D01*
X120050152Y-131845061D01*
X119722683Y-132020097D01*
X119435655Y-132255655D01*
X119200097Y-132542683D01*
X119025061Y-132870153D01*
X118917275Y-133225477D01*
X118890000Y-133502404D01*
X116735000Y-133502404D01*
X116735000Y-126570131D01*
X121795133Y-121510000D01*
X127269249Y-121510000D01*
X127325000Y-121515491D01*
X127380751Y-121510000D01*
X127380752Y-121510000D01*
X127547499Y-121493577D01*
X127761447Y-121428676D01*
X127958623Y-121323284D01*
X128131449Y-121181449D01*
X128166995Y-121138136D01*
X129158146Y-120146987D01*
X129201449Y-120111449D01*
X129288903Y-120004887D01*
X129343284Y-119938623D01*
X129448676Y-119741447D01*
X129513577Y-119527499D01*
X129535491Y-119305000D01*
X129530000Y-119249248D01*
X129530000Y-118282047D01*
X129734345Y-118114345D01*
X129969903Y-117827317D01*
X130144939Y-117499848D01*
X130252725Y-117144524D01*
X130280000Y-116867597D01*
X130280000Y-113182403D01*
X130252725Y-112905476D01*
X130144939Y-112550152D01*
X129969903Y-112222683D01*
X129734345Y-111935655D01*
X129447317Y-111700097D01*
X129119847Y-111525061D01*
X128764523Y-111417275D01*
X128395000Y-111380880D01*
X128025476Y-111417275D01*
X127670152Y-111525061D01*
X127342683Y-111700097D01*
X127055655Y-111935655D01*
X126820097Y-112222683D01*
X126645061Y-112550153D01*
X126537275Y-112905477D01*
X126510000Y-113182404D01*
X126510001Y-116867597D01*
X126537276Y-117144524D01*
X126645062Y-117499848D01*
X126820098Y-117827317D01*
X127055656Y-118114345D01*
X127260000Y-118282046D01*
X127260000Y-118834868D01*
X126854868Y-119240000D01*
X121380752Y-119240000D01*
X121325000Y-119234509D01*
X121102501Y-119256423D01*
X120888553Y-119321324D01*
X120691377Y-119426716D01*
X120561856Y-119533011D01*
X120561854Y-119533013D01*
X120518551Y-119568551D01*
X120483013Y-119611854D01*
X116735000Y-123359868D01*
X116735000Y-113182404D01*
X118890000Y-113182404D01*
X118890001Y-116867597D01*
X118917276Y-117144524D01*
X119025062Y-117499848D01*
X119200098Y-117827317D01*
X119435656Y-118114345D01*
X119722684Y-118349903D01*
X120050153Y-118524939D01*
X120405477Y-118632725D01*
X120775000Y-118669120D01*
X121144524Y-118632725D01*
X121499848Y-118524939D01*
X121827317Y-118349903D01*
X122114345Y-118114345D01*
X122349903Y-117827317D01*
X122524939Y-117499848D01*
X122632725Y-117144524D01*
X122660000Y-116867597D01*
X122660000Y-113182403D01*
X122632725Y-112905476D01*
X122524939Y-112550152D01*
X122349903Y-112222683D01*
X122114345Y-111935655D01*
X121827317Y-111700097D01*
X121499847Y-111525061D01*
X121144523Y-111417275D01*
X120775000Y-111380880D01*
X120405476Y-111417275D01*
X120050152Y-111525061D01*
X119722683Y-111700097D01*
X119435655Y-111935655D01*
X119200097Y-112222683D01*
X119025061Y-112550153D01*
X118917275Y-112905477D01*
X118890000Y-113182404D01*
X116735000Y-113182404D01*
X116735000Y-100314152D01*
X116740491Y-100258400D01*
X116718577Y-100035901D01*
X116653676Y-99821953D01*
X116548284Y-99624777D01*
X116497529Y-99562932D01*
X116406449Y-99451951D01*
X116363141Y-99416409D01*
X107725196Y-90778465D01*
X107689649Y-90735151D01*
X107516823Y-90593316D01*
X107319647Y-90487924D01*
X107105699Y-90423023D01*
X106938952Y-90406600D01*
X106938951Y-90406600D01*
X106883200Y-90401109D01*
X106827449Y-90406600D01*
X100749332Y-90406600D01*
X98455000Y-88112269D01*
X98455000Y-84707047D01*
X98659345Y-84539345D01*
X98894903Y-84252317D01*
X99069939Y-83924848D01*
X99177725Y-83569524D01*
X99205000Y-83292597D01*
X99205000Y-79607403D01*
X99177725Y-79330476D01*
X99069939Y-78975152D01*
X98894903Y-78647683D01*
X98732669Y-78450000D01*
X100511928Y-78450000D01*
X100511928Y-84450000D01*
X100524188Y-84574482D01*
X100560498Y-84694180D01*
X100619463Y-84804494D01*
X100698815Y-84901185D01*
X100795506Y-84980537D01*
X100905820Y-85039502D01*
X101025518Y-85075812D01*
X101150000Y-85088072D01*
X101265001Y-85088072D01*
X101265001Y-87053439D01*
X101259509Y-87109200D01*
X101281423Y-87331698D01*
X101346324Y-87545646D01*
X101346325Y-87545647D01*
X101451717Y-87742823D01*
X101593552Y-87915649D01*
X101636860Y-87951191D01*
X103552009Y-89866341D01*
X103587551Y-89909649D01*
X103758257Y-90049744D01*
X103760377Y-90051484D01*
X103957553Y-90156876D01*
X104171501Y-90221777D01*
X104394000Y-90243691D01*
X104449752Y-90238200D01*
X108445069Y-90238200D01*
X124938809Y-106731941D01*
X124974351Y-106775249D01*
X125147177Y-106917084D01*
X125344353Y-107022476D01*
X125558301Y-107087377D01*
X125725048Y-107103800D01*
X125725057Y-107103800D01*
X125780799Y-107109290D01*
X125836541Y-107103800D01*
X129476269Y-107103800D01*
X132340000Y-109967532D01*
X132340000Y-111386928D01*
X132225000Y-111386928D01*
X132100518Y-111399188D01*
X131980820Y-111435498D01*
X131870506Y-111494463D01*
X131773815Y-111573815D01*
X131694463Y-111670506D01*
X131635498Y-111780820D01*
X131599188Y-111900518D01*
X131586928Y-112025000D01*
X131586928Y-118025000D01*
X131599188Y-118149482D01*
X131635498Y-118269180D01*
X131694463Y-118379494D01*
X131773815Y-118476185D01*
X131870506Y-118555537D01*
X131980820Y-118614502D01*
X132100518Y-118650812D01*
X132225000Y-118663072D01*
X134725000Y-118663072D01*
X134849482Y-118650812D01*
X134969180Y-118614502D01*
X135079494Y-118555537D01*
X135176185Y-118476185D01*
X135255537Y-118379494D01*
X135314502Y-118269180D01*
X135350812Y-118149482D01*
X135363072Y-118025000D01*
X135363072Y-112025000D01*
X135350812Y-111900518D01*
X135314502Y-111780820D01*
X135255537Y-111670506D01*
X135176185Y-111573815D01*
X135079494Y-111494463D01*
X134969180Y-111435498D01*
X134849482Y-111399188D01*
X134725000Y-111386928D01*
X134610000Y-111386928D01*
X134610000Y-109553151D01*
X134615491Y-109497400D01*
X134593577Y-109274901D01*
X134528676Y-109060953D01*
X134423284Y-108863777D01*
X134281449Y-108690951D01*
X134238141Y-108655409D01*
X130788396Y-105205665D01*
X130752849Y-105162351D01*
X130580023Y-105020516D01*
X130382847Y-104915124D01*
X130168899Y-104850223D01*
X130002152Y-104833800D01*
X130002151Y-104833800D01*
X129946400Y-104828309D01*
X129890649Y-104833800D01*
X126250932Y-104833800D01*
X117987932Y-96570800D01*
X129819119Y-96570800D01*
X129823400Y-96614269D01*
X129823401Y-102724921D01*
X129819119Y-102768400D01*
X129836205Y-102941890D01*
X129886812Y-103108713D01*
X129968990Y-103262459D01*
X130051868Y-103363446D01*
X130051871Y-103363449D01*
X130079584Y-103397217D01*
X130113352Y-103424930D01*
X140210000Y-113521579D01*
X140210001Y-131930664D01*
X140042683Y-132020097D01*
X139755655Y-132255655D01*
X139520097Y-132542683D01*
X139345061Y-132870153D01*
X139237275Y-133225477D01*
X139210000Y-133502404D01*
X139210001Y-137187597D01*
X139237276Y-137464524D01*
X139345062Y-137819848D01*
X139520098Y-138147317D01*
X139755656Y-138434345D01*
X140042684Y-138669903D01*
X140370153Y-138844939D01*
X140725477Y-138952725D01*
X141095000Y-138989120D01*
X141464524Y-138952725D01*
X141819848Y-138844939D01*
X142147317Y-138669903D01*
X142434345Y-138434345D01*
X142669903Y-138147317D01*
X142844939Y-137819848D01*
X142952725Y-137464524D01*
X142980000Y-137187597D01*
X142980000Y-133502403D01*
X142952725Y-133225476D01*
X142844939Y-132870152D01*
X142669903Y-132542683D01*
X142434345Y-132255655D01*
X142147317Y-132020097D01*
X141980000Y-131930664D01*
X141980000Y-113198469D01*
X141984281Y-113155000D01*
X141980000Y-113111531D01*
X141980000Y-113111523D01*
X141967195Y-112981510D01*
X141921437Y-112830668D01*
X141916589Y-112814686D01*
X141834411Y-112660941D01*
X141751532Y-112559953D01*
X141751530Y-112559951D01*
X141723817Y-112526183D01*
X141690051Y-112498472D01*
X131593400Y-102401822D01*
X131593400Y-96937378D01*
X131862244Y-96668534D01*
X131896017Y-96640817D01*
X132006611Y-96506059D01*
X132014022Y-96492194D01*
X132088789Y-96352314D01*
X132139395Y-96185490D01*
X132139712Y-96182276D01*
X132152200Y-96055477D01*
X132152200Y-96055469D01*
X132156481Y-96012000D01*
X132152200Y-95968531D01*
X132152200Y-94966600D01*
X136113546Y-94966600D01*
X136161744Y-94998805D01*
X136350102Y-95076826D01*
X136550061Y-95116600D01*
X136753939Y-95116600D01*
X136953898Y-95076826D01*
X137142256Y-94998805D01*
X137311774Y-94885537D01*
X137455937Y-94741374D01*
X137569205Y-94571856D01*
X137647226Y-94383498D01*
X137687000Y-94183539D01*
X137687000Y-93979661D01*
X137647226Y-93779702D01*
X137569205Y-93591344D01*
X137455937Y-93421826D01*
X137311774Y-93277663D01*
X137142256Y-93164395D01*
X136953898Y-93086374D01*
X136753939Y-93046600D01*
X136550061Y-93046600D01*
X136350102Y-93086374D01*
X136161744Y-93164395D01*
X136113546Y-93196600D01*
X131805654Y-93196600D01*
X131757456Y-93164395D01*
X131569098Y-93086374D01*
X131369139Y-93046600D01*
X131165261Y-93046600D01*
X130965302Y-93086374D01*
X130776944Y-93164395D01*
X130607426Y-93277663D01*
X130463263Y-93421826D01*
X130349995Y-93591344D01*
X130271974Y-93779702D01*
X130232200Y-93979661D01*
X130232200Y-94183539D01*
X130271974Y-94383498D01*
X130349995Y-94571856D01*
X130382200Y-94620055D01*
X130382201Y-95645421D01*
X130113356Y-95914266D01*
X130079583Y-95941983D01*
X129968989Y-96076742D01*
X129886811Y-96230488D01*
X129859112Y-96321799D01*
X129837521Y-96392974D01*
X129836205Y-96397311D01*
X129823400Y-96527324D01*
X129823400Y-96527331D01*
X129819119Y-96570800D01*
X117987932Y-96570800D01*
X116666793Y-95249661D01*
X121545400Y-95249661D01*
X121545400Y-95453539D01*
X121585174Y-95653498D01*
X121663195Y-95841856D01*
X121776463Y-96011374D01*
X121920626Y-96155537D01*
X122090144Y-96268805D01*
X122278502Y-96346826D01*
X122478461Y-96386600D01*
X122682339Y-96386600D01*
X122882298Y-96346826D01*
X123070656Y-96268805D01*
X123118854Y-96236600D01*
X123857731Y-96236600D01*
X123901200Y-96240881D01*
X123944669Y-96236600D01*
X123944677Y-96236600D01*
X124074690Y-96223795D01*
X124241513Y-96173189D01*
X124395259Y-96091011D01*
X124530017Y-95980417D01*
X124557734Y-95946644D01*
X128534979Y-91969400D01*
X137860222Y-91969400D01*
X144645870Y-98755049D01*
X144673583Y-98788817D01*
X144707351Y-98816530D01*
X144707353Y-98816532D01*
X144734013Y-98838411D01*
X144808341Y-98899411D01*
X144962087Y-98981589D01*
X145128910Y-99032195D01*
X145258923Y-99045000D01*
X145258933Y-99045000D01*
X145302399Y-99049281D01*
X145345865Y-99045000D01*
X148190344Y-99045000D01*
X148231525Y-99106632D01*
X148438368Y-99313475D01*
X148681589Y-99475990D01*
X148951842Y-99587932D01*
X149238740Y-99645000D01*
X149531260Y-99645000D01*
X149818158Y-99587932D01*
X150088411Y-99475990D01*
X150331632Y-99313475D01*
X150538475Y-99106632D01*
X150655000Y-98932240D01*
X150771525Y-99106632D01*
X150978368Y-99313475D01*
X151221589Y-99475990D01*
X151491842Y-99587932D01*
X151778740Y-99645000D01*
X152071260Y-99645000D01*
X152358158Y-99587932D01*
X152628411Y-99475990D01*
X152871632Y-99313475D01*
X153078475Y-99106632D01*
X153240990Y-98863411D01*
X153352932Y-98593158D01*
X153410000Y-98306260D01*
X153410000Y-98013740D01*
X153352932Y-97726842D01*
X153240990Y-97456589D01*
X153078475Y-97213368D01*
X152871632Y-97006525D01*
X152697240Y-96890000D01*
X152871632Y-96773475D01*
X153078475Y-96566632D01*
X153240990Y-96323411D01*
X153352932Y-96053158D01*
X153410000Y-95766260D01*
X153410000Y-95473740D01*
X153352932Y-95186842D01*
X153240990Y-94916589D01*
X153078475Y-94673368D01*
X152871632Y-94466525D01*
X152697240Y-94350000D01*
X152871632Y-94233475D01*
X153078475Y-94026632D01*
X153240990Y-93783411D01*
X153352932Y-93513158D01*
X153410000Y-93226260D01*
X153410000Y-92933740D01*
X153352932Y-92646842D01*
X153240990Y-92376589D01*
X153078475Y-92133368D01*
X152871632Y-91926525D01*
X152697240Y-91810000D01*
X152871632Y-91693475D01*
X153078475Y-91486632D01*
X153240990Y-91243411D01*
X153352932Y-90973158D01*
X153410000Y-90686260D01*
X153410000Y-90393740D01*
X153352932Y-90106842D01*
X153240990Y-89836589D01*
X153078475Y-89593368D01*
X152946620Y-89461513D01*
X153019180Y-89439502D01*
X153129494Y-89380537D01*
X153226185Y-89301185D01*
X153305537Y-89204494D01*
X153364502Y-89094180D01*
X153400812Y-88974482D01*
X153413072Y-88850000D01*
X153413072Y-87150000D01*
X153400812Y-87025518D01*
X153364502Y-86905820D01*
X153305537Y-86795506D01*
X153226185Y-86698815D01*
X153129494Y-86619463D01*
X153019180Y-86560498D01*
X152899482Y-86524188D01*
X152775000Y-86511928D01*
X151075000Y-86511928D01*
X150950518Y-86524188D01*
X150830820Y-86560498D01*
X150720506Y-86619463D01*
X150623815Y-86698815D01*
X150544463Y-86795506D01*
X150485498Y-86905820D01*
X150463487Y-86978380D01*
X150331632Y-86846525D01*
X150088411Y-86684010D01*
X149818158Y-86572068D01*
X149531260Y-86515000D01*
X149238740Y-86515000D01*
X148951842Y-86572068D01*
X148681589Y-86684010D01*
X148438368Y-86846525D01*
X148231525Y-87053368D01*
X148069010Y-87296589D01*
X147957068Y-87566842D01*
X147900000Y-87853740D01*
X147900000Y-88146260D01*
X147957068Y-88433158D01*
X148069010Y-88703411D01*
X148231525Y-88946632D01*
X148438368Y-89153475D01*
X148612760Y-89270000D01*
X148438368Y-89386525D01*
X148231525Y-89593368D01*
X148069010Y-89836589D01*
X147957068Y-90106842D01*
X147900000Y-90393740D01*
X147900000Y-90686260D01*
X147957068Y-90973158D01*
X148069010Y-91243411D01*
X148231525Y-91486632D01*
X148438368Y-91693475D01*
X148612760Y-91810000D01*
X148438368Y-91926525D01*
X148231525Y-92133368D01*
X148069010Y-92376589D01*
X147957068Y-92646842D01*
X147900000Y-92933740D01*
X147900000Y-93226260D01*
X147957068Y-93513158D01*
X148069010Y-93783411D01*
X148231525Y-94026632D01*
X148438368Y-94233475D01*
X148612760Y-94350000D01*
X148438368Y-94466525D01*
X148231525Y-94673368D01*
X148190344Y-94735000D01*
X146684979Y-94735000D01*
X140051734Y-88101756D01*
X140024017Y-88067983D01*
X139889259Y-87957389D01*
X139735513Y-87875211D01*
X139568690Y-87824605D01*
X139438677Y-87811800D01*
X139438669Y-87811800D01*
X139395200Y-87807519D01*
X139351731Y-87811800D01*
X127246665Y-87811800D01*
X127203199Y-87807519D01*
X127159733Y-87811800D01*
X127159723Y-87811800D01*
X127029710Y-87824605D01*
X126862887Y-87875211D01*
X126709141Y-87957389D01*
X126709139Y-87957390D01*
X126709140Y-87957390D01*
X126608153Y-88040268D01*
X126608151Y-88040270D01*
X126574383Y-88067983D01*
X126546670Y-88101751D01*
X122386157Y-92262265D01*
X122329302Y-92273574D01*
X122140944Y-92351595D01*
X121971426Y-92464863D01*
X121827263Y-92609026D01*
X121713995Y-92778544D01*
X121635974Y-92966902D01*
X121596200Y-93166861D01*
X121596200Y-93370739D01*
X121635974Y-93570698D01*
X121713995Y-93759056D01*
X121827263Y-93928574D01*
X121971426Y-94072737D01*
X122140944Y-94186005D01*
X122329302Y-94264026D01*
X122529261Y-94303800D01*
X122733139Y-94303800D01*
X122933098Y-94264026D01*
X123121456Y-94186005D01*
X123290974Y-94072737D01*
X123435137Y-93928574D01*
X123548405Y-93759056D01*
X123626426Y-93570698D01*
X123637735Y-93513843D01*
X127569779Y-89581800D01*
X139028622Y-89581800D01*
X145661870Y-96215049D01*
X145689583Y-96248817D01*
X145723351Y-96276530D01*
X145723353Y-96276532D01*
X145749513Y-96298001D01*
X145824341Y-96359411D01*
X145978087Y-96441589D01*
X146144910Y-96492195D01*
X146274923Y-96505000D01*
X146274933Y-96505000D01*
X146318399Y-96509281D01*
X146361865Y-96505000D01*
X148190344Y-96505000D01*
X148231525Y-96566632D01*
X148438368Y-96773475D01*
X148612760Y-96890000D01*
X148438368Y-97006525D01*
X148231525Y-97213368D01*
X148190344Y-97275000D01*
X145668979Y-97275000D01*
X138883334Y-90489356D01*
X138855617Y-90455583D01*
X138720859Y-90344989D01*
X138567113Y-90262811D01*
X138400290Y-90212205D01*
X138270277Y-90199400D01*
X138270269Y-90199400D01*
X138226800Y-90195119D01*
X138183331Y-90199400D01*
X128211865Y-90199400D01*
X128168399Y-90195119D01*
X128124933Y-90199400D01*
X128124923Y-90199400D01*
X127994910Y-90212205D01*
X127828087Y-90262811D01*
X127674341Y-90344989D01*
X127674339Y-90344990D01*
X127674340Y-90344990D01*
X127573353Y-90427868D01*
X127573351Y-90427870D01*
X127539583Y-90455583D01*
X127511870Y-90489351D01*
X123534622Y-94466600D01*
X123118854Y-94466600D01*
X123070656Y-94434395D01*
X122882298Y-94356374D01*
X122682339Y-94316600D01*
X122478461Y-94316600D01*
X122278502Y-94356374D01*
X122090144Y-94434395D01*
X121920626Y-94547663D01*
X121776463Y-94691826D01*
X121663195Y-94861344D01*
X121585174Y-95049702D01*
X121545400Y-95249661D01*
X116666793Y-95249661D01*
X109757196Y-88340065D01*
X109721649Y-88296751D01*
X109548823Y-88154916D01*
X109351647Y-88049524D01*
X109137699Y-87984623D01*
X108970952Y-87968200D01*
X108970951Y-87968200D01*
X108915200Y-87962709D01*
X108859449Y-87968200D01*
X104864132Y-87968200D01*
X103535000Y-86639069D01*
X103535000Y-85088072D01*
X103650000Y-85088072D01*
X103774482Y-85075812D01*
X103894180Y-85039502D01*
X104004494Y-84980537D01*
X104101185Y-84901185D01*
X104180537Y-84804494D01*
X104239502Y-84694180D01*
X104275812Y-84574482D01*
X104288072Y-84450000D01*
X104288072Y-78450000D01*
X104275812Y-78325518D01*
X104239502Y-78205820D01*
X104180537Y-78095506D01*
X104101185Y-77998815D01*
X104004494Y-77919463D01*
X103894180Y-77860498D01*
X103774482Y-77824188D01*
X103650000Y-77811928D01*
X101150000Y-77811928D01*
X101025518Y-77824188D01*
X100905820Y-77860498D01*
X100795506Y-77919463D01*
X100698815Y-77998815D01*
X100619463Y-78095506D01*
X100560498Y-78205820D01*
X100524188Y-78325518D01*
X100511928Y-78450000D01*
X98732669Y-78450000D01*
X98659345Y-78360655D01*
X98372317Y-78125097D01*
X98044847Y-77950061D01*
X97689523Y-77842275D01*
X97320000Y-77805880D01*
X96950476Y-77842275D01*
X96595152Y-77950061D01*
X96267683Y-78125097D01*
X95980655Y-78360655D01*
X95745097Y-78647683D01*
X95570061Y-78975153D01*
X95462275Y-79330477D01*
X95435000Y-79607404D01*
X91585000Y-79607404D01*
X91585000Y-79607403D01*
X91557725Y-79330476D01*
X91449939Y-78975152D01*
X91274903Y-78647683D01*
X91039345Y-78360655D01*
X90752317Y-78125097D01*
X90424847Y-77950061D01*
X90069523Y-77842275D01*
X89700000Y-77805880D01*
X89330476Y-77842275D01*
X88975152Y-77950061D01*
X88647683Y-78125097D01*
X88360655Y-78360655D01*
X88125097Y-78647683D01*
X87950061Y-78975153D01*
X87842275Y-79330477D01*
X87815000Y-79607404D01*
X84505000Y-79607404D01*
X84505000Y-73944400D01*
X110108719Y-73944400D01*
X110113001Y-73987879D01*
X110113000Y-82150931D01*
X110108719Y-82194400D01*
X110113000Y-82237869D01*
X110113000Y-82237876D01*
X110125805Y-82367889D01*
X110176411Y-82534712D01*
X110258589Y-82688458D01*
X110369183Y-82823217D01*
X110402956Y-82850934D01*
X113191865Y-85639844D01*
X113203174Y-85696698D01*
X113281195Y-85885056D01*
X113394463Y-86054574D01*
X113538626Y-86198737D01*
X113708144Y-86312005D01*
X113896502Y-86390026D01*
X114096461Y-86429800D01*
X114300339Y-86429800D01*
X114500298Y-86390026D01*
X114688656Y-86312005D01*
X114858174Y-86198737D01*
X115002337Y-86054574D01*
X115115605Y-85885056D01*
X115193626Y-85696698D01*
X115216504Y-85581682D01*
X117611465Y-87976644D01*
X117622774Y-88033498D01*
X117700795Y-88221856D01*
X117814063Y-88391374D01*
X117958226Y-88535537D01*
X118127744Y-88648805D01*
X118316102Y-88726826D01*
X118516061Y-88766600D01*
X118719939Y-88766600D01*
X118919898Y-88726826D01*
X119108256Y-88648805D01*
X119277774Y-88535537D01*
X119421937Y-88391374D01*
X119535205Y-88221856D01*
X119613226Y-88033498D01*
X119653000Y-87833539D01*
X119653000Y-87629661D01*
X119613226Y-87429702D01*
X119535205Y-87241344D01*
X119421937Y-87071826D01*
X119277774Y-86927663D01*
X119108256Y-86814395D01*
X118919898Y-86736374D01*
X118863044Y-86725065D01*
X114560978Y-82423000D01*
X116596979Y-80387000D01*
X118943146Y-80387000D01*
X118991344Y-80419205D01*
X119179702Y-80497226D01*
X119379661Y-80537000D01*
X119583539Y-80537000D01*
X119783498Y-80497226D01*
X119971856Y-80419205D01*
X120141374Y-80305937D01*
X120285537Y-80161774D01*
X120398805Y-79992256D01*
X120476826Y-79803898D01*
X120516600Y-79603939D01*
X120516600Y-79400061D01*
X120476826Y-79200102D01*
X120398805Y-79011744D01*
X120299418Y-78863000D01*
X120755996Y-78863000D01*
X120721574Y-78946102D01*
X120681800Y-79146061D01*
X120681800Y-79349939D01*
X120721574Y-79549898D01*
X120799595Y-79738256D01*
X120912863Y-79907774D01*
X121057026Y-80051937D01*
X121226544Y-80165205D01*
X121414902Y-80243226D01*
X121614861Y-80283000D01*
X121818739Y-80283000D01*
X122018698Y-80243226D01*
X122207056Y-80165205D01*
X122376574Y-80051937D01*
X122520737Y-79907774D01*
X122634005Y-79738256D01*
X122712026Y-79549898D01*
X122751800Y-79349939D01*
X122751800Y-79146061D01*
X122712026Y-78946102D01*
X122677604Y-78863000D01*
X137637546Y-78863000D01*
X137685744Y-78895205D01*
X137874102Y-78973226D01*
X138074061Y-79013000D01*
X138277939Y-79013000D01*
X138477898Y-78973226D01*
X138666256Y-78895205D01*
X138714454Y-78863000D01*
X144046424Y-78863000D01*
X144315268Y-79131844D01*
X144342985Y-79165617D01*
X144453840Y-79256594D01*
X144477743Y-79276211D01*
X144631488Y-79358389D01*
X144768861Y-79400061D01*
X144798312Y-79408995D01*
X144928325Y-79421800D01*
X144928333Y-79421800D01*
X144971802Y-79426081D01*
X145015271Y-79421800D01*
X149118346Y-79421800D01*
X149166544Y-79454005D01*
X149354902Y-79532026D01*
X149554861Y-79571800D01*
X149758739Y-79571800D01*
X149958698Y-79532026D01*
X150147056Y-79454005D01*
X150316574Y-79340737D01*
X150460737Y-79196574D01*
X150574005Y-79027056D01*
X150652026Y-78838698D01*
X150691800Y-78638739D01*
X150691800Y-78434861D01*
X150652026Y-78234902D01*
X150574005Y-78046544D01*
X150460737Y-77877026D01*
X150316574Y-77732863D01*
X150147056Y-77619595D01*
X149958698Y-77541574D01*
X149758739Y-77501800D01*
X149554861Y-77501800D01*
X149354902Y-77541574D01*
X149166544Y-77619595D01*
X149118346Y-77651800D01*
X145338380Y-77651800D01*
X145069536Y-77382956D01*
X145041819Y-77349183D01*
X144907061Y-77238589D01*
X144753315Y-77156411D01*
X144586492Y-77105805D01*
X144456479Y-77093000D01*
X144456471Y-77093000D01*
X144413002Y-77088719D01*
X144369533Y-77093000D01*
X138714454Y-77093000D01*
X138666256Y-77060795D01*
X138477898Y-76982774D01*
X138277939Y-76943000D01*
X138074061Y-76943000D01*
X137874102Y-76982774D01*
X137685744Y-77060795D01*
X137637546Y-77093000D01*
X121353869Y-77093000D01*
X121310400Y-77088719D01*
X121266931Y-77093000D01*
X115803654Y-77093000D01*
X115755456Y-77060795D01*
X115567098Y-76982774D01*
X115367139Y-76943000D01*
X115163261Y-76943000D01*
X114963302Y-76982774D01*
X114774944Y-77060795D01*
X114605426Y-77174063D01*
X114461263Y-77318226D01*
X114347995Y-77487744D01*
X114269974Y-77676102D01*
X114230200Y-77876061D01*
X114230200Y-78079939D01*
X114269974Y-78279898D01*
X114347995Y-78468256D01*
X114461263Y-78637774D01*
X114605426Y-78781937D01*
X114774944Y-78895205D01*
X114963302Y-78973226D01*
X115163261Y-79013000D01*
X115367139Y-79013000D01*
X115492820Y-78988001D01*
X112714355Y-81766467D01*
X112680583Y-81794183D01*
X112652868Y-81827954D01*
X112569990Y-81928941D01*
X112487812Y-82082687D01*
X112437205Y-82249510D01*
X112425324Y-82370146D01*
X111883000Y-81827822D01*
X111883000Y-74310978D01*
X112352434Y-73841544D01*
X133865000Y-73841544D01*
X133865000Y-74108456D01*
X133917072Y-74370239D01*
X134019215Y-74616833D01*
X134167503Y-74838762D01*
X134356238Y-75027497D01*
X134578167Y-75175785D01*
X134824761Y-75277928D01*
X135086544Y-75330000D01*
X135353456Y-75330000D01*
X135615239Y-75277928D01*
X135861833Y-75175785D01*
X136083762Y-75027497D01*
X136272497Y-74838762D01*
X136420785Y-74616833D01*
X136490000Y-74449734D01*
X136559215Y-74616833D01*
X136707503Y-74838762D01*
X136896238Y-75027497D01*
X137118167Y-75175785D01*
X137364761Y-75277928D01*
X137626544Y-75330000D01*
X137893456Y-75330000D01*
X138155239Y-75277928D01*
X138401833Y-75175785D01*
X138623762Y-75027497D01*
X138812497Y-74838762D01*
X138960785Y-74616833D01*
X139030000Y-74449734D01*
X139099215Y-74616833D01*
X139247503Y-74838762D01*
X139436238Y-75027497D01*
X139658167Y-75175785D01*
X139904761Y-75277928D01*
X140166544Y-75330000D01*
X140433456Y-75330000D01*
X140695239Y-75277928D01*
X140941833Y-75175785D01*
X141163762Y-75027497D01*
X141352497Y-74838762D01*
X141500785Y-74616833D01*
X141602928Y-74370239D01*
X141655000Y-74108456D01*
X141655000Y-73841544D01*
X141602928Y-73579761D01*
X141500785Y-73333167D01*
X141352497Y-73111238D01*
X141163762Y-72922503D01*
X140941833Y-72774215D01*
X140695239Y-72672072D01*
X140433456Y-72620000D01*
X140366578Y-72620000D01*
X145601581Y-67384998D01*
X155711546Y-67384998D01*
X155759744Y-67417203D01*
X155948102Y-67495224D01*
X156148061Y-67534998D01*
X156351939Y-67534998D01*
X156551898Y-67495224D01*
X156740256Y-67417203D01*
X156909774Y-67303935D01*
X157053937Y-67159772D01*
X157167205Y-66990254D01*
X157245226Y-66801896D01*
X157265879Y-66698061D01*
X164765000Y-66698061D01*
X164765000Y-66901939D01*
X164804774Y-67101898D01*
X164882795Y-67290256D01*
X164996063Y-67459774D01*
X165140226Y-67603937D01*
X165309744Y-67717205D01*
X165498102Y-67795226D01*
X165698061Y-67835000D01*
X165901939Y-67835000D01*
X166101898Y-67795226D01*
X166290256Y-67717205D01*
X166459774Y-67603937D01*
X166603937Y-67459774D01*
X166717205Y-67290256D01*
X166795226Y-67101898D01*
X166835000Y-66901939D01*
X166835000Y-66698061D01*
X166795226Y-66498102D01*
X166717205Y-66309744D01*
X166685000Y-66261546D01*
X166685000Y-65716578D01*
X167941579Y-64460000D01*
X171458422Y-64460000D01*
X171568465Y-64570044D01*
X171579774Y-64626898D01*
X171657795Y-64815256D01*
X171771063Y-64984774D01*
X171915226Y-65128937D01*
X172084744Y-65242205D01*
X172273102Y-65320226D01*
X172473061Y-65360000D01*
X172676939Y-65360000D01*
X172876898Y-65320226D01*
X173065256Y-65242205D01*
X173234774Y-65128937D01*
X173378937Y-64984774D01*
X173492205Y-64815256D01*
X173570226Y-64626898D01*
X173610000Y-64426939D01*
X173610000Y-64223061D01*
X173570226Y-64023102D01*
X173492205Y-63834744D01*
X173378937Y-63665226D01*
X173234774Y-63521063D01*
X173065256Y-63407795D01*
X172876898Y-63329774D01*
X172820044Y-63318465D01*
X172481534Y-62979956D01*
X172453817Y-62946183D01*
X172319059Y-62835589D01*
X172165313Y-62753411D01*
X171998490Y-62702805D01*
X171868477Y-62690000D01*
X171868469Y-62690000D01*
X171825000Y-62685719D01*
X171781531Y-62690000D01*
X167618466Y-62690000D01*
X167574999Y-62685719D01*
X167531533Y-62690000D01*
X167531523Y-62690000D01*
X167401510Y-62702805D01*
X167234687Y-62753411D01*
X167080941Y-62835589D01*
X167080939Y-62835590D01*
X167080940Y-62835590D01*
X166979953Y-62918468D01*
X166979951Y-62918470D01*
X166946183Y-62946183D01*
X166918470Y-62979951D01*
X165204956Y-64693466D01*
X165171183Y-64721183D01*
X165060589Y-64855942D01*
X164978411Y-65009688D01*
X164927805Y-65176511D01*
X164915000Y-65306524D01*
X164915000Y-65306531D01*
X164910719Y-65350000D01*
X164915000Y-65393470D01*
X164915001Y-66261545D01*
X164882795Y-66309744D01*
X164804774Y-66498102D01*
X164765000Y-66698061D01*
X157265879Y-66698061D01*
X157285000Y-66601937D01*
X157285000Y-66398059D01*
X157245226Y-66198100D01*
X157167205Y-66009742D01*
X157053937Y-65840224D01*
X156909774Y-65696061D01*
X156740256Y-65582793D01*
X156551898Y-65504772D01*
X156351939Y-65464998D01*
X156148061Y-65464998D01*
X155948102Y-65504772D01*
X155759744Y-65582793D01*
X155711546Y-65614998D01*
X145278467Y-65614998D01*
X145235001Y-65610717D01*
X145191535Y-65614998D01*
X145191525Y-65614998D01*
X145061512Y-65627803D01*
X144894689Y-65678409D01*
X144740943Y-65760587D01*
X144740941Y-65760588D01*
X144740942Y-65760588D01*
X144639955Y-65843466D01*
X144639953Y-65843468D01*
X144606185Y-65871181D01*
X144578472Y-65904949D01*
X137863422Y-72620000D01*
X137626544Y-72620000D01*
X137364761Y-72672072D01*
X137118167Y-72774215D01*
X136896238Y-72922503D01*
X136707503Y-73111238D01*
X136559215Y-73333167D01*
X136490000Y-73500266D01*
X136420785Y-73333167D01*
X136272497Y-73111238D01*
X136083762Y-72922503D01*
X135861833Y-72774215D01*
X135615239Y-72672072D01*
X135353456Y-72620000D01*
X135086544Y-72620000D01*
X134824761Y-72672072D01*
X134578167Y-72774215D01*
X134356238Y-72922503D01*
X134167503Y-73111238D01*
X134019215Y-73333167D01*
X133917072Y-73579761D01*
X133865000Y-73841544D01*
X112352434Y-73841544D01*
X116287444Y-69906535D01*
X116344298Y-69895226D01*
X116532656Y-69817205D01*
X116702174Y-69703937D01*
X116846337Y-69559774D01*
X116959605Y-69390256D01*
X117037626Y-69201898D01*
X117077400Y-69001939D01*
X117077400Y-68798061D01*
X117037626Y-68598102D01*
X116959605Y-68409744D01*
X116846337Y-68240226D01*
X116702174Y-68096063D01*
X116532656Y-67982795D01*
X116344298Y-67904774D01*
X116144339Y-67865000D01*
X115940461Y-67865000D01*
X115740502Y-67904774D01*
X115552144Y-67982795D01*
X115382626Y-68096063D01*
X115238463Y-68240226D01*
X115125195Y-68409744D01*
X115047174Y-68598102D01*
X115035865Y-68654956D01*
X110402952Y-73287870D01*
X110369184Y-73315583D01*
X110341471Y-73349351D01*
X110341468Y-73349354D01*
X110258590Y-73450341D01*
X110176412Y-73604087D01*
X110125805Y-73770910D01*
X110108719Y-73944400D01*
X84505000Y-73944400D01*
X84505000Y-62103000D01*
X87770211Y-62103000D01*
X87781372Y-62107623D01*
X88522285Y-62255000D01*
X89277715Y-62255000D01*
X90018628Y-62107623D01*
X90029789Y-62103000D01*
X92456000Y-62103000D01*
X92480776Y-62100560D01*
X92504601Y-62093333D01*
X92526557Y-62081597D01*
X92545803Y-62065803D01*
X92561597Y-62046557D01*
X92573333Y-62024601D01*
X92580560Y-62000776D01*
X92583000Y-61976000D01*
X92583000Y-59549789D01*
X92587623Y-59538628D01*
X92735000Y-58797715D01*
X92735000Y-58042285D01*
X92587623Y-57301372D01*
X92583000Y-57290211D01*
X92583000Y-54025000D01*
X174117000Y-54025000D01*
X174117000Y-57290211D01*
G37*
G04 #@! TD.AperFunction*
D23*
X152856869Y-122460048D02*
X152884582Y-122493816D01*
X152918350Y-122521529D01*
X152918352Y-122521531D01*
X152975474Y-122568410D01*
X153019340Y-122604410D01*
X153173086Y-122686588D01*
X153339909Y-122737194D01*
X153469922Y-122749999D01*
X153469932Y-122749999D01*
X153513398Y-122754280D01*
X153556864Y-122749999D01*
X156190344Y-122749999D01*
X156231525Y-122811631D01*
X156438368Y-123018474D01*
X156612760Y-123134999D01*
X156438368Y-123251524D01*
X156231525Y-123458367D01*
X156069010Y-123701588D01*
X155957068Y-123971841D01*
X155900000Y-124258739D01*
X155900000Y-124551259D01*
X155957068Y-124838157D01*
X156069010Y-125108410D01*
X156231525Y-125351631D01*
X156438368Y-125558474D01*
X156612760Y-125674999D01*
X156438368Y-125791524D01*
X156231525Y-125998367D01*
X156069010Y-126241588D01*
X155957068Y-126511841D01*
X155900000Y-126798739D01*
X155900000Y-127091259D01*
X155957068Y-127378157D01*
X156069010Y-127648410D01*
X156231525Y-127891631D01*
X156438368Y-128098474D01*
X156612760Y-128214999D01*
X156438368Y-128331524D01*
X156231525Y-128538367D01*
X156069010Y-128781588D01*
X155957068Y-129051841D01*
X155900000Y-129338739D01*
X155900000Y-129631259D01*
X155957068Y-129918157D01*
X156069010Y-130188410D01*
X156231525Y-130431631D01*
X156438368Y-130638474D01*
X156612760Y-130754999D01*
X156438368Y-130871524D01*
X156231525Y-131078367D01*
X156069010Y-131321588D01*
X155957068Y-131591841D01*
X155900000Y-131878739D01*
X155900000Y-132171259D01*
X155957068Y-132458157D01*
X156069010Y-132728410D01*
X156231525Y-132971631D01*
X156438368Y-133178474D01*
X156612760Y-133294999D01*
X156438368Y-133411524D01*
X156231525Y-133618367D01*
X156069010Y-133861588D01*
X155957068Y-134131841D01*
X155900000Y-134418739D01*
X155900000Y-134711259D01*
X155957068Y-134998157D01*
X156069010Y-135268410D01*
X156231525Y-135511631D01*
X156438368Y-135718474D01*
X156612760Y-135834999D01*
X156438368Y-135951524D01*
X156231525Y-136158367D01*
X156106822Y-136344999D01*
X154590201Y-136344999D01*
X151432800Y-133187599D01*
X151432800Y-121035978D01*
X152856869Y-122460048D01*
G04 #@! TA.AperFunction,NonConductor*
D24*
G36*
X152856869Y-122460048D02*
G01*
X152884582Y-122493816D01*
X152918350Y-122521529D01*
X152918352Y-122521531D01*
X152975474Y-122568410D01*
X153019340Y-122604410D01*
X153173086Y-122686588D01*
X153339909Y-122737194D01*
X153469922Y-122749999D01*
X153469932Y-122749999D01*
X153513398Y-122754280D01*
X153556864Y-122749999D01*
X156190344Y-122749999D01*
X156231525Y-122811631D01*
X156438368Y-123018474D01*
X156612760Y-123134999D01*
X156438368Y-123251524D01*
X156231525Y-123458367D01*
X156069010Y-123701588D01*
X155957068Y-123971841D01*
X155900000Y-124258739D01*
X155900000Y-124551259D01*
X155957068Y-124838157D01*
X156069010Y-125108410D01*
X156231525Y-125351631D01*
X156438368Y-125558474D01*
X156612760Y-125674999D01*
X156438368Y-125791524D01*
X156231525Y-125998367D01*
X156069010Y-126241588D01*
X155957068Y-126511841D01*
X155900000Y-126798739D01*
X155900000Y-127091259D01*
X155957068Y-127378157D01*
X156069010Y-127648410D01*
X156231525Y-127891631D01*
X156438368Y-128098474D01*
X156612760Y-128214999D01*
X156438368Y-128331524D01*
X156231525Y-128538367D01*
X156069010Y-128781588D01*
X155957068Y-129051841D01*
X155900000Y-129338739D01*
X155900000Y-129631259D01*
X155957068Y-129918157D01*
X156069010Y-130188410D01*
X156231525Y-130431631D01*
X156438368Y-130638474D01*
X156612760Y-130754999D01*
X156438368Y-130871524D01*
X156231525Y-131078367D01*
X156069010Y-131321588D01*
X155957068Y-131591841D01*
X155900000Y-131878739D01*
X155900000Y-132171259D01*
X155957068Y-132458157D01*
X156069010Y-132728410D01*
X156231525Y-132971631D01*
X156438368Y-133178474D01*
X156612760Y-133294999D01*
X156438368Y-133411524D01*
X156231525Y-133618367D01*
X156069010Y-133861588D01*
X155957068Y-134131841D01*
X155900000Y-134418739D01*
X155900000Y-134711259D01*
X155957068Y-134998157D01*
X156069010Y-135268410D01*
X156231525Y-135511631D01*
X156438368Y-135718474D01*
X156612760Y-135834999D01*
X156438368Y-135951524D01*
X156231525Y-136158367D01*
X156106822Y-136344999D01*
X154590201Y-136344999D01*
X151432800Y-133187599D01*
X151432800Y-121035978D01*
X152856869Y-122460048D01*
G37*
G04 #@! TD.AperFunction*
D23*
X176621525Y-135511631D02*
X176828368Y-135718474D01*
X177002760Y-135834999D01*
X176828368Y-135951524D01*
X176621525Y-136158367D01*
X176505000Y-136332759D01*
X176388475Y-136158367D01*
X176181632Y-135951524D01*
X176007240Y-135834999D01*
X176181632Y-135718474D01*
X176388475Y-135511631D01*
X176505000Y-135337239D01*
X176621525Y-135511631D01*
G04 #@! TA.AperFunction,NonConductor*
D24*
G36*
X176621525Y-135511631D02*
G01*
X176828368Y-135718474D01*
X177002760Y-135834999D01*
X176828368Y-135951524D01*
X176621525Y-136158367D01*
X176505000Y-136332759D01*
X176388475Y-136158367D01*
X176181632Y-135951524D01*
X176007240Y-135834999D01*
X176181632Y-135718474D01*
X176388475Y-135511631D01*
X176505000Y-135337239D01*
X176621525Y-135511631D01*
G37*
G04 #@! TD.AperFunction*
D23*
X158771525Y-135511631D02*
X158978368Y-135718474D01*
X159152760Y-135834999D01*
X158978368Y-135951524D01*
X158771525Y-136158367D01*
X158655000Y-136332759D01*
X158538475Y-136158367D01*
X158331632Y-135951524D01*
X158157240Y-135834999D01*
X158331632Y-135718474D01*
X158538475Y-135511631D01*
X158655000Y-135337239D01*
X158771525Y-135511631D01*
G04 #@! TA.AperFunction,NonConductor*
D24*
G36*
X158771525Y-135511631D02*
G01*
X158978368Y-135718474D01*
X159152760Y-135834999D01*
X158978368Y-135951524D01*
X158771525Y-136158367D01*
X158655000Y-136332759D01*
X158538475Y-136158367D01*
X158331632Y-135951524D01*
X158157240Y-135834999D01*
X158331632Y-135718474D01*
X158538475Y-135511631D01*
X158655000Y-135337239D01*
X158771525Y-135511631D01*
G37*
G04 #@! TD.AperFunction*
D23*
X158771525Y-132971631D02*
X158978368Y-133178474D01*
X159152760Y-133294999D01*
X158978368Y-133411524D01*
X158771525Y-133618367D01*
X158655000Y-133792759D01*
X158538475Y-133618367D01*
X158331632Y-133411524D01*
X158157240Y-133294999D01*
X158331632Y-133178474D01*
X158538475Y-132971631D01*
X158655000Y-132797239D01*
X158771525Y-132971631D01*
G04 #@! TA.AperFunction,NonConductor*
D24*
G36*
X158771525Y-132971631D02*
G01*
X158978368Y-133178474D01*
X159152760Y-133294999D01*
X158978368Y-133411524D01*
X158771525Y-133618367D01*
X158655000Y-133792759D01*
X158538475Y-133618367D01*
X158331632Y-133411524D01*
X158157240Y-133294999D01*
X158331632Y-133178474D01*
X158538475Y-132971631D01*
X158655000Y-132797239D01*
X158771525Y-132971631D01*
G37*
G04 #@! TD.AperFunction*
D23*
X174372068Y-95161842D02*
X174315000Y-95448740D01*
X174315000Y-95741260D01*
X174372068Y-96028158D01*
X174484010Y-96298411D01*
X174646525Y-96541632D01*
X174853368Y-96748475D01*
X175027760Y-96865000D01*
X174853368Y-96981525D01*
X174646525Y-97188368D01*
X174484010Y-97431589D01*
X174372068Y-97701842D01*
X174315000Y-97988740D01*
X174315000Y-98281260D01*
X174372068Y-98568158D01*
X174484010Y-98838411D01*
X174646525Y-99081632D01*
X174853368Y-99288475D01*
X175040001Y-99413179D01*
X175040000Y-111195878D01*
X175036324Y-111233200D01*
X175040000Y-111270522D01*
X175040000Y-111270532D01*
X175050997Y-111382185D01*
X175075087Y-111461600D01*
X175094454Y-111525446D01*
X175165026Y-111657476D01*
X175197173Y-111696647D01*
X175259999Y-111773201D01*
X175289003Y-111797004D01*
X179681601Y-116189603D01*
X179681600Y-130782599D01*
X179106110Y-131358090D01*
X179090990Y-131321588D01*
X178928475Y-131078367D01*
X178721632Y-130871524D01*
X178547240Y-130754999D01*
X178721632Y-130638474D01*
X178928475Y-130431631D01*
X179090990Y-130188410D01*
X179202932Y-129918157D01*
X179260000Y-129631259D01*
X179260000Y-129338739D01*
X179202932Y-129051841D01*
X179090990Y-128781588D01*
X178928475Y-128538367D01*
X178721632Y-128331524D01*
X178547240Y-128214999D01*
X178721632Y-128098474D01*
X178928475Y-127891631D01*
X179090990Y-127648410D01*
X179202932Y-127378157D01*
X179260000Y-127091259D01*
X179260000Y-126798739D01*
X179202932Y-126511841D01*
X179090990Y-126241588D01*
X178928475Y-125998367D01*
X178721632Y-125791524D01*
X178547240Y-125674999D01*
X178721632Y-125558474D01*
X178928475Y-125351631D01*
X179090990Y-125108410D01*
X179202932Y-124838157D01*
X179260000Y-124551259D01*
X179260000Y-124258739D01*
X179202932Y-123971841D01*
X179090990Y-123701588D01*
X178928475Y-123458367D01*
X178721632Y-123251524D01*
X178547240Y-123134999D01*
X178721632Y-123018474D01*
X178928475Y-122811631D01*
X179090990Y-122568410D01*
X179202932Y-122298157D01*
X179260000Y-122011259D01*
X179260000Y-121718739D01*
X179202932Y-121431841D01*
X179090990Y-121161588D01*
X178928475Y-120918367D01*
X178796620Y-120786512D01*
X178869180Y-120764501D01*
X178979494Y-120705536D01*
X179076185Y-120626184D01*
X179155537Y-120529493D01*
X179214502Y-120419179D01*
X179250812Y-120299481D01*
X179263072Y-120174999D01*
X179263072Y-118474999D01*
X179250812Y-118350517D01*
X179214502Y-118230819D01*
X179155537Y-118120505D01*
X179076185Y-118023814D01*
X178979494Y-117944462D01*
X178869180Y-117885497D01*
X178749482Y-117849187D01*
X178625000Y-117836927D01*
X176925000Y-117836927D01*
X176800518Y-117849187D01*
X176680820Y-117885497D01*
X176570506Y-117944462D01*
X176473815Y-118023814D01*
X176394463Y-118120505D01*
X176335498Y-118230819D01*
X176313487Y-118303379D01*
X176181632Y-118171524D01*
X175938411Y-118009009D01*
X175668158Y-117897067D01*
X175381260Y-117839999D01*
X175088740Y-117839999D01*
X174801842Y-117897067D01*
X174531589Y-118009009D01*
X174288368Y-118171524D01*
X174081525Y-118378367D01*
X173919010Y-118621588D01*
X173807068Y-118891841D01*
X173750000Y-119178739D01*
X173750000Y-119471259D01*
X173807068Y-119758157D01*
X173919010Y-120028410D01*
X174081525Y-120271631D01*
X174288368Y-120478474D01*
X174462760Y-120594999D01*
X174288368Y-120711524D01*
X174081525Y-120918367D01*
X174040344Y-120979999D01*
X172675978Y-120979999D01*
X169591800Y-117895822D01*
X169591800Y-115867465D01*
X169596081Y-115823999D01*
X169591800Y-115780533D01*
X169591800Y-115780523D01*
X169578995Y-115650510D01*
X169528389Y-115483687D01*
X169446211Y-115329941D01*
X169335617Y-115195183D01*
X169301849Y-115167470D01*
X167026534Y-112892156D01*
X166998817Y-112858383D01*
X166864059Y-112747789D01*
X166710313Y-112665611D01*
X166543490Y-112615005D01*
X166413477Y-112602200D01*
X166413469Y-112602200D01*
X166370000Y-112597919D01*
X166326531Y-112602200D01*
X155339065Y-112602200D01*
X155295599Y-112597919D01*
X155252133Y-112602200D01*
X155252123Y-112602200D01*
X155122110Y-112615005D01*
X154955287Y-112665611D01*
X154801541Y-112747789D01*
X154801539Y-112747790D01*
X154801540Y-112747790D01*
X154700553Y-112830668D01*
X154700551Y-112830670D01*
X154666783Y-112858383D01*
X154639070Y-112892151D01*
X151432800Y-116098422D01*
X151432800Y-115580001D01*
X153481202Y-113531600D01*
X153543339Y-113531600D01*
X153743298Y-113491826D01*
X153931656Y-113413805D01*
X154101174Y-113300537D01*
X154245337Y-113156374D01*
X154358605Y-112986856D01*
X154436626Y-112798498D01*
X154476400Y-112598539D01*
X154476400Y-112536401D01*
X154848402Y-112164400D01*
X164046678Y-112164400D01*
X164084000Y-112168076D01*
X164121322Y-112164400D01*
X164121333Y-112164400D01*
X164232986Y-112153403D01*
X164376247Y-112109946D01*
X164508276Y-112039374D01*
X164624001Y-111944401D01*
X164647804Y-111915397D01*
X172773803Y-103789399D01*
X172802801Y-103765601D01*
X172829132Y-103733517D01*
X172897774Y-103649877D01*
X172968346Y-103517847D01*
X172971390Y-103507811D01*
X173011803Y-103374586D01*
X173022800Y-103262933D01*
X173022800Y-103262923D01*
X173026476Y-103225600D01*
X173022800Y-103188277D01*
X173022800Y-96072801D01*
X173612013Y-95483589D01*
X173641000Y-95459800D01*
X173664789Y-95430813D01*
X173664799Y-95430803D01*
X173664803Y-95430798D01*
X174000002Y-95095600D01*
X174399506Y-95095600D01*
X174372068Y-95161842D01*
G04 #@! TA.AperFunction,NonConductor*
D24*
G36*
X174372068Y-95161842D02*
G01*
X174315000Y-95448740D01*
X174315000Y-95741260D01*
X174372068Y-96028158D01*
X174484010Y-96298411D01*
X174646525Y-96541632D01*
X174853368Y-96748475D01*
X175027760Y-96865000D01*
X174853368Y-96981525D01*
X174646525Y-97188368D01*
X174484010Y-97431589D01*
X174372068Y-97701842D01*
X174315000Y-97988740D01*
X174315000Y-98281260D01*
X174372068Y-98568158D01*
X174484010Y-98838411D01*
X174646525Y-99081632D01*
X174853368Y-99288475D01*
X175040001Y-99413179D01*
X175040000Y-111195878D01*
X175036324Y-111233200D01*
X175040000Y-111270522D01*
X175040000Y-111270532D01*
X175050997Y-111382185D01*
X175075087Y-111461600D01*
X175094454Y-111525446D01*
X175165026Y-111657476D01*
X175197173Y-111696647D01*
X175259999Y-111773201D01*
X175289003Y-111797004D01*
X179681601Y-116189603D01*
X179681600Y-130782599D01*
X179106110Y-131358090D01*
X179090990Y-131321588D01*
X178928475Y-131078367D01*
X178721632Y-130871524D01*
X178547240Y-130754999D01*
X178721632Y-130638474D01*
X178928475Y-130431631D01*
X179090990Y-130188410D01*
X179202932Y-129918157D01*
X179260000Y-129631259D01*
X179260000Y-129338739D01*
X179202932Y-129051841D01*
X179090990Y-128781588D01*
X178928475Y-128538367D01*
X178721632Y-128331524D01*
X178547240Y-128214999D01*
X178721632Y-128098474D01*
X178928475Y-127891631D01*
X179090990Y-127648410D01*
X179202932Y-127378157D01*
X179260000Y-127091259D01*
X179260000Y-126798739D01*
X179202932Y-126511841D01*
X179090990Y-126241588D01*
X178928475Y-125998367D01*
X178721632Y-125791524D01*
X178547240Y-125674999D01*
X178721632Y-125558474D01*
X178928475Y-125351631D01*
X179090990Y-125108410D01*
X179202932Y-124838157D01*
X179260000Y-124551259D01*
X179260000Y-124258739D01*
X179202932Y-123971841D01*
X179090990Y-123701588D01*
X178928475Y-123458367D01*
X178721632Y-123251524D01*
X178547240Y-123134999D01*
X178721632Y-123018474D01*
X178928475Y-122811631D01*
X179090990Y-122568410D01*
X179202932Y-122298157D01*
X179260000Y-122011259D01*
X179260000Y-121718739D01*
X179202932Y-121431841D01*
X179090990Y-121161588D01*
X178928475Y-120918367D01*
X178796620Y-120786512D01*
X178869180Y-120764501D01*
X178979494Y-120705536D01*
X179076185Y-120626184D01*
X179155537Y-120529493D01*
X179214502Y-120419179D01*
X179250812Y-120299481D01*
X179263072Y-120174999D01*
X179263072Y-118474999D01*
X179250812Y-118350517D01*
X179214502Y-118230819D01*
X179155537Y-118120505D01*
X179076185Y-118023814D01*
X178979494Y-117944462D01*
X178869180Y-117885497D01*
X178749482Y-117849187D01*
X178625000Y-117836927D01*
X176925000Y-117836927D01*
X176800518Y-117849187D01*
X176680820Y-117885497D01*
X176570506Y-117944462D01*
X176473815Y-118023814D01*
X176394463Y-118120505D01*
X176335498Y-118230819D01*
X176313487Y-118303379D01*
X176181632Y-118171524D01*
X175938411Y-118009009D01*
X175668158Y-117897067D01*
X175381260Y-117839999D01*
X175088740Y-117839999D01*
X174801842Y-117897067D01*
X174531589Y-118009009D01*
X174288368Y-118171524D01*
X174081525Y-118378367D01*
X173919010Y-118621588D01*
X173807068Y-118891841D01*
X173750000Y-119178739D01*
X173750000Y-119471259D01*
X173807068Y-119758157D01*
X173919010Y-120028410D01*
X174081525Y-120271631D01*
X174288368Y-120478474D01*
X174462760Y-120594999D01*
X174288368Y-120711524D01*
X174081525Y-120918367D01*
X174040344Y-120979999D01*
X172675978Y-120979999D01*
X169591800Y-117895822D01*
X169591800Y-115867465D01*
X169596081Y-115823999D01*
X169591800Y-115780533D01*
X169591800Y-115780523D01*
X169578995Y-115650510D01*
X169528389Y-115483687D01*
X169446211Y-115329941D01*
X169335617Y-115195183D01*
X169301849Y-115167470D01*
X167026534Y-112892156D01*
X166998817Y-112858383D01*
X166864059Y-112747789D01*
X166710313Y-112665611D01*
X166543490Y-112615005D01*
X166413477Y-112602200D01*
X166413469Y-112602200D01*
X166370000Y-112597919D01*
X166326531Y-112602200D01*
X155339065Y-112602200D01*
X155295599Y-112597919D01*
X155252133Y-112602200D01*
X155252123Y-112602200D01*
X155122110Y-112615005D01*
X154955287Y-112665611D01*
X154801541Y-112747789D01*
X154801539Y-112747790D01*
X154801540Y-112747790D01*
X154700553Y-112830668D01*
X154700551Y-112830670D01*
X154666783Y-112858383D01*
X154639070Y-112892151D01*
X151432800Y-116098422D01*
X151432800Y-115580001D01*
X153481202Y-113531600D01*
X153543339Y-113531600D01*
X153743298Y-113491826D01*
X153931656Y-113413805D01*
X154101174Y-113300537D01*
X154245337Y-113156374D01*
X154358605Y-112986856D01*
X154436626Y-112798498D01*
X154476400Y-112598539D01*
X154476400Y-112536401D01*
X154848402Y-112164400D01*
X164046678Y-112164400D01*
X164084000Y-112168076D01*
X164121322Y-112164400D01*
X164121333Y-112164400D01*
X164232986Y-112153403D01*
X164376247Y-112109946D01*
X164508276Y-112039374D01*
X164624001Y-111944401D01*
X164647804Y-111915397D01*
X172773803Y-103789399D01*
X172802801Y-103765601D01*
X172829132Y-103733517D01*
X172897774Y-103649877D01*
X172968346Y-103517847D01*
X172971390Y-103507811D01*
X173011803Y-103374586D01*
X173022800Y-103262933D01*
X173022800Y-103262923D01*
X173026476Y-103225600D01*
X173022800Y-103188277D01*
X173022800Y-96072801D01*
X173612013Y-95483589D01*
X173641000Y-95459800D01*
X173664789Y-95430813D01*
X173664799Y-95430803D01*
X173664803Y-95430798D01*
X174000002Y-95095600D01*
X174399506Y-95095600D01*
X174372068Y-95161842D01*
G37*
G04 #@! TD.AperFunction*
D23*
X158771525Y-130431631D02*
X158978368Y-130638474D01*
X159152760Y-130754999D01*
X158978368Y-130871524D01*
X158771525Y-131078367D01*
X158655000Y-131252759D01*
X158538475Y-131078367D01*
X158331632Y-130871524D01*
X158157240Y-130754999D01*
X158331632Y-130638474D01*
X158538475Y-130431631D01*
X158655000Y-130257239D01*
X158771525Y-130431631D01*
G04 #@! TA.AperFunction,NonConductor*
D24*
G36*
X158771525Y-130431631D02*
G01*
X158978368Y-130638474D01*
X159152760Y-130754999D01*
X158978368Y-130871524D01*
X158771525Y-131078367D01*
X158655000Y-131252759D01*
X158538475Y-131078367D01*
X158331632Y-130871524D01*
X158157240Y-130754999D01*
X158331632Y-130638474D01*
X158538475Y-130431631D01*
X158655000Y-130257239D01*
X158771525Y-130431631D01*
G37*
G04 #@! TD.AperFunction*
D23*
X166629528Y-130439851D02*
X166711595Y-130593387D01*
X166822038Y-130727962D01*
X166909816Y-130800000D01*
X166822038Y-130872038D01*
X166711595Y-131006613D01*
X166640298Y-131139999D01*
X161119656Y-131139999D01*
X161078475Y-131078367D01*
X160871632Y-130871524D01*
X160697240Y-130754999D01*
X160871632Y-130638474D01*
X161078475Y-130431631D01*
X161119656Y-130369999D01*
X166608339Y-130369999D01*
X166629528Y-130439851D01*
G04 #@! TA.AperFunction,NonConductor*
D24*
G36*
X166629528Y-130439851D02*
G01*
X166711595Y-130593387D01*
X166822038Y-130727962D01*
X166909816Y-130800000D01*
X166822038Y-130872038D01*
X166711595Y-131006613D01*
X166640298Y-131139999D01*
X161119656Y-131139999D01*
X161078475Y-131078367D01*
X160871632Y-130871524D01*
X160697240Y-130754999D01*
X160871632Y-130638474D01*
X161078475Y-130431631D01*
X161119656Y-130369999D01*
X166608339Y-130369999D01*
X166629528Y-130439851D01*
G37*
G04 #@! TD.AperFunction*
D23*
X173793791Y-129118591D02*
X173750000Y-129338739D01*
X173750000Y-129631259D01*
X173807068Y-129918157D01*
X173878247Y-130089998D01*
X173072538Y-130089998D01*
X173035215Y-130086322D01*
X172997892Y-130089998D01*
X172997883Y-130089998D01*
X172886230Y-130100995D01*
X172742969Y-130144452D01*
X172610939Y-130215024D01*
X172587816Y-130234001D01*
X172495215Y-130309997D01*
X172471417Y-130338995D01*
X171745413Y-131065000D01*
X169119614Y-131065000D01*
X169088405Y-131006613D01*
X168977962Y-130872038D01*
X168890184Y-130800000D01*
X168977962Y-130727962D01*
X169088405Y-130593387D01*
X169170472Y-130439851D01*
X169221008Y-130273255D01*
X169238072Y-130100001D01*
X169238072Y-129449999D01*
X169221008Y-129276745D01*
X169170472Y-129110149D01*
X169100478Y-128979200D01*
X173654400Y-128979200D01*
X173793791Y-129118591D01*
G04 #@! TA.AperFunction,NonConductor*
D24*
G36*
X173793791Y-129118591D02*
G01*
X173750000Y-129338739D01*
X173750000Y-129631259D01*
X173807068Y-129918157D01*
X173878247Y-130089998D01*
X173072538Y-130089998D01*
X173035215Y-130086322D01*
X172997892Y-130089998D01*
X172997883Y-130089998D01*
X172886230Y-130100995D01*
X172742969Y-130144452D01*
X172610939Y-130215024D01*
X172587816Y-130234001D01*
X172495215Y-130309997D01*
X172471417Y-130338995D01*
X171745413Y-131065000D01*
X169119614Y-131065000D01*
X169088405Y-131006613D01*
X168977962Y-130872038D01*
X168890184Y-130800000D01*
X168977962Y-130727962D01*
X169088405Y-130593387D01*
X169170472Y-130439851D01*
X169221008Y-130273255D01*
X169238072Y-130100001D01*
X169238072Y-129449999D01*
X169221008Y-129276745D01*
X169170472Y-129110149D01*
X169100478Y-128979200D01*
X173654400Y-128979200D01*
X173793791Y-129118591D01*
G37*
G04 #@! TD.AperFunction*
D23*
X176621525Y-127891631D02*
X176828368Y-128098474D01*
X177002760Y-128214999D01*
X176828368Y-128331524D01*
X176621525Y-128538367D01*
X176505000Y-128712759D01*
X176388475Y-128538367D01*
X176181632Y-128331524D01*
X176007240Y-128214999D01*
X176181632Y-128098474D01*
X176388475Y-127891631D01*
X176505000Y-127717239D01*
X176621525Y-127891631D01*
G04 #@! TA.AperFunction,NonConductor*
D24*
G36*
X176621525Y-127891631D02*
G01*
X176828368Y-128098474D01*
X177002760Y-128214999D01*
X176828368Y-128331524D01*
X176621525Y-128538367D01*
X176505000Y-128712759D01*
X176388475Y-128538367D01*
X176181632Y-128331524D01*
X176007240Y-128214999D01*
X176181632Y-128098474D01*
X176388475Y-127891631D01*
X176505000Y-127717239D01*
X176621525Y-127891631D01*
G37*
G04 #@! TD.AperFunction*
D23*
X161496614Y-127241003D02*
X161608267Y-127252000D01*
X161608275Y-127252000D01*
X161645600Y-127255676D01*
X161682925Y-127252000D01*
X173781974Y-127252000D01*
X173807068Y-127378157D01*
X173840637Y-127459200D01*
X161319363Y-127459200D01*
X161352932Y-127378157D01*
X161386838Y-127207703D01*
X161496614Y-127241003D01*
G04 #@! TA.AperFunction,NonConductor*
D24*
G36*
X161496614Y-127241003D02*
G01*
X161608267Y-127252000D01*
X161608275Y-127252000D01*
X161645600Y-127255676D01*
X161682925Y-127252000D01*
X173781974Y-127252000D01*
X173807068Y-127378157D01*
X173840637Y-127459200D01*
X161319363Y-127459200D01*
X161352932Y-127378157D01*
X161386838Y-127207703D01*
X161496614Y-127241003D01*
G37*
G04 #@! TD.AperFunction*
D23*
X176621525Y-125351631D02*
X176828368Y-125558474D01*
X177002760Y-125674999D01*
X176828368Y-125791524D01*
X176621525Y-125998367D01*
X176505000Y-126172759D01*
X176388475Y-125998367D01*
X176181632Y-125791524D01*
X176007240Y-125674999D01*
X176181632Y-125558474D01*
X176388475Y-125351631D01*
X176505000Y-125177239D01*
X176621525Y-125351631D01*
G04 #@! TA.AperFunction,NonConductor*
D24*
G36*
X176621525Y-125351631D02*
G01*
X176828368Y-125558474D01*
X177002760Y-125674999D01*
X176828368Y-125791524D01*
X176621525Y-125998367D01*
X176505000Y-126172759D01*
X176388475Y-125998367D01*
X176181632Y-125791524D01*
X176007240Y-125674999D01*
X176181632Y-125558474D01*
X176388475Y-125351631D01*
X176505000Y-125177239D01*
X176621525Y-125351631D01*
G37*
G04 #@! TD.AperFunction*
D23*
X170678800Y-124916002D02*
X170702598Y-124945000D01*
X170731596Y-124968798D01*
X170818322Y-125039973D01*
X170946358Y-125108410D01*
X170950352Y-125110545D01*
X171093613Y-125154002D01*
X171205266Y-125164999D01*
X171205275Y-125164999D01*
X171242598Y-125168675D01*
X171279921Y-125164999D01*
X173956822Y-125164999D01*
X174081525Y-125351631D01*
X174288368Y-125558474D01*
X174462760Y-125674999D01*
X174377452Y-125732000D01*
X161960402Y-125732000D01*
X161396603Y-125168202D01*
X161372801Y-125139199D01*
X161264912Y-125050657D01*
X161352932Y-124838157D01*
X161410000Y-124551259D01*
X161410000Y-124258739D01*
X161352932Y-123971841D01*
X161322843Y-123899200D01*
X169661999Y-123899200D01*
X170678800Y-124916002D01*
G04 #@! TA.AperFunction,NonConductor*
D24*
G36*
X170678800Y-124916002D02*
G01*
X170702598Y-124945000D01*
X170731596Y-124968798D01*
X170818322Y-125039973D01*
X170946358Y-125108410D01*
X170950352Y-125110545D01*
X171093613Y-125154002D01*
X171205266Y-125164999D01*
X171205275Y-125164999D01*
X171242598Y-125168675D01*
X171279921Y-125164999D01*
X173956822Y-125164999D01*
X174081525Y-125351631D01*
X174288368Y-125558474D01*
X174462760Y-125674999D01*
X174377452Y-125732000D01*
X161960402Y-125732000D01*
X161396603Y-125168202D01*
X161372801Y-125139199D01*
X161264912Y-125050657D01*
X161352932Y-124838157D01*
X161410000Y-124551259D01*
X161410000Y-124258739D01*
X161352932Y-123971841D01*
X161322843Y-123899200D01*
X169661999Y-123899200D01*
X170678800Y-124916002D01*
G37*
G04 #@! TD.AperFunction*
D23*
X167821801Y-116190580D02*
X167821800Y-118218931D01*
X167817519Y-118262400D01*
X167821800Y-118305869D01*
X167821800Y-118305876D01*
X167834605Y-118435889D01*
X167885211Y-118602712D01*
X167967389Y-118756458D01*
X168077983Y-118891217D01*
X168111756Y-118918934D01*
X171652869Y-122460048D01*
X171680582Y-122493816D01*
X171714350Y-122521529D01*
X171714352Y-122521531D01*
X171771474Y-122568410D01*
X171815340Y-122604410D01*
X171969086Y-122686588D01*
X172135909Y-122737194D01*
X172265922Y-122749999D01*
X172265932Y-122749999D01*
X172309398Y-122754280D01*
X172352864Y-122749999D01*
X174040344Y-122749999D01*
X174081525Y-122811631D01*
X174288368Y-123018474D01*
X174462760Y-123134999D01*
X174288368Y-123251524D01*
X174081525Y-123458367D01*
X173956822Y-123644999D01*
X171557401Y-123644999D01*
X170540604Y-122628203D01*
X170516801Y-122599199D01*
X170401076Y-122504226D01*
X170269047Y-122433654D01*
X170125786Y-122390197D01*
X170014133Y-122379200D01*
X170014122Y-122379200D01*
X169976800Y-122375524D01*
X169939478Y-122379200D01*
X161319363Y-122379200D01*
X161352932Y-122298157D01*
X161410000Y-122011259D01*
X161410000Y-121718739D01*
X161352932Y-121431841D01*
X161240990Y-121161588D01*
X161078475Y-120918367D01*
X160946620Y-120786512D01*
X161019180Y-120764501D01*
X161129494Y-120705536D01*
X161226185Y-120626184D01*
X161305537Y-120529493D01*
X161364502Y-120419179D01*
X161400812Y-120299481D01*
X161413072Y-120174999D01*
X161413072Y-118474999D01*
X161400812Y-118350517D01*
X161364502Y-118230819D01*
X161305537Y-118120505D01*
X161226185Y-118023814D01*
X161129494Y-117944462D01*
X161019180Y-117885497D01*
X160899482Y-117849187D01*
X160775000Y-117836927D01*
X159075000Y-117836927D01*
X158950518Y-117849187D01*
X158830820Y-117885497D01*
X158720506Y-117944462D01*
X158623815Y-118023814D01*
X158544463Y-118120505D01*
X158485498Y-118230819D01*
X158463487Y-118303379D01*
X158331632Y-118171524D01*
X158088411Y-118009009D01*
X157818158Y-117897067D01*
X157531260Y-117839999D01*
X157238740Y-117839999D01*
X156951842Y-117897067D01*
X156681589Y-118009009D01*
X156438368Y-118171524D01*
X156231525Y-118378367D01*
X156069010Y-118621588D01*
X155957068Y-118891841D01*
X155900000Y-119178739D01*
X155900000Y-119471259D01*
X155957068Y-119758157D01*
X156069010Y-120028410D01*
X156231525Y-120271631D01*
X156438368Y-120478474D01*
X156612760Y-120594999D01*
X156438368Y-120711524D01*
X156231525Y-120918367D01*
X156190344Y-120979999D01*
X153879978Y-120979999D01*
X152878600Y-119978622D01*
X152878600Y-117155778D01*
X155662179Y-114372200D01*
X166003422Y-114372200D01*
X167821801Y-116190580D01*
G04 #@! TA.AperFunction,NonConductor*
D24*
G36*
X167821801Y-116190580D02*
G01*
X167821800Y-118218931D01*
X167817519Y-118262400D01*
X167821800Y-118305869D01*
X167821800Y-118305876D01*
X167834605Y-118435889D01*
X167885211Y-118602712D01*
X167967389Y-118756458D01*
X168077983Y-118891217D01*
X168111756Y-118918934D01*
X171652869Y-122460048D01*
X171680582Y-122493816D01*
X171714350Y-122521529D01*
X171714352Y-122521531D01*
X171771474Y-122568410D01*
X171815340Y-122604410D01*
X171969086Y-122686588D01*
X172135909Y-122737194D01*
X172265922Y-122749999D01*
X172265932Y-122749999D01*
X172309398Y-122754280D01*
X172352864Y-122749999D01*
X174040344Y-122749999D01*
X174081525Y-122811631D01*
X174288368Y-123018474D01*
X174462760Y-123134999D01*
X174288368Y-123251524D01*
X174081525Y-123458367D01*
X173956822Y-123644999D01*
X171557401Y-123644999D01*
X170540604Y-122628203D01*
X170516801Y-122599199D01*
X170401076Y-122504226D01*
X170269047Y-122433654D01*
X170125786Y-122390197D01*
X170014133Y-122379200D01*
X170014122Y-122379200D01*
X169976800Y-122375524D01*
X169939478Y-122379200D01*
X161319363Y-122379200D01*
X161352932Y-122298157D01*
X161410000Y-122011259D01*
X161410000Y-121718739D01*
X161352932Y-121431841D01*
X161240990Y-121161588D01*
X161078475Y-120918367D01*
X160946620Y-120786512D01*
X161019180Y-120764501D01*
X161129494Y-120705536D01*
X161226185Y-120626184D01*
X161305537Y-120529493D01*
X161364502Y-120419179D01*
X161400812Y-120299481D01*
X161413072Y-120174999D01*
X161413072Y-118474999D01*
X161400812Y-118350517D01*
X161364502Y-118230819D01*
X161305537Y-118120505D01*
X161226185Y-118023814D01*
X161129494Y-117944462D01*
X161019180Y-117885497D01*
X160899482Y-117849187D01*
X160775000Y-117836927D01*
X159075000Y-117836927D01*
X158950518Y-117849187D01*
X158830820Y-117885497D01*
X158720506Y-117944462D01*
X158623815Y-118023814D01*
X158544463Y-118120505D01*
X158485498Y-118230819D01*
X158463487Y-118303379D01*
X158331632Y-118171524D01*
X158088411Y-118009009D01*
X157818158Y-117897067D01*
X157531260Y-117839999D01*
X157238740Y-117839999D01*
X156951842Y-117897067D01*
X156681589Y-118009009D01*
X156438368Y-118171524D01*
X156231525Y-118378367D01*
X156069010Y-118621588D01*
X155957068Y-118891841D01*
X155900000Y-119178739D01*
X155900000Y-119471259D01*
X155957068Y-119758157D01*
X156069010Y-120028410D01*
X156231525Y-120271631D01*
X156438368Y-120478474D01*
X156612760Y-120594999D01*
X156438368Y-120711524D01*
X156231525Y-120918367D01*
X156190344Y-120979999D01*
X153879978Y-120979999D01*
X152878600Y-119978622D01*
X152878600Y-117155778D01*
X155662179Y-114372200D01*
X166003422Y-114372200D01*
X167821801Y-116190580D01*
G37*
G04 #@! TD.AperFunction*
D23*
X176621525Y-122811631D02*
X176828368Y-123018474D01*
X177002760Y-123134999D01*
X176828368Y-123251524D01*
X176621525Y-123458367D01*
X176505000Y-123632759D01*
X176388475Y-123458367D01*
X176181632Y-123251524D01*
X176007240Y-123134999D01*
X176181632Y-123018474D01*
X176388475Y-122811631D01*
X176505000Y-122637239D01*
X176621525Y-122811631D01*
G04 #@! TA.AperFunction,NonConductor*
D24*
G36*
X176621525Y-122811631D02*
G01*
X176828368Y-123018474D01*
X177002760Y-123134999D01*
X176828368Y-123251524D01*
X176621525Y-123458367D01*
X176505000Y-123632759D01*
X176388475Y-123458367D01*
X176181632Y-123251524D01*
X176007240Y-123134999D01*
X176181632Y-123018474D01*
X176388475Y-122811631D01*
X176505000Y-122637239D01*
X176621525Y-122811631D01*
G37*
G04 #@! TD.AperFunction*
D23*
X176335498Y-120419179D02*
X176394463Y-120529493D01*
X176473815Y-120626184D01*
X176570506Y-120705536D01*
X176680820Y-120764501D01*
X176753380Y-120786512D01*
X176621525Y-120918367D01*
X176505000Y-121092759D01*
X176388475Y-120918367D01*
X176181632Y-120711524D01*
X176007240Y-120594999D01*
X176181632Y-120478474D01*
X176313487Y-120346619D01*
X176335498Y-120419179D01*
G04 #@! TA.AperFunction,NonConductor*
D24*
G36*
X176335498Y-120419179D02*
G01*
X176394463Y-120529493D01*
X176473815Y-120626184D01*
X176570506Y-120705536D01*
X176680820Y-120764501D01*
X176753380Y-120786512D01*
X176621525Y-120918367D01*
X176505000Y-121092759D01*
X176388475Y-120918367D01*
X176181632Y-120711524D01*
X176007240Y-120594999D01*
X176181632Y-120478474D01*
X176313487Y-120346619D01*
X176335498Y-120419179D01*
G37*
G04 #@! TD.AperFunction*
D23*
X158485498Y-120419179D02*
X158544463Y-120529493D01*
X158623815Y-120626184D01*
X158720506Y-120705536D01*
X158830820Y-120764501D01*
X158903380Y-120786512D01*
X158771525Y-120918367D01*
X158655000Y-121092759D01*
X158538475Y-120918367D01*
X158331632Y-120711524D01*
X158157240Y-120594999D01*
X158331632Y-120478474D01*
X158463487Y-120346619D01*
X158485498Y-120419179D01*
G04 #@! TA.AperFunction,NonConductor*
D24*
G36*
X158485498Y-120419179D02*
G01*
X158544463Y-120529493D01*
X158623815Y-120626184D01*
X158720506Y-120705536D01*
X158830820Y-120764501D01*
X158903380Y-120786512D01*
X158771525Y-120918367D01*
X158655000Y-121092759D01*
X158538475Y-120918367D01*
X158331632Y-120711524D01*
X158157240Y-120594999D01*
X158331632Y-120478474D01*
X158463487Y-120346619D01*
X158485498Y-120419179D01*
G37*
G04 #@! TD.AperFunction*
D23*
X163954025Y-96541632D02*
X164160868Y-96748475D01*
X164335260Y-96865000D01*
X164160868Y-96981525D01*
X163954025Y-97188368D01*
X163837500Y-97362760D01*
X163720975Y-97188368D01*
X163514132Y-96981525D01*
X163339740Y-96865000D01*
X163514132Y-96748475D01*
X163720975Y-96541632D01*
X163837500Y-96367240D01*
X163954025Y-96541632D01*
G04 #@! TA.AperFunction,NonConductor*
D24*
G36*
X163954025Y-96541632D02*
G01*
X164160868Y-96748475D01*
X164335260Y-96865000D01*
X164160868Y-96981525D01*
X163954025Y-97188368D01*
X163837500Y-97362760D01*
X163720975Y-97188368D01*
X163514132Y-96981525D01*
X163339740Y-96865000D01*
X163514132Y-96748475D01*
X163720975Y-96541632D01*
X163837500Y-96367240D01*
X163954025Y-96541632D01*
G37*
G04 #@! TD.AperFunction*
D23*
X177186525Y-96541632D02*
X177393368Y-96748475D01*
X177567760Y-96865000D01*
X177393368Y-96981525D01*
X177186525Y-97188368D01*
X177070000Y-97362760D01*
X176953475Y-97188368D01*
X176746632Y-96981525D01*
X176572240Y-96865000D01*
X176746632Y-96748475D01*
X176953475Y-96541632D01*
X177070000Y-96367240D01*
X177186525Y-96541632D01*
G04 #@! TA.AperFunction,NonConductor*
D24*
G36*
X177186525Y-96541632D02*
G01*
X177393368Y-96748475D01*
X177567760Y-96865000D01*
X177393368Y-96981525D01*
X177186525Y-97188368D01*
X177070000Y-97362760D01*
X176953475Y-97188368D01*
X176746632Y-96981525D01*
X176572240Y-96865000D01*
X176746632Y-96748475D01*
X176953475Y-96541632D01*
X177070000Y-96367240D01*
X177186525Y-96541632D01*
G37*
G04 #@! TD.AperFunction*
D23*
X163954025Y-94001632D02*
X164160868Y-94208475D01*
X164335260Y-94325000D01*
X164160868Y-94441525D01*
X163954025Y-94648368D01*
X163837500Y-94822760D01*
X163720975Y-94648368D01*
X163514132Y-94441525D01*
X163339740Y-94325000D01*
X163514132Y-94208475D01*
X163720975Y-94001632D01*
X163837500Y-93827240D01*
X163954025Y-94001632D01*
G04 #@! TA.AperFunction,NonConductor*
D24*
G36*
X163954025Y-94001632D02*
G01*
X164160868Y-94208475D01*
X164335260Y-94325000D01*
X164160868Y-94441525D01*
X163954025Y-94648368D01*
X163837500Y-94822760D01*
X163720975Y-94648368D01*
X163514132Y-94441525D01*
X163339740Y-94325000D01*
X163514132Y-94208475D01*
X163720975Y-94001632D01*
X163837500Y-93827240D01*
X163954025Y-94001632D01*
G37*
G04 #@! TD.AperFunction*
D23*
X163954025Y-91461632D02*
X164160868Y-91668475D01*
X164335260Y-91785000D01*
X164160868Y-91901525D01*
X163954025Y-92108368D01*
X163837500Y-92282760D01*
X163720975Y-92108368D01*
X163514132Y-91901525D01*
X163339740Y-91785000D01*
X163514132Y-91668475D01*
X163720975Y-91461632D01*
X163837500Y-91287240D01*
X163954025Y-91461632D01*
G04 #@! TA.AperFunction,NonConductor*
D24*
G36*
X163954025Y-91461632D02*
G01*
X164160868Y-91668475D01*
X164335260Y-91785000D01*
X164160868Y-91901525D01*
X163954025Y-92108368D01*
X163837500Y-92282760D01*
X163720975Y-92108368D01*
X163514132Y-91901525D01*
X163339740Y-91785000D01*
X163514132Y-91668475D01*
X163720975Y-91461632D01*
X163837500Y-91287240D01*
X163954025Y-91461632D01*
G37*
G04 #@! TD.AperFunction*
D23*
X177186525Y-91461632D02*
X177393368Y-91668475D01*
X177567760Y-91785000D01*
X177393368Y-91901525D01*
X177186525Y-92108368D01*
X177070000Y-92282760D01*
X176953475Y-92108368D01*
X176746632Y-91901525D01*
X176572240Y-91785000D01*
X176746632Y-91668475D01*
X176953475Y-91461632D01*
X177070000Y-91287240D01*
X177186525Y-91461632D01*
G04 #@! TA.AperFunction,NonConductor*
D24*
G36*
X177186525Y-91461632D02*
G01*
X177393368Y-91668475D01*
X177567760Y-91785000D01*
X177393368Y-91901525D01*
X177186525Y-92108368D01*
X177070000Y-92282760D01*
X176953475Y-92108368D01*
X176746632Y-91901525D01*
X176572240Y-91785000D01*
X176746632Y-91668475D01*
X176953475Y-91461632D01*
X177070000Y-91287240D01*
X177186525Y-91461632D01*
G37*
G04 #@! TD.AperFunction*
D23*
X164160868Y-89128475D02*
X164335260Y-89245000D01*
X164160868Y-89361525D01*
X163954025Y-89568368D01*
X163837500Y-89742760D01*
X163720975Y-89568368D01*
X163589120Y-89436513D01*
X163661680Y-89414502D01*
X163771994Y-89355537D01*
X163868685Y-89276185D01*
X163948037Y-89179494D01*
X164007002Y-89069180D01*
X164029013Y-88996620D01*
X164160868Y-89128475D01*
G04 #@! TA.AperFunction,NonConductor*
D24*
G36*
X164160868Y-89128475D02*
G01*
X164335260Y-89245000D01*
X164160868Y-89361525D01*
X163954025Y-89568368D01*
X163837500Y-89742760D01*
X163720975Y-89568368D01*
X163589120Y-89436513D01*
X163661680Y-89414502D01*
X163771994Y-89355537D01*
X163868685Y-89276185D01*
X163948037Y-89179494D01*
X164007002Y-89069180D01*
X164029013Y-88996620D01*
X164160868Y-89128475D01*
G37*
G04 #@! TD.AperFunction*
D23*
X177393368Y-89128475D02*
X177567760Y-89245000D01*
X177393368Y-89361525D01*
X177186525Y-89568368D01*
X177070000Y-89742760D01*
X176953475Y-89568368D01*
X176821620Y-89436513D01*
X176894180Y-89414502D01*
X177004494Y-89355537D01*
X177101185Y-89276185D01*
X177180537Y-89179494D01*
X177239502Y-89069180D01*
X177261513Y-88996620D01*
X177393368Y-89128475D01*
G04 #@! TA.AperFunction,NonConductor*
D24*
G36*
X177393368Y-89128475D02*
G01*
X177567760Y-89245000D01*
X177393368Y-89361525D01*
X177186525Y-89568368D01*
X177070000Y-89742760D01*
X176953475Y-89568368D01*
X176821620Y-89436513D01*
X176894180Y-89414502D01*
X177004494Y-89355537D01*
X177101185Y-89276185D01*
X177180537Y-89179494D01*
X177239502Y-89069180D01*
X177261513Y-88996620D01*
X177393368Y-89128475D01*
G37*
G04 #@! TD.AperFunction*
D23*
X150771525Y-96566632D02*
X150978368Y-96773475D01*
X151152760Y-96890000D01*
X150978368Y-97006525D01*
X150771525Y-97213368D01*
X150655000Y-97387760D01*
X150538475Y-97213368D01*
X150331632Y-97006525D01*
X150157240Y-96890000D01*
X150331632Y-96773475D01*
X150538475Y-96566632D01*
X150655000Y-96392240D01*
X150771525Y-96566632D01*
G04 #@! TA.AperFunction,NonConductor*
D24*
G36*
X150771525Y-96566632D02*
G01*
X150978368Y-96773475D01*
X151152760Y-96890000D01*
X150978368Y-97006525D01*
X150771525Y-97213368D01*
X150655000Y-97387760D01*
X150538475Y-97213368D01*
X150331632Y-97006525D01*
X150157240Y-96890000D01*
X150331632Y-96773475D01*
X150538475Y-96566632D01*
X150655000Y-96392240D01*
X150771525Y-96566632D01*
G37*
G04 #@! TD.AperFunction*
D23*
X150771525Y-94026632D02*
X150978368Y-94233475D01*
X151152760Y-94350000D01*
X150978368Y-94466525D01*
X150771525Y-94673368D01*
X150655000Y-94847760D01*
X150538475Y-94673368D01*
X150331632Y-94466525D01*
X150157240Y-94350000D01*
X150331632Y-94233475D01*
X150538475Y-94026632D01*
X150655000Y-93852240D01*
X150771525Y-94026632D01*
G04 #@! TA.AperFunction,NonConductor*
D24*
G36*
X150771525Y-94026632D02*
G01*
X150978368Y-94233475D01*
X151152760Y-94350000D01*
X150978368Y-94466525D01*
X150771525Y-94673368D01*
X150655000Y-94847760D01*
X150538475Y-94673368D01*
X150331632Y-94466525D01*
X150157240Y-94350000D01*
X150331632Y-94233475D01*
X150538475Y-94026632D01*
X150655000Y-93852240D01*
X150771525Y-94026632D01*
G37*
G04 #@! TD.AperFunction*
D23*
X150771525Y-91486632D02*
X150978368Y-91693475D01*
X151152760Y-91810000D01*
X150978368Y-91926525D01*
X150771525Y-92133368D01*
X150655000Y-92307760D01*
X150538475Y-92133368D01*
X150331632Y-91926525D01*
X150157240Y-91810000D01*
X150331632Y-91693475D01*
X150538475Y-91486632D01*
X150655000Y-91312240D01*
X150771525Y-91486632D01*
G04 #@! TA.AperFunction,NonConductor*
D24*
G36*
X150771525Y-91486632D02*
G01*
X150978368Y-91693475D01*
X151152760Y-91810000D01*
X150978368Y-91926525D01*
X150771525Y-92133368D01*
X150655000Y-92307760D01*
X150538475Y-92133368D01*
X150331632Y-91926525D01*
X150157240Y-91810000D01*
X150331632Y-91693475D01*
X150538475Y-91486632D01*
X150655000Y-91312240D01*
X150771525Y-91486632D01*
G37*
G04 #@! TD.AperFunction*
D23*
X150485498Y-89094180D02*
X150544463Y-89204494D01*
X150623815Y-89301185D01*
X150720506Y-89380537D01*
X150830820Y-89439502D01*
X150903380Y-89461513D01*
X150771525Y-89593368D01*
X150655000Y-89767760D01*
X150538475Y-89593368D01*
X150331632Y-89386525D01*
X150157240Y-89270000D01*
X150331632Y-89153475D01*
X150463487Y-89021620D01*
X150485498Y-89094180D01*
G04 #@! TA.AperFunction,NonConductor*
D24*
G36*
X150485498Y-89094180D02*
G01*
X150544463Y-89204494D01*
X150623815Y-89301185D01*
X150720506Y-89380537D01*
X150830820Y-89439502D01*
X150903380Y-89461513D01*
X150771525Y-89593368D01*
X150655000Y-89767760D01*
X150538475Y-89593368D01*
X150331632Y-89386525D01*
X150157240Y-89270000D01*
X150331632Y-89153475D01*
X150463487Y-89021620D01*
X150485498Y-89094180D01*
G37*
G04 #@! TD.AperFunction*
M02*
