M48
; DRILL file {KiCad (5.1.2)-2} date 10.07.2019 12:43:28
; FORMAT={-:-/ absolute / inch / decimal}
; #@! TF.CreationDate,2019-07-10T12:43:28+04:00
; #@! TF.GenerationSoftware,Kicad,Pcbnew,(5.1.2)-2
; #@! TF.FileFunction,Plated,1,2,PTH
FMAT,2
INCH
T1C0.0157
T2C0.0197
T3C0.0315
T4C0.0335
T5C0.0358
T6C0.0394
T7C0.0591
T8C0.0630
T9C0.1260
%
G90
G05
T1
X3.5512Y-5.1417
X3.5531Y-5.4921
X3.7579Y-5.6969
X3.7972Y-2.4409
X3.8819Y-4.8996
X3.9213Y-4.7283
X4.0197Y-5.878
X4.0742Y-4.4022
X4.0768Y-5.5375
X4.0906Y-4.1142
X4.0984Y-2.6152
X4.1024Y-3.313
X4.1161Y-2.8071
X4.1161Y-3.0472
X4.1605Y-3.7312
X4.1605Y-3.8101
X4.1752Y-2.7362
X4.2087Y-5.3976
X4.2283Y-3.4783
X4.2303Y-4.5039
X4.2402Y-3.9646
X4.2815Y-5.4449
X4.3022Y-4.0049
X4.3199Y-5.7018
X4.3248Y-3.7618
X4.3287Y-3.6122
X4.3465Y-2.6063
X4.3957Y-4.5039
X4.4419Y-2.9321
X4.4528Y-5.4961
X4.5167Y-2.6374
X4.5197Y-3.311
X4.5266Y-2.5758
X4.5374Y-3.1457
X4.5374Y-3.2362
X4.5591Y-3.5354
X4.561Y-3.3976
X4.5866Y-3.6398
X4.6168Y-3.4075
X4.626Y-2.7106
X4.6378Y-2.7913
X4.6398Y-2.8681
X4.6447Y-2.3238
X4.6512Y-2.4925
X4.6594Y-3.6594
X4.6703Y-2.5502
X4.7441Y-5.4134
X4.7736Y-2.3524
X4.7795Y-2.6988
X4.7815Y-4.3465
X4.7894Y-2.7677
X4.8287Y-3.0906
X4.8401Y-3.0035
X4.8543Y-2.9488
X4.8563Y-2.9055
X4.8917Y-3.0758
X4.8962Y-2.5595
X4.9094Y-2.3524
X4.9724Y-3.6772
X4.9961Y-3.2913
X5.0039Y-5.439
X5.0157Y-2.3504
X5.0295Y-2.815
X5.034Y-3.1097
X5.0374Y-3.628
X5.0453Y-3.3996
X5.0531Y-3.7165
X5.0591Y-3.1713
X5.0827Y-3.3022
X5.0837Y-2.6742
X5.0945Y-3.3858
X5.1004Y-4.8209
X5.1201Y-5.3169
X5.1417Y-4.0079
X5.1555Y-2.3356
X5.1594Y-2.8406
X5.1693Y-3.5846
X5.2008Y-3.7874
X5.2028Y-4.7539
X5.2736Y-2.3366
X5.2815Y-2.5591
X5.3583Y-4.7539
X5.3661Y-2.7323
X5.3917Y-3.9587
X5.4035Y-3.6181
X5.4173Y-3.248
X5.4173Y-3.4441
X5.4321Y-2.2215
X5.4518Y-5.3061
X5.4823Y-3.7126
X5.4862Y-2.5394
X5.5039Y-2.6122
X5.5138Y-3.1732
X5.5531Y-3.7126
X5.563Y-4.6929
X5.564Y-5.3642
X5.5716Y-3.6457
X5.5906Y-5.3071
X5.6033Y-3.1053
X5.6063Y-5.622
X5.6319Y-3.9606
X5.6457Y-4.2067
X5.6457Y-4.372
X5.6555Y-4.8957
X5.6969Y-3.1083
X5.7067Y-4.1614
X5.7244Y-5.3425
X5.7333Y-4.5837
X5.7461Y-3.7618
X5.75Y-5.4035
X5.7618Y-5.7618
X5.8169Y-4.628
X5.8248Y-3.8996
X5.876Y-3.4272
X5.878Y-3.7126
X5.8839Y-5.6181
X5.8957Y-4.0748
X5.939Y-3.6496
X5.9606Y-5.6161
X5.9616Y-3.0256
X5.9715Y-5.7628
X5.9764Y-4.061
X5.9892Y-5.4045
X6.0492Y-5.6142
X6.0531Y-5.6909
X6.061Y-3.9724
X6.0748Y-5.3878
X6.0866Y-4.876
X6.1778Y-3.1269
X6.2303Y-4.7283
X6.2402Y-3.8937
X6.25Y-5.2854
X6.2579Y-5.3504
X6.2618Y-5.5768
X6.2756Y-3.1388
X6.2815Y-4.6516
X6.3031Y-5.6142
X6.3072Y-5.7696
X6.326Y-4.0953
X6.326Y-4.426
X6.3287Y-4.8287
X6.3622Y-5.4035
X6.3799Y-5.6142
X6.435Y-4.6476
X6.4528Y-3.9055
X6.5551Y-3.5217
X6.5728Y-5.3504
X6.5884Y-5.4077
X6.6201Y-5.1496
X6.6634Y-5.7677
X6.7215Y-5.6368
X6.7823Y-5.2689
X6.8602Y-5.3681
X6.8681Y-5.1909
X6.8719Y-4.8266
X6.8898Y-4.9665
X6.9045Y-5.4537
X6.9094Y-4.7028
T2
X3.4055Y-2.3
X3.4332Y-2.2332
X3.4332Y-2.3668
X3.5Y-2.2055
X3.5Y-2.3945
X3.5668Y-2.2332
X3.5668Y-2.3668
X3.5945Y-2.3
X6.9055Y-2.3
X6.9332Y-2.2332
X6.9332Y-2.3668
X7.0Y-2.2055
X7.0Y-2.3945
X7.0668Y-2.2332
X7.0668Y-2.3668
X7.0945Y-2.3
X6.9055Y-5.8
X6.9332Y-5.7332
X6.9332Y-5.8668
X7.0Y-5.7055
X7.0Y-5.8945
X7.0668Y-5.7332
X7.0668Y-5.8668
X7.0945Y-5.8
X3.4055Y-5.8
X3.4332Y-5.7332
X3.4332Y-5.8668
X3.5Y-5.7055
X3.5Y-5.8945
X3.5668Y-5.7332
X3.5668Y-5.8668
X3.5945Y-5.8
T3
X4.7061Y-3.8866
X4.8982Y-3.8866
T4
X4.7303Y-4.4685
X4.7303Y-4.5685
X4.7303Y-4.7685
X4.7303Y-4.8685
X4.7303Y-4.9685
X5.9291Y-4.4685
X5.9291Y-4.5685
X5.9291Y-4.7685
X5.9291Y-4.8685
X5.9291Y-4.9685
T5
X4.9531Y-4.252
X4.9531Y-4.352
X4.9531Y-4.952
X4.9531Y-5.152
X5.5531Y-4.252
X5.5531Y-4.352
X5.5531Y-4.952
X5.5531Y-5.152
X3.7406Y-4.252
X3.7406Y-4.352
X3.7406Y-4.952
X3.7406Y-5.152
X4.3406Y-4.252
X4.3406Y-4.352
X4.3406Y-4.952
X4.3406Y-5.152
X6.1657Y-4.252
X6.1657Y-4.352
X6.1657Y-4.952
X6.1657Y-5.152
X6.7657Y-4.252
X6.7657Y-4.352
X6.7657Y-4.952
X6.7657Y-5.152
T6
X6.8299Y-3.4472
X6.9299Y-3.4472
X3.8528Y-2.2264
X3.8528Y-2.3264
X3.9528Y-2.2264
X3.9528Y-2.3264
X4.0528Y-2.2264
X4.0528Y-2.3264
X4.1528Y-2.2264
X4.1528Y-2.3264
X4.2528Y-2.2264
X4.2528Y-2.3264
X4.3528Y-2.2264
X4.3528Y-2.3264
X4.4528Y-2.2264
X4.4528Y-2.3264
X6.6087Y-3.7059
X6.6087Y-3.8059
X6.6087Y-3.9059
X5.1598Y-3.0154
X5.1598Y-3.1154
X5.2598Y-3.0154
X5.2598Y-3.1154
X7.0465Y-4.352
X7.0465Y-4.452
X7.0465Y-4.552
X7.0465Y-4.652
X5.5043Y-3.3311
X5.5043Y-3.4311
X5.5043Y-3.5311
X5.6043Y-3.3311
X5.6043Y-3.4311
X5.6043Y-3.5311
X3.6701Y-2.6169
X3.7701Y-2.6169
X3.8701Y-2.6169
X3.9701Y-2.6169
X5.5043Y-2.7299
X5.5043Y-2.8299
X5.5043Y-2.9299
X5.6043Y-2.7299
X5.6043Y-2.8299
X5.6043Y-2.9299
X3.8925Y-3.7047
X3.8925Y-3.8047
X3.8925Y-3.9047
X7.0465Y-5.0862
X7.0465Y-5.1862
X7.0465Y-5.2862
X7.0465Y-5.3862
T7
X5.9006Y-2.7785
X6.1152Y-2.7785
X6.3297Y-2.7785
T8
X6.3898Y-2.3307
X6.5276Y-2.3307
X6.6654Y-2.3307
X5.7244Y-2.3307
X5.8622Y-2.3307
X6.0Y-2.3307
T9
X7.0Y-2.3
X7.0Y-5.8
X3.5Y-5.8
X3.5Y-2.3
T6
G00X5.2087Y-5.5669
M15
G01X5.2874Y-5.5669
M16
G05
G00X5.2087Y-5.8031
M15
G01X5.2874Y-5.8031
M16
G05
G00X5.4331Y-5.7244
M15
G01X5.4331Y-5.6457
M16
G05
T0
M30
