G04 #@! TF.GenerationSoftware,KiCad,Pcbnew,(5.1.2)-2*
G04 #@! TF.CreationDate,2019-07-10T12:42:44+04:00*
G04 #@! TF.ProjectId,DTI_1-12,4454495f-312d-4313-922e-6b696361645f,rev?*
G04 #@! TF.SameCoordinates,Original*
G04 #@! TF.FileFunction,Legend,Bot*
G04 #@! TF.FilePolarity,Positive*
%FSLAX46Y46*%
G04 Gerber Fmt 4.6, Leading zero omitted, Abs format (unit mm)*
G04 Created by KiCad (PCBNEW (5.1.2)-2) date 2019-07-10 12:42:44*
%MOMM*%
%LPD*%
G04 APERTURE LIST*
%ADD10C,0.010000*%
%ADD11C,0.120000*%
%ADD12C,0.150000*%
G04 APERTURE END LIST*
D10*
G36*
X112685957Y-88335835D02*
G01*
X112662935Y-88373245D01*
X112627466Y-88432514D01*
X112581004Y-88511118D01*
X112525004Y-88606538D01*
X112460919Y-88716250D01*
X112390204Y-88837734D01*
X112314313Y-88968468D01*
X112234701Y-89105930D01*
X112152822Y-89247598D01*
X112070130Y-89390951D01*
X111988079Y-89533467D01*
X111908124Y-89672624D01*
X111831719Y-89805901D01*
X111760318Y-89930776D01*
X111695376Y-90044727D01*
X111638347Y-90145233D01*
X111590685Y-90229772D01*
X111553845Y-90295822D01*
X111529280Y-90340862D01*
X111518446Y-90362370D01*
X111518049Y-90363714D01*
X111531499Y-90381965D01*
X111568886Y-90409882D01*
X111625765Y-90444725D01*
X111697688Y-90483754D01*
X111772985Y-90520843D01*
X111875440Y-90565817D01*
X111983183Y-90606226D01*
X112099927Y-90642969D01*
X112229382Y-90676942D01*
X112375260Y-90709044D01*
X112541274Y-90740173D01*
X112731134Y-90771227D01*
X112927531Y-90800145D01*
X113098166Y-90825800D01*
X113241455Y-90851198D01*
X113360992Y-90877602D01*
X113460370Y-90906273D01*
X113543182Y-90938473D01*
X113613022Y-90975465D01*
X113673482Y-91018512D01*
X113728155Y-91068875D01*
X113745786Y-91087583D01*
X113784000Y-91131139D01*
X113812268Y-91166682D01*
X113825382Y-91187583D01*
X113825732Y-91189297D01*
X113830320Y-91199806D01*
X113846242Y-91199924D01*
X113876734Y-91188254D01*
X113925032Y-91163396D01*
X113994373Y-91123952D01*
X114042561Y-91095587D01*
X114114417Y-91051247D01*
X114170258Y-91013279D01*
X114206333Y-90984416D01*
X114218887Y-90967388D01*
X114218879Y-90967264D01*
X114211094Y-90951037D01*
X114189108Y-90910400D01*
X114154197Y-90847567D01*
X114107637Y-90764752D01*
X114050705Y-90664172D01*
X113984677Y-90548040D01*
X113910828Y-90418571D01*
X113830436Y-90277980D01*
X113744776Y-90128482D01*
X113655124Y-89972292D01*
X113562757Y-89811624D01*
X113468951Y-89648693D01*
X113374982Y-89485713D01*
X113282126Y-89324900D01*
X113191660Y-89168468D01*
X113104859Y-89018633D01*
X113023000Y-88877608D01*
X112947359Y-88747609D01*
X112879213Y-88630849D01*
X112819837Y-88529545D01*
X112770507Y-88445911D01*
X112732500Y-88382162D01*
X112707093Y-88340511D01*
X112695560Y-88323175D01*
X112695077Y-88322805D01*
X112685957Y-88335835D01*
X112685957Y-88335835D01*
G37*
X112685957Y-88335835D02*
X112662935Y-88373245D01*
X112627466Y-88432514D01*
X112581004Y-88511118D01*
X112525004Y-88606538D01*
X112460919Y-88716250D01*
X112390204Y-88837734D01*
X112314313Y-88968468D01*
X112234701Y-89105930D01*
X112152822Y-89247598D01*
X112070130Y-89390951D01*
X111988079Y-89533467D01*
X111908124Y-89672624D01*
X111831719Y-89805901D01*
X111760318Y-89930776D01*
X111695376Y-90044727D01*
X111638347Y-90145233D01*
X111590685Y-90229772D01*
X111553845Y-90295822D01*
X111529280Y-90340862D01*
X111518446Y-90362370D01*
X111518049Y-90363714D01*
X111531499Y-90381965D01*
X111568886Y-90409882D01*
X111625765Y-90444725D01*
X111697688Y-90483754D01*
X111772985Y-90520843D01*
X111875440Y-90565817D01*
X111983183Y-90606226D01*
X112099927Y-90642969D01*
X112229382Y-90676942D01*
X112375260Y-90709044D01*
X112541274Y-90740173D01*
X112731134Y-90771227D01*
X112927531Y-90800145D01*
X113098166Y-90825800D01*
X113241455Y-90851198D01*
X113360992Y-90877602D01*
X113460370Y-90906273D01*
X113543182Y-90938473D01*
X113613022Y-90975465D01*
X113673482Y-91018512D01*
X113728155Y-91068875D01*
X113745786Y-91087583D01*
X113784000Y-91131139D01*
X113812268Y-91166682D01*
X113825382Y-91187583D01*
X113825732Y-91189297D01*
X113830320Y-91199806D01*
X113846242Y-91199924D01*
X113876734Y-91188254D01*
X113925032Y-91163396D01*
X113994373Y-91123952D01*
X114042561Y-91095587D01*
X114114417Y-91051247D01*
X114170258Y-91013279D01*
X114206333Y-90984416D01*
X114218887Y-90967388D01*
X114218879Y-90967264D01*
X114211094Y-90951037D01*
X114189108Y-90910400D01*
X114154197Y-90847567D01*
X114107637Y-90764752D01*
X114050705Y-90664172D01*
X113984677Y-90548040D01*
X113910828Y-90418571D01*
X113830436Y-90277980D01*
X113744776Y-90128482D01*
X113655124Y-89972292D01*
X113562757Y-89811624D01*
X113468951Y-89648693D01*
X113374982Y-89485713D01*
X113282126Y-89324900D01*
X113191660Y-89168468D01*
X113104859Y-89018633D01*
X113023000Y-88877608D01*
X112947359Y-88747609D01*
X112879213Y-88630849D01*
X112819837Y-88529545D01*
X112770507Y-88445911D01*
X112732500Y-88382162D01*
X112707093Y-88340511D01*
X112695560Y-88323175D01*
X112695077Y-88322805D01*
X112685957Y-88335835D01*
G36*
X110862472Y-91484619D02*
G01*
X110851092Y-91503693D01*
X110825512Y-91547421D01*
X110786998Y-91613619D01*
X110736814Y-91700102D01*
X110676225Y-91804685D01*
X110606497Y-91925183D01*
X110528893Y-92059412D01*
X110444680Y-92205187D01*
X110355121Y-92360323D01*
X110263002Y-92520000D01*
X110168924Y-92683117D01*
X110078598Y-92839709D01*
X109993335Y-92987506D01*
X109914443Y-93124240D01*
X109843231Y-93247642D01*
X109781009Y-93355444D01*
X109729087Y-93445377D01*
X109688772Y-93515173D01*
X109661376Y-93562564D01*
X109648493Y-93584786D01*
X109627493Y-93622330D01*
X109616075Y-93645831D01*
X109615449Y-93649920D01*
X109629364Y-93642242D01*
X109668059Y-93620203D01*
X109729513Y-93584971D01*
X109811702Y-93537711D01*
X109912604Y-93479589D01*
X110030195Y-93411771D01*
X110162454Y-93335424D01*
X110307358Y-93251714D01*
X110462883Y-93161806D01*
X110627008Y-93066867D01*
X110689451Y-93030732D01*
X110856513Y-92934083D01*
X111015926Y-92841938D01*
X111165645Y-92755475D01*
X111303624Y-92675871D01*
X111427815Y-92604305D01*
X111536173Y-92541955D01*
X111626652Y-92489998D01*
X111697204Y-92449613D01*
X111745785Y-92421978D01*
X111770346Y-92408272D01*
X111772915Y-92406974D01*
X111765431Y-92395220D01*
X111739386Y-92363795D01*
X111697441Y-92315594D01*
X111642254Y-92253510D01*
X111576483Y-92180439D01*
X111502788Y-92099276D01*
X111423827Y-92012916D01*
X111342260Y-91924253D01*
X111260746Y-91836182D01*
X111181943Y-91751599D01*
X111108510Y-91673397D01*
X111043107Y-91604472D01*
X110988392Y-91547719D01*
X110947023Y-91506032D01*
X110932836Y-91492363D01*
X110885820Y-91448201D01*
X110862472Y-91484619D01*
X110862472Y-91484619D01*
G37*
X110862472Y-91484619D02*
X110851092Y-91503693D01*
X110825512Y-91547421D01*
X110786998Y-91613619D01*
X110736814Y-91700102D01*
X110676225Y-91804685D01*
X110606497Y-91925183D01*
X110528893Y-92059412D01*
X110444680Y-92205187D01*
X110355121Y-92360323D01*
X110263002Y-92520000D01*
X110168924Y-92683117D01*
X110078598Y-92839709D01*
X109993335Y-92987506D01*
X109914443Y-93124240D01*
X109843231Y-93247642D01*
X109781009Y-93355444D01*
X109729087Y-93445377D01*
X109688772Y-93515173D01*
X109661376Y-93562564D01*
X109648493Y-93584786D01*
X109627493Y-93622330D01*
X109616075Y-93645831D01*
X109615449Y-93649920D01*
X109629364Y-93642242D01*
X109668059Y-93620203D01*
X109729513Y-93584971D01*
X109811702Y-93537711D01*
X109912604Y-93479589D01*
X110030195Y-93411771D01*
X110162454Y-93335424D01*
X110307358Y-93251714D01*
X110462883Y-93161806D01*
X110627008Y-93066867D01*
X110689451Y-93030732D01*
X110856513Y-92934083D01*
X111015926Y-92841938D01*
X111165645Y-92755475D01*
X111303624Y-92675871D01*
X111427815Y-92604305D01*
X111536173Y-92541955D01*
X111626652Y-92489998D01*
X111697204Y-92449613D01*
X111745785Y-92421978D01*
X111770346Y-92408272D01*
X111772915Y-92406974D01*
X111765431Y-92395220D01*
X111739386Y-92363795D01*
X111697441Y-92315594D01*
X111642254Y-92253510D01*
X111576483Y-92180439D01*
X111502788Y-92099276D01*
X111423827Y-92012916D01*
X111342260Y-91924253D01*
X111260746Y-91836182D01*
X111181943Y-91751599D01*
X111108510Y-91673397D01*
X111043107Y-91604472D01*
X110988392Y-91547719D01*
X110947023Y-91506032D01*
X110932836Y-91492363D01*
X110885820Y-91448201D01*
X110862472Y-91484619D01*
G36*
X114527906Y-91541158D02*
G01*
X114495381Y-91553736D01*
X114445807Y-91578712D01*
X114374626Y-91617876D01*
X114369084Y-91620988D01*
X114303526Y-91658476D01*
X114248202Y-91691319D01*
X114208545Y-91716205D01*
X114189988Y-91729820D01*
X114189469Y-91730487D01*
X114193952Y-91749390D01*
X114214514Y-91791605D01*
X114249817Y-91854832D01*
X114298520Y-91936772D01*
X114359282Y-92035122D01*
X114430764Y-92147585D01*
X114448555Y-92175165D01*
X114494907Y-92251699D01*
X114528658Y-92317556D01*
X114546847Y-92366782D01*
X114548714Y-92376507D01*
X114547885Y-92419312D01*
X114538606Y-92487209D01*
X114522032Y-92575843D01*
X114499320Y-92680859D01*
X114471627Y-92797902D01*
X114440110Y-92922616D01*
X114405925Y-93050645D01*
X114370229Y-93177634D01*
X114334179Y-93299228D01*
X114298932Y-93411072D01*
X114265644Y-93508810D01*
X114235472Y-93588087D01*
X114214439Y-93635122D01*
X114189663Y-93685225D01*
X114166270Y-93733168D01*
X114165003Y-93735793D01*
X114126301Y-93784220D01*
X114069816Y-93816828D01*
X114004061Y-93832454D01*
X113937549Y-93829937D01*
X113878795Y-93808114D01*
X113845742Y-93779382D01*
X113798141Y-93700583D01*
X113763261Y-93602378D01*
X113744123Y-93494779D01*
X113741412Y-93433780D01*
X113752330Y-93319935D01*
X113784376Y-93225660D01*
X113839274Y-93146379D01*
X113856393Y-93128733D01*
X113907339Y-93079235D01*
X113910837Y-92729362D01*
X113914336Y-92379489D01*
X113825182Y-92244531D01*
X113783346Y-92183445D01*
X113743055Y-92128493D01*
X113710057Y-92087336D01*
X113695874Y-92072192D01*
X113655719Y-92034810D01*
X113601335Y-92064098D01*
X113566961Y-92085084D01*
X113548154Y-92101378D01*
X113546951Y-92104307D01*
X113534097Y-92116728D01*
X113512104Y-92125977D01*
X113490850Y-92134313D01*
X113458306Y-92150149D01*
X113411678Y-92175033D01*
X113348171Y-92210509D01*
X113264992Y-92258123D01*
X113159347Y-92319422D01*
X113101938Y-92352932D01*
X113034406Y-92393071D01*
X112990115Y-92421659D01*
X112965145Y-92442039D01*
X112955577Y-92457553D01*
X112957492Y-92471546D01*
X112959089Y-92474796D01*
X112974624Y-92495266D01*
X113007864Y-92533665D01*
X113054938Y-92585696D01*
X113111972Y-92647066D01*
X113161300Y-92699090D01*
X113274970Y-92822567D01*
X113363895Y-92929591D01*
X113428866Y-93021240D01*
X113470679Y-93098588D01*
X113484783Y-93137866D01*
X113490608Y-93172249D01*
X113496625Y-93230899D01*
X113502304Y-93307117D01*
X113507116Y-93394202D01*
X113509381Y-93449268D01*
X113512541Y-93544464D01*
X113513931Y-93614062D01*
X113513142Y-93663409D01*
X113509765Y-93697854D01*
X113503392Y-93722743D01*
X113493613Y-93743425D01*
X113485933Y-93756053D01*
X113441579Y-93804726D01*
X113384426Y-93838645D01*
X113324292Y-93853438D01*
X113279227Y-93848086D01*
X113238424Y-93824930D01*
X113187276Y-93783462D01*
X113132958Y-93730912D01*
X113082643Y-93674516D01*
X113043506Y-93621505D01*
X113029095Y-93595889D01*
X113007509Y-93560814D01*
X112968247Y-93507389D01*
X112914898Y-93439789D01*
X112851048Y-93362190D01*
X112780285Y-93278768D01*
X112706196Y-93193698D01*
X112632368Y-93111155D01*
X112562389Y-93035316D01*
X112499845Y-92970356D01*
X112450740Y-92922669D01*
X112396221Y-92875032D01*
X112350358Y-92839908D01*
X112318189Y-92820949D01*
X112307511Y-92818864D01*
X112291147Y-92827274D01*
X112250329Y-92849846D01*
X112187414Y-92885224D01*
X112104756Y-92932054D01*
X112004711Y-92988981D01*
X111889634Y-93054649D01*
X111761881Y-93127703D01*
X111623806Y-93206788D01*
X111477766Y-93290548D01*
X111326116Y-93377629D01*
X111171210Y-93466676D01*
X111015405Y-93556332D01*
X110861056Y-93645243D01*
X110710518Y-93732054D01*
X110566146Y-93815409D01*
X110430296Y-93893954D01*
X110305323Y-93966333D01*
X110193583Y-94031190D01*
X110097430Y-94087171D01*
X110019221Y-94132920D01*
X109961311Y-94167083D01*
X109926054Y-94188304D01*
X109915835Y-94194963D01*
X109929598Y-94196280D01*
X109972896Y-94197559D01*
X110044286Y-94198796D01*
X110142327Y-94199983D01*
X110265578Y-94201115D01*
X110412597Y-94202186D01*
X110581943Y-94203189D01*
X110772174Y-94204119D01*
X110981849Y-94204968D01*
X111209527Y-94205732D01*
X111453765Y-94206403D01*
X111713123Y-94206976D01*
X111986159Y-94207444D01*
X112271432Y-94207802D01*
X112567500Y-94208042D01*
X112872921Y-94208159D01*
X113001076Y-94208171D01*
X116101030Y-94208171D01*
X115879947Y-93824847D01*
X115833144Y-93743680D01*
X115772898Y-93639166D01*
X115701222Y-93514801D01*
X115620131Y-93374082D01*
X115531638Y-93220503D01*
X115437760Y-93057562D01*
X115340509Y-92888754D01*
X115241900Y-92717575D01*
X115143947Y-92547521D01*
X115119175Y-92504512D01*
X115028848Y-92347857D01*
X114942711Y-92198803D01*
X114862058Y-92059568D01*
X114788184Y-91932371D01*
X114722383Y-91819432D01*
X114665950Y-91722968D01*
X114620179Y-91645200D01*
X114586365Y-91588346D01*
X114565802Y-91554625D01*
X114560047Y-91546040D01*
X114547942Y-91539189D01*
X114527906Y-91541158D01*
X114527906Y-91541158D01*
G37*
X114527906Y-91541158D02*
X114495381Y-91553736D01*
X114445807Y-91578712D01*
X114374626Y-91617876D01*
X114369084Y-91620988D01*
X114303526Y-91658476D01*
X114248202Y-91691319D01*
X114208545Y-91716205D01*
X114189988Y-91729820D01*
X114189469Y-91730487D01*
X114193952Y-91749390D01*
X114214514Y-91791605D01*
X114249817Y-91854832D01*
X114298520Y-91936772D01*
X114359282Y-92035122D01*
X114430764Y-92147585D01*
X114448555Y-92175165D01*
X114494907Y-92251699D01*
X114528658Y-92317556D01*
X114546847Y-92366782D01*
X114548714Y-92376507D01*
X114547885Y-92419312D01*
X114538606Y-92487209D01*
X114522032Y-92575843D01*
X114499320Y-92680859D01*
X114471627Y-92797902D01*
X114440110Y-92922616D01*
X114405925Y-93050645D01*
X114370229Y-93177634D01*
X114334179Y-93299228D01*
X114298932Y-93411072D01*
X114265644Y-93508810D01*
X114235472Y-93588087D01*
X114214439Y-93635122D01*
X114189663Y-93685225D01*
X114166270Y-93733168D01*
X114165003Y-93735793D01*
X114126301Y-93784220D01*
X114069816Y-93816828D01*
X114004061Y-93832454D01*
X113937549Y-93829937D01*
X113878795Y-93808114D01*
X113845742Y-93779382D01*
X113798141Y-93700583D01*
X113763261Y-93602378D01*
X113744123Y-93494779D01*
X113741412Y-93433780D01*
X113752330Y-93319935D01*
X113784376Y-93225660D01*
X113839274Y-93146379D01*
X113856393Y-93128733D01*
X113907339Y-93079235D01*
X113910837Y-92729362D01*
X113914336Y-92379489D01*
X113825182Y-92244531D01*
X113783346Y-92183445D01*
X113743055Y-92128493D01*
X113710057Y-92087336D01*
X113695874Y-92072192D01*
X113655719Y-92034810D01*
X113601335Y-92064098D01*
X113566961Y-92085084D01*
X113548154Y-92101378D01*
X113546951Y-92104307D01*
X113534097Y-92116728D01*
X113512104Y-92125977D01*
X113490850Y-92134313D01*
X113458306Y-92150149D01*
X113411678Y-92175033D01*
X113348171Y-92210509D01*
X113264992Y-92258123D01*
X113159347Y-92319422D01*
X113101938Y-92352932D01*
X113034406Y-92393071D01*
X112990115Y-92421659D01*
X112965145Y-92442039D01*
X112955577Y-92457553D01*
X112957492Y-92471546D01*
X112959089Y-92474796D01*
X112974624Y-92495266D01*
X113007864Y-92533665D01*
X113054938Y-92585696D01*
X113111972Y-92647066D01*
X113161300Y-92699090D01*
X113274970Y-92822567D01*
X113363895Y-92929591D01*
X113428866Y-93021240D01*
X113470679Y-93098588D01*
X113484783Y-93137866D01*
X113490608Y-93172249D01*
X113496625Y-93230899D01*
X113502304Y-93307117D01*
X113507116Y-93394202D01*
X113509381Y-93449268D01*
X113512541Y-93544464D01*
X113513931Y-93614062D01*
X113513142Y-93663409D01*
X113509765Y-93697854D01*
X113503392Y-93722743D01*
X113493613Y-93743425D01*
X113485933Y-93756053D01*
X113441579Y-93804726D01*
X113384426Y-93838645D01*
X113324292Y-93853438D01*
X113279227Y-93848086D01*
X113238424Y-93824930D01*
X113187276Y-93783462D01*
X113132958Y-93730912D01*
X113082643Y-93674516D01*
X113043506Y-93621505D01*
X113029095Y-93595889D01*
X113007509Y-93560814D01*
X112968247Y-93507389D01*
X112914898Y-93439789D01*
X112851048Y-93362190D01*
X112780285Y-93278768D01*
X112706196Y-93193698D01*
X112632368Y-93111155D01*
X112562389Y-93035316D01*
X112499845Y-92970356D01*
X112450740Y-92922669D01*
X112396221Y-92875032D01*
X112350358Y-92839908D01*
X112318189Y-92820949D01*
X112307511Y-92818864D01*
X112291147Y-92827274D01*
X112250329Y-92849846D01*
X112187414Y-92885224D01*
X112104756Y-92932054D01*
X112004711Y-92988981D01*
X111889634Y-93054649D01*
X111761881Y-93127703D01*
X111623806Y-93206788D01*
X111477766Y-93290548D01*
X111326116Y-93377629D01*
X111171210Y-93466676D01*
X111015405Y-93556332D01*
X110861056Y-93645243D01*
X110710518Y-93732054D01*
X110566146Y-93815409D01*
X110430296Y-93893954D01*
X110305323Y-93966333D01*
X110193583Y-94031190D01*
X110097430Y-94087171D01*
X110019221Y-94132920D01*
X109961311Y-94167083D01*
X109926054Y-94188304D01*
X109915835Y-94194963D01*
X109929598Y-94196280D01*
X109972896Y-94197559D01*
X110044286Y-94198796D01*
X110142327Y-94199983D01*
X110265578Y-94201115D01*
X110412597Y-94202186D01*
X110581943Y-94203189D01*
X110772174Y-94204119D01*
X110981849Y-94204968D01*
X111209527Y-94205732D01*
X111453765Y-94206403D01*
X111713123Y-94206976D01*
X111986159Y-94207444D01*
X112271432Y-94207802D01*
X112567500Y-94208042D01*
X112872921Y-94208159D01*
X113001076Y-94208171D01*
X116101030Y-94208171D01*
X115879947Y-93824847D01*
X115833144Y-93743680D01*
X115772898Y-93639166D01*
X115701222Y-93514801D01*
X115620131Y-93374082D01*
X115531638Y-93220503D01*
X115437760Y-93057562D01*
X115340509Y-92888754D01*
X115241900Y-92717575D01*
X115143947Y-92547521D01*
X115119175Y-92504512D01*
X115028848Y-92347857D01*
X114942711Y-92198803D01*
X114862058Y-92059568D01*
X114788184Y-91932371D01*
X114722383Y-91819432D01*
X114665950Y-91722968D01*
X114620179Y-91645200D01*
X114586365Y-91588346D01*
X114565802Y-91554625D01*
X114560047Y-91546040D01*
X114547942Y-91539189D01*
X114527906Y-91541158D01*
D11*
X144000000Y-103155000D02*
X141000000Y-103155000D01*
X144000000Y-103155000D02*
X144000000Y-106155000D01*
X123170000Y-103455000D02*
X123170000Y-135405000D01*
X143690000Y-135405000D02*
X123170000Y-135405000D01*
X143690000Y-103455000D02*
X143690000Y-135405000D01*
X143690000Y-103455000D02*
X123170000Y-103455000D01*
X96805000Y-141202064D02*
X96805000Y-139997936D01*
X98625000Y-141202064D02*
X98625000Y-139997936D01*
X95200000Y-141202064D02*
X95200000Y-139997936D01*
X93380000Y-141202064D02*
X93380000Y-139997936D01*
X102050000Y-141202064D02*
X102050000Y-139997936D01*
X100230000Y-141202064D02*
X100230000Y-139997936D01*
X111990000Y-67451252D02*
X111990000Y-66928748D01*
X113410000Y-67451252D02*
X113410000Y-66928748D01*
X131880000Y-66928748D02*
X131880000Y-67451252D01*
X133300000Y-66928748D02*
X133300000Y-67451252D01*
X104170000Y-94506252D02*
X104170000Y-93983748D01*
X102750000Y-94506252D02*
X102750000Y-93983748D01*
X102750000Y-99481252D02*
X102750000Y-98958748D01*
X104170000Y-99481252D02*
X104170000Y-98958748D01*
X114610000Y-113636252D02*
X114610000Y-113113748D01*
X116030000Y-113636252D02*
X116030000Y-113113748D01*
X146470000Y-113073748D02*
X146470000Y-113596252D01*
X145050000Y-113073748D02*
X145050000Y-113596252D01*
X146470000Y-124306252D02*
X146470000Y-123783748D01*
X145050000Y-124306252D02*
X145050000Y-123783748D01*
X116040000Y-124616252D02*
X116040000Y-124093748D01*
X114620000Y-124616252D02*
X114620000Y-124093748D01*
X139733748Y-102170000D02*
X140256252Y-102170000D01*
X139733748Y-100750000D02*
X140256252Y-100750000D01*
X112840000Y-98458748D02*
X112840000Y-98981252D01*
X114260000Y-98458748D02*
X114260000Y-98981252D01*
X131130000Y-98458748D02*
X131130000Y-98981252D01*
X129710000Y-98458748D02*
X129710000Y-98981252D01*
D12*
X118330000Y-90205000D02*
X118330000Y-85755000D01*
X125230000Y-91730000D02*
X125230000Y-85755000D01*
D11*
X174490000Y-103455000D02*
X153970000Y-103455000D01*
X174490000Y-103455000D02*
X174490000Y-135405000D01*
X174490000Y-135405000D02*
X153970000Y-135405000D01*
X153970000Y-103455000D02*
X153970000Y-135405000D01*
X174800000Y-103155000D02*
X174800000Y-106155000D01*
X174800000Y-103155000D02*
X171800000Y-103155000D01*
D12*
X120320000Y-67420000D02*
X120320000Y-67527500D01*
X120320000Y-77370000D02*
X120320000Y-77262500D01*
X124970000Y-77370000D02*
X124970000Y-77262500D01*
X126045000Y-67370000D02*
X120320000Y-67370000D01*
X124970000Y-77370000D02*
X120320000Y-77370000D01*
D11*
X112890000Y-103455000D02*
X92370000Y-103455000D01*
X112890000Y-103455000D02*
X112890000Y-135405000D01*
X112890000Y-135405000D02*
X92370000Y-135405000D01*
X92370000Y-103455000D02*
X92370000Y-135405000D01*
X113200000Y-103155000D02*
X113200000Y-106155000D01*
X113200000Y-103155000D02*
X110200000Y-103155000D01*
X119155000Y-148660000D02*
X119155000Y-139800000D01*
X119155000Y-139800000D02*
X124825000Y-139800000D01*
X124825000Y-139800000D02*
X124825000Y-148660000D01*
X114430000Y-60420000D02*
X114430000Y-57820000D01*
X114430000Y-60420000D02*
X96530000Y-60420000D01*
X96530000Y-60420000D02*
X96530000Y-55220000D01*
X111830000Y-55220000D02*
X96530000Y-55220000D01*
X111830000Y-57820000D02*
X111830000Y-55220000D01*
X114430000Y-57820000D02*
X111830000Y-57820000D01*
X114430000Y-55220000D02*
X113100000Y-55220000D01*
X114430000Y-56550000D02*
X114430000Y-55220000D01*
X169700000Y-72750000D02*
X169700000Y-71250000D01*
X169700000Y-71250000D02*
X171510000Y-71250000D01*
X171510000Y-71250000D02*
X171510000Y-66125000D01*
X180100000Y-72750000D02*
X180100000Y-71250000D01*
X180100000Y-71250000D02*
X178290000Y-71250000D01*
X178290000Y-71250000D02*
X178290000Y-70150000D01*
X147255000Y-75535000D02*
X163395000Y-75535000D01*
X147255000Y-96725000D02*
X163395000Y-96725000D01*
X147255000Y-96725000D02*
X147255000Y-75535000D01*
X163395000Y-96725000D02*
X163395000Y-75535000D01*
X149875000Y-75535000D02*
X149875000Y-72975000D01*
X155325000Y-75535000D02*
X155325000Y-72975000D01*
X160775000Y-75535000D02*
X160775000Y-72975000D01*
X100501252Y-85590000D02*
X99978748Y-85590000D01*
X100501252Y-87010000D02*
X99978748Y-87010000D01*
X100501252Y-81953332D02*
X99978748Y-81953332D01*
X100501252Y-83373332D02*
X99978748Y-83373332D01*
X103390000Y-70806252D02*
X103390000Y-70283748D01*
X101970000Y-70806252D02*
X101970000Y-70283748D01*
X98320000Y-70806252D02*
X98320000Y-70283748D01*
X99740000Y-70806252D02*
X99740000Y-70283748D01*
X146941252Y-102170000D02*
X146418748Y-102170000D01*
X146941252Y-100750000D02*
X146418748Y-100750000D01*
X122902000Y-81391252D02*
X122902000Y-80868748D01*
X121482000Y-81391252D02*
X121482000Y-80868748D01*
X100501252Y-79736666D02*
X99978748Y-79736666D01*
X100501252Y-78316666D02*
X99978748Y-78316666D01*
X94670000Y-70806252D02*
X94670000Y-70283748D01*
X96090000Y-70806252D02*
X96090000Y-70283748D01*
X105920000Y-88018748D02*
X105920000Y-88541252D01*
X104500000Y-88018748D02*
X104500000Y-88541252D01*
X92440000Y-70806252D02*
X92440000Y-70283748D01*
X91020000Y-70806252D02*
X91020000Y-70283748D01*
X100501252Y-74680000D02*
X99978748Y-74680000D01*
X100501252Y-76100000D02*
X99978748Y-76100000D01*
X87283733Y-132280000D02*
X87626267Y-132280000D01*
X87283733Y-133300000D02*
X87626267Y-133300000D01*
X87283733Y-130200000D02*
X87626267Y-130200000D01*
X87283733Y-129180000D02*
X87626267Y-129180000D01*
X112126252Y-76747142D02*
X111603748Y-76747142D01*
X112126252Y-75327142D02*
X111603748Y-75327142D01*
X112126252Y-78441426D02*
X111603748Y-78441426D01*
X112126252Y-79861426D02*
X111603748Y-79861426D01*
X112126252Y-81555710D02*
X111603748Y-81555710D01*
X112126252Y-82975710D02*
X111603748Y-82975710D01*
X128567500Y-71511267D02*
X128567500Y-71168733D01*
X129587500Y-71511267D02*
X129587500Y-71168733D01*
X112126252Y-86089994D02*
X111603748Y-86089994D01*
X112126252Y-84669994D02*
X111603748Y-84669994D01*
X147650000Y-134683734D02*
X147650000Y-135026268D01*
X146630000Y-134683734D02*
X146630000Y-135026268D01*
X132080000Y-71511267D02*
X132080000Y-71168733D01*
X133100000Y-71511267D02*
X133100000Y-71168733D01*
X149774999Y-134683734D02*
X149774999Y-135026268D01*
X150794999Y-134683734D02*
X150794999Y-135026268D01*
X116722500Y-71168733D02*
X116722500Y-71511267D01*
X115702500Y-71168733D02*
X115702500Y-71511267D01*
X113210000Y-71511267D02*
X113210000Y-71168733D01*
X112190000Y-71511267D02*
X112190000Y-71168733D01*
X118810000Y-56976267D02*
X118810000Y-56633733D01*
X119830000Y-56976267D02*
X119830000Y-56633733D01*
X118810000Y-61496267D02*
X118810000Y-61153733D01*
X119830000Y-61496267D02*
X119830000Y-61153733D01*
X124874000Y-81391252D02*
X124874000Y-80868748D01*
X126294000Y-81391252D02*
X126294000Y-80868748D01*
X121963333Y-56398748D02*
X121963333Y-56921252D01*
X123383333Y-56398748D02*
X123383333Y-56921252D01*
X125289999Y-56398748D02*
X125289999Y-56921252D01*
X126709999Y-56398748D02*
X126709999Y-56921252D01*
X130036665Y-56398748D02*
X130036665Y-56921252D01*
X128616665Y-56398748D02*
X128616665Y-56921252D01*
X131943331Y-56398748D02*
X131943331Y-56921252D01*
X133363331Y-56398748D02*
X133363331Y-56921252D01*
X135269997Y-56398748D02*
X135269997Y-56921252D01*
X136689997Y-56398748D02*
X136689997Y-56921252D01*
X119510000Y-81391252D02*
X119510000Y-80868748D01*
X118090000Y-81391252D02*
X118090000Y-80868748D01*
X115808733Y-135640000D02*
X116151267Y-135640000D01*
X115808733Y-134620000D02*
X116151267Y-134620000D01*
X120481267Y-134620000D02*
X120138733Y-134620000D01*
X120481267Y-135640000D02*
X120138733Y-135640000D01*
X107496267Y-67585000D02*
X107153733Y-67585000D01*
X107496267Y-66565000D02*
X107153733Y-66565000D01*
X88435000Y-67178733D02*
X88435000Y-67521267D01*
X87415000Y-67178733D02*
X87415000Y-67521267D01*
X159035000Y-140410000D02*
X159035000Y-138595000D01*
X158780000Y-140410000D02*
X159035000Y-140410000D01*
X158780000Y-144270000D02*
X158780000Y-140410000D01*
X158780000Y-148130000D02*
X159035000Y-148130000D01*
X158780000Y-144270000D02*
X158780000Y-148130000D01*
X169300000Y-140410000D02*
X169045000Y-140410000D01*
X169300000Y-144270000D02*
X169300000Y-140410000D01*
X169300000Y-148130000D02*
X169045000Y-148130000D01*
X169300000Y-144270000D02*
X169300000Y-148130000D01*
X91480000Y-85950000D02*
X89530000Y-85950000D01*
X91480000Y-85950000D02*
X93430000Y-85950000D01*
X91480000Y-75830000D02*
X89530000Y-75830000D01*
X91480000Y-75830000D02*
X94930000Y-75830000D01*
X153650000Y-144270000D02*
X153650000Y-148130000D01*
X153650000Y-148130000D02*
X153395000Y-148130000D01*
X153650000Y-144270000D02*
X153650000Y-140410000D01*
X153650000Y-140410000D02*
X153395000Y-140410000D01*
X143130000Y-144270000D02*
X143130000Y-148130000D01*
X143130000Y-148130000D02*
X143385000Y-148130000D01*
X143130000Y-144270000D02*
X143130000Y-140410000D01*
X143130000Y-140410000D02*
X143385000Y-140410000D01*
X143385000Y-140410000D02*
X143385000Y-138595000D01*
D12*
X147314285Y-106062380D02*
X147314285Y-105062380D01*
X147076190Y-105062380D01*
X146933333Y-105110000D01*
X146838095Y-105205238D01*
X146790476Y-105300476D01*
X146742857Y-105490952D01*
X146742857Y-105633809D01*
X146790476Y-105824285D01*
X146838095Y-105919523D01*
X146933333Y-106014761D01*
X147076190Y-106062380D01*
X147314285Y-106062380D01*
X145790476Y-106062380D02*
X146361904Y-106062380D01*
X146076190Y-106062380D02*
X146076190Y-105062380D01*
X146171428Y-105205238D01*
X146266666Y-105300476D01*
X146361904Y-105348095D01*
X145171428Y-105062380D02*
X145076190Y-105062380D01*
X144980952Y-105110000D01*
X144933333Y-105157619D01*
X144885714Y-105252857D01*
X144838095Y-105443333D01*
X144838095Y-105681428D01*
X144885714Y-105871904D01*
X144933333Y-105967142D01*
X144980952Y-106014761D01*
X145076190Y-106062380D01*
X145171428Y-106062380D01*
X145266666Y-106014761D01*
X145314285Y-105967142D01*
X145361904Y-105871904D01*
X145409523Y-105681428D01*
X145409523Y-105443333D01*
X145361904Y-105252857D01*
X145314285Y-105157619D01*
X145266666Y-105110000D01*
X145171428Y-105062380D01*
X98247142Y-144833333D02*
X98294761Y-144785714D01*
X98342380Y-144642857D01*
X98342380Y-144547619D01*
X98294761Y-144404761D01*
X98199523Y-144309523D01*
X98104285Y-144261904D01*
X97913809Y-144214285D01*
X97770952Y-144214285D01*
X97580476Y-144261904D01*
X97485238Y-144309523D01*
X97390000Y-144404761D01*
X97342380Y-144547619D01*
X97342380Y-144642857D01*
X97390000Y-144785714D01*
X97437619Y-144833333D01*
X97342380Y-145166666D02*
X97342380Y-145833333D01*
X98342380Y-145404761D01*
X94697142Y-144833333D02*
X94744761Y-144785714D01*
X94792380Y-144642857D01*
X94792380Y-144547619D01*
X94744761Y-144404761D01*
X94649523Y-144309523D01*
X94554285Y-144261904D01*
X94363809Y-144214285D01*
X94220952Y-144214285D01*
X94030476Y-144261904D01*
X93935238Y-144309523D01*
X93840000Y-144404761D01*
X93792380Y-144547619D01*
X93792380Y-144642857D01*
X93840000Y-144785714D01*
X93887619Y-144833333D01*
X94220952Y-145404761D02*
X94173333Y-145309523D01*
X94125714Y-145261904D01*
X94030476Y-145214285D01*
X93982857Y-145214285D01*
X93887619Y-145261904D01*
X93840000Y-145309523D01*
X93792380Y-145404761D01*
X93792380Y-145595238D01*
X93840000Y-145690476D01*
X93887619Y-145738095D01*
X93982857Y-145785714D01*
X94030476Y-145785714D01*
X94125714Y-145738095D01*
X94173333Y-145690476D01*
X94220952Y-145595238D01*
X94220952Y-145404761D01*
X94268571Y-145309523D01*
X94316190Y-145261904D01*
X94411428Y-145214285D01*
X94601904Y-145214285D01*
X94697142Y-145261904D01*
X94744761Y-145309523D01*
X94792380Y-145404761D01*
X94792380Y-145595238D01*
X94744761Y-145690476D01*
X94697142Y-145738095D01*
X94601904Y-145785714D01*
X94411428Y-145785714D01*
X94316190Y-145738095D01*
X94268571Y-145690476D01*
X94220952Y-145595238D01*
X101697142Y-144733333D02*
X101744761Y-144685714D01*
X101792380Y-144542857D01*
X101792380Y-144447619D01*
X101744761Y-144304761D01*
X101649523Y-144209523D01*
X101554285Y-144161904D01*
X101363809Y-144114285D01*
X101220952Y-144114285D01*
X101030476Y-144161904D01*
X100935238Y-144209523D01*
X100840000Y-144304761D01*
X100792380Y-144447619D01*
X100792380Y-144542857D01*
X100840000Y-144685714D01*
X100887619Y-144733333D01*
X101792380Y-145209523D02*
X101792380Y-145400000D01*
X101744761Y-145495238D01*
X101697142Y-145542857D01*
X101554285Y-145638095D01*
X101363809Y-145685714D01*
X100982857Y-145685714D01*
X100887619Y-145638095D01*
X100840000Y-145590476D01*
X100792380Y-145495238D01*
X100792380Y-145304761D01*
X100840000Y-145209523D01*
X100887619Y-145161904D01*
X100982857Y-145114285D01*
X101220952Y-145114285D01*
X101316190Y-145161904D01*
X101363809Y-145209523D01*
X101411428Y-145304761D01*
X101411428Y-145495238D01*
X101363809Y-145590476D01*
X101316190Y-145638095D01*
X101220952Y-145685714D01*
X114707142Y-66547142D02*
X114754761Y-66499523D01*
X114802380Y-66356666D01*
X114802380Y-66261428D01*
X114754761Y-66118571D01*
X114659523Y-66023333D01*
X114564285Y-65975714D01*
X114373809Y-65928095D01*
X114230952Y-65928095D01*
X114040476Y-65975714D01*
X113945238Y-66023333D01*
X113850000Y-66118571D01*
X113802380Y-66261428D01*
X113802380Y-66356666D01*
X113850000Y-66499523D01*
X113897619Y-66547142D01*
X114802380Y-67499523D02*
X114802380Y-66928095D01*
X114802380Y-67213809D02*
X113802380Y-67213809D01*
X113945238Y-67118571D01*
X114040476Y-67023333D01*
X114088095Y-66928095D01*
X113802380Y-68118571D02*
X113802380Y-68213809D01*
X113850000Y-68309047D01*
X113897619Y-68356666D01*
X113992857Y-68404285D01*
X114183333Y-68451904D01*
X114421428Y-68451904D01*
X114611904Y-68404285D01*
X114707142Y-68356666D01*
X114754761Y-68309047D01*
X114802380Y-68213809D01*
X114802380Y-68118571D01*
X114754761Y-68023333D01*
X114707142Y-67975714D01*
X114611904Y-67928095D01*
X114421428Y-67880476D01*
X114183333Y-67880476D01*
X113992857Y-67928095D01*
X113897619Y-67975714D01*
X113850000Y-68023333D01*
X113802380Y-68118571D01*
X131297142Y-66547142D02*
X131344761Y-66499523D01*
X131392380Y-66356666D01*
X131392380Y-66261428D01*
X131344761Y-66118571D01*
X131249523Y-66023333D01*
X131154285Y-65975714D01*
X130963809Y-65928095D01*
X130820952Y-65928095D01*
X130630476Y-65975714D01*
X130535238Y-66023333D01*
X130440000Y-66118571D01*
X130392380Y-66261428D01*
X130392380Y-66356666D01*
X130440000Y-66499523D01*
X130487619Y-66547142D01*
X131392380Y-67499523D02*
X131392380Y-66928095D01*
X131392380Y-67213809D02*
X130392380Y-67213809D01*
X130535238Y-67118571D01*
X130630476Y-67023333D01*
X130678095Y-66928095D01*
X131392380Y-68451904D02*
X131392380Y-67880476D01*
X131392380Y-68166190D02*
X130392380Y-68166190D01*
X130535238Y-68070952D01*
X130630476Y-67975714D01*
X130678095Y-67880476D01*
X105467142Y-93602142D02*
X105514761Y-93554523D01*
X105562380Y-93411666D01*
X105562380Y-93316428D01*
X105514761Y-93173571D01*
X105419523Y-93078333D01*
X105324285Y-93030714D01*
X105133809Y-92983095D01*
X104990952Y-92983095D01*
X104800476Y-93030714D01*
X104705238Y-93078333D01*
X104610000Y-93173571D01*
X104562380Y-93316428D01*
X104562380Y-93411666D01*
X104610000Y-93554523D01*
X104657619Y-93602142D01*
X105562380Y-94554523D02*
X105562380Y-93983095D01*
X105562380Y-94268809D02*
X104562380Y-94268809D01*
X104705238Y-94173571D01*
X104800476Y-94078333D01*
X104848095Y-93983095D01*
X104895714Y-95411666D02*
X105562380Y-95411666D01*
X104514761Y-95173571D02*
X105229047Y-94935476D01*
X105229047Y-95554523D01*
X105467142Y-98577142D02*
X105514761Y-98529523D01*
X105562380Y-98386666D01*
X105562380Y-98291428D01*
X105514761Y-98148571D01*
X105419523Y-98053333D01*
X105324285Y-98005714D01*
X105133809Y-97958095D01*
X104990952Y-97958095D01*
X104800476Y-98005714D01*
X104705238Y-98053333D01*
X104610000Y-98148571D01*
X104562380Y-98291428D01*
X104562380Y-98386666D01*
X104610000Y-98529523D01*
X104657619Y-98577142D01*
X105562380Y-99529523D02*
X105562380Y-98958095D01*
X105562380Y-99243809D02*
X104562380Y-99243809D01*
X104705238Y-99148571D01*
X104800476Y-99053333D01*
X104848095Y-98958095D01*
X104562380Y-100434285D02*
X104562380Y-99958095D01*
X105038571Y-99910476D01*
X104990952Y-99958095D01*
X104943333Y-100053333D01*
X104943333Y-100291428D01*
X104990952Y-100386666D01*
X105038571Y-100434285D01*
X105133809Y-100481904D01*
X105371904Y-100481904D01*
X105467142Y-100434285D01*
X105514761Y-100386666D01*
X105562380Y-100291428D01*
X105562380Y-100053333D01*
X105514761Y-99958095D01*
X105467142Y-99910476D01*
X116612857Y-114017857D02*
X116565238Y-114065476D01*
X116517619Y-114208333D01*
X116517619Y-114303571D01*
X116565238Y-114446428D01*
X116660476Y-114541666D01*
X116755714Y-114589285D01*
X116946190Y-114636904D01*
X117089047Y-114636904D01*
X117279523Y-114589285D01*
X117374761Y-114541666D01*
X117470000Y-114446428D01*
X117517619Y-114303571D01*
X117517619Y-114208333D01*
X117470000Y-114065476D01*
X117422380Y-114017857D01*
X116517619Y-113065476D02*
X116517619Y-113636904D01*
X116517619Y-113351190D02*
X117517619Y-113351190D01*
X117374761Y-113446428D01*
X117279523Y-113541666D01*
X117231904Y-113636904D01*
X117517619Y-112208333D02*
X117517619Y-112398809D01*
X117470000Y-112494047D01*
X117422380Y-112541666D01*
X117279523Y-112636904D01*
X117089047Y-112684523D01*
X116708095Y-112684523D01*
X116612857Y-112636904D01*
X116565238Y-112589285D01*
X116517619Y-112494047D01*
X116517619Y-112303571D01*
X116565238Y-112208333D01*
X116612857Y-112160714D01*
X116708095Y-112113095D01*
X116946190Y-112113095D01*
X117041428Y-112160714D01*
X117089047Y-112208333D01*
X117136666Y-112303571D01*
X117136666Y-112494047D01*
X117089047Y-112589285D01*
X117041428Y-112636904D01*
X116946190Y-112684523D01*
X146187142Y-108957142D02*
X146234761Y-108909523D01*
X146282380Y-108766666D01*
X146282380Y-108671428D01*
X146234761Y-108528571D01*
X146139523Y-108433333D01*
X146044285Y-108385714D01*
X145853809Y-108338095D01*
X145710952Y-108338095D01*
X145520476Y-108385714D01*
X145425238Y-108433333D01*
X145330000Y-108528571D01*
X145282380Y-108671428D01*
X145282380Y-108766666D01*
X145330000Y-108909523D01*
X145377619Y-108957142D01*
X146282380Y-109909523D02*
X146282380Y-109338095D01*
X146282380Y-109623809D02*
X145282380Y-109623809D01*
X145425238Y-109528571D01*
X145520476Y-109433333D01*
X145568095Y-109338095D01*
X145282380Y-110242857D02*
X145282380Y-110909523D01*
X146282380Y-110480952D01*
X148157142Y-123307142D02*
X148204761Y-123259523D01*
X148252380Y-123116666D01*
X148252380Y-123021428D01*
X148204761Y-122878571D01*
X148109523Y-122783333D01*
X148014285Y-122735714D01*
X147823809Y-122688095D01*
X147680952Y-122688095D01*
X147490476Y-122735714D01*
X147395238Y-122783333D01*
X147300000Y-122878571D01*
X147252380Y-123021428D01*
X147252380Y-123116666D01*
X147300000Y-123259523D01*
X147347619Y-123307142D01*
X148252380Y-124259523D02*
X148252380Y-123688095D01*
X148252380Y-123973809D02*
X147252380Y-123973809D01*
X147395238Y-123878571D01*
X147490476Y-123783333D01*
X147538095Y-123688095D01*
X147680952Y-124830952D02*
X147633333Y-124735714D01*
X147585714Y-124688095D01*
X147490476Y-124640476D01*
X147442857Y-124640476D01*
X147347619Y-124688095D01*
X147300000Y-124735714D01*
X147252380Y-124830952D01*
X147252380Y-125021428D01*
X147300000Y-125116666D01*
X147347619Y-125164285D01*
X147442857Y-125211904D01*
X147490476Y-125211904D01*
X147585714Y-125164285D01*
X147633333Y-125116666D01*
X147680952Y-125021428D01*
X147680952Y-124830952D01*
X147728571Y-124735714D01*
X147776190Y-124688095D01*
X147871428Y-124640476D01*
X148061904Y-124640476D01*
X148157142Y-124688095D01*
X148204761Y-124735714D01*
X148252380Y-124830952D01*
X148252380Y-125021428D01*
X148204761Y-125116666D01*
X148157142Y-125164285D01*
X148061904Y-125211904D01*
X147871428Y-125211904D01*
X147776190Y-125164285D01*
X147728571Y-125116666D01*
X147680952Y-125021428D01*
X117337142Y-123712142D02*
X117384761Y-123664523D01*
X117432380Y-123521666D01*
X117432380Y-123426428D01*
X117384761Y-123283571D01*
X117289523Y-123188333D01*
X117194285Y-123140714D01*
X117003809Y-123093095D01*
X116860952Y-123093095D01*
X116670476Y-123140714D01*
X116575238Y-123188333D01*
X116480000Y-123283571D01*
X116432380Y-123426428D01*
X116432380Y-123521666D01*
X116480000Y-123664523D01*
X116527619Y-123712142D01*
X117432380Y-124664523D02*
X117432380Y-124093095D01*
X117432380Y-124378809D02*
X116432380Y-124378809D01*
X116575238Y-124283571D01*
X116670476Y-124188333D01*
X116718095Y-124093095D01*
X117432380Y-125140714D02*
X117432380Y-125331190D01*
X117384761Y-125426428D01*
X117337142Y-125474047D01*
X117194285Y-125569285D01*
X117003809Y-125616904D01*
X116622857Y-125616904D01*
X116527619Y-125569285D01*
X116480000Y-125521666D01*
X116432380Y-125426428D01*
X116432380Y-125235952D01*
X116480000Y-125140714D01*
X116527619Y-125093095D01*
X116622857Y-125045476D01*
X116860952Y-125045476D01*
X116956190Y-125093095D01*
X117003809Y-125140714D01*
X117051428Y-125235952D01*
X117051428Y-125426428D01*
X117003809Y-125521666D01*
X116956190Y-125569285D01*
X116860952Y-125616904D01*
X136322857Y-101967142D02*
X136370476Y-102014761D01*
X136513333Y-102062380D01*
X136608571Y-102062380D01*
X136751428Y-102014761D01*
X136846666Y-101919523D01*
X136894285Y-101824285D01*
X136941904Y-101633809D01*
X136941904Y-101490952D01*
X136894285Y-101300476D01*
X136846666Y-101205238D01*
X136751428Y-101110000D01*
X136608571Y-101062380D01*
X136513333Y-101062380D01*
X136370476Y-101110000D01*
X136322857Y-101157619D01*
X135941904Y-101157619D02*
X135894285Y-101110000D01*
X135799047Y-101062380D01*
X135560952Y-101062380D01*
X135465714Y-101110000D01*
X135418095Y-101157619D01*
X135370476Y-101252857D01*
X135370476Y-101348095D01*
X135418095Y-101490952D01*
X135989523Y-102062380D01*
X135370476Y-102062380D01*
X134751428Y-101062380D02*
X134656190Y-101062380D01*
X134560952Y-101110000D01*
X134513333Y-101157619D01*
X134465714Y-101252857D01*
X134418095Y-101443333D01*
X134418095Y-101681428D01*
X134465714Y-101871904D01*
X134513333Y-101967142D01*
X134560952Y-102014761D01*
X134656190Y-102062380D01*
X134751428Y-102062380D01*
X134846666Y-102014761D01*
X134894285Y-101967142D01*
X134941904Y-101871904D01*
X134989523Y-101681428D01*
X134989523Y-101443333D01*
X134941904Y-101252857D01*
X134894285Y-101157619D01*
X134846666Y-101110000D01*
X134751428Y-101062380D01*
X112257142Y-98077142D02*
X112304761Y-98029523D01*
X112352380Y-97886666D01*
X112352380Y-97791428D01*
X112304761Y-97648571D01*
X112209523Y-97553333D01*
X112114285Y-97505714D01*
X111923809Y-97458095D01*
X111780952Y-97458095D01*
X111590476Y-97505714D01*
X111495238Y-97553333D01*
X111400000Y-97648571D01*
X111352380Y-97791428D01*
X111352380Y-97886666D01*
X111400000Y-98029523D01*
X111447619Y-98077142D01*
X111447619Y-98458095D02*
X111400000Y-98505714D01*
X111352380Y-98600952D01*
X111352380Y-98839047D01*
X111400000Y-98934285D01*
X111447619Y-98981904D01*
X111542857Y-99029523D01*
X111638095Y-99029523D01*
X111780952Y-98981904D01*
X112352380Y-98410476D01*
X112352380Y-99029523D01*
X112352380Y-99981904D02*
X112352380Y-99410476D01*
X112352380Y-99696190D02*
X111352380Y-99696190D01*
X111495238Y-99600952D01*
X111590476Y-99505714D01*
X111638095Y-99410476D01*
X129127142Y-98077142D02*
X129174761Y-98029523D01*
X129222380Y-97886666D01*
X129222380Y-97791428D01*
X129174761Y-97648571D01*
X129079523Y-97553333D01*
X128984285Y-97505714D01*
X128793809Y-97458095D01*
X128650952Y-97458095D01*
X128460476Y-97505714D01*
X128365238Y-97553333D01*
X128270000Y-97648571D01*
X128222380Y-97791428D01*
X128222380Y-97886666D01*
X128270000Y-98029523D01*
X128317619Y-98077142D01*
X128317619Y-98458095D02*
X128270000Y-98505714D01*
X128222380Y-98600952D01*
X128222380Y-98839047D01*
X128270000Y-98934285D01*
X128317619Y-98981904D01*
X128412857Y-99029523D01*
X128508095Y-99029523D01*
X128650952Y-98981904D01*
X129222380Y-98410476D01*
X129222380Y-99029523D01*
X128317619Y-99410476D02*
X128270000Y-99458095D01*
X128222380Y-99553333D01*
X128222380Y-99791428D01*
X128270000Y-99886666D01*
X128317619Y-99934285D01*
X128412857Y-99981904D01*
X128508095Y-99981904D01*
X128650952Y-99934285D01*
X129222380Y-99362857D01*
X129222380Y-99981904D01*
X126532380Y-87241904D02*
X125532380Y-87241904D01*
X125532380Y-87480000D01*
X125580000Y-87622857D01*
X125675238Y-87718095D01*
X125770476Y-87765714D01*
X125960952Y-87813333D01*
X126103809Y-87813333D01*
X126294285Y-87765714D01*
X126389523Y-87718095D01*
X126484761Y-87622857D01*
X126532380Y-87480000D01*
X126532380Y-87241904D01*
X126532380Y-88765714D02*
X126532380Y-88194285D01*
X126532380Y-88480000D02*
X125532380Y-88480000D01*
X125675238Y-88384761D01*
X125770476Y-88289523D01*
X125818095Y-88194285D01*
X178328095Y-104802380D02*
X178328095Y-103802380D01*
X178090000Y-103802380D01*
X177947142Y-103850000D01*
X177851904Y-103945238D01*
X177804285Y-104040476D01*
X177756666Y-104230952D01*
X177756666Y-104373809D01*
X177804285Y-104564285D01*
X177851904Y-104659523D01*
X177947142Y-104754761D01*
X178090000Y-104802380D01*
X178328095Y-104802380D01*
X176851904Y-103802380D02*
X177328095Y-103802380D01*
X177375714Y-104278571D01*
X177328095Y-104230952D01*
X177232857Y-104183333D01*
X176994761Y-104183333D01*
X176899523Y-104230952D01*
X176851904Y-104278571D01*
X176804285Y-104373809D01*
X176804285Y-104611904D01*
X176851904Y-104707142D01*
X176899523Y-104754761D01*
X176994761Y-104802380D01*
X177232857Y-104802380D01*
X177328095Y-104754761D01*
X177375714Y-104707142D01*
X123383095Y-66947380D02*
X123383095Y-65947380D01*
X123145000Y-65947380D01*
X123002142Y-65995000D01*
X122906904Y-66090238D01*
X122859285Y-66185476D01*
X122811666Y-66375952D01*
X122811666Y-66518809D01*
X122859285Y-66709285D01*
X122906904Y-66804523D01*
X123002142Y-66899761D01*
X123145000Y-66947380D01*
X123383095Y-66947380D01*
X122335476Y-66947380D02*
X122145000Y-66947380D01*
X122049761Y-66899761D01*
X122002142Y-66852142D01*
X121906904Y-66709285D01*
X121859285Y-66518809D01*
X121859285Y-66137857D01*
X121906904Y-66042619D01*
X121954523Y-65995000D01*
X122049761Y-65947380D01*
X122240238Y-65947380D01*
X122335476Y-65995000D01*
X122383095Y-66042619D01*
X122430714Y-66137857D01*
X122430714Y-66375952D01*
X122383095Y-66471190D01*
X122335476Y-66518809D01*
X122240238Y-66566428D01*
X122049761Y-66566428D01*
X121954523Y-66518809D01*
X121906904Y-66471190D01*
X121859285Y-66375952D01*
X109474285Y-102232380D02*
X109474285Y-101232380D01*
X109236190Y-101232380D01*
X109093333Y-101280000D01*
X108998095Y-101375238D01*
X108950476Y-101470476D01*
X108902857Y-101660952D01*
X108902857Y-101803809D01*
X108950476Y-101994285D01*
X108998095Y-102089523D01*
X109093333Y-102184761D01*
X109236190Y-102232380D01*
X109474285Y-102232380D01*
X107950476Y-102232380D02*
X108521904Y-102232380D01*
X108236190Y-102232380D02*
X108236190Y-101232380D01*
X108331428Y-101375238D01*
X108426666Y-101470476D01*
X108521904Y-101518095D01*
X107093333Y-101232380D02*
X107283809Y-101232380D01*
X107379047Y-101280000D01*
X107426666Y-101327619D01*
X107521904Y-101470476D01*
X107569523Y-101660952D01*
X107569523Y-102041904D01*
X107521904Y-102137142D01*
X107474285Y-102184761D01*
X107379047Y-102232380D01*
X107188571Y-102232380D01*
X107093333Y-102184761D01*
X107045714Y-102137142D01*
X106998095Y-102041904D01*
X106998095Y-101803809D01*
X107045714Y-101708571D01*
X107093333Y-101660952D01*
X107188571Y-101613333D01*
X107379047Y-101613333D01*
X107474285Y-101660952D01*
X107521904Y-101708571D01*
X107569523Y-101803809D01*
X118922380Y-143445714D02*
X117922380Y-143445714D01*
X117922380Y-143683809D01*
X117970000Y-143826666D01*
X118065238Y-143921904D01*
X118160476Y-143969523D01*
X118350952Y-144017142D01*
X118493809Y-144017142D01*
X118684285Y-143969523D01*
X118779523Y-143921904D01*
X118874761Y-143826666D01*
X118922380Y-143683809D01*
X118922380Y-143445714D01*
X118017619Y-144398095D02*
X117970000Y-144445714D01*
X117922380Y-144540952D01*
X117922380Y-144779047D01*
X117970000Y-144874285D01*
X118017619Y-144921904D01*
X118112857Y-144969523D01*
X118208095Y-144969523D01*
X118350952Y-144921904D01*
X118922380Y-144350476D01*
X118922380Y-144969523D01*
X118922380Y-145921904D02*
X118922380Y-145350476D01*
X118922380Y-145636190D02*
X117922380Y-145636190D01*
X118065238Y-145540952D01*
X118160476Y-145445714D01*
X118208095Y-145350476D01*
X168797619Y-74104761D02*
X168750000Y-74009523D01*
X168654761Y-73914285D01*
X168511904Y-73771428D01*
X168464285Y-73676190D01*
X168464285Y-73580952D01*
X168702380Y-73628571D02*
X168654761Y-73533333D01*
X168559523Y-73438095D01*
X168369047Y-73390476D01*
X168035714Y-73390476D01*
X167845238Y-73438095D01*
X167750000Y-73533333D01*
X167702380Y-73628571D01*
X167702380Y-73819047D01*
X167750000Y-73914285D01*
X167845238Y-74009523D01*
X168035714Y-74057142D01*
X168369047Y-74057142D01*
X168559523Y-74009523D01*
X168654761Y-73914285D01*
X168702380Y-73819047D01*
X168702380Y-73628571D01*
X168702380Y-75009523D02*
X168702380Y-74438095D01*
X168702380Y-74723809D02*
X167702380Y-74723809D01*
X167845238Y-74628571D01*
X167940476Y-74533333D01*
X167988095Y-74438095D01*
X155420238Y-98272619D02*
X155515476Y-98225000D01*
X155610714Y-98129761D01*
X155753571Y-97986904D01*
X155848809Y-97939285D01*
X155944047Y-97939285D01*
X155896428Y-98177380D02*
X155991666Y-98129761D01*
X156086904Y-98034523D01*
X156134523Y-97844047D01*
X156134523Y-97510714D01*
X156086904Y-97320238D01*
X155991666Y-97225000D01*
X155896428Y-97177380D01*
X155705952Y-97177380D01*
X155610714Y-97225000D01*
X155515476Y-97320238D01*
X155467857Y-97510714D01*
X155467857Y-97844047D01*
X155515476Y-98034523D01*
X155610714Y-98129761D01*
X155705952Y-98177380D01*
X155896428Y-98177380D01*
X155086904Y-97272619D02*
X155039285Y-97225000D01*
X154944047Y-97177380D01*
X154705952Y-97177380D01*
X154610714Y-97225000D01*
X154563095Y-97272619D01*
X154515476Y-97367857D01*
X154515476Y-97463095D01*
X154563095Y-97605952D01*
X155134523Y-98177380D01*
X154515476Y-98177380D01*
X100406666Y-85102380D02*
X100740000Y-84626190D01*
X100978095Y-85102380D02*
X100978095Y-84102380D01*
X100597142Y-84102380D01*
X100501904Y-84150000D01*
X100454285Y-84197619D01*
X100406666Y-84292857D01*
X100406666Y-84435714D01*
X100454285Y-84530952D01*
X100501904Y-84578571D01*
X100597142Y-84626190D01*
X100978095Y-84626190D01*
X99454285Y-85102380D02*
X100025714Y-85102380D01*
X99740000Y-85102380D02*
X99740000Y-84102380D01*
X99835238Y-84245238D01*
X99930476Y-84340476D01*
X100025714Y-84388095D01*
X100406666Y-81465712D02*
X100740000Y-80989522D01*
X100978095Y-81465712D02*
X100978095Y-80465712D01*
X100597142Y-80465712D01*
X100501904Y-80513332D01*
X100454285Y-80560951D01*
X100406666Y-80656189D01*
X100406666Y-80799046D01*
X100454285Y-80894284D01*
X100501904Y-80941903D01*
X100597142Y-80989522D01*
X100978095Y-80989522D01*
X100025714Y-80560951D02*
X99978095Y-80513332D01*
X99882857Y-80465712D01*
X99644761Y-80465712D01*
X99549523Y-80513332D01*
X99501904Y-80560951D01*
X99454285Y-80656189D01*
X99454285Y-80751427D01*
X99501904Y-80894284D01*
X100073333Y-81465712D01*
X99454285Y-81465712D01*
X104782380Y-70378333D02*
X104306190Y-70045000D01*
X104782380Y-69806904D02*
X103782380Y-69806904D01*
X103782380Y-70187857D01*
X103830000Y-70283095D01*
X103877619Y-70330714D01*
X103972857Y-70378333D01*
X104115714Y-70378333D01*
X104210952Y-70330714D01*
X104258571Y-70283095D01*
X104306190Y-70187857D01*
X104306190Y-69806904D01*
X103782380Y-70711666D02*
X103782380Y-71330714D01*
X104163333Y-70997380D01*
X104163333Y-71140238D01*
X104210952Y-71235476D01*
X104258571Y-71283095D01*
X104353809Y-71330714D01*
X104591904Y-71330714D01*
X104687142Y-71283095D01*
X104734761Y-71235476D01*
X104782380Y-71140238D01*
X104782380Y-70854523D01*
X104734761Y-70759285D01*
X104687142Y-70711666D01*
X101132380Y-70378333D02*
X100656190Y-70045000D01*
X101132380Y-69806904D02*
X100132380Y-69806904D01*
X100132380Y-70187857D01*
X100180000Y-70283095D01*
X100227619Y-70330714D01*
X100322857Y-70378333D01*
X100465714Y-70378333D01*
X100560952Y-70330714D01*
X100608571Y-70283095D01*
X100656190Y-70187857D01*
X100656190Y-69806904D01*
X100465714Y-71235476D02*
X101132380Y-71235476D01*
X100084761Y-70997380D02*
X100799047Y-70759285D01*
X100799047Y-71378333D01*
X146846666Y-100262380D02*
X147180000Y-99786190D01*
X147418095Y-100262380D02*
X147418095Y-99262380D01*
X147037142Y-99262380D01*
X146941904Y-99310000D01*
X146894285Y-99357619D01*
X146846666Y-99452857D01*
X146846666Y-99595714D01*
X146894285Y-99690952D01*
X146941904Y-99738571D01*
X147037142Y-99786190D01*
X147418095Y-99786190D01*
X145941904Y-99262380D02*
X146418095Y-99262380D01*
X146465714Y-99738571D01*
X146418095Y-99690952D01*
X146322857Y-99643333D01*
X146084761Y-99643333D01*
X145989523Y-99690952D01*
X145941904Y-99738571D01*
X145894285Y-99833809D01*
X145894285Y-100071904D01*
X145941904Y-100167142D01*
X145989523Y-100214761D01*
X146084761Y-100262380D01*
X146322857Y-100262380D01*
X146418095Y-100214761D01*
X146465714Y-100167142D01*
X124294380Y-80963333D02*
X123818190Y-80630000D01*
X124294380Y-80391904D02*
X123294380Y-80391904D01*
X123294380Y-80772857D01*
X123342000Y-80868095D01*
X123389619Y-80915714D01*
X123484857Y-80963333D01*
X123627714Y-80963333D01*
X123722952Y-80915714D01*
X123770571Y-80868095D01*
X123818190Y-80772857D01*
X123818190Y-80391904D01*
X123294380Y-81820476D02*
X123294380Y-81630000D01*
X123342000Y-81534761D01*
X123389619Y-81487142D01*
X123532476Y-81391904D01*
X123722952Y-81344285D01*
X124103904Y-81344285D01*
X124199142Y-81391904D01*
X124246761Y-81439523D01*
X124294380Y-81534761D01*
X124294380Y-81725238D01*
X124246761Y-81820476D01*
X124199142Y-81868095D01*
X124103904Y-81915714D01*
X123865809Y-81915714D01*
X123770571Y-81868095D01*
X123722952Y-81820476D01*
X123675333Y-81725238D01*
X123675333Y-81534761D01*
X123722952Y-81439523D01*
X123770571Y-81391904D01*
X123865809Y-81344285D01*
X100406666Y-77829046D02*
X100740000Y-77352856D01*
X100978095Y-77829046D02*
X100978095Y-76829046D01*
X100597142Y-76829046D01*
X100501904Y-76876666D01*
X100454285Y-76924285D01*
X100406666Y-77019523D01*
X100406666Y-77162380D01*
X100454285Y-77257618D01*
X100501904Y-77305237D01*
X100597142Y-77352856D01*
X100978095Y-77352856D01*
X100073333Y-76829046D02*
X99406666Y-76829046D01*
X99835238Y-77829046D01*
X97482380Y-70378333D02*
X97006190Y-70045000D01*
X97482380Y-69806904D02*
X96482380Y-69806904D01*
X96482380Y-70187857D01*
X96530000Y-70283095D01*
X96577619Y-70330714D01*
X96672857Y-70378333D01*
X96815714Y-70378333D01*
X96910952Y-70330714D01*
X96958571Y-70283095D01*
X97006190Y-70187857D01*
X97006190Y-69806904D01*
X96910952Y-70949761D02*
X96863333Y-70854523D01*
X96815714Y-70806904D01*
X96720476Y-70759285D01*
X96672857Y-70759285D01*
X96577619Y-70806904D01*
X96530000Y-70854523D01*
X96482380Y-70949761D01*
X96482380Y-71140238D01*
X96530000Y-71235476D01*
X96577619Y-71283095D01*
X96672857Y-71330714D01*
X96720476Y-71330714D01*
X96815714Y-71283095D01*
X96863333Y-71235476D01*
X96910952Y-71140238D01*
X96910952Y-70949761D01*
X96958571Y-70854523D01*
X97006190Y-70806904D01*
X97101428Y-70759285D01*
X97291904Y-70759285D01*
X97387142Y-70806904D01*
X97434761Y-70854523D01*
X97482380Y-70949761D01*
X97482380Y-71140238D01*
X97434761Y-71235476D01*
X97387142Y-71283095D01*
X97291904Y-71330714D01*
X97101428Y-71330714D01*
X97006190Y-71283095D01*
X96958571Y-71235476D01*
X96910952Y-71140238D01*
X104012380Y-88113333D02*
X103536190Y-87780000D01*
X104012380Y-87541904D02*
X103012380Y-87541904D01*
X103012380Y-87922857D01*
X103060000Y-88018095D01*
X103107619Y-88065714D01*
X103202857Y-88113333D01*
X103345714Y-88113333D01*
X103440952Y-88065714D01*
X103488571Y-88018095D01*
X103536190Y-87922857D01*
X103536190Y-87541904D01*
X104012380Y-88589523D02*
X104012380Y-88780000D01*
X103964761Y-88875238D01*
X103917142Y-88922857D01*
X103774285Y-89018095D01*
X103583809Y-89065714D01*
X103202857Y-89065714D01*
X103107619Y-89018095D01*
X103060000Y-88970476D01*
X103012380Y-88875238D01*
X103012380Y-88684761D01*
X103060000Y-88589523D01*
X103107619Y-88541904D01*
X103202857Y-88494285D01*
X103440952Y-88494285D01*
X103536190Y-88541904D01*
X103583809Y-88589523D01*
X103631428Y-88684761D01*
X103631428Y-88875238D01*
X103583809Y-88970476D01*
X103536190Y-89018095D01*
X103440952Y-89065714D01*
X93832380Y-69902142D02*
X93356190Y-69568809D01*
X93832380Y-69330714D02*
X92832380Y-69330714D01*
X92832380Y-69711666D01*
X92880000Y-69806904D01*
X92927619Y-69854523D01*
X93022857Y-69902142D01*
X93165714Y-69902142D01*
X93260952Y-69854523D01*
X93308571Y-69806904D01*
X93356190Y-69711666D01*
X93356190Y-69330714D01*
X93832380Y-70854523D02*
X93832380Y-70283095D01*
X93832380Y-70568809D02*
X92832380Y-70568809D01*
X92975238Y-70473571D01*
X93070476Y-70378333D01*
X93118095Y-70283095D01*
X92832380Y-71473571D02*
X92832380Y-71568809D01*
X92880000Y-71664047D01*
X92927619Y-71711666D01*
X93022857Y-71759285D01*
X93213333Y-71806904D01*
X93451428Y-71806904D01*
X93641904Y-71759285D01*
X93737142Y-71711666D01*
X93784761Y-71664047D01*
X93832380Y-71568809D01*
X93832380Y-71473571D01*
X93784761Y-71378333D01*
X93737142Y-71330714D01*
X93641904Y-71283095D01*
X93451428Y-71235476D01*
X93213333Y-71235476D01*
X93022857Y-71283095D01*
X92927619Y-71330714D01*
X92880000Y-71378333D01*
X92832380Y-71473571D01*
X100882857Y-74192380D02*
X101216190Y-73716190D01*
X101454285Y-74192380D02*
X101454285Y-73192380D01*
X101073333Y-73192380D01*
X100978095Y-73240000D01*
X100930476Y-73287619D01*
X100882857Y-73382857D01*
X100882857Y-73525714D01*
X100930476Y-73620952D01*
X100978095Y-73668571D01*
X101073333Y-73716190D01*
X101454285Y-73716190D01*
X99930476Y-74192380D02*
X100501904Y-74192380D01*
X100216190Y-74192380D02*
X100216190Y-73192380D01*
X100311428Y-73335238D01*
X100406666Y-73430476D01*
X100501904Y-73478095D01*
X98978095Y-74192380D02*
X99549523Y-74192380D01*
X99263809Y-74192380D02*
X99263809Y-73192380D01*
X99359047Y-73335238D01*
X99454285Y-73430476D01*
X99549523Y-73478095D01*
X88097857Y-134672380D02*
X88431190Y-134196190D01*
X88669285Y-134672380D02*
X88669285Y-133672380D01*
X88288333Y-133672380D01*
X88193095Y-133720000D01*
X88145476Y-133767619D01*
X88097857Y-133862857D01*
X88097857Y-134005714D01*
X88145476Y-134100952D01*
X88193095Y-134148571D01*
X88288333Y-134196190D01*
X88669285Y-134196190D01*
X87145476Y-134672380D02*
X87716904Y-134672380D01*
X87431190Y-134672380D02*
X87431190Y-133672380D01*
X87526428Y-133815238D01*
X87621666Y-133910476D01*
X87716904Y-133958095D01*
X86812142Y-133672380D02*
X86193095Y-133672380D01*
X86526428Y-134053333D01*
X86383571Y-134053333D01*
X86288333Y-134100952D01*
X86240714Y-134148571D01*
X86193095Y-134243809D01*
X86193095Y-134481904D01*
X86240714Y-134577142D01*
X86288333Y-134624761D01*
X86383571Y-134672380D01*
X86669285Y-134672380D01*
X86764523Y-134624761D01*
X86812142Y-134577142D01*
X88097857Y-131572380D02*
X88431190Y-131096190D01*
X88669285Y-131572380D02*
X88669285Y-130572380D01*
X88288333Y-130572380D01*
X88193095Y-130620000D01*
X88145476Y-130667619D01*
X88097857Y-130762857D01*
X88097857Y-130905714D01*
X88145476Y-131000952D01*
X88193095Y-131048571D01*
X88288333Y-131096190D01*
X88669285Y-131096190D01*
X87145476Y-131572380D02*
X87716904Y-131572380D01*
X87431190Y-131572380D02*
X87431190Y-130572380D01*
X87526428Y-130715238D01*
X87621666Y-130810476D01*
X87716904Y-130858095D01*
X86288333Y-130905714D02*
X86288333Y-131572380D01*
X86526428Y-130524761D02*
X86764523Y-131239047D01*
X86145476Y-131239047D01*
X112507857Y-74839522D02*
X112841190Y-74363332D01*
X113079285Y-74839522D02*
X113079285Y-73839522D01*
X112698333Y-73839522D01*
X112603095Y-73887142D01*
X112555476Y-73934761D01*
X112507857Y-74029999D01*
X112507857Y-74172856D01*
X112555476Y-74268094D01*
X112603095Y-74315713D01*
X112698333Y-74363332D01*
X113079285Y-74363332D01*
X111555476Y-74839522D02*
X112126904Y-74839522D01*
X111841190Y-74839522D02*
X111841190Y-73839522D01*
X111936428Y-73982380D01*
X112031666Y-74077618D01*
X112126904Y-74125237D01*
X110650714Y-73839522D02*
X111126904Y-73839522D01*
X111174523Y-74315713D01*
X111126904Y-74268094D01*
X111031666Y-74220475D01*
X110793571Y-74220475D01*
X110698333Y-74268094D01*
X110650714Y-74315713D01*
X110603095Y-74410951D01*
X110603095Y-74649046D01*
X110650714Y-74744284D01*
X110698333Y-74791903D01*
X110793571Y-74839522D01*
X111031666Y-74839522D01*
X111126904Y-74791903D01*
X111174523Y-74744284D01*
X112507857Y-77953806D02*
X112841190Y-77477616D01*
X113079285Y-77953806D02*
X113079285Y-76953806D01*
X112698333Y-76953806D01*
X112603095Y-77001426D01*
X112555476Y-77049045D01*
X112507857Y-77144283D01*
X112507857Y-77287140D01*
X112555476Y-77382378D01*
X112603095Y-77429997D01*
X112698333Y-77477616D01*
X113079285Y-77477616D01*
X111555476Y-77953806D02*
X112126904Y-77953806D01*
X111841190Y-77953806D02*
X111841190Y-76953806D01*
X111936428Y-77096664D01*
X112031666Y-77191902D01*
X112126904Y-77239521D01*
X110698333Y-76953806D02*
X110888809Y-76953806D01*
X110984047Y-77001426D01*
X111031666Y-77049045D01*
X111126904Y-77191902D01*
X111174523Y-77382378D01*
X111174523Y-77763330D01*
X111126904Y-77858568D01*
X111079285Y-77906187D01*
X110984047Y-77953806D01*
X110793571Y-77953806D01*
X110698333Y-77906187D01*
X110650714Y-77858568D01*
X110603095Y-77763330D01*
X110603095Y-77525235D01*
X110650714Y-77429997D01*
X110698333Y-77382378D01*
X110793571Y-77334759D01*
X110984047Y-77334759D01*
X111079285Y-77382378D01*
X111126904Y-77429997D01*
X111174523Y-77525235D01*
X112507857Y-81068090D02*
X112841190Y-80591900D01*
X113079285Y-81068090D02*
X113079285Y-80068090D01*
X112698333Y-80068090D01*
X112603095Y-80115710D01*
X112555476Y-80163329D01*
X112507857Y-80258567D01*
X112507857Y-80401424D01*
X112555476Y-80496662D01*
X112603095Y-80544281D01*
X112698333Y-80591900D01*
X113079285Y-80591900D01*
X111555476Y-81068090D02*
X112126904Y-81068090D01*
X111841190Y-81068090D02*
X111841190Y-80068090D01*
X111936428Y-80210948D01*
X112031666Y-80306186D01*
X112126904Y-80353805D01*
X111222142Y-80068090D02*
X110555476Y-80068090D01*
X110984047Y-81068090D01*
X130959880Y-70697142D02*
X130483690Y-70363809D01*
X130959880Y-70125714D02*
X129959880Y-70125714D01*
X129959880Y-70506666D01*
X130007500Y-70601904D01*
X130055119Y-70649523D01*
X130150357Y-70697142D01*
X130293214Y-70697142D01*
X130388452Y-70649523D01*
X130436071Y-70601904D01*
X130483690Y-70506666D01*
X130483690Y-70125714D01*
X130959880Y-71649523D02*
X130959880Y-71078095D01*
X130959880Y-71363809D02*
X129959880Y-71363809D01*
X130102738Y-71268571D01*
X130197976Y-71173333D01*
X130245595Y-71078095D01*
X130959880Y-72125714D02*
X130959880Y-72316190D01*
X130912261Y-72411428D01*
X130864642Y-72459047D01*
X130721785Y-72554285D01*
X130531309Y-72601904D01*
X130150357Y-72601904D01*
X130055119Y-72554285D01*
X130007500Y-72506666D01*
X129959880Y-72411428D01*
X129959880Y-72220952D01*
X130007500Y-72125714D01*
X130055119Y-72078095D01*
X130150357Y-72030476D01*
X130388452Y-72030476D01*
X130483690Y-72078095D01*
X130531309Y-72125714D01*
X130578928Y-72220952D01*
X130578928Y-72411428D01*
X130531309Y-72506666D01*
X130483690Y-72554285D01*
X130388452Y-72601904D01*
X112507857Y-84182374D02*
X112841190Y-83706184D01*
X113079285Y-84182374D02*
X113079285Y-83182374D01*
X112698333Y-83182374D01*
X112603095Y-83229994D01*
X112555476Y-83277613D01*
X112507857Y-83372851D01*
X112507857Y-83515708D01*
X112555476Y-83610946D01*
X112603095Y-83658565D01*
X112698333Y-83706184D01*
X113079285Y-83706184D01*
X112126904Y-83277613D02*
X112079285Y-83229994D01*
X111984047Y-83182374D01*
X111745952Y-83182374D01*
X111650714Y-83229994D01*
X111603095Y-83277613D01*
X111555476Y-83372851D01*
X111555476Y-83468089D01*
X111603095Y-83610946D01*
X112174523Y-84182374D01*
X111555476Y-84182374D01*
X110936428Y-83182374D02*
X110841190Y-83182374D01*
X110745952Y-83229994D01*
X110698333Y-83277613D01*
X110650714Y-83372851D01*
X110603095Y-83563327D01*
X110603095Y-83801422D01*
X110650714Y-83991898D01*
X110698333Y-84087136D01*
X110745952Y-84134755D01*
X110841190Y-84182374D01*
X110936428Y-84182374D01*
X111031666Y-84134755D01*
X111079285Y-84087136D01*
X111126904Y-83991898D01*
X111174523Y-83801422D01*
X111174523Y-83563327D01*
X111126904Y-83372851D01*
X111079285Y-83277613D01*
X111031666Y-83229994D01*
X110936428Y-83182374D01*
X146162380Y-134212143D02*
X145686190Y-133878810D01*
X146162380Y-133640715D02*
X145162380Y-133640715D01*
X145162380Y-134021667D01*
X145210000Y-134116905D01*
X145257619Y-134164524D01*
X145352857Y-134212143D01*
X145495714Y-134212143D01*
X145590952Y-134164524D01*
X145638571Y-134116905D01*
X145686190Y-134021667D01*
X145686190Y-133640715D01*
X145257619Y-134593096D02*
X145210000Y-134640715D01*
X145162380Y-134735953D01*
X145162380Y-134974048D01*
X145210000Y-135069286D01*
X145257619Y-135116905D01*
X145352857Y-135164524D01*
X145448095Y-135164524D01*
X145590952Y-135116905D01*
X146162380Y-134545477D01*
X146162380Y-135164524D01*
X146162380Y-136116905D02*
X146162380Y-135545477D01*
X146162380Y-135831191D02*
X145162380Y-135831191D01*
X145305238Y-135735953D01*
X145400476Y-135640715D01*
X145448095Y-135545477D01*
X134472380Y-70697142D02*
X133996190Y-70363809D01*
X134472380Y-70125714D02*
X133472380Y-70125714D01*
X133472380Y-70506666D01*
X133520000Y-70601904D01*
X133567619Y-70649523D01*
X133662857Y-70697142D01*
X133805714Y-70697142D01*
X133900952Y-70649523D01*
X133948571Y-70601904D01*
X133996190Y-70506666D01*
X133996190Y-70125714D01*
X133567619Y-71078095D02*
X133520000Y-71125714D01*
X133472380Y-71220952D01*
X133472380Y-71459047D01*
X133520000Y-71554285D01*
X133567619Y-71601904D01*
X133662857Y-71649523D01*
X133758095Y-71649523D01*
X133900952Y-71601904D01*
X134472380Y-71030476D01*
X134472380Y-71649523D01*
X133567619Y-72030476D02*
X133520000Y-72078095D01*
X133472380Y-72173333D01*
X133472380Y-72411428D01*
X133520000Y-72506666D01*
X133567619Y-72554285D01*
X133662857Y-72601904D01*
X133758095Y-72601904D01*
X133900952Y-72554285D01*
X134472380Y-71982857D01*
X134472380Y-72601904D01*
X149307379Y-134212143D02*
X148831189Y-133878810D01*
X149307379Y-133640715D02*
X148307379Y-133640715D01*
X148307379Y-134021667D01*
X148354999Y-134116905D01*
X148402618Y-134164524D01*
X148497856Y-134212143D01*
X148640713Y-134212143D01*
X148735951Y-134164524D01*
X148783570Y-134116905D01*
X148831189Y-134021667D01*
X148831189Y-133640715D01*
X148402618Y-134593096D02*
X148354999Y-134640715D01*
X148307379Y-134735953D01*
X148307379Y-134974048D01*
X148354999Y-135069286D01*
X148402618Y-135116905D01*
X148497856Y-135164524D01*
X148593094Y-135164524D01*
X148735951Y-135116905D01*
X149307379Y-134545477D01*
X149307379Y-135164524D01*
X149307379Y-135640715D02*
X149307379Y-135831191D01*
X149259760Y-135926429D01*
X149212141Y-135974048D01*
X149069284Y-136069286D01*
X148878808Y-136116905D01*
X148497856Y-136116905D01*
X148402618Y-136069286D01*
X148354999Y-136021667D01*
X148307379Y-135926429D01*
X148307379Y-135735953D01*
X148354999Y-135640715D01*
X148402618Y-135593096D01*
X148497856Y-135545477D01*
X148735951Y-135545477D01*
X148831189Y-135593096D01*
X148878808Y-135640715D01*
X148926427Y-135735953D01*
X148926427Y-135926429D01*
X148878808Y-136021667D01*
X148831189Y-136069286D01*
X148735951Y-136116905D01*
X115234880Y-70697142D02*
X114758690Y-70363809D01*
X115234880Y-70125714D02*
X114234880Y-70125714D01*
X114234880Y-70506666D01*
X114282500Y-70601904D01*
X114330119Y-70649523D01*
X114425357Y-70697142D01*
X114568214Y-70697142D01*
X114663452Y-70649523D01*
X114711071Y-70601904D01*
X114758690Y-70506666D01*
X114758690Y-70125714D01*
X114234880Y-71030476D02*
X114234880Y-71649523D01*
X114615833Y-71316190D01*
X114615833Y-71459047D01*
X114663452Y-71554285D01*
X114711071Y-71601904D01*
X114806309Y-71649523D01*
X115044404Y-71649523D01*
X115139642Y-71601904D01*
X115187261Y-71554285D01*
X115234880Y-71459047D01*
X115234880Y-71173333D01*
X115187261Y-71078095D01*
X115139642Y-71030476D01*
X114234880Y-72268571D02*
X114234880Y-72363809D01*
X114282500Y-72459047D01*
X114330119Y-72506666D01*
X114425357Y-72554285D01*
X114615833Y-72601904D01*
X114853928Y-72601904D01*
X115044404Y-72554285D01*
X115139642Y-72506666D01*
X115187261Y-72459047D01*
X115234880Y-72363809D01*
X115234880Y-72268571D01*
X115187261Y-72173333D01*
X115139642Y-72125714D01*
X115044404Y-72078095D01*
X114853928Y-72030476D01*
X114615833Y-72030476D01*
X114425357Y-72078095D01*
X114330119Y-72125714D01*
X114282500Y-72173333D01*
X114234880Y-72268571D01*
X111402380Y-70747142D02*
X110926190Y-70413809D01*
X111402380Y-70175714D02*
X110402380Y-70175714D01*
X110402380Y-70556666D01*
X110450000Y-70651904D01*
X110497619Y-70699523D01*
X110592857Y-70747142D01*
X110735714Y-70747142D01*
X110830952Y-70699523D01*
X110878571Y-70651904D01*
X110926190Y-70556666D01*
X110926190Y-70175714D01*
X110402380Y-71080476D02*
X110402380Y-71699523D01*
X110783333Y-71366190D01*
X110783333Y-71509047D01*
X110830952Y-71604285D01*
X110878571Y-71651904D01*
X110973809Y-71699523D01*
X111211904Y-71699523D01*
X111307142Y-71651904D01*
X111354761Y-71604285D01*
X111402380Y-71509047D01*
X111402380Y-71223333D01*
X111354761Y-71128095D01*
X111307142Y-71080476D01*
X110402380Y-72032857D02*
X110402380Y-72651904D01*
X110783333Y-72318571D01*
X110783333Y-72461428D01*
X110830952Y-72556666D01*
X110878571Y-72604285D01*
X110973809Y-72651904D01*
X111211904Y-72651904D01*
X111307142Y-72604285D01*
X111354761Y-72556666D01*
X111402380Y-72461428D01*
X111402380Y-72175714D01*
X111354761Y-72080476D01*
X111307142Y-72032857D01*
X118052380Y-56007142D02*
X117576190Y-55673809D01*
X118052380Y-55435714D02*
X117052380Y-55435714D01*
X117052380Y-55816666D01*
X117100000Y-55911904D01*
X117147619Y-55959523D01*
X117242857Y-56007142D01*
X117385714Y-56007142D01*
X117480952Y-55959523D01*
X117528571Y-55911904D01*
X117576190Y-55816666D01*
X117576190Y-55435714D01*
X117052380Y-56340476D02*
X117052380Y-56959523D01*
X117433333Y-56626190D01*
X117433333Y-56769047D01*
X117480952Y-56864285D01*
X117528571Y-56911904D01*
X117623809Y-56959523D01*
X117861904Y-56959523D01*
X117957142Y-56911904D01*
X118004761Y-56864285D01*
X118052380Y-56769047D01*
X118052380Y-56483333D01*
X118004761Y-56388095D01*
X117957142Y-56340476D01*
X117052380Y-57292857D02*
X117052380Y-57959523D01*
X118052380Y-57530952D01*
X121202380Y-60682142D02*
X120726190Y-60348809D01*
X121202380Y-60110714D02*
X120202380Y-60110714D01*
X120202380Y-60491666D01*
X120250000Y-60586904D01*
X120297619Y-60634523D01*
X120392857Y-60682142D01*
X120535714Y-60682142D01*
X120630952Y-60634523D01*
X120678571Y-60586904D01*
X120726190Y-60491666D01*
X120726190Y-60110714D01*
X120202380Y-61015476D02*
X120202380Y-61634523D01*
X120583333Y-61301190D01*
X120583333Y-61444047D01*
X120630952Y-61539285D01*
X120678571Y-61586904D01*
X120773809Y-61634523D01*
X121011904Y-61634523D01*
X121107142Y-61586904D01*
X121154761Y-61539285D01*
X121202380Y-61444047D01*
X121202380Y-61158333D01*
X121154761Y-61063095D01*
X121107142Y-61015476D01*
X120630952Y-62205952D02*
X120583333Y-62110714D01*
X120535714Y-62063095D01*
X120440476Y-62015476D01*
X120392857Y-62015476D01*
X120297619Y-62063095D01*
X120250000Y-62110714D01*
X120202380Y-62205952D01*
X120202380Y-62396428D01*
X120250000Y-62491666D01*
X120297619Y-62539285D01*
X120392857Y-62586904D01*
X120440476Y-62586904D01*
X120535714Y-62539285D01*
X120583333Y-62491666D01*
X120630952Y-62396428D01*
X120630952Y-62205952D01*
X120678571Y-62110714D01*
X120726190Y-62063095D01*
X120821428Y-62015476D01*
X121011904Y-62015476D01*
X121107142Y-62063095D01*
X121154761Y-62110714D01*
X121202380Y-62205952D01*
X121202380Y-62396428D01*
X121154761Y-62491666D01*
X121107142Y-62539285D01*
X121011904Y-62586904D01*
X120821428Y-62586904D01*
X120726190Y-62539285D01*
X120678571Y-62491666D01*
X120630952Y-62396428D01*
X127686380Y-80487142D02*
X127210190Y-80153809D01*
X127686380Y-79915714D02*
X126686380Y-79915714D01*
X126686380Y-80296666D01*
X126734000Y-80391904D01*
X126781619Y-80439523D01*
X126876857Y-80487142D01*
X127019714Y-80487142D01*
X127114952Y-80439523D01*
X127162571Y-80391904D01*
X127210190Y-80296666D01*
X127210190Y-79915714D01*
X126686380Y-80820476D02*
X126686380Y-81439523D01*
X127067333Y-81106190D01*
X127067333Y-81249047D01*
X127114952Y-81344285D01*
X127162571Y-81391904D01*
X127257809Y-81439523D01*
X127495904Y-81439523D01*
X127591142Y-81391904D01*
X127638761Y-81344285D01*
X127686380Y-81249047D01*
X127686380Y-80963333D01*
X127638761Y-80868095D01*
X127591142Y-80820476D01*
X127686380Y-81915714D02*
X127686380Y-82106190D01*
X127638761Y-82201428D01*
X127591142Y-82249047D01*
X127448285Y-82344285D01*
X127257809Y-82391904D01*
X126876857Y-82391904D01*
X126781619Y-82344285D01*
X126734000Y-82296666D01*
X126686380Y-82201428D01*
X126686380Y-82010952D01*
X126734000Y-81915714D01*
X126781619Y-81868095D01*
X126876857Y-81820476D01*
X127114952Y-81820476D01*
X127210190Y-81868095D01*
X127257809Y-81915714D01*
X127305428Y-82010952D01*
X127305428Y-82201428D01*
X127257809Y-82296666D01*
X127210190Y-82344285D01*
X127114952Y-82391904D01*
X121475713Y-56017142D02*
X120999523Y-55683809D01*
X121475713Y-55445714D02*
X120475713Y-55445714D01*
X120475713Y-55826666D01*
X120523333Y-55921904D01*
X120570952Y-55969523D01*
X120666190Y-56017142D01*
X120809047Y-56017142D01*
X120904285Y-55969523D01*
X120951904Y-55921904D01*
X120999523Y-55826666D01*
X120999523Y-55445714D01*
X120809047Y-56874285D02*
X121475713Y-56874285D01*
X120428094Y-56636190D02*
X121142380Y-56398095D01*
X121142380Y-57017142D01*
X120475713Y-57588571D02*
X120475713Y-57683809D01*
X120523333Y-57779047D01*
X120570952Y-57826666D01*
X120666190Y-57874285D01*
X120856666Y-57921904D01*
X121094761Y-57921904D01*
X121285237Y-57874285D01*
X121380475Y-57826666D01*
X121428094Y-57779047D01*
X121475713Y-57683809D01*
X121475713Y-57588571D01*
X121428094Y-57493333D01*
X121380475Y-57445714D01*
X121285237Y-57398095D01*
X121094761Y-57350476D01*
X120856666Y-57350476D01*
X120666190Y-57398095D01*
X120570952Y-57445714D01*
X120523333Y-57493333D01*
X120475713Y-57588571D01*
X124802379Y-56017142D02*
X124326189Y-55683809D01*
X124802379Y-55445714D02*
X123802379Y-55445714D01*
X123802379Y-55826666D01*
X123849999Y-55921904D01*
X123897618Y-55969523D01*
X123992856Y-56017142D01*
X124135713Y-56017142D01*
X124230951Y-55969523D01*
X124278570Y-55921904D01*
X124326189Y-55826666D01*
X124326189Y-55445714D01*
X124135713Y-56874285D02*
X124802379Y-56874285D01*
X123754760Y-56636190D02*
X124469046Y-56398095D01*
X124469046Y-57017142D01*
X124802379Y-57921904D02*
X124802379Y-57350476D01*
X124802379Y-57636190D02*
X123802379Y-57636190D01*
X123945237Y-57540952D01*
X124040475Y-57445714D01*
X124088094Y-57350476D01*
X128129045Y-56017142D02*
X127652855Y-55683809D01*
X128129045Y-55445714D02*
X127129045Y-55445714D01*
X127129045Y-55826666D01*
X127176665Y-55921904D01*
X127224284Y-55969523D01*
X127319522Y-56017142D01*
X127462379Y-56017142D01*
X127557617Y-55969523D01*
X127605236Y-55921904D01*
X127652855Y-55826666D01*
X127652855Y-55445714D01*
X127462379Y-56874285D02*
X128129045Y-56874285D01*
X127081426Y-56636190D02*
X127795712Y-56398095D01*
X127795712Y-57017142D01*
X127224284Y-57350476D02*
X127176665Y-57398095D01*
X127129045Y-57493333D01*
X127129045Y-57731428D01*
X127176665Y-57826666D01*
X127224284Y-57874285D01*
X127319522Y-57921904D01*
X127414760Y-57921904D01*
X127557617Y-57874285D01*
X128129045Y-57302857D01*
X128129045Y-57921904D01*
X131455711Y-56017142D02*
X130979521Y-55683809D01*
X131455711Y-55445714D02*
X130455711Y-55445714D01*
X130455711Y-55826666D01*
X130503331Y-55921904D01*
X130550950Y-55969523D01*
X130646188Y-56017142D01*
X130789045Y-56017142D01*
X130884283Y-55969523D01*
X130931902Y-55921904D01*
X130979521Y-55826666D01*
X130979521Y-55445714D01*
X130789045Y-56874285D02*
X131455711Y-56874285D01*
X130408092Y-56636190D02*
X131122378Y-56398095D01*
X131122378Y-57017142D01*
X130455711Y-57302857D02*
X130455711Y-57921904D01*
X130836664Y-57588571D01*
X130836664Y-57731428D01*
X130884283Y-57826666D01*
X130931902Y-57874285D01*
X131027140Y-57921904D01*
X131265235Y-57921904D01*
X131360473Y-57874285D01*
X131408092Y-57826666D01*
X131455711Y-57731428D01*
X131455711Y-57445714D01*
X131408092Y-57350476D01*
X131360473Y-57302857D01*
X134782377Y-56017142D02*
X134306187Y-55683809D01*
X134782377Y-55445714D02*
X133782377Y-55445714D01*
X133782377Y-55826666D01*
X133829997Y-55921904D01*
X133877616Y-55969523D01*
X133972854Y-56017142D01*
X134115711Y-56017142D01*
X134210949Y-55969523D01*
X134258568Y-55921904D01*
X134306187Y-55826666D01*
X134306187Y-55445714D01*
X134115711Y-56874285D02*
X134782377Y-56874285D01*
X133734758Y-56636190D02*
X134449044Y-56398095D01*
X134449044Y-57017142D01*
X134115711Y-57826666D02*
X134782377Y-57826666D01*
X133734758Y-57588571D02*
X134449044Y-57350476D01*
X134449044Y-57969523D01*
X120902380Y-80487142D02*
X120426190Y-80153809D01*
X120902380Y-79915714D02*
X119902380Y-79915714D01*
X119902380Y-80296666D01*
X119950000Y-80391904D01*
X119997619Y-80439523D01*
X120092857Y-80487142D01*
X120235714Y-80487142D01*
X120330952Y-80439523D01*
X120378571Y-80391904D01*
X120426190Y-80296666D01*
X120426190Y-79915714D01*
X120235714Y-81344285D02*
X120902380Y-81344285D01*
X119854761Y-81106190D02*
X120569047Y-80868095D01*
X120569047Y-81487142D01*
X119902380Y-82344285D02*
X119902380Y-81868095D01*
X120378571Y-81820476D01*
X120330952Y-81868095D01*
X120283333Y-81963333D01*
X120283333Y-82201428D01*
X120330952Y-82296666D01*
X120378571Y-82344285D01*
X120473809Y-82391904D01*
X120711904Y-82391904D01*
X120807142Y-82344285D01*
X120854761Y-82296666D01*
X120902380Y-82201428D01*
X120902380Y-81963333D01*
X120854761Y-81868095D01*
X120807142Y-81820476D01*
X116622857Y-137012380D02*
X116956190Y-136536190D01*
X117194285Y-137012380D02*
X117194285Y-136012380D01*
X116813333Y-136012380D01*
X116718095Y-136060000D01*
X116670476Y-136107619D01*
X116622857Y-136202857D01*
X116622857Y-136345714D01*
X116670476Y-136440952D01*
X116718095Y-136488571D01*
X116813333Y-136536190D01*
X117194285Y-136536190D01*
X115718095Y-136012380D02*
X116194285Y-136012380D01*
X116241904Y-136488571D01*
X116194285Y-136440952D01*
X116099047Y-136393333D01*
X115860952Y-136393333D01*
X115765714Y-136440952D01*
X115718095Y-136488571D01*
X115670476Y-136583809D01*
X115670476Y-136821904D01*
X115718095Y-136917142D01*
X115765714Y-136964761D01*
X115860952Y-137012380D01*
X116099047Y-137012380D01*
X116194285Y-136964761D01*
X116241904Y-136917142D01*
X115051428Y-136012380D02*
X114956190Y-136012380D01*
X114860952Y-136060000D01*
X114813333Y-136107619D01*
X114765714Y-136202857D01*
X114718095Y-136393333D01*
X114718095Y-136631428D01*
X114765714Y-136821904D01*
X114813333Y-136917142D01*
X114860952Y-136964761D01*
X114956190Y-137012380D01*
X115051428Y-137012380D01*
X115146666Y-136964761D01*
X115194285Y-136917142D01*
X115241904Y-136821904D01*
X115289523Y-136631428D01*
X115289523Y-136393333D01*
X115241904Y-136202857D01*
X115194285Y-136107619D01*
X115146666Y-136060000D01*
X115051428Y-136012380D01*
X120952857Y-134152380D02*
X121286190Y-133676190D01*
X121524285Y-134152380D02*
X121524285Y-133152380D01*
X121143333Y-133152380D01*
X121048095Y-133200000D01*
X121000476Y-133247619D01*
X120952857Y-133342857D01*
X120952857Y-133485714D01*
X121000476Y-133580952D01*
X121048095Y-133628571D01*
X121143333Y-133676190D01*
X121524285Y-133676190D01*
X120048095Y-133152380D02*
X120524285Y-133152380D01*
X120571904Y-133628571D01*
X120524285Y-133580952D01*
X120429047Y-133533333D01*
X120190952Y-133533333D01*
X120095714Y-133580952D01*
X120048095Y-133628571D01*
X120000476Y-133723809D01*
X120000476Y-133961904D01*
X120048095Y-134057142D01*
X120095714Y-134104761D01*
X120190952Y-134152380D01*
X120429047Y-134152380D01*
X120524285Y-134104761D01*
X120571904Y-134057142D01*
X119048095Y-134152380D02*
X119619523Y-134152380D01*
X119333809Y-134152380D02*
X119333809Y-133152380D01*
X119429047Y-133295238D01*
X119524285Y-133390476D01*
X119619523Y-133438095D01*
X107967857Y-66097380D02*
X108301190Y-65621190D01*
X108539285Y-66097380D02*
X108539285Y-65097380D01*
X108158333Y-65097380D01*
X108063095Y-65145000D01*
X108015476Y-65192619D01*
X107967857Y-65287857D01*
X107967857Y-65430714D01*
X108015476Y-65525952D01*
X108063095Y-65573571D01*
X108158333Y-65621190D01*
X108539285Y-65621190D01*
X107063095Y-65097380D02*
X107539285Y-65097380D01*
X107586904Y-65573571D01*
X107539285Y-65525952D01*
X107444047Y-65478333D01*
X107205952Y-65478333D01*
X107110714Y-65525952D01*
X107063095Y-65573571D01*
X107015476Y-65668809D01*
X107015476Y-65906904D01*
X107063095Y-66002142D01*
X107110714Y-66049761D01*
X107205952Y-66097380D01*
X107444047Y-66097380D01*
X107539285Y-66049761D01*
X107586904Y-66002142D01*
X106634523Y-65192619D02*
X106586904Y-65145000D01*
X106491666Y-65097380D01*
X106253571Y-65097380D01*
X106158333Y-65145000D01*
X106110714Y-65192619D01*
X106063095Y-65287857D01*
X106063095Y-65383095D01*
X106110714Y-65525952D01*
X106682142Y-66097380D01*
X106063095Y-66097380D01*
X86947380Y-66707142D02*
X86471190Y-66373809D01*
X86947380Y-66135714D02*
X85947380Y-66135714D01*
X85947380Y-66516666D01*
X85995000Y-66611904D01*
X86042619Y-66659523D01*
X86137857Y-66707142D01*
X86280714Y-66707142D01*
X86375952Y-66659523D01*
X86423571Y-66611904D01*
X86471190Y-66516666D01*
X86471190Y-66135714D01*
X85947380Y-67611904D02*
X85947380Y-67135714D01*
X86423571Y-67088095D01*
X86375952Y-67135714D01*
X86328333Y-67230952D01*
X86328333Y-67469047D01*
X86375952Y-67564285D01*
X86423571Y-67611904D01*
X86518809Y-67659523D01*
X86756904Y-67659523D01*
X86852142Y-67611904D01*
X86899761Y-67564285D01*
X86947380Y-67469047D01*
X86947380Y-67230952D01*
X86899761Y-67135714D01*
X86852142Y-67088095D01*
X85947380Y-67992857D02*
X85947380Y-68611904D01*
X86328333Y-68278571D01*
X86328333Y-68421428D01*
X86375952Y-68516666D01*
X86423571Y-68564285D01*
X86518809Y-68611904D01*
X86756904Y-68611904D01*
X86852142Y-68564285D01*
X86899761Y-68516666D01*
X86947380Y-68421428D01*
X86947380Y-68135714D01*
X86899761Y-68040476D01*
X86852142Y-67992857D01*
X157392380Y-143508095D02*
X158201904Y-143508095D01*
X158297142Y-143555714D01*
X158344761Y-143603333D01*
X158392380Y-143698571D01*
X158392380Y-143889047D01*
X158344761Y-143984285D01*
X158297142Y-144031904D01*
X158201904Y-144079523D01*
X157392380Y-144079523D01*
X158392380Y-145079523D02*
X158392380Y-144508095D01*
X158392380Y-144793809D02*
X157392380Y-144793809D01*
X157535238Y-144698571D01*
X157630476Y-144603333D01*
X157678095Y-144508095D01*
X92241904Y-74442380D02*
X92241904Y-75251904D01*
X92194285Y-75347142D01*
X92146666Y-75394761D01*
X92051428Y-75442380D01*
X91860952Y-75442380D01*
X91765714Y-75394761D01*
X91718095Y-75347142D01*
X91670476Y-75251904D01*
X91670476Y-74442380D01*
X91241904Y-74537619D02*
X91194285Y-74490000D01*
X91099047Y-74442380D01*
X90860952Y-74442380D01*
X90765714Y-74490000D01*
X90718095Y-74537619D01*
X90670476Y-74632857D01*
X90670476Y-74728095D01*
X90718095Y-74870952D01*
X91289523Y-75442380D01*
X90670476Y-75442380D01*
X141742380Y-143508095D02*
X142551904Y-143508095D01*
X142647142Y-143555714D01*
X142694761Y-143603333D01*
X142742380Y-143698571D01*
X142742380Y-143889047D01*
X142694761Y-143984285D01*
X142647142Y-144031904D01*
X142551904Y-144079523D01*
X141742380Y-144079523D01*
X142075714Y-144984285D02*
X142742380Y-144984285D01*
X141694761Y-144746190D02*
X142409047Y-144508095D01*
X142409047Y-145127142D01*
M02*
